<?xml version="1.0" encoding="utf-8"?>
<!-- Generator: Adobe Illustrator 21.1.0, SVG Export Plug-In . SVG Version: 6.00 Build 0)  -->
<svg version="1.1" id="Layer_1" xmlns="http://www.w3.org/2000/svg" xmlns:xlink="http://www.w3.org/1999/xlink" x="0px" y="0px"
	 viewBox="0 0 145.7 1203" style="enable-background:new 0 0 145.7 1203;" xml:space="preserve">
<style type="text/css">
	.st0{fill:#FFFFFF;}
</style>
<g>
	<path class="st0" d="M115.6,1087.4L45,1098.1l70.4,32.3v5.8L45,1168.4l70.6,10.7v23.9L7.4,1186v-23.5l66.4-29.3l-66.4-29.4v-23.5
		l108.3-16.8V1087.4z"/>
	<path class="st0" d="M73.6,943.8c2.2,0,4.4,0.2,6.6,0.4v63.2c11.4-2,17.7-9.5,17.7-20.4c0-7.8-3.7-14.3-9.7-17.7v-23.7
		c18.2,6.1,29.8,22.1,29.8,41.4c0,24.7-19.1,43.3-44.1,43.3c-25.2,0-44.1-18.5-44.1-43.3C29.8,961.4,49.5,943.8,73.6,943.8
		L73.6,943.8z M64.8,1006.9v-40.5C54.6,969.6,49,976.9,49,987C49,997.1,54.9,1004.2,64.8,1006.9z"/>
	<path class="st0" d="M95.5,854.7h20.1v16c0,18.4-11.3,29.7-29.8,29.7H50.3v15.1h-4.9l-35.1-33v-4.3h21.8v-23h18.2v22.7h32.5
		c8.1,0,12.7-4.6,12.7-12.9V854.7z"/>
	<path class="st0" d="M32,731.9h83.5v17.7l-7.5,1.9c6.3,7.2,10,16.5,10,27.1c0,25.1-19,43.8-44.2,43.8c-25.2,0-44-18.7-44-43.8
		c0-10.7,3.8-20.2,10.2-27.4l-8-2.4L32,731.9z M73.8,754c-13.1,0-22.9,9.6-22.9,22.7s9.8,22.8,22.9,22.8s22.9-9.6,22.9-22.8
		S86.9,754,73.8,754z"/>
	<path class="st0" d="M44.6,606.5c21.3,0,37.2,16.5,37.2,38.2v18.2h33.8v23.4H7.4v-41.7C7.4,623,23.2,606.5,44.6,606.5z M44.6,630.2
		c-9,0-15.5,6.2-15.5,15.5v17.2h31.1v-17.2C60.1,636.4,53.6,630.2,44.6,630.2z"/>
	<path class="st0" d="M31.7,518.4H53v9.8c0,12.7,5.6,17.8,19.3,17.8h43.4v22.6H32.1V554l10.2-4c-7.4-5.9-10.7-13.5-10.7-24.2V518.4z
		"/>
	<path class="st0" d="M73.9,489.7c-25.3,0-44.1-19.3-44.1-45.1c0-25.7,18.8-45.1,44.1-45.1c25.2,0,44.1,19.4,44.1,45.1
		C118,470.5,99.1,489.7,73.9,489.7z M73.9,422.3c-13.5,0-22.9,9.2-22.9,22.3c0,13,9.4,22.3,22.9,22.3c13.5,0,22.9-9.2,22.9-22.3
		C96.8,431.6,87.4,422.3,73.9,422.3z"/>
	<path class="st0" d="M0,358.1v-22.5h21v22.5H0z M125,377.8v-7.3c0-8.1-4.2-12.3-12.3-12.3H32.1v-22.6h82.3
		c18.4,0,31.3,12.9,31.3,31.3v10.8L125,377.8z"/>
	<path class="st0" d="M73.6,209.7c2.2,0,4.4,0.2,6.6,0.4v63.2c11.4-2,17.7-9.5,17.7-20.4c0-7.8-3.7-14.3-9.7-17.7v-23.7
		c18.2,6.1,29.8,22.1,29.8,41.4c0,24.7-19.1,43.3-44.1,43.3c-25.2,0-44.1-18.5-44.1-43.3C29.8,227.3,49.5,209.7,73.6,209.7
		L73.6,209.7z M64.8,272.8v-40.5C54.6,235.5,49,242.8,49,253C49,263,54.9,270.1,64.8,272.8z"/>
	<path class="st0" d="M118,131.6c0,25.1-19.3,44.3-44.4,44.3c-25,0-43.9-19.1-43.9-44.5c0-21.6,13.7-38.4,34.3-42.5v22.4
		c-8.2,3.7-13,11.2-13,20.2c0,12.2,9.8,21.5,22.8,21.5c12.9,0,23-9.4,23-21.5c0-9.1-5.1-16.3-14-20.1V88.7
		C103.8,92.7,118,109.8,118,131.6L118,131.6z"/>
	<path class="st0" d="M95.5,0h20.1v16c0,18.4-11.3,29.7-29.8,29.7H50.3v15.1h-4.9l-35.1-33v-4.3h21.8v-23h18.2v22.7h32.5
		c8.1,0,12.7-4.6,12.7-12.9V0z"/>
</g>
</svg>
