<?xml version="1.0" encoding="utf-8"?>
<!-- Generator: Adobe Illustrator 21.1.0, SVG Export Plug-In . SVG Version: 6.00 Build 0)  -->
<svg version="1.1" id="OBJECTS" xmlns="http://www.w3.org/2000/svg" xmlns:xlink="http://www.w3.org/1999/xlink" x="0px" y="0px"
	 viewBox="0 0 3562 2202" style="enable-background:new 0 0 3562 2202;" xml:space="preserve">
<style type="text/css">
	.st0{fill:#FFE045;}
	.st1{fill:#363636;}
</style>
<g id="list">
	<path class="st0" d="M997.9,480.7h-96c-5.5,0-10,4.5-10,10s4.5,10,10,10h96c5.5,0,10-4.5,10-10S1003.4,480.7,997.9,480.7z"/>
	<path class="st0" d="M1204.9,500.7c5.5,0,10-4.5,10-10s-4.5-10-10-10h-175c-5.5,0-10,4.5-10,10s4.5,10,10,10H1204.9z"/>
	<path class="st0" d="M614.9,668.7h99c5.5,0,10-4.5,10-10s-4.5-10-10-10h-99c-5.5,0-10,4.5-10,10S609.4,668.7,614.9,668.7z"/>
	<path class="st0" d="M1381.9,731.7h-306c-5.5,0-10,4.5-10,10s4.5,10,10,10h306c5.5,0,10-4.5,10-10S1387.4,731.7,1381.9,731.7z"/>
	<path class="st0" d="M990.9,823.7c0,5.5,4.5,10,10,10h101c5.5,0,10-4.5,10-10s-4.5-10-10-10h-101
		C995.4,813.7,990.9,818.2,990.9,823.7z"/>
	<path class="st0" d="M1035.9,1008c0,5.5,4.5,10,10,10h105c5.5,0,10-4.5,10-10s-4.5-10-10-10h-105
		C1040.4,998,1035.9,1002.5,1035.9,1008z"/>
	<path class="st0" d="M614.9,1183h176c5.5,0,10-4.5,10-10s-4.5-10-10-10h-176c-5.5,0-10,4.5-10,10S609.4,1183,614.9,1183z"/>
	<path class="st0" d="M809.9,1173c0,5.5,4.5,10,10,10h210c5.5,0,10-4.5,10-10s-4.5-10-10-10h-210
		C814.4,1163,809.9,1167.5,809.9,1173z"/>
	<path class="st0" d="M1285.9,1163h-214c-5.5,0-10,4.5-10,10s4.5,10,10,10h214c5.5,0,10-4.5,10-10S1291.4,1163,1285.9,1163z"/>
	<path class="st0" d="M800.9,1259c0-5.5-4.5-10-10-10h-176c-5.5,0-10,4.5-10,10s4.5,10,10,10h176
		C796.4,1269,800.9,1264.6,800.9,1259z"/>
	<path class="st0" d="M1058.9,1331.2h-49c-5.5,0-10,4.5-10,10s4.5,10,10,10h49c5.5,0,10-4.5,10-10S1064.4,1331.2,1058.9,1331.2z"/>
	<path class="st0" d="M1011.9,1414.2h-206c-5.5,0-10,4.5-10,10s4.5,10,10,10h206c5.5,0,10-4.5,10-10S1017.4,1414.2,1011.9,1414.2z"
		/>
	<path class="st0" d="M661.1,1486.2c-5.2-1.8-10.9,1.1-12.7,6.3l-36,107c-1.8,5.2,1.1,10.9,6.3,12.7c1.1,0.4,2.1,0.5,3.2,0.5
		c4.2,0,8.1-2.6,9.5-6.8l36-107C669.1,1493.7,666.3,1488,661.1,1486.2z"/>
	<path class="st0" d="M604.3,1513.6c-3.9-3.9-10.2-3.9-14.1,0l-30,30c-3.9,3.9-3.9,10.2,0,14.1l30,30c2,2,4.5,2.9,7.1,2.9
		s5.1-1,7.1-2.9c3.9-3.9,3.9-10.2,0-14.1l-22.9-22.9l22.9-22.9C608.2,1523.9,608.2,1517.5,604.3,1513.6z"/>
	<path class="st0" d="M691.3,1513.6c-3.9-3.9-10.2-3.9-14.1,0c-3.9,3.9-3.9,10.2,0,14.1l22.9,22.9l-22.9,22.9
		c-3.9,3.9-3.9,10.2,0,14.1c2,2,4.5,2.9,7.1,2.9s5.1-1,7.1-2.9l30-30c3.9-3.9,3.9-10.2,0-14.1L691.3,1513.6z"/>
	<path class="st0" d="M1418.1,163.2H318.5h-0.1h-0.3c-0.4,0-0.8,0-1.1,0c-0.4,0-0.7,0-1.1,0.1C249,164.7,195,219.7,195,286.9v98.4
		H10c-5.5,0-10,4.5-10,10v112.8c0,66.1,50.6,121.4,115.9,127.6c1,0.3,2.1,0.5,3.2,0.5c0.2,0,0.5,0,0.7,0c0,0,0.5,0,1.3-0.1
		c2.5,0.1,4.8,0.2,7.1,0.2h160.4c38.3,0,72.2-19.2,92.5-48.6l0.1,88.7l0.1,78l0.8,896c0,5.5,4.5,10,10,10l0,0c5.5,0,10-4.5,10-10
		l-0.8-896l-0.1-78l-0.3-147.7c0-0.4,0-0.8-0.1-1.1c0-1.2,0.1-2.5,0.1-3.7V269.5c0.1-4.3,1.1-53.2-27.3-83.3c-0.9-1-1.9-1.9-2.9-2.9
		H1418c75,0,135.9,61,135.9,135.9v357.2v78v573.5c0,5.5,4.5,10,10,10s10-4.5,10-10V754.4v-78V319.2
		C1574,233.2,1504.1,163.2,1418.1,163.2z M19.9,508.1V405.3h175V553c0,51.4-60.1,61.4-74.4,63C64,612.1,19.9,564.8,19.9,508.1z
		 M380.9,268.8c0,0.1,0,0.3,0,0.4v254.6c0,51-41.5,92.4-92.4,92.4H180c22.9-15,34.9-36.7,34.9-63.3V395.2c0-0.2,0-0.4,0-0.6V286.8
		c0-57,46.4-103.5,103.3-103.6c17.2,0.3,30.5,5.7,40.8,16.5C382.3,224.4,380.9,268.4,380.9,268.8z"/>
</g>
<g id="monitor">
	<path class="st1" d="M1904.9,707.2c-10.4-34.1-32-40.1-48.2-40.1c-5.5,0-9.9,3.4-9.9,8.9s4.5,10,10,10c28.2,0,34.2,38.2,34.2,70.3
		v571.5c0,5.5,4.5,10,10,10s10-4.5,10-10V756.3C1910.9,748.3,1910.9,726.9,1904.9,707.2z"/>
	<path class="st1" d="M1573.9,686.4h89.7c5.5,0,10-4.5,10-10s-4.5-10-10-10h-89.7V686.4z"/>
	<path class="st1" d="M104.9,1738.3v124c0,49.6,40.4,90,90,90h624.6l-35.8,165.1h-83.9c-17.3,0-31.4,14.1-31.4,31.4v21.8
		c0,17.3,14.1,31.4,31.4,31.4h602.3c17.3,0,31.4-14.1,31.4-31.4v-21.8c0-17.3-14.1-31.4-31.4-31.4h-72.5c0-0.1,0-0.1,0-0.2
		l-45.7-165h637c49.6,0,90-40.4,90-90v-130v-35.8c0-5.4-4.5-9.9-10-9.9s-10,4.5-10,10v25.8h-1766v-966c0-38.6,31.4-70,70-70h186.4
		l-0.1-20H194.9c-49.6,0-90,40.4-90,90v970V1738.3z M1302,2137.5c6.3,0,11.4,5.1,11.4,11.4v21.8c0,6.3-5.1,11.4-11.4,11.4H699.7
		c-6.3,0-11.4-5.1-11.4-11.4v-21.8c0-6.3,5.1-11.4,11.4-11.4H1302z M1208.8,2117.5H804.1l35.8-165.1H1163L1208.8,2117.5z
		 M1890.9,1862.4c0,38.6-31.4,70-70,70h-646.5c-2-0.9-4.4-1.1-6.7-0.5c-0.5,0.1-0.9,0.3-1.3,0.5H194.9c-38.6,0-70-31.4-70-70v-120
		h1766V1862.4z"/>
	<path class="st1" d="M1573.9,764.4h90.8h7.8h136.4v563.5c0,5.5,4.5,10,10,10s10-4.5,10-10V754.4c0-5.5-4.5-10-10-10h-146.4h-7.8
		h-90.8L1573.9,764.4z"/>
	<path class="st1" d="M381.3,744.4H188.9c-5.5,0-10,4.5-10,10v896c0,5.5,4.5,10,10,10h203h1094.5c5.5,0,10-4.5,10-10s-4.5-10-10-10
		H391.9h-193v-876h182.4L381.3,744.4z"/>
</g>
<g id="circle_1_">
	<path class="st1" d="M1007.9,1898.4c-30.3,0-55-24.7-55-55s24.7-55,55-55c30.3,0,55,24.7,55,55S1038.2,1898.4,1007.9,1898.4z
		 M1007.9,1808.4c-19.3,0-35,15.7-35,35s15.7,35,35,35c19.3,0,35-15.7,35-35S1027.2,1808.4,1007.9,1808.4z"/>
</g>
<g id="text_list">
	<g>
		<path class="st1" d="M859.9,500.7h-245c-5.5,0-10-4.5-10-10s4.5-10,10-10h245c5.5,0,10,4.5,10,10S865.4,500.7,859.9,500.7z"/>
	</g>
	<g>
		<path class="st1" d="M912.9,584.7h-298c-5.5,0-10-4.5-10-10s4.5-10,10-10h298c5.5,0,10,4.5,10,10S918.4,584.7,912.9,584.7z"/>
	</g>
	<g>
		<path class="st1" d="M1084.9,584.7h-136c-5.5,0-10-4.5-10-10s4.5-10,10-10h136c5.5,0,10,4.5,10,10S1090.4,584.7,1084.9,584.7z"/>
	</g>
	<g>
		<path class="st1" d="M1385.9,584.7h-260c-5.5,0-10-4.5-10-10s4.5-10,10-10h260c5.5,0,10,4.5,10,10S1391.4,584.7,1385.9,584.7z"/>
	</g>
	<g>
		<path class="st1" d="M1152.9,668.7h-408c-5.5,0-10-4.5-10-10s4.5-10,10-10h408c5.5,0,10,4.5,10,10S1158.4,668.7,1152.9,668.7z"/>
	</g>
	<g>
		<path class="st1" d="M859.9,751.7h-245c-5.5,0-10-4.5-10-10s4.5-10,10-10h245c5.5,0,10,4.5,10,10S865.4,751.7,859.9,751.7z"/>
	</g>
	<g>
		<path class="st1" d="M1046.9,751.7h-150c-5.5,0-10-4.5-10-10s4.5-10,10-10h150c5.5,0,10,4.5,10,10S1052.4,751.7,1046.9,751.7z"/>
	</g>
	<g>
		<path class="st1" d="M970.9,833.7h-356c-5.5,0-10-4.5-10-10s4.5-10,10-10h356c5.5,0,10,4.5,10,10S976.4,833.7,970.9,833.7z"/>
	</g>
	<g>
		<path class="st1" d="M770.9,922.7h-223c-5.5,0-10-4.5-10-10s4.5-10,10-10h223c5.5,0,10,4.5,10,10S776.4,922.7,770.9,922.7z"/>
	</g>
	<g>
		<path class="st1" d="M991.9,921.7h-183c-5.5,0-10-4.5-10-10s4.5-10,10-10h183c5.5,0,10,4.5,10,10S997.4,921.7,991.9,921.7z"/>
	</g>
	<g>
		<path class="st1" d="M614.9,1018.7c-5.5,0-10-4.5-10-10s4.5-10,10-10l394-0.7l0,0c5.5,0,10,4.5,10,10s-4.5,10-10,10L614.9,1018.7
			L614.9,1018.7z"/>
	</g>
	<g>
		<path class="st1" d="M913.9,1102.2h-299c-5.5,0-10-4.5-10-10s4.5-10,10-10h299c5.5,0,10,4.5,10,10S919.4,1102.2,913.9,1102.2z"/>
	</g>
	<g>
		<path class="st1" d="M1155.9,1102.2h-205c-5.5,0-10-4.5-10-10s4.5-10,10-10h205c5.5,0,10,4.5,10,10S1161.4,1102.2,1155.9,1102.2z"
			/>
	</g>
	<g>
		<path class="st1" d="M1043.9,1269h-219c-5.5,0-10-4.5-10-10s4.5-10,10-10h219c5.5,0,10,4.5,10,10S1049.4,1269,1043.9,1269z"/>
	</g>
	<g>
		<path class="st1" d="M1421.9,1269h-344c-5.5,0-10-4.5-10-10s4.5-10,10-10h344c5.5,0,10,4.5,10,10S1427.4,1269,1421.9,1269z"/>
	</g>
	<g>
		<path class="st1" d="M967.9,1351.2h-353c-5.5,0-10-4.5-10-10s4.5-10,10-10h353c5.5,0,10,4.5,10,10S973.4,1351.2,967.9,1351.2z"/>
	</g>
	<g>
		<path class="st1" d="M778.9,1434.2h-231c-5.5,0-10-4.5-10-10s4.5-10,10-10h231c5.5,0,10,4.5,10,10S784.4,1434.2,778.9,1434.2z"/>
	</g>
</g>
<path class="st1" d="M2263.5,1535.3h-362.6h-82h-60.5c-5.5,0-10,4.5-10,10s4.5,10,10,10h60.5h82h362.6c5.5,0,10-4.5,10-10
	S2269,1535.3,2263.5,1535.3z"/>
<g id="cart">
	<path class="st1" d="M2312.4,1317.8h-411.5h-82H1564h-39.6c-26.5,0-48,21.5-48,48v284.5v8.2c0,26.5,21.5,48,48,48h376.5h411.5
		c26.5,0,48-21.5,48-48v-292.7C2360.4,1339.4,2338.8,1317.8,2312.4,1317.8z M2340.4,1658.5c0,15.4-12.6,28-28,28h-411.5h-376.5
		c-15.4,0-28-12.6-28-28v-8.2v-284.5c0-15.4,12.6-28,28-28h39.6h254.9h82h411.5c15.4,0,28,12.6,28,28V1658.5z"/>
	<path class="st1" d="M2116.4,1593.8h-215.5h-82h-60.5c-5.5,0-10,4.5-10,10s4.5,10,10,10h60.5h82h215.5c5.5,0,10-4.5,10-10
		S2121.9,1593.8,2116.4,1593.8z"/>
</g>
<g id="cart_field">
	<path class="st0" d="M1758.4,1437.8h60.5h82h93.5c5.5,0,10-4.5,10-10s-4.5-10-10-10h-93.5h-82h-60.5c-5.5,0-10,4.5-10,10
		S1752.8,1437.8,1758.4,1437.8z"/>
	<path class="st0" d="M2116.4,1479.8h-215.5h-82h-60.5c-5.5,0-10,4.5-10,10s4.5,10,10,10h60.5h82h215.5c5.5,0,10-4.5,10-10
		S2121.9,1479.8,2116.4,1479.8z"/>
	<path class="st0" d="M1684.7,1374.8H1578c-10.9,0-20.4,7-23.6,17.4c-0.7,2.3-1.1,4.8-1.1,7.2v106.7c0,2.5,0.4,4.9,1.1,7.2l0,0
		c3.2,10.4,12.7,17.4,23.6,17.4h106.7c13.6,0,24.7-11.1,24.7-24.7v-106.7C1709.4,1385.9,1698.3,1374.8,1684.7,1374.8z
		 M1689.4,1506.2c0,2.6-2.1,4.7-4.7,4.7H1578c-2,0-3.9-1.4-4.5-3.3c-0.1-0.4-0.2-0.9-0.2-1.4v-106.7c0-0.5,0.1-0.9,0.2-1.4
		c0.6-1.9,2.4-3.3,4.5-3.3h106.7c2.6,0,4.7,2.1,4.7,4.7L1689.4,1506.2L1689.4,1506.2z"/>
</g>
<path class="st1" d="M2261.7,1045.3h-17.3c-1.2-3.4-2.6-6.8-4.2-10.1l12.3-12.3c2.8-2.8,4.4-6.6,4.4-10.6s-1.6-7.8-4.4-10.6
	l-35.7-35.7c-2.8-2.8-6.6-4.4-10.6-4.4s-7.8,1.6-10.6,4.4l-12.3,12.3c-3.3-1.5-6.6-2.9-10.1-4.2v-17.4c0-8.3-6.7-15-15-15h-50.5
	c-8.3,0-15,6.7-15,15V974c-3.4,1.2-6.8,2.6-10.1,4.2l-12.3-12.3c-2.8-2.8-6.6-4.4-10.6-4.4s-7.8,1.6-10.6,4.4l-35.7,35.7
	c-2.8,2.8-4.4,6.6-4.4,10.6s1.6,7.8,4.4,10.6l12.3,12.3c-1.5,3.3-2.9,6.6-4.2,10.1h-17.3c-8.3,0-15,6.7-15,15v50.5
	c0,8.3,6.7,15,15,15h17.3c1.2,3.4,2.6,6.8,4.2,10.1l-12.3,12.3c-2.8,2.8-4.4,6.6-4.4,10.6s1.6,7.8,4.4,10.6l35.7,35.7
	c2.8,2.8,6.6,4.4,10.6,4.4s7.8-1.6,10.6-4.4l12.3-12.3c3.3,1.5,6.6,2.9,10.1,4.2v17.3c0,8.3,6.7,15,15,15h50.5c8.3,0,15-6.7,15-15
	v-17.3c3.4-1.2,6.8-2.6,10.1-4.2l12.3,12.3c2.8,2.8,6.6,4.4,10.6,4.4s7.8-1.6,10.6-4.4l35.7-35.7c2.8-2.8,4.4-6.6,4.4-10.6
	s-1.6-7.8-4.4-10.6l-12.3-12.3c1.5-3.3,2.9-6.6,4.2-10.1h17.3c8.3,0,15-6.7,15-15v-50.5C2276.8,1052,2270,1045.3,2261.7,1045.3z
	 M2256.8,1105.8h-19.6h-0.1c-0.2,0-0.4,0-0.6,0c-0.1,0-0.3,0-0.4,0c-0.2,0-0.3,0-0.5,0.1c-0.2,0-0.3,0-0.5,0.1
	c-0.1,0-0.2,0.1-0.3,0.1c-0.2,0.1-0.5,0.1-0.7,0.2c0,0,0,0-0.1,0c-0.9,0.3-1.7,0.7-2.5,1.2c-0.1,0-0.1,0.1-0.2,0.1
	c-0.2,0.1-0.4,0.3-0.6,0.5c-0.1,0.1-0.3,0.3-0.4,0.4s-0.2,0.2-0.3,0.3c-0.2,0.2-0.3,0.3-0.5,0.5c-0.1,0.1-0.1,0.1-0.2,0.2
	c-0.1,0.2-0.3,0.3-0.4,0.5c-0.1,0.1-0.1,0.2-0.2,0.3c-0.1,0.1-0.2,0.3-0.3,0.4s-0.2,0.3-0.2,0.4c-0.1,0.1-0.1,0.2-0.2,0.3
	c-0.1,0.2-0.2,0.4-0.3,0.6c0,0.1-0.1,0.2-0.1,0.3c-0.1,0.2-0.2,0.4-0.2,0.7c0,0,0,0,0,0.1c-2,6.9-4.8,13.6-8.3,20c0,0,0,0,0,0.1
	c-0.1,0.2-0.2,0.4-0.3,0.6c0,0.1-0.1,0.2-0.1,0.3c-0.1,0.2-0.1,0.4-0.2,0.6c0,0.1-0.1,0.2-0.1,0.4c0,0.1-0.1,0.3-0.1,0.4
	c0,0.2-0.1,0.3-0.1,0.5c0,0.1,0,0.2,0,0.3c0,0.2-0.1,0.5-0.1,0.7c0,0.1,0,0.1,0,0.2c0,0.3,0,0.5,0,0.8c0,0.1,0,0.2,0,0.2
	c0,0.2,0,0.5,0,0.7s0,0.3,0.1,0.5c0,0.2,0,0.3,0.1,0.5c0,0.2,0.1,0.5,0.2,0.7c0,0.1,0,0.1,0,0.2c0.1,0.3,0.2,0.5,0.3,0.8
	c0,0,0,0.1,0.1,0.1c0.1,0.2,0.2,0.4,0.3,0.6c0,0.1,0.1,0.2,0.1,0.2c0.1,0.2,0.2,0.3,0.3,0.5c0.1,0.1,0.1,0.3,0.2,0.4
	s0.2,0.2,0.2,0.3c0.1,0.2,0.2,0.3,0.4,0.5c0.1,0.1,0.1,0.2,0.2,0.2c0.1,0.2,0.3,0.3,0.5,0.5c0,0,0,0,0,0.1l13.9,13.9l-28.7,28.7
	l-13.9-13.9c0,0,0,0-0.1,0c-0.2-0.2-0.3-0.3-0.5-0.5c-0.1-0.1-0.2-0.1-0.2-0.2c-0.2-0.1-0.3-0.2-0.5-0.4c-0.1-0.1-0.2-0.2-0.3-0.2
	c-0.1-0.1-0.2-0.1-0.4-0.2s-0.3-0.2-0.5-0.3c-0.1,0-0.2-0.1-0.2-0.1c-0.2-0.1-0.4-0.2-0.7-0.3h-0.1c-0.3-0.1-0.5-0.2-0.8-0.3h-0.1
	c-0.3-0.1-0.5-0.1-0.8-0.2c-0.1,0-0.2,0-0.4-0.1c-0.2,0-0.4-0.1-0.6-0.1s-0.4,0-0.6,0c-0.1,0-0.2,0-0.3,0c-0.2,0-0.5,0-0.7,0
	c-0.1,0-0.2,0-0.2,0c-0.2,0-0.4,0.1-0.6,0.1c-0.1,0-0.2,0-0.3,0c-0.2,0-0.3,0.1-0.5,0.1s-0.3,0.1-0.5,0.1c-0.1,0-0.2,0.1-0.4,0.1
	c-0.2,0.1-0.4,0.1-0.6,0.2c-0.1,0-0.2,0.1-0.3,0.1c-0.2,0.1-0.4,0.2-0.6,0.3c0,0,0,0-0.1,0c-6.3,3.5-13,6.3-20,8.3c0,0,0,0-0.1,0
	c-0.2,0.1-0.4,0.1-0.7,0.2c-0.1,0-0.2,0.1-0.3,0.1c-0.2,0.1-0.4,0.2-0.5,0.3c-0.1,0.1-0.3,0.1-0.4,0.2s-0.2,0.1-0.4,0.2
	s-0.3,0.2-0.5,0.3c-0.1,0-0.1,0.1-0.2,0.1c-0.2,0.1-0.4,0.3-0.6,0.4l-0.1,0.1c-0.2,0.2-0.4,0.4-0.6,0.6l-0.1,0.1
	c-0.2,0.2-0.4,0.4-0.5,0.6c-0.1,0.1-0.2,0.2-0.2,0.3c-0.1,0.1-0.2,0.3-0.3,0.4c-0.1,0.2-0.2,0.4-0.4,0.6c0,0.1-0.1,0.1-0.1,0.2
	c-0.1,0.2-0.2,0.5-0.3,0.7c0,0.1-0.1,0.1-0.1,0.2c-0.1,0.2-0.2,0.4-0.2,0.6c0,0.1-0.1,0.2-0.1,0.3c-0.1,0.2-0.1,0.3-0.1,0.5
	s-0.1,0.3-0.1,0.5c0,0.1,0,0.3-0.1,0.4c0,0.2-0.1,0.4-0.1,0.6c0,0.1,0,0.2,0,0.3c0,0.2,0,0.5,0,0.7c0,0,0,0,0,0.1v19.6h-40.6v-19.6
	c0,0,0,0,0-0.1c0-0.2,0-0.5,0-0.7c0-0.1,0-0.2,0-0.3c0-0.2-0.1-0.4-0.1-0.6c0-0.1,0-0.3-0.1-0.4c0-0.2-0.1-0.3-0.1-0.5
	s-0.1-0.3-0.1-0.5c0-0.1-0.1-0.2-0.1-0.3c-0.1-0.2-0.1-0.4-0.2-0.6c0-0.1-0.1-0.1-0.1-0.2c-0.1-0.2-0.2-0.5-0.3-0.7
	c0-0.1-0.1-0.1-0.1-0.2c-0.1-0.2-0.2-0.4-0.4-0.6c-0.1-0.1-0.2-0.3-0.3-0.4s-0.2-0.2-0.2-0.3c-0.2-0.2-0.4-0.4-0.5-0.6l-0.1-0.1
	c-0.2-0.2-0.4-0.4-0.6-0.6l-0.1-0.1c-0.2-0.2-0.4-0.3-0.6-0.4c-0.1,0-0.1-0.1-0.2-0.1c-0.2-0.1-0.3-0.2-0.5-0.3
	c-0.1-0.1-0.2-0.2-0.4-0.2c-0.1-0.1-0.2-0.1-0.4-0.2s-0.4-0.2-0.5-0.3c-0.1,0-0.2-0.1-0.3-0.1c-0.2-0.1-0.4-0.2-0.7-0.2
	c0,0,0,0-0.1,0c-6.9-2-13.6-4.8-20-8.3c0,0,0,0-0.1,0c-0.2-0.1-0.4-0.2-0.6-0.3c-0.1-0.1-0.2-0.1-0.3-0.2c-0.2-0.1-0.3-0.1-0.5-0.2
	s-0.3-0.1-0.5-0.2c-0.1,0-0.2-0.1-0.3-0.1c-0.2-0.1-0.4-0.1-0.6-0.2h-0.1c-0.9-0.2-1.8-0.2-2.8-0.1c-0.1,0-0.1,0-0.2,0
	c-0.3,0-0.5,0.1-0.8,0.1c-0.2,0-0.3,0.1-0.5,0.1c-0.1,0-0.3,0.1-0.4,0.1c-0.2,0.1-0.4,0.1-0.6,0.2c-0.1,0-0.2,0.1-0.3,0.1
	c-0.2,0.1-0.4,0.2-0.6,0.2c-0.1,0.1-0.2,0.1-0.3,0.2s-0.3,0.2-0.4,0.2c-0.1,0.1-0.3,0.2-0.4,0.3c-0.1,0.1-0.2,0.1-0.3,0.2
	c-0.2,0.1-0.3,0.2-0.5,0.4c-0.1,0.1-0.1,0.1-0.2,0.2c-0.2,0.2-0.4,0.3-0.5,0.5c0,0,0,0-0.1,0l-13.9,13.9l-28.7-28.7l13.9-13.9
	c0,0,0,0,0-0.1c0.2-0.2,0.3-0.3,0.5-0.5c0.1-0.1,0.1-0.2,0.2-0.2c0.1-0.2,0.2-0.3,0.4-0.5c0.1-0.1,0.2-0.2,0.2-0.3
	c0.1-0.1,0.2-0.3,0.2-0.4c0.1-0.2,0.2-0.3,0.3-0.5c0-0.1,0.1-0.2,0.1-0.3c0.1-0.2,0.2-0.4,0.3-0.6c0-0.1,0-0.1,0.1-0.2
	c0.1-0.2,0.2-0.5,0.2-0.7c0-0.1,0-0.2,0.1-0.2c0.1-0.2,0.1-0.5,0.2-0.7c0-0.2,0-0.3,0.1-0.5c0-0.1,0-0.3,0.1-0.4c0-0.2,0-0.5,0-0.7
	c0-0.1,0-0.1,0-0.2c0-0.3,0-0.5,0-0.8c0-0.1,0-0.1,0-0.2c0-0.2-0.1-0.5-0.1-0.7c0-0.1,0-0.2,0-0.3c0-0.2-0.1-0.4-0.1-0.5
	s-0.1-0.3-0.1-0.4s-0.1-0.2-0.1-0.4c-0.1-0.2-0.1-0.4-0.2-0.6c0-0.1-0.1-0.2-0.1-0.3c-0.1-0.2-0.2-0.4-0.3-0.6c0,0,0,0,0-0.1
	c-3.5-6.3-6.3-13-8.3-20c0,0,0,0,0-0.1c-0.1-0.2-0.2-0.5-0.2-0.7c0-0.1-0.1-0.2-0.1-0.3c-0.1-0.2-0.2-0.4-0.3-0.6
	c-0.1-0.1-0.1-0.2-0.2-0.3c-0.1-0.1-0.2-0.3-0.3-0.4c-0.1-0.1-0.2-0.3-0.3-0.4c-0.1-0.1-0.1-0.2-0.2-0.3c-0.1-0.2-0.2-0.3-0.4-0.5
	c-0.1-0.1-0.1-0.1-0.2-0.2c-0.2-0.2-0.3-0.4-0.5-0.5c-0.1-0.1-0.2-0.1-0.2-0.2c-0.2-0.1-0.3-0.3-0.5-0.4s-0.3-0.2-0.5-0.4
	c-0.1-0.1-0.2-0.1-0.3-0.2c-0.2-0.2-0.5-0.3-0.7-0.4h-0.1c-0.3-0.1-0.5-0.3-0.8-0.4c0,0,0,0-0.1,0c-0.2-0.1-0.5-0.2-0.7-0.3
	c-0.1,0-0.1-0.1-0.2-0.1c-0.2-0.1-0.4-0.1-0.6-0.2c-0.1,0-0.3-0.1-0.4-0.1s-0.3,0-0.4-0.1c-0.2,0-0.4-0.1-0.6-0.1
	c-0.1,0-0.2,0-0.3,0c-0.2,0-0.5,0-0.7,0c0,0,0,0-0.1,0h-19.6v-40.6h19.6l0,0c0.3,0,0.6,0,1-0.1c0.1,0,0.1,0,0.2,0
	c0.2,0,0.5-0.1,0.7-0.1c0.1,0,0.2,0,0.3-0.1c0.2,0,0.4-0.1,0.6-0.1c0.1,0,0.2-0.1,0.3-0.1c0.2-0.1,0.4-0.1,0.6-0.2
	c0.1-0.1,0.3-0.1,0.4-0.2c0.2-0.1,0.4-0.2,0.6-0.3c0.1-0.1,0.2-0.1,0.3-0.2c0.2-0.1,0.3-0.2,0.5-0.3c0.1-0.1,0.2-0.1,0.3-0.2
	c0.2-0.1,0.3-0.2,0.5-0.4c0.1-0.1,0.2-0.1,0.2-0.2c0.2-0.2,0.4-0.3,0.5-0.5l0.1-0.1c0.4-0.4,0.8-0.9,1.2-1.4c0-0.1,0.1-0.1,0.1-0.2
	c0.1-0.2,0.2-0.4,0.3-0.5c0.1-0.1,0.1-0.2,0.2-0.3c0.1-0.2,0.2-0.3,0.2-0.5c0.1-0.1,0.1-0.3,0.2-0.4s0.1-0.3,0.2-0.4
	s0.1-0.3,0.1-0.4c0,0,0,0,0-0.1c2-6.9,4.8-13.6,8.3-20c0,0,0,0,0-0.1c0.1-0.2,0.2-0.4,0.3-0.6c0-0.1,0.1-0.2,0.1-0.3
	c0.1-0.2,0.1-0.4,0.2-0.6c0-0.1,0.1-0.2,0.1-0.4c0-0.1,0.1-0.3,0.1-0.4c0-0.2,0.1-0.3,0.1-0.5c0-0.1,0-0.2,0-0.3
	c0-0.2,0.1-0.5,0.1-0.7c0-0.1,0-0.1,0-0.2c0-0.3,0-0.5,0-0.8c0-0.1,0-0.1,0-0.2c0-0.2,0-0.5,0-0.7c0-0.1,0-0.3-0.1-0.4
	c0-0.2,0-0.3-0.1-0.5c0-0.2-0.1-0.5-0.2-0.7c0-0.1,0-0.2-0.1-0.2c-0.1-0.2-0.2-0.5-0.2-0.7c0-0.1,0-0.1-0.1-0.2
	c-0.1-0.2-0.2-0.4-0.3-0.6c0-0.1-0.1-0.2-0.1-0.3c-0.1-0.2-0.2-0.3-0.3-0.5c-0.1-0.1-0.2-0.3-0.2-0.4c-0.1-0.1-0.2-0.2-0.2-0.3
	c-0.1-0.2-0.2-0.3-0.4-0.5c-0.1-0.1-0.1-0.2-0.2-0.2c-0.2-0.2-0.3-0.4-0.5-0.5c0,0,0,0,0-0.1l-13.9-13.9l28.7-28.7l13.8,13.8
	c0,0,0,0,0.1,0.1l0,0c0.3,0.3,0.6,0.5,0.9,0.8c0.1,0.1,0.2,0.2,0.3,0.2c0.2,0.2,0.5,0.3,0.7,0.5c0.1,0.1,0.2,0.1,0.3,0.2
	c0.3,0.2,0.6,0.3,1,0.5h0.1c0.4,0.2,0.8,0.3,1.1,0.4c0.1,0,0.2,0,0.3,0.1c0.3,0.1,0.6,0.1,0.9,0.2c0.1,0,0.2,0,0.4,0.1
	c0.4,0,0.7,0.1,1.1,0.1h0.1c0.1,0,0.1,0,0.2,0c0.3,0,0.6,0,0.9-0.1c0.1,0,0.3,0,0.4-0.1c0.2,0,0.5-0.1,0.7-0.1
	c0.1,0,0.3-0.1,0.4-0.1c0.3-0.1,0.6-0.2,0.9-0.3c0.1,0,0.1,0,0.2-0.1c0.4-0.1,0.7-0.3,1.1-0.5c0,0,0,0,0.1,0c6.3-3.5,13-6.3,20-8.3
	c0,0,0,0,0.1,0c0.2-0.1,0.4-0.1,0.7-0.2c0.1,0,0.2-0.1,0.3-0.1c0.2-0.1,0.4-0.2,0.5-0.3s0.3-0.1,0.4-0.2c0.1-0.1,0.2-0.1,0.4-0.2
	c0.2-0.1,0.3-0.2,0.5-0.3c0.1,0,0.1-0.1,0.2-0.1c0.2-0.1,0.4-0.3,0.6-0.4l0.1-0.1c0.2-0.2,0.4-0.4,0.6-0.6l0.1-0.1
	c0.2-0.2,0.4-0.4,0.5-0.6c0.1-0.1,0.2-0.2,0.3-0.3s0.2-0.3,0.3-0.4c0.1-0.2,0.2-0.4,0.4-0.6c0-0.1,0.1-0.1,0.1-0.2
	c0.1-0.2,0.2-0.5,0.3-0.7c0-0.1,0.1-0.1,0.1-0.2c0.1-0.2,0.2-0.4,0.2-0.6c0-0.1,0.1-0.2,0.1-0.3c0.1-0.2,0.1-0.3,0.1-0.5
	s0.1-0.3,0.1-0.5c0-0.1,0-0.3,0.1-0.4c0-0.2,0.1-0.4,0.1-0.6c0-0.1,0-0.2,0-0.3c0-0.2,0-0.5,0-0.7c0,0,0,0,0-0.1v-19.2h40.6v19.6
	c0,0,0,0,0,0.1c0,0.2,0,0.5,0,0.7c0,0.1,0,0.2,0,0.3c0,0.2,0.1,0.4,0.1,0.6c0,0.1,0,0.3,0.1,0.4c0,0.2,0.1,0.3,0.1,0.5
	s0.1,0.3,0.1,0.5c0,0.1,0.1,0.2,0.1,0.3c0.1,0.2,0.1,0.4,0.2,0.6c0,0.1,0.1,0.1,0.1,0.2c0.1,0.2,0.2,0.5,0.3,0.7
	c0,0.1,0.1,0.1,0.1,0.2c0.1,0.2,0.2,0.4,0.4,0.6c0.1,0.1,0.2,0.3,0.3,0.4c0.1,0.1,0.2,0.2,0.3,0.3c0.2,0.2,0.3,0.4,0.5,0.6l0.1,0.1
	c0.2,0.2,0.4,0.4,0.6,0.6l0.1,0.1c0.2,0.2,0.4,0.3,0.6,0.4c0.1,0,0.1,0.1,0.2,0.1c0.2,0.1,0.3,0.2,0.5,0.3c0.1,0.1,0.2,0.2,0.4,0.2
	c0.1,0.1,0.2,0.1,0.4,0.2c0.2,0.1,0.4,0.2,0.5,0.3c0.1,0,0.2,0.1,0.3,0.1c0.2,0.1,0.4,0.2,0.7,0.2c0,0,0,0,0.1,0
	c6.9,2,13.6,4.8,20,8.3c0,0,0,0,0.1,0c0.4,0.2,0.7,0.4,1.1,0.5c0.1,0,0.1,0,0.2,0.1c0.3,0.1,0.6,0.2,0.9,0.3c0.1,0,0.3,0.1,0.4,0.1
	c0.2,0.1,0.5,0.1,0.7,0.1c0.1,0,0.3,0,0.4,0.1c0.3,0,0.6,0.1,0.9,0.1c0.1,0,0.1,0,0.2,0c0,0,0,0,0.1,0c0.4,0,0.7,0,1.1-0.1
	c0.1,0,0.2,0,0.3,0c0.3,0,0.6-0.1,0.9-0.2c0.1,0,0.2,0,0.2-0.1c0.4-0.1,0.8-0.2,1.2-0.4l0,0c0.3-0.1,0.7-0.3,1-0.5
	c0.1-0.1,0.2-0.1,0.3-0.2c0.3-0.2,0.5-0.3,0.7-0.5c0.1-0.1,0.2-0.1,0.3-0.2c0.3-0.2,0.6-0.5,0.9-0.8l0,0c0,0,0,0,0.1-0.1l13.8-13.8
	l28.7,28.7l-13.9,13.9c0,0,0,0,0,0.1c-0.2,0.2-0.3,0.3-0.5,0.5c-0.1,0.1-0.1,0.2-0.2,0.2c-0.1,0.2-0.2,0.3-0.4,0.5
	c-0.1,0.1-0.2,0.2-0.2,0.3c-0.1,0.1-0.1,0.2-0.2,0.4c-0.1,0.2-0.2,0.3-0.3,0.5c0,0.1-0.1,0.2-0.1,0.2c-0.1,0.2-0.2,0.4-0.3,0.6
	c0,0,0,0.1-0.1,0.1c-0.1,0.3-0.2,0.5-0.3,0.8c0,0.1,0,0.1,0,0.2c-0.1,0.2-0.1,0.5-0.2,0.7c0,0.1,0,0.3-0.1,0.5
	c0,0.2-0.1,0.3-0.1,0.5s0,0.5,0,0.7c0,0.1,0,0.2,0,0.2c0,0.3,0,0.5,0,0.8c0,0.1,0,0.1,0,0.2c0,0.2,0.1,0.5,0.1,0.7
	c0,0.1,0,0.2,0,0.3c0,0.2,0.1,0.3,0.1,0.5c0,0.1,0.1,0.3,0.1,0.4s0.1,0.2,0.1,0.4c0.1,0.2,0.1,0.4,0.2,0.6c0,0.1,0.1,0.2,0.1,0.3
	c0.1,0.2,0.2,0.4,0.3,0.6c0,0,0,0,0,0.1c3.5,6.3,6.3,13,8.3,20c0,0,0,0,0,0.1s0.1,0.3,0.1,0.4c0.1,0.2,0.1,0.3,0.2,0.4
	s0.1,0.3,0.2,0.4c0.1,0.2,0.2,0.3,0.2,0.5c0.1,0.1,0.1,0.2,0.2,0.3c0.1,0.2,0.2,0.4,0.3,0.6c0,0.1,0.1,0.1,0.1,0.2
	c0.3,0.5,0.7,1,1.2,1.4c0,0,0.1,0,0.1,0.1c0.2,0.2,0.4,0.4,0.6,0.5c0.1,0.1,0.1,0.1,0.2,0.2c0.2,0.1,0.3,0.2,0.5,0.4
	c0.1,0.1,0.2,0.1,0.3,0.2c0.2,0.1,0.3,0.2,0.5,0.3c0.1,0.1,0.2,0.1,0.3,0.2c0.2,0.1,0.4,0.2,0.6,0.3c0.1,0.1,0.2,0.1,0.4,0.1
	c0.2,0.1,0.4,0.2,0.6,0.2c0.1,0,0.2,0.1,0.3,0.1c0.2,0.1,0.4,0.1,0.6,0.2c0.1,0,0.2,0,0.3,0.1c0.2,0,0.5,0.1,0.7,0.1
	c0.1,0,0.1,0,0.2,0c0.3,0,0.6,0.1,1,0.1l0,0h19.6L2256.8,1105.8L2256.8,1105.8z"/>
<path id="circle" class="st0" d="M2132.9,1018.8c-36.8,0-66.8,29.9-66.8,66.8s29.9,66.8,66.8,66.8s66.8-29.9,66.8-66.8
	S2169.7,1018.8,2132.9,1018.8z M2132.9,1132.3c-25.8,0-46.8-21-46.8-46.8s21-46.8,46.8-46.8s46.8,21,46.8,46.8
	S2158.7,1132.3,2132.9,1132.3z"/>
<g id="x">
	<path class="st1" d="M2342,2007.8c-3.9-3.9-10.2-3.9-14.1,0l-58.2,58.2l-58.2-58.2c-3.9-3.9-10.2-3.9-14.1,0s-3.9,10.2,0,14.1
		l58.2,58.2l-58.2,58.2c-3.9,3.9-3.9,10.2,0,14.1c2,2,4.5,2.9,7.1,2.9s5.1-1,7.1-2.9l58.2-58.2l58.2,58.2c2,2,4.5,2.9,7.1,2.9
		s5.1-1,7.1-2.9c3.9-3.9,3.9-10.2,0-14.1l-58.2-58.2l58.2-58.2C2345.9,2018.1,2345.9,2011.8,2342,2007.8z"/>
	<path class="st1" d="M2590.5,2135.2h-156c-5.5,0-10,4.5-10,10s4.5,10,10,10h156c5.5,0,10-4.5,10-10S2596,2135.2,2590.5,2135.2z"/>
	<path class="st1" d="M2436.5,2111.2h62c5.5,0,10-4.5,10-10s-4.5-10-10-10h-62c-5.5,0-10,4.5-10,10S2431,2111.2,2436.5,2111.2z"/>
</g>
<g id="text">
	<g>
		<path class="st0" d="M3039.3,1555.7h-199.2c-5.5,0-10-4.5-10-10s4.5-10,10-10h199.2c5.5,0,10,4.5,10,10
			S3044.9,1555.7,3039.3,1555.7z"/>
	</g>
	<g>
		<path class="st0" d="M3010,1626.7h-164.9c-5.5,0-10-4.5-10-10s4.5-10,10-10H3010c5.5,0,10,4.5,10,10S3015.5,1626.7,3010,1626.7z"
			/>
	</g>
	<g>
		<path class="st0" d="M3182.4,1626.7h-135.5c-5.5,0-10-4.5-10-10s4.5-10,10-10h135.6c5.5,0,10,4.5,10,10
			S3187.9,1626.7,3182.4,1626.7z"/>
	</g>
	<g>
		<path class="st0" d="M3068.3,1708.9h-49c-5.5,0-10-4.5-10-10s4.5-10,10-10h49c5.5,0,10,4.5,10,10S3073.9,1708.9,3068.3,1708.9z"/>
	</g>
	<g>
		<path class="st0" d="M3304,1419h-205.6c-5.5,0-10-4.5-10-10s4.5-10,10-10H3304c5.5,0,10,4.5,10,10S3309.5,1419,3304,1419z"/>
	</g>
</g>
<g>
	<path class="st1" d="M2624.3,1555.7h176c5.5,0,10-4.5,10-10s-4.5-10-10-10h-176c-5.5,0-10,4.5-10,10S2618.8,1555.7,2624.3,1555.7z"
		/>
	<path class="st1" d="M3252.6,1535.7h-171.2c-5.5,0-10,4.5-10,10s4.5,10,10,10h171.2c5.5,0,10-4.5,10-10
		S3258.1,1535.7,3252.6,1535.7z"/>
	<path class="st1" d="M2624.3,1626.7h176c5.5,0,10-4.5,10-10s-4.5-10-10-10h-176c-5.5,0-10,4.5-10,10S2618.8,1626.7,2624.3,1626.7z"
		/>
	<path class="st1" d="M2624.3,1708.9h353c5.5,0,10-4.5,10-10s-4.5-10-10-10h-353c-5.5,0-10,4.5-10,10S2618.8,1708.9,2624.3,1708.9z"
		/>
	<path class="st1" d="M2855.3,1763.9h-231c-5.5,0-10,4.5-10,10s4.5,10,10,10h231c5.5,0,10-4.5,10-10S2860.9,1763.9,2855.3,1763.9z"
		/>
	<path class="st1" d="M3101.8,1763.9h-206c-5.5,0-10,4.5-10,10s4.5,10,10,10h206c5.5,0,10-4.5,10-10S3107.4,1763.9,3101.8,1763.9z"
		/>
	<path class="st1" d="M3445.3,463.2h-923.4c-5.5,0-10,4.5-10,10v90v921.5c0,5.5,4.5,10,10,10h66.7h791.9h64.9c5.5,0,10-4.5,10-10
		V473.2C3455.3,467.6,3450.8,463.2,3445.3,463.2z M3370.5,1474.7h-771.9V1268h771.9V1474.7z M3435.3,1474.7h-44.9V1258
		c0-5.5-4.5-10-10-10h-791.9c-5.5,0-10,4.5-10,10v216.7h-46.6V573.1h46.7v364.5c0,5.5,4.5,10,10,10h791.9c5.5,0,10-4.5,10-10V573.1
		h44.9L3435.3,1474.7L3435.3,1474.7z M2598.6,927.6V573.1h771.9v354.5H2598.6z M3435.3,553.1h-54.9h-791.9h-56.6v-70h903.4
		L3435.3,553.1L3435.3,553.1z"/>
	<path class="st1" d="M2813.3,1013.9h-165.9c-5.5,0-10,4.5-10,10v151.2c0,5.5,4.5,10,10,10h165.9c5.5,0,10-4.5,10-10v-151.2
		C2823.3,1018.4,2818.8,1013.9,2813.3,1013.9z M2803.3,1165.1h-145.9v-131.2h145.9V1165.1z"/>
	<path class="st1" d="M3318,1013.9h-165.9c-5.5,0-10,4.5-10,10v151.2c0,5.5,4.5,10,10,10H3318c5.5,0,10-4.5,10-10v-151.2
		C3328,1018.4,3323.6,1013.9,3318,1013.9z M3308,1165.1h-145.9v-131.2H3308V1165.1z"/>
	<path class="st1" d="M3062.2,1013.9h-165.9c-5.5,0-10,4.5-10,10v151.2c0,5.5,4.5,10,10,10h165.9c5.5,0,10-4.5,10-10v-151.2
		C3072.2,1018.4,3067.7,1013.9,3062.2,1013.9z M3052.2,1165.1h-145.9v-131.2h145.9V1165.1z"/>
	<path class="st1" d="M2839.5,1336.8h298.3c5.5,0,10-4.5,10-10s-4.5-10-10-10h-298.3c-5.5,0-10,4.5-10,10S2834,1336.8,2839.5,1336.8
		z"/>
	<path class="st1" d="M2689,1419h339.6c5.5,0,10-4.5,10-10s-4.5-10-10-10H2689c-5.5,0-10,4.5-10,10S2683.4,1419,2689,1419z"/>
	<path class="st1" d="M3274,666.9h-201.9c-5.5,0-10,4.5-10,10s4.5,10,10,10H3274c5.5,0,10-4.5,10-10S3279.5,666.9,3274,666.9z"/>
	<path class="st1" d="M3181,726.9h-108.9c-5.5,0-10,4.5-10,10s4.5,10,10,10H3181c5.5,0,10-4.5,10-10S3186.5,726.9,3181,726.9z"/>
	<g>
		<path class="st1" d="M2737.5,1835.9c-5.2-1.8-10.9,1.1-12.7,6.3l-36,107c-1.8,5.2,1.1,10.9,6.3,12.7c1.1,0.4,2.1,0.5,3.2,0.5
			c4.2,0,8.1-2.6,9.5-6.8l36-107C2745.6,1843.3,2742.8,1837.7,2737.5,1835.9z"/>
		<path class="st1" d="M2680.8,1863.3c-3.9-3.9-10.2-3.9-14.1,0l-30,30c-3.9,3.9-3.9,10.2,0,14.1l30,30c2,2,4.5,2.9,7.1,2.9
			s5.1-1,7.1-2.9c3.9-3.9,3.9-10.2,0-14.1l-22.9-22.9l22.9-22.9C2684.7,1873.5,2684.7,1867.2,2680.8,1863.3z"/>
		<path class="st1" d="M2797.8,1893.3l-30-30c-3.9-3.9-10.2-3.9-14.1,0s-3.9,10.2,0,14.1l22.9,22.9l-22.9,22.9
			c-3.9,3.9-3.9,10.2,0,14.1c2,2,4.5,2.9,7.1,2.9s5.1-1,7.1-2.9l30-30C2801.7,1903.5,2801.7,1897.2,2797.8,1893.3z"/>
	</g>
</g>
<g id="circle_line">
	<g>
		<path class="st0" d="M3261.7,833.8H3072c-5.5,0-10-4.5-10-10s4.5-10,10-10h189.7c5.5,0,10,4.5,10,10S3267.3,833.8,3261.7,833.8z"
			/>
	</g>
	<path class="st0" d="M2968.2,689.8c0-40.9-33.3-74.3-74.3-74.3c-26.4,0-50.5,14-63.8,36.3c-10.5-2.9-21.3-4.5-32.3-4.5
		c-65.6,0-118.9,53.3-118.9,118.9s53.3,118.9,118.9,118.9s118.9-53.3,118.9-118.9c0-1.9-0.1-3.9-0.2-5.8
		C2947,750.8,2968.2,722.4,2968.2,689.8z M2797.9,865.2c-54.5,0-98.9-44.4-98.9-98.9s44.4-98.9,98.9-98.9c8.3,0,16.5,1,24.4,3
		c-1.7,6.3-2.6,12.8-2.6,19.4c0,40.9,33.3,74.3,74.3,74.3c0.9,0,1.9,0,2.8-0.1c0,0.8,0,1.5,0,2.3
		C2896.8,820.8,2852.4,865.2,2797.9,865.2z M2904.1,743.1L2904.1,743.1c-3.4,0.6-6.8,1-10.1,1c-29.9,0-54.3-24.3-54.3-54.3
		c0-7.6,1.5-14.9,4.6-21.9l0,0c8.7-19.7,28.2-32.4,49.7-32.4c29.9,0,54.3,24.3,54.3,54.3C2948.2,715.8,2929.7,738.2,2904.1,743.1z"
		/>
</g>
<g id="css">
	<path class="st0" d="M1780,560c3.8-2.1,8.1-3.2,12.9-3.2c7.8,0,14.3,3,19.6,9.1l11.6-10.7c-3.7-4.4-8.3-7.9-13.7-10.2
		c-5.4-2.4-11.5-3.6-18.3-3.6c-8,0-15.2,1.7-21.6,5.2c-6.4,3.4-11.4,8.2-15.1,14.3s-5.5,13-5.5,20.7s1.8,14.6,5.5,20.7
		c3.7,6.1,8.7,10.9,15.1,14.3c6.4,3.4,13.6,5.2,21.5,5.2c6.7,0,12.9-1.2,18.3-3.6c5.5-2.4,10.1-5.8,13.8-10.3l-11.6-10.7
		c-5.3,6.1-11.8,9.2-19.6,9.2c-4.8,0-9.1-1.1-12.9-3.2c-3.8-2.1-6.7-5.1-8.8-8.8c-2.1-3.8-3.2-8.1-3.2-12.9c0-4.8,1.1-9.1,3.2-12.9
		C1773.2,565.1,1776.2,562.1,1780,560z"/>
	<path class="st0" d="M1880.2,578.8c-3.8-1.4-8.6-2.8-14.6-4.2c-5.7-1.3-9.9-2.5-12.7-3.8c-2.8-1.3-4.2-3.3-4.2-5.9
		c0-2.7,1.2-4.8,3.6-6.4c2.4-1.6,6.1-2.4,11.2-2.4c7.2,0,14.4,2,21.6,6.1l5.6-13.7c-3.6-2.2-7.7-3.9-12.4-5.1
		c-4.7-1.2-9.6-1.8-14.6-1.8c-7.1,0-13.1,1.1-18.1,3.2c-4.9,2.1-8.6,5.1-11.1,8.7c-2.4,3.7-3.7,7.8-3.7,12.3c0,5.2,1.4,9.3,4.1,12.4
		c2.7,3.1,5.9,5.4,9.7,6.8c3.8,1.4,8.6,2.8,14.6,4.2c3.9,0.9,6.9,1.7,9.2,2.4c2.3,0.7,4.1,1.7,5.6,2.9s2.2,2.8,2.2,4.6
		c0,2.5-1.2,4.5-3.7,6.1c-2.4,1.5-6.2,2.3-11.3,2.3c-4.6,0-9.2-0.7-13.8-2.2c-4.6-1.5-8.6-3.4-11.9-5.9l-6.1,13.6
		c3.5,2.7,8.1,4.8,13.8,6.5c5.7,1.7,11.7,2.5,17.8,2.5c7.1,0,13.1-1.1,18.1-3.2c5-2.1,8.7-5.1,11.2-8.7c2.5-3.7,3.7-7.7,3.7-12.2
		c0-5.2-1.4-9.3-4.1-12.3C1887.2,582.5,1884,580.3,1880.2,578.8z"/>
	<path class="st0" d="M1951.1,578.8c-3.8-1.4-8.6-2.8-14.6-4.2c-5.7-1.3-9.9-2.5-12.7-3.8c-2.8-1.3-4.2-3.3-4.2-5.9
		c0-2.7,1.2-4.8,3.6-6.4c2.4-1.6,6.1-2.4,11.2-2.4c7.2,0,14.4,2,21.6,6.1l5.6-13.7c-3.6-2.2-7.7-3.9-12.4-5.1
		c-4.7-1.2-9.6-1.8-14.6-1.8c-7.1,0-13.1,1.1-18.1,3.2c-4.9,2.1-8.6,5.1-11.1,8.7c-2.4,3.7-3.7,7.8-3.7,12.3c0,5.2,1.4,9.3,4.1,12.4
		c2.7,3.1,5.9,5.4,9.7,6.8c3.8,1.4,8.6,2.8,14.6,4.2c3.9,0.9,6.9,1.7,9.2,2.4c2.3,0.7,4.1,1.7,5.6,2.9s2.2,2.8,2.2,4.6
		c0,2.5-1.2,4.5-3.7,6.1c-2.4,1.5-6.2,2.3-11.3,2.3c-4.6,0-9.2-0.7-13.8-2.2c-4.6-1.5-8.6-3.4-11.9-5.9l-6.1,13.6
		c3.5,2.7,8.1,4.8,13.8,6.5c5.7,1.7,11.7,2.5,17.8,2.5c7.1,0,13.1-1.1,18.1-3.2c5-2.1,8.7-5.1,11.2-8.7c2.5-3.7,3.7-7.7,3.7-12.2
		c0-5.2-1.4-9.3-4.1-12.3C1958.1,582.5,1954.8,580.3,1951.1,578.8z"/>
	<path class="st0" d="M2026.1,477.5h-330.4c-22.7,0-41.2,18.5-41.2,41.2V640v5.3c0,1.2,0.1,2.5,0.2,3.8V718v6.3c0,3.9,2.2,7.4,5.7,9
		c1.4,0.6,2.8,1,4.3,1c2.3,0,4.5-0.8,6.3-2.2l7.8-6.3l48.1-39.2H1888h138.1c22.7,0,41.2-18.5,41.2-41.2V518.7
		C2067.3,496,2048.8,477.5,2026.1,477.5z M2047.3,645.3c0,11.7-9.5,21.2-21.2,21.2H1888h-164.8c-2.8,0-5.4,1.2-7.2,3.1l-41.3,33.7
		v-54.5l0,0c0-0.2,0-0.3,0-0.5s0-0.4,0-0.5l0,0c-0.1-0.8-0.1-1.6-0.1-2.4v-5.3V518.7c0-11.7,9.5-21.2,21.2-21.2h330.4
		c11.7,0,21.2,9.5,21.2,21.2L2047.3,645.3L2047.3,645.3z"/>
</g>
<g id="html">
	<polygon class="st0" points="3213.4,2026.1 3178.1,2026.1 3178.1,1995.4 3160.1,1995.4 3160.1,2073.2 3178.1,2073.2 3178.1,2041.3 
		3213.4,2041.3 3213.4,2073.2 3231.4,2073.2 3231.4,1995.4 3213.4,1995.4 	"/>
	<polygon class="st0" points="3241.1,2010.1 3266,2010.1 3266,2073.2 3284,2073.2 3284,2010.1 3308.9,2010.1 3308.9,1995.4 
		3241.1,1995.4 	"/>
	<polygon class="st0" points="3391.2,1995.4 3362.5,2043.7 3333.4,1995.4 3318.5,1995.4 3318.5,2073.2 3335.4,2073.2 3335.4,2027.5 
		3358.2,2065 3366.3,2065 3389.2,2026.5 3389.3,2073.2 3406.2,2073.2 3406,1995.4 	"/>
	<polygon class="st0" points="3442.7,1995.4 3424.7,1995.4 3424.7,2073.2 3481.7,2073.2 3481.7,2058.5 3442.7,2058.5 	"/>
	<path class="st0" d="M3520.8,1928.8h-389.4l-56-45.6c-3-2.4-7.1-2.9-10.6-1.3c-3.5,1.7-5.7,5.2-5.7,9v75.2
		c-0.1,1.3-0.2,2.6-0.2,3.8v126.6c0,22.7,18.5,41.2,41.2,41.2h420.7c22.7,0,41.2-18.5,41.2-41.2v-126.6
		C3562,1947.2,3543.5,1928.8,3520.8,1928.8z M3542,2096.6c0,11.7-9.5,21.2-21.2,21.2h-420.7c-11.7,0-21.2-9.5-21.2-21.2v-123.2
		c0.1-0.6,0.2-1.3,0.2-2v-4.8l0,0v-0.1V1912l41.5,33.8c1.8,1.9,4.3,3,7.1,3h393.1c11.7,0,21.2,9.5,21.2,21.2L3542,2096.6
		L3542,2096.6z"/>
</g>
<g id="cloud">
	<path class="st1" d="M2436.2,91.4c-22.9,0-45.1,5.8-65,16.7C2352.8,44.7,2294.4,0,2227.1,0c-78.6,0-143.2,60.7-149.5,137.7
		c-6.6-1.2-13.2-1.8-19.9-1.8c-62.2,0-112.8,50.6-112.8,112.8c0,28.5,10.6,55.6,29.9,76.5c16.9,18.3,39.2,30.4,63.5,34.6
		c1.5,0.8,3.1,1.3,4.9,1.3h5.3c3.2,0.3,6.2,0.4,9.1,0.4s5.8-0.1,9.1-0.4H2436c0.9,0,1.8-0.1,2.7-0.4
		c73.1-1.4,132.1-61.3,132.1-134.7C2570.9,151.9,2510.5,91.4,2436.2,91.4z M2436.2,340.8c-0.9,0-1.7,0.1-2.5,0.3h-367.2h-16.9
		c-47.5-4.2-84.6-44.7-84.6-92.4c0-51.2,41.6-92.8,92.8-92.8c9,0,17.9,1.3,26.4,3.8l0,0h0.1l0,0c9.5,2.8,18.4,7.1,26.5,12.8
		c1.7,1.2,3.7,1.8,5.7,1.8c3.2,0,6.3-1.5,8.2-4.3c3.2-4.5,2.1-10.8-2.5-13.9c-7.8-5.4-16.1-9.8-24.9-13.1
		c3.6-68.5,60.5-123.1,129.8-123.1c62.5,0,116.2,44.5,127.7,105.8c1.5,8,2.3,16.1,2.3,24.2c0,5.5,4.5,10,10,10s10-4.5,10-10
		c0-7.1-0.5-14.2-1.5-21.3c18.2-11.3,39-17.3,60.5-17.3c63.2,0,114.7,51.5,114.7,114.7S2499.4,340.8,2436.2,340.8z"/>
	<path class="st1" d="M2988.3,295.3c0-5.5-4.5-10-10-10h-129.6c-5.5,0-10,4.5-10,10s4.5,10,10,10h129.6
		C2983.8,305.3,2988.3,300.8,2988.3,295.3z"/>
	<path class="st1" d="M3021.3,334.3h-130.8c-5.5,0-10,4.5-10,10s4.5,10,10,10h130.8c5.5,0,10-4.5,10-10S3026.8,334.3,3021.3,334.3z"
		/>
</g>
</svg>
