<?xml version="1.0" encoding="utf-8"?>
<!-- Generator: Adobe Illustrator 21.1.0, SVG Export Plug-In . SVG Version: 6.00 Build 0)  -->
<svg version="1.1" id="OBJECTS" xmlns="http://www.w3.org/2000/svg" xmlns:xlink="http://www.w3.org/1999/xlink" x="0px" y="0px"
	 viewBox="0 0 4132.3 2192.2" style="enable-background:new 0 0 4132.3 2192.2;" xml:space="preserve">
<style type="text/css">
	.st0{fill:#FFE045;}
	.st1{fill:#363636;}
</style>
<g id="profile">
	<path class="st0" d="M1757.9,1275.5c0-0.3,0-11.1,0-11.4V469c0-53.5-43.5-97-97-97h-627.1c-53.5,0-97,43.5-97,97v795.1
		c0,53.5,43.5,97,97,97h383h0.9v-20h-0.8h-383.1c-42.5,0-77-34.5-77-77V469c0-42.5,34.5-77,77-77h627.1c42.5,0,77,34.5,77,77v806.5
		H1757.9z"/>
	<path class="st0" d="M1223.7,999.7c-17.1,0-31,13.9-31,31c0,17.1,13.9,31,31,31h247.5c17.1,0,31-13.9,31-31s-13.9-31-31-31
		C1471.2,999.7,1223.7,999.7,1223.7,999.7z M1482.1,1030.7c0,6.1-4.9,11-11,11h-247.5c-6.1,0-11-4.9-11-11s4.9-11,11-11h247.5
		C1477.2,1019.7,1482.1,1024.6,1482.1,1030.7z"/>
	<path class="st0" d="M1565.6,1109.2h-436.5c-17.1,0-31,13.9-31,31s13.9,31,31,31h436.5c17.1,0,31-13.9,31-31
		S1582.7,1109.2,1565.6,1109.2z M1565.6,1151.2h-436.5c-6.1,0-11-4.9-11-11s4.9-11,11-11h436.5c6.1,0,11,4.9,11,11
		C1576.6,1146.3,1571.7,1151.2,1565.6,1151.2z"/>
	<path class="st0" d="M1168.7,801.2c0.1,0.2,0.2,0.4,0.3,0.6c8.9,16.2,20.1,31.3,33.4,44.7c5.3,5.4,11,10.6,17,15.4l0,0
		c7.9,6.4,16.2,12.1,24.9,17.2c2.5,1.5,5,2.9,7.5,4.2c22.9,12.1,48,19.9,73.8,22.6c7.2,0.8,14.4,1.2,21.7,1.2
		c42.1,0,83.4-13.2,117.6-37.4c3.5-2.5,7-5.1,10.4-7.9c48-38.9,75.5-96.5,75.5-158.2c0-112.2-91.3-203.5-203.5-203.5
		s-203.5,91.3-203.5,203.5c0,17.3,2.2,34.4,6.4,50.8C1154.5,770.8,1160.7,786.5,1168.7,801.2z M1239.6,849c0.4-0.7,0.8-1.4,1.2-2.1
		c0.3-0.6,0.7-1.1,1-1.7c0.4-0.7,0.8-1.4,1.3-2c0.3-0.6,0.7-1.1,1.1-1.6c0.4-0.7,0.9-1.3,1.3-2c0.4-0.5,0.7-1.1,1.1-1.6
		c0.5-0.6,0.9-1.3,1.4-1.9c0.4-0.5,0.8-1,1.2-1.5c0.5-0.6,1-1.3,1.5-1.9c0.4-0.5,0.8-1,1.2-1.5c0.5-0.6,1-1.2,1.5-1.8
		c0.4-0.5,0.8-1,1.2-1.4c0.5-0.6,1.1-1.2,1.6-1.8c0.4-0.5,0.8-0.9,1.3-1.4c0.6-0.6,1.1-1.2,1.7-1.8c0.4-0.4,0.8-0.9,1.3-1.3
		c0.6-0.6,1.2-1.2,1.8-1.7c0.4-0.4,0.8-0.8,1.3-1.2c0.6-0.6,1.3-1.2,2-1.8c0.4-0.4,0.8-0.7,1.2-1.1c0.7-0.6,1.4-1.2,2.2-1.8
		c0.4-0.3,0.7-0.6,1.1-0.9c0.9-0.7,1.8-1.4,2.7-2.1c0.2-0.2,0.4-0.3,0.6-0.5c1.1-0.9,2.3-1.7,3.5-2.5c0.2-0.1,0.3-0.2,0.5-0.3
		c1-0.7,2-1.4,3-2c0.4-0.2,0.8-0.5,1.2-0.7c0.8-0.5,1.6-1,2.5-1.5c0.5-0.3,0.9-0.5,1.4-0.8c0.8-0.4,1.5-0.9,2.3-1.3
		c0.5-0.3,1-0.5,1.5-0.8c0.7-0.4,1.5-0.8,2.2-1.2c0.5-0.3,1.1-0.5,1.6-0.8c0.7-0.4,1.5-0.7,2.2-1.1c0.6-0.3,1.1-0.5,1.7-0.8
		c0.7-0.3,1.5-0.7,2.2-1c0.6-0.2,1.2-0.5,1.7-0.7c0.7-0.3,1.5-0.6,2.2-0.9c0.6-0.2,1.2-0.5,1.8-0.7c0.7-0.3,1.5-0.5,2.2-0.8
		c0.6-0.2,1.2-0.4,1.8-0.6c0.7-0.2,1.5-0.5,2.3-0.7c0.6-0.2,1.2-0.4,1.9-0.6c0.8-0.2,1.5-0.4,2.3-0.6c0.6-0.2,1.2-0.3,1.9-0.5
		c0.8-0.2,1.5-0.4,2.3-0.6c0.6-0.1,1.3-0.3,1.9-0.4c0.8-0.2,1.6-0.3,2.4-0.5c0.6-0.1,1.3-0.2,1.9-0.4c0.8-0.1,1.6-0.3,2.4-0.4
		c0.6-0.1,1.3-0.2,1.9-0.3c0.8-0.1,1.7-0.2,2.5-0.3c0.6-0.1,1.2-0.2,1.8-0.2c0.9-0.1,1.7-0.2,2.6-0.2c0.6,0,1.1-0.1,1.7-0.2
		c1-0.1,1.9-0.1,2.9-0.2c0.5,0,1-0.1,1.5-0.1c1.5-0.1,2.9-0.1,4.4-0.1s2.9,0,4.4,0.1c0.5,0,1,0.1,1.5,0.1c1,0,1.9,0.1,2.9,0.2
		c0.6,0,1.2,0.1,1.7,0.2c0.9,0.1,1.8,0.1,2.6,0.2c0.6,0.1,1.2,0.1,1.8,0.2c0.8,0.1,1.7,0.2,2.5,0.3c0.6,0.1,1.3,0.2,1.9,0.3
		c0.8,0.1,1.6,0.3,2.4,0.4c0.6,0.1,1.3,0.2,1.9,0.4c0.8,0.2,1.6,0.3,2.4,0.5c0.6,0.1,1.3,0.3,1.9,0.4c0.8,0.2,1.5,0.4,2.3,0.6
		c0.6,0.2,1.2,0.3,1.9,0.5c0.8,0.2,1.5,0.4,2.3,0.6c0.6,0.2,1.2,0.4,1.9,0.6c0.8,0.2,1.5,0.5,2.3,0.7c0.6,0.2,1.2,0.4,1.8,0.6
		c0.7,0.3,1.5,0.5,2.2,0.8c0.6,0.2,1.2,0.4,1.8,0.7c0.7,0.3,1.5,0.6,2.2,0.9c0.6,0.2,1.2,0.5,1.7,0.7c0.7,0.3,1.5,0.6,2.2,1
		c0.6,0.3,1.1,0.5,1.7,0.8c0.7,0.3,1.5,0.7,2.2,1.1c0.5,0.3,1.1,0.5,1.6,0.8c0.7,0.4,1.5,0.8,2.2,1.2c0.5,0.3,1,0.5,1.5,0.8
		c0.8,0.4,1.5,0.9,2.3,1.3c0.5,0.3,0.9,0.5,1.4,0.8c0.8,0.5,1.6,1,2.4,1.5c0.4,0.2,0.8,0.5,1.2,0.7c1,0.7,2,1.3,3,2
		c0.2,0.1,0.3,0.2,0.5,0.3c1.2,0.8,2.3,1.7,3.5,2.5c0.2,0.2,0.4,0.3,0.6,0.5c0.9,0.7,1.8,1.4,2.7,2.1c0.4,0.3,0.7,0.6,1.1,0.9
		c0.7,0.6,1.5,1.2,2.2,1.8c0.4,0.4,0.8,0.7,1.2,1.1c0.7,0.6,1.3,1.2,2,1.8c0.4,0.4,0.8,0.8,1.3,1.2c0.6,0.6,1.2,1.2,1.8,1.8
		c0.4,0.4,0.9,0.9,1.3,1.3c0.6,0.6,1.1,1.2,1.7,1.8c0.4,0.5,0.8,0.9,1.3,1.4c0.5,0.6,1.1,1.2,1.6,1.8c0.4,0.5,0.8,1,1.2,1.4
		c0.5,0.6,1,1.2,1.5,1.8c0.4,0.5,0.8,1,1.2,1.5c0.5,0.6,1,1.3,1.5,1.9c0.4,0.5,0.8,1,1.2,1.5c0.5,0.6,0.9,1.3,1.4,1.9
		c0.4,0.5,0.7,1.1,1.1,1.6c0.4,0.7,0.9,1.3,1.3,2c0.4,0.5,0.7,1.1,1.1,1.6c0.4,0.7,0.8,1.4,1.3,2c0.3,0.6,0.7,1.1,1,1.7
		c0.4,0.7,0.8,1.4,1.2,2.1c0.3,0.6,0.6,1.1,1,1.7c0.1,0.2,0.2,0.4,0.3,0.5c-1,0.7-2,1.5-3,2.2c-0.3,0.2-0.5,0.4-0.8,0.6
		c-0.8,0.5-1.5,1.1-2.3,1.6c-0.4,0.3-0.8,0.5-1.2,0.8c-0.7,0.4-1.3,0.9-2,1.3c-0.4,0.3-0.9,0.5-1.3,0.8c-0.6,0.4-1.3,0.8-1.9,1.2
		c-0.4,0.3-0.9,0.5-1.4,0.8c-0.6,0.4-1.3,0.8-1.9,1.1c-0.5,0.3-0.9,0.5-1.4,0.8c-0.6,0.4-1.2,0.7-1.9,1.1c-0.5,0.3-1,0.5-1.4,0.8
		c-0.6,0.3-1.3,0.7-1.9,1c-0.5,0.3-1,0.5-1.5,0.8c-0.6,0.3-1.3,0.7-1.9,1c-0.5,0.2-1,0.5-1.5,0.7c-0.6,0.3-1.3,0.6-1.9,0.9
		c-0.5,0.2-1,0.5-1.5,0.7c-0.7,0.3-1.3,0.6-2,0.9c-0.5,0.2-1,0.4-1.5,0.7c-0.7,0.3-1.3,0.6-2,0.9c-0.5,0.2-1,0.4-1.4,0.6
		c-0.7,0.3-1.4,0.6-2.1,0.9c-0.5,0.2-0.9,0.4-1.4,0.6c-0.7,0.3-1.5,0.6-2.2,0.9c-0.4,0.2-0.9,0.3-1.3,0.5c-0.8,0.3-1.6,0.6-2.5,0.9
		c-0.4,0.1-0.7,0.3-1.1,0.4c-1.1,0.4-2.3,0.8-3.4,1.2h-0.1c-1.2,0.4-2.4,0.8-3.6,1.2c-0.3,0.1-0.6,0.2-0.9,0.3
		c-0.9,0.3-1.8,0.5-2.7,0.8c-0.4,0.1-0.9,0.2-1.3,0.4c-0.8,0.2-1.6,0.4-2.4,0.6c-0.5,0.1-1,0.2-1.4,0.4c-0.7,0.2-1.5,0.4-2.2,0.6
		c-0.5,0.1-1,0.2-1.5,0.4c-0.7,0.2-1.4,0.3-2.1,0.5c-0.5,0.1-1.1,0.2-1.6,0.3c-0.7,0.1-1.4,0.3-2.1,0.4c-0.5,0.1-1.1,0.2-1.6,0.3
		c-0.7,0.1-1.4,0.3-2.1,0.4c-0.6,0.1-1.1,0.2-1.7,0.3c-0.7,0.1-1.4,0.2-2.1,0.3c-0.6,0.1-1.1,0.2-1.7,0.3c-0.7,0.1-1.4,0.2-2.1,0.3
		c-0.6,0.1-1.1,0.1-1.7,0.2c-0.7,0.1-1.4,0.2-2.1,0.3c-0.6,0.1-1.1,0.1-1.7,0.2c-0.7,0.1-1.4,0.1-2.1,0.2c-0.5,0.1-1.1,0.1-1.6,0.1
		c-0.7,0.1-1.5,0.1-2.2,0.2c-0.5,0-1.1,0.1-1.6,0.1c-0.8,0-1.5,0.1-2.3,0.1c-0.5,0-1,0.1-1.5,0.1c-0.8,0-1.7,0.1-2.5,0.1
		c-0.4,0-0.8,0-1.3,0c-1.3,0-2.5,0-3.8,0s-2.5,0-3.8,0c-0.4,0-0.8,0-1.3,0c-0.8,0-1.7,0-2.5-0.1c-0.5,0-1-0.1-1.5-0.1
		c-0.8,0-1.5-0.1-2.3-0.1c-0.5,0-1.1-0.1-1.6-0.1c-0.7-0.1-1.5-0.1-2.2-0.2c-0.5,0-1.1-0.1-1.6-0.1c-0.7-0.1-1.4-0.1-2.1-0.2
		c-0.6-0.1-1.1-0.1-1.7-0.2c-0.7-0.1-1.4-0.2-2.1-0.3c-0.6-0.1-1.1-0.1-1.7-0.2c-0.7-0.1-1.4-0.2-2.1-0.3c-0.6-0.1-1.1-0.2-1.7-0.3
		c-0.7-0.1-1.4-0.2-2.1-0.3c-0.5-0.1-1.1-0.2-1.6-0.3c-0.7-0.1-1.4-0.3-2.1-0.4c-0.5-0.1-1.1-0.2-1.6-0.3c-0.7-0.1-1.4-0.3-2.1-0.4
		c-0.5-0.1-1.1-0.2-1.6-0.3c-0.7-0.2-1.4-0.3-2.2-0.5c-0.5-0.1-1-0.2-1.5-0.4c-0.7-0.2-1.5-0.4-2.2-0.6c-0.5-0.1-0.9-0.2-1.4-0.4
		c-0.8-0.2-1.6-0.4-2.4-0.6c-0.4-0.1-0.8-0.2-1.3-0.3c-0.9-0.3-1.9-0.5-2.8-0.8c-0.3-0.1-0.5-0.2-0.8-0.2c-1.2-0.4-2.4-0.8-3.6-1.2
		c0,0,0,0-0.1,0c-1.2-0.4-2.3-0.8-3.5-1.2c-0.3-0.1-0.7-0.3-1-0.4c-0.8-0.3-1.7-0.6-2.5-0.9c-0.4-0.2-0.9-0.3-1.3-0.5
		c-0.7-0.3-1.5-0.6-2.2-0.9c-0.5-0.2-0.9-0.4-1.4-0.6c-0.7-0.3-1.4-0.6-2.1-0.9c-0.5-0.2-1-0.4-1.4-0.6c-0.7-0.3-1.4-0.6-2-0.9
		c-0.5-0.2-1-0.4-1.5-0.7c-0.7-0.3-1.3-0.6-2-0.9c-0.5-0.2-1-0.5-1.5-0.7c-0.6-0.3-1.3-0.6-1.9-1c-0.5-0.2-1-0.5-1.5-0.7
		c-0.6-0.3-1.3-0.7-1.9-1c-0.5-0.3-1-0.5-1.4-0.8c-0.6-0.3-1.3-0.7-1.9-1c-0.5-0.3-1-0.5-1.4-0.8c-0.6-0.4-1.3-0.7-1.9-1.1
		c-0.5-0.3-0.9-0.5-1.4-0.8c-0.6-0.4-1.3-0.8-1.9-1.1c-0.4-0.3-0.9-0.5-1.3-0.8c-0.6-0.4-1.3-0.8-1.9-1.2c-0.4-0.3-0.9-0.5-1.3-0.8
		c-0.7-0.4-1.3-0.9-2-1.3c-0.4-0.3-0.8-0.5-1.2-0.8c-0.8-0.5-1.6-1.1-2.3-1.6c-0.3-0.2-0.5-0.4-0.8-0.5c-1-0.7-2-1.4-3-2.2
		c0.1-0.2,0.2-0.4,0.3-0.5C1238.9,850.1,1239.2,849.6,1239.6,849z M1347.4,520.2c101.2,0,183.5,82.3,183.5,183.5c0,1.7,0,3.3-0.1,5
		c0,0.6,0,1.1-0.1,1.7c0,1.1-0.1,2.2-0.1,3.3c0,0.7-0.1,1.3-0.1,2c-0.1,1-0.1,2-0.2,3c-0.1,0.7-0.1,1.4-0.2,2.1
		c-0.1,1-0.2,1.9-0.3,2.9c-0.1,0.7-0.2,1.4-0.2,2.1c-0.1,0.9-0.2,1.9-0.4,2.8c-0.1,0.7-0.2,1.4-0.3,2.2c-0.1,0.9-0.3,1.8-0.4,2.8
		c-0.1,0.7-0.2,1.4-0.4,2.1c-0.2,0.9-0.3,1.8-0.5,2.7c-0.1,0.7-0.3,1.4-0.4,2.1c-0.2,0.9-0.4,1.8-0.6,2.7c-0.2,0.7-0.3,1.4-0.5,2.1
		c-0.2,0.9-0.4,1.8-0.7,2.8c-0.2,0.7-0.3,1.3-0.5,2c-0.2,1-0.5,1.9-0.8,2.9c-0.2,0.6-0.3,1.3-0.5,1.9c-0.3,1-0.6,2-0.9,3.1
		c-0.2,0.5-0.3,1.1-0.5,1.6c-0.4,1.3-0.8,2.5-1.3,3.8c-0.1,0.3-0.2,0.6-0.3,0.9c-0.5,1.5-1.1,3.1-1.7,4.6c-0.1,0.4-0.3,0.7-0.4,1.1
		c-0.4,1.2-0.9,2.3-1.4,3.4c-0.2,0.5-0.5,1.1-0.7,1.6c-0.4,1-0.8,1.9-1.2,2.9c-0.3,0.6-0.5,1.2-0.8,1.8c-0.4,0.9-0.8,1.8-1.2,2.7
		c-0.3,0.6-0.6,1.2-0.9,1.8c-0.4,0.9-0.8,1.7-1.3,2.6c-0.3,0.6-0.6,1.2-1,1.8c-0.4,0.8-0.9,1.7-1.3,2.5c-0.3,0.6-0.7,1.2-1,1.8
		c-0.5,0.8-0.9,1.6-1.4,2.4c-0.4,0.6-0.7,1.2-1.1,1.8c-0.5,0.8-1,1.6-1.4,2.4c-0.4,0.6-0.7,1.2-1.1,1.8c-0.5,0.8-1,1.6-1.5,2.4
		c-0.4,0.6-0.7,1.1-1.1,1.7c-0.5,0.8-1.1,1.6-1.6,2.4c-0.4,0.5-0.7,1.1-1.1,1.6c-0.6,0.8-1.2,1.7-1.8,2.5c-0.4,0.5-0.7,1-1.1,1.5
		c-0.7,1-1.4,1.9-2.2,2.8c-0.3,0.4-0.5,0.7-0.8,1.1c-1,1.3-2.1,2.6-3.1,3.8c-0.1,0.1-0.2,0.3-0.4,0.4c-0.9,1.1-1.9,2.2-2.9,3.3
		c-0.4,0.4-0.7,0.8-1.1,1.2c-0.7,0.8-1.5,1.6-2.2,2.4c-0.4,0.5-0.9,0.9-1.3,1.4c-0.7,0.7-1.4,1.5-2.1,2.2c-0.5,0.5-1,1-1.5,1.5
		c-0.7,0.7-1.4,1.4-2.1,2c-0.5,0.5-1,1-1.5,1.5c-0.4,0.4-0.9,0.8-1.3,1.2c-0.2-0.4-0.5-0.8-0.7-1.1c-0.4-0.6-0.7-1.3-1.1-1.9
		c-0.5-0.8-1-1.6-1.5-2.4c-0.4-0.6-0.8-1.2-1.2-1.8c-0.5-0.8-1-1.6-1.6-2.4c-0.4-0.6-0.8-1.2-1.2-1.8c-0.6-0.8-1.1-1.6-1.7-2.3
		c-0.4-0.6-0.8-1.1-1.2-1.7c-0.6-0.8-1.2-1.6-1.9-2.4c-0.4-0.5-0.8-1-1.2-1.5c-0.7-0.9-1.5-1.8-2.2-2.6c-0.3-0.4-0.6-0.8-1-1.2
		c-1.1-1.2-2.2-2.4-3.3-3.6c-0.3-0.3-0.6-0.6-0.9-0.9c-0.8-0.9-1.7-1.8-2.6-2.6c-0.4-0.4-0.9-0.9-1.4-1.3c-0.7-0.7-1.4-1.4-2.2-2.1
		c-0.5-0.5-1-0.9-1.5-1.4c-0.7-0.6-1.4-1.3-2.1-1.9c-0.5-0.5-1.1-0.9-1.7-1.4c-0.7-0.6-1.4-1.2-2.1-1.7c-0.6-0.5-1.2-0.9-1.7-1.4
		c-0.7-0.6-1.4-1.1-2.1-1.6c-0.6-0.5-1.2-0.9-1.8-1.3c-0.7-0.5-1.4-1-2.2-1.6c-0.6-0.4-1.2-0.9-1.8-1.3c-0.7-0.5-1.5-1-2.2-1.5
		c-0.6-0.4-1.2-0.8-1.9-1.2c-0.8-0.5-1.5-1-2.3-1.4c-0.6-0.4-1.2-0.8-1.9-1.1c-0.8-0.5-1.6-0.9-2.4-1.4c-0.6-0.3-1.2-0.7-1.8-1
		c-0.9-0.5-1.8-0.9-2.6-1.4c-0.6-0.3-1.1-0.6-1.7-0.9c-1.1-0.5-2.2-1.1-3.3-1.6c-0.4-0.2-0.7-0.4-1.1-0.5c-1.5-0.7-3-1.3-4.5-2
		c-0.5-0.2-1-0.4-1.5-0.6c-1-0.4-2.1-0.8-3.1-1.2c-0.6-0.2-1.2-0.4-1.8-0.7c-0.9-0.3-1.9-0.7-2.8-1c-0.7-0.2-1.3-0.4-2-0.7
		c-0.9-0.3-1.8-0.6-2.7-0.9c-0.7-0.2-1.4-0.4-2.1-0.6c-0.9-0.3-1.8-0.5-2.7-0.7c-0.7-0.2-1.4-0.4-2.1-0.5c-0.9-0.2-1.8-0.4-2.7-0.6
		c-0.7-0.2-1.4-0.3-2.2-0.5c-0.9-0.2-1.8-0.4-2.7-0.6c-0.7-0.1-1.4-0.3-2.2-0.4c-0.9-0.2-1.8-0.3-2.8-0.5c-0.7-0.1-1.4-0.2-2.2-0.3
		c-0.9-0.1-1.9-0.3-2.9-0.4c-0.7-0.1-1.4-0.2-2.1-0.2c-1-0.1-2-0.2-3-0.3c-0.7-0.1-1.3-0.1-2-0.2c-1.1-0.1-2.2-0.1-3.4-0.2
		c-0.6,0-1.1-0.1-1.7-0.1c-1.7-0.1-3.4-0.1-5.1-0.1s-3.4,0-5.1,0.1c-0.6,0-1.1,0.1-1.7,0.1c-1.1,0.1-2.2,0.1-3.4,0.2
		c-0.7,0-1.3,0.1-2,0.2c-1,0.1-2,0.2-3,0.3c-0.7,0.1-1.4,0.2-2.1,0.2c-1,0.1-1.9,0.2-2.9,0.4c-0.7,0.1-1.4,0.2-2.2,0.3
		c-0.9,0.1-1.9,0.3-2.8,0.5c-0.7,0.1-1.4,0.3-2.2,0.4c-0.9,0.2-1.8,0.4-2.7,0.6c-0.7,0.2-1.4,0.3-2.2,0.5c-0.9,0.2-1.8,0.4-2.7,0.6
		c-0.7,0.2-1.4,0.4-2.1,0.5c-0.9,0.2-1.8,0.5-2.7,0.7c-0.7,0.2-1.4,0.4-2.1,0.6c-0.9,0.3-1.8,0.6-2.7,0.9c-0.7,0.2-1.3,0.4-2,0.7
		c-0.9,0.3-1.9,0.7-2.8,1c-0.6,0.2-1.2,0.4-1.8,0.7c-1,0.4-2.1,0.8-3.1,1.2c-0.5,0.2-1,0.4-1.4,0.6c-1.5,0.6-3,1.3-4.5,2
		c-0.4,0.2-0.7,0.4-1.1,0.5c-1.1,0.5-2.2,1-3.3,1.6c-0.6,0.3-1.1,0.6-1.7,0.9c-0.9,0.5-1.8,0.9-2.6,1.4c-0.6,0.3-1.2,0.7-1.8,1
		c-0.8,0.5-1.6,0.9-2.4,1.4c-0.6,0.4-1.2,0.7-1.9,1.1c-0.8,0.5-1.5,0.9-2.3,1.4c-0.6,0.4-1.2,0.8-1.9,1.2c-0.7,0.5-1.5,1-2.2,1.5
		c-0.6,0.4-1.2,0.8-1.8,1.3c-0.7,0.5-1.4,1-2.2,1.6c-0.6,0.4-1.2,0.9-1.8,1.3c-0.7,0.5-1.4,1.1-2.1,1.6c-0.6,0.5-1.2,0.9-1.7,1.4
		c-0.7,0.6-1.4,1.2-2.1,1.7c-0.6,0.5-1.1,0.9-1.7,1.4c-0.7,0.6-1.4,1.2-2.1,1.9c-0.5,0.5-1,0.9-1.6,1.4c-0.7,0.7-1.4,1.4-2.1,2.1
		c-0.5,0.4-0.9,0.9-1.4,1.3c-0.9,0.9-1.7,1.7-2.5,2.6c-0.3,0.3-0.6,0.6-0.9,0.9c-1.1,1.2-2.2,2.4-3.3,3.6c-0.3,0.4-0.7,0.8-1,1.2
		c-0.7,0.9-1.5,1.7-2.2,2.6c-0.4,0.5-0.8,1-1.2,1.5c-0.6,0.8-1.2,1.6-1.8,2.3c-0.4,0.6-0.8,1.1-1.3,1.7c-0.6,0.8-1.1,1.5-1.7,2.3
		c-0.4,0.6-0.8,1.2-1.2,1.8c-0.5,0.8-1,1.5-1.6,2.3c-0.4,0.6-0.8,1.2-1.2,1.9c-0.5,0.8-1,1.6-1.5,2.4c-0.4,0.6-0.8,1.3-1.1,1.9
		c-0.2,0.4-0.5,0.7-0.7,1.1c-0.4-0.4-0.8-0.8-1.3-1.2c-0.5-0.5-1.1-1-1.6-1.5c-0.7-0.7-1.4-1.3-2-2c-0.5-0.5-1-1-1.5-1.5
		c-0.7-0.7-1.4-1.4-2-2.1c-0.5-0.5-0.9-1-1.4-1.5c-0.7-0.8-1.4-1.6-2.1-2.3c-0.4-0.4-0.8-0.9-1.2-1.3c-0.9-1-1.8-2.1-2.7-3.1
		c-0.2-0.2-0.4-0.4-0.5-0.6c-1.1-1.3-2.1-2.5-3.1-3.8c-0.3-0.4-0.6-0.8-0.9-1.2c-0.7-0.9-1.4-1.8-2.1-2.7c-0.4-0.5-0.7-1-1.1-1.5
		c-0.6-0.8-1.2-1.6-1.8-2.4c-0.4-0.6-0.8-1.1-1.2-1.7c-0.5-0.8-1.1-1.6-1.6-2.4c-0.4-0.6-0.8-1.2-1.2-1.8c-0.5-0.8-1-1.6-1.5-2.4
		c-0.4-0.6-0.8-1.2-1.1-1.8c-0.5-0.8-1-1.6-1.4-2.4c-0.4-0.6-0.7-1.2-1.1-1.9c-0.5-0.8-0.9-1.6-1.4-2.4c-0.3-0.6-0.7-1.3-1-1.9
		c-0.4-0.8-0.9-1.6-1.3-2.4c-0.3-0.6-0.7-1.3-1-1.9c-0.4-0.8-0.8-1.7-1.2-2.5c-0.3-0.6-0.6-1.2-0.9-1.9c-0.4-0.9-0.8-1.7-1.2-2.6
		c-0.3-0.6-0.6-1.2-0.8-1.8c-0.4-0.9-0.8-1.9-1.2-2.8c-0.2-0.6-0.5-1.1-0.7-1.7c-0.5-1.1-0.9-2.2-1.3-3.4c-0.2-0.4-0.3-0.8-0.5-1.2
		c-0.6-1.5-1.1-3.1-1.7-4.6c-0.1-0.3-0.2-0.6-0.3-0.9c-0.4-1.2-0.8-2.5-1.2-3.7c-0.2-0.5-0.3-1.1-0.5-1.7c-0.3-1-0.6-2-0.9-3
		c-0.2-0.6-0.4-1.3-0.5-1.9c-0.3-0.9-0.5-1.9-0.8-2.8c-0.2-0.7-0.3-1.3-0.5-2c-0.2-0.9-0.5-1.8-0.7-2.8c-0.2-0.7-0.3-1.4-0.5-2.1
		c-0.2-0.9-0.4-1.8-0.6-2.7c-0.1-0.7-0.3-1.4-0.4-2.1c-0.2-0.9-0.3-1.8-0.5-2.7c-0.1-0.7-0.2-1.4-0.4-2.1c-0.1-0.9-0.3-1.8-0.4-2.8
		c-0.1-0.7-0.2-1.4-0.3-2.2c-0.1-0.9-0.2-1.9-0.4-2.8c-0.1-0.7-0.2-1.4-0.2-2.1c-0.1-1-0.2-1.9-0.3-2.9c-0.1-0.7-0.1-1.4-0.2-2.1
		c-0.1-1-0.1-2-0.2-3c0-0.7-0.1-1.3-0.1-2c-0.1-1.1-0.1-2.2-0.1-3.3c0-0.6,0-1.1-0.1-1.7c0-1.7-0.1-3.3-0.1-5
		C1163.9,602.5,1246.2,520.2,1347.4,520.2z"/>
	<path class="st0" d="M1347.4,757.2c52.7,0,95.5-42.8,95.5-95.5s-42.8-95.5-95.5-95.5s-95.5,42.8-95.5,95.5
		S1294.7,757.2,1347.4,757.2z M1347.4,586.2c41.6,0,75.5,33.9,75.5,75.5s-33.9,75.5-75.5,75.5s-75.5-33.9-75.5-75.5
		C1271.9,620.1,1305.8,586.2,1347.4,586.2z"/>
</g>
<g id="y_x5F_code2">
	<path class="st0" d="M3829.2,1586.3h-205c-5.5,0-10,4.5-10,10s4.5,10,10,10h205c5.5,0,10-4.5,10-10S3834.7,1586.3,3829.2,1586.3z"
		/>
	<path class="st0" d="M3464.2,1753.1h-176c-5.5,0-10,4.5-10,10s4.5,10,10,10h176c5.5,0,10-4.5,10-10S3469.7,1753.1,3464.2,1753.1z"
		/>
	<path class="st0" d="M3732.2,1835.3h-49c-5.5,0-10,4.5-10,10s4.5,10,10,10h49c5.5,0,10-4.5,10-10S3737.7,1835.3,3732.2,1835.3z"/>
	<path class="st0" d="M3288.2,497L3288.2,497l394-0.7c5.5,0,10-4.5,10-10s-4.5-10-10-10l0,0l-394,0.7c-5.5,0-10,4.5-10,10
		S3282.7,497,3288.2,497z"/>
	<path class="st0" d="M3719.2,496.3h105c5.5,0,10-4.5,10-10s-4.5-10-10-10h-105c-5.5,0-10,4.5-10,10S3713.7,496.3,3719.2,496.3z"/>
	<path class="st0" d="M3829.2,560.5h-205c-5.5,0-10,4.5-10,10s4.5,10,10,10h205c5.5,0,10-4.5,10-10S3834.7,560.5,3829.2,560.5z"/>
	<path class="st0" d="M4008,986.5c0-5.5-4.5-10-10-10h-141.6c-5.5,0-10,4.5-10,10s4.5,10,10,10H3998
		C4003.6,996.5,4008,992,4008,986.5z"/>
	<path class="st0" d="M4056.3,1057.3H3938c-5.5,0-10,4.5-10,10s4.5,10,10,10h118.3c5.5,0,10-4.5,10-10S4061.8,1057.3,4056.3,1057.3z
		"/>
</g>
<g id="code_1_">
	<path class="st1" d="M3288.2,1687.1h176c5.5,0,10-4.5,10-10s-4.5-10-10-10h-176c-5.5,0-10,4.5-10,10S3282.7,1687.1,3288.2,1687.1z"
		/>
	<path class="st1" d="M3713.2,1677.1c0-5.5-4.5-10-10-10H3504c-5.5,0-10,4.5-10,10s4.5,10,10,10h199.2
		C3708.7,1687.1,3713.2,1682.6,3713.2,1677.1z"/>
	<path class="st1" d="M3916.5,1667.1h-171.2c-5.5,0-10,4.5-10,10s4.5,10,10,10h171.2c5.5,0,10-4.5,10-10S3922,1667.1,3916.5,1667.1z
		"/>
	<path class="st1" d="M3683.8,1763.1c0-5.5-4.5-10-10-10h-164.9c-5.5,0-10,4.5-10,10s4.5,10,10,10h164.9
		C3679.4,1773.1,3683.8,1768.6,3683.8,1763.1z"/>
	<path class="st1" d="M3846.3,1753.1h-135.6c-5.5,0-10,4.5-10,10s4.5,10,10,10h135.6c5.5,0,10-4.5,10-10
		S3851.8,1753.1,3846.3,1753.1z"/>
	<path class="st1" d="M3288.2,1855.3h353c5.5,0,10-4.5,10-10s-4.5-10-10-10h-353c-5.5,0-10,4.5-10,10S3282.7,1855.3,3288.2,1855.3z"
		/>
	<path class="st1" d="M3789.9,1155.1c0-5.5-4.5-10-10-10h-157.7c-5.5,0-10,4.5-10,10s4.5,10,10,10h157.7
		C3785.5,1165.1,3789.9,1160.6,3789.9,1155.1z"/>
	<path class="st1" d="M3967.8,1145.1h-147.7c-5.5,0-10,4.5-10,10s4.5,10,10,10h147.7c5.5,0,10-4.5,10-10
		S3973.3,1145.1,3967.8,1145.1z"/>
	<path class="st1" d="M4122.3,1145.1h-121.5c-5.5,0-10,4.5-10,10s4.5,10,10,10h121.5c5.5,0,10-4.5,10-10
		S4127.8,1145.1,4122.3,1145.1z"/>
	<path class="st1" d="M3452.2,1918.3h-231c-5.5,0-10,4.5-10,10s4.5,10,10,10h231c5.5,0,10-4.5,10-10S3457.7,1918.3,3452.2,1918.3z"
		/>
	<path class="st1" d="M3698.7,1918.3h-206c-5.5,0-10,4.5-10,10s4.5,10,10,10h206c5.5,0,10-4.5,10-10S3704.2,1918.3,3698.7,1918.3z"
		/>
	<path class="st1" d="M3334.4,1990.3c-5.2-1.8-10.9,1.1-12.7,6.3l-36,107c-1.8,5.2,1.1,10.9,6.3,12.7c1.1,0.4,2.1,0.5,3.2,0.5
		c4.2,0,8.1-2.6,9.5-6.8l36-107C3342.5,1997.7,3339.6,1992,3334.4,1990.3z"/>
	<path class="st1" d="M3277.6,2017.7c-3.9-3.9-10.2-3.9-14.1,0l-30,30c-3.9,3.9-3.9,10.2,0,14.1l30,30c2,2,4.5,2.9,7.1,2.9
		s5.1-1,7.1-2.9c3.9-3.9,3.9-10.2,0-14.1l-22.9-22.9l22.9-22.9C3281.5,2027.9,3281.5,2021.6,3277.6,2017.7z"/>
	<path class="st1" d="M3364.6,2017.7c-3.9-3.9-10.2-3.9-14.1,0s-3.9,10.2,0,14.1l22.9,22.9l-22.9,22.9c-3.9,3.9-3.9,10.2,0,14.1
		c2,2,4.5,2.9,7.1,2.9s5.1-1,7.1-2.9l30-30c3.9-3.9,3.9-10.2,0-14.1L3364.6,2017.7z"/>
	<path class="st1" d="M3221.2,411h223c5.5,0,10-4.5,10-10s-4.5-10-10-10h-223c-5.5,0-10,4.5-10,10S3215.7,411,3221.2,411z"/>
	<path class="st1" d="M3482.2,410h183c5.5,0,10-4.5,10-10s-4.5-10-10-10h-183c-5.5,0-10,4.5-10,10S3476.7,410,3482.2,410z"/>
	<path class="st1" d="M3288.2,580.5h299c5.5,0,10-4.5,10-10s-4.5-10-10-10h-299c-5.5,0-10,4.5-10,10S3282.7,580.5,3288.2,580.5z"/>
	<path class="st1" d="M3288.2,661.3h176c5.5,0,10-4.5,10-10s-4.5-10-10-10h-176c-5.5,0-10,4.5-10,10S3282.7,661.3,3288.2,661.3z"/>
	<path class="st1" d="M3494,651.3c0,5.5,4.5,10,10,10h199.2c5.5,0,10-4.5,10-10s-4.5-10-10-10H3504
		C3498.5,641.3,3494,645.8,3494,651.3z"/>
	<path class="st1" d="M3745.2,661.3h171.2c5.5,0,10-4.5,10-10s-4.5-10-10-10h-171.2c-5.5,0-10,4.5-10,10S3739.7,661.3,3745.2,661.3z
		"/>
	<path class="st1" d="M3902.5,902.3c0-5.5-4.5-10-10-10l0,0l-272.2,0.7c-5.5,0-10,4.5-10,10s4.5,10,10,10l0,0l272.2-0.7
		C3898,912.3,3902.5,907.8,3902.5,902.3z"/>
	<path class="st1" d="M3836.8,986.5c0-5.5-4.5-10-10-10h-206.6c-5.5,0-10,4.5-10,10s4.5,10,10,10h206.6
		C3832.3,996.5,3836.8,992,3836.8,986.5z"/>
	<path class="st1" d="M3620.2,1057.3c-5.5,0-10,4.5-10,10s4.5,10,10,10h121.6c5.5,0,10-4.5,10-10s-4.5-10-10-10H3620.2z"/>
	<path class="st1" d="M3919,1067.3c0-5.5-4.5-10-10-10h-137.7c-5.5,0-10,4.5-10,10s4.5,10,10,10H3909
		C3914.5,1077.3,3919,1072.8,3919,1067.3z"/>
	<path class="st1" d="M3564.3,737.3c0,5.5,4.5,10,10,10h142.9c5.5,0,10-4.5,10-10s-4.5-10-10-10h-142.9
		C3568.8,727.3,3564.3,731.8,3564.3,737.3z"/>
	<path class="st1" d="M3751.2,727.3c-5.5,0-10,4.5-10,10s4.5,10,10,10h171.2c5.5,0,10-4.5,10-10s-4.5-10-10-10H3751.2z"/>
	<path class="st1" d="M3742.2,809.5h-49c-0.4,0-0.9,0-1.3,0.1c-0.4-0.1-0.9-0.1-1.3-0.1h-77.3c-5.5,0-10,4.5-10,10s4.5,10,10,10
		h77.3c0.4,0,0.9,0,1.3-0.1c0.4,0.1,0.9,0.1,1.3,0.1h49c5.5,0,10-4.5,10-10S3747.7,809.5,3742.2,809.5z"/>
</g>
<g id="cart">
	<path class="st0" d="M3371.6,1349.5h236c5.5,0,10-4.5,10-10s-4.5-10-10-10h-236c-5.5,0-10,4.5-10,10S3366.1,1349.5,3371.6,1349.5z"
		/>
	<path class="st0" d="M3729.6,1391.5h-358c-5.5,0-10,4.5-10,10s4.5,10,10,10h358c5.5,0,10-4.5,10-10S3735.1,1391.5,3729.6,1391.5z"
		/>
	<path class="st0" d="M3297.9,1286.5h-106.7c-13.6,0-24.7,11.1-24.7,24.7v106.7c0,13.6,11.1,24.7,24.7,24.7h106.7
		c13.6,0,24.7-11.1,24.7-24.7v-106.7C3322.6,1297.6,3311.5,1286.5,3297.9,1286.5z M3302.6,1417.8c0,2.6-2.1,4.7-4.7,4.7h-106.7
		c-2.6,0-4.7-2.1-4.7-4.7v-106.6c0-2.6,2.1-4.7,4.7-4.7h106.7c2.6,0,4.7,2.1,4.7,4.7V1417.8z"/>
</g>
<g id="x_cart">
	<path class="st0" d="M2795.6,1017.5h236c5.5,0,10-4.5,10-10s-4.5-10-10-10h-236c-5.5,0-10,4.5-10,10S2790.1,1017.5,2795.6,1017.5z"
		/>
	<path class="st0" d="M3153.6,1059.5h-358c-5.5,0-10,4.5-10,10s4.5,10,10,10h358c5.5,0,10-4.5,10-10S3159.1,1059.5,3153.6,1059.5z"
		/>
	<path class="st0" d="M2721.9,954.5h-106.7c-13.6,0-24.7,11.1-24.7,24.7v106.7c0,13.6,11.1,24.7,24.7,24.7h106.7
		c13.6,0,24.7-11.1,24.7-24.7V979.2C2746.6,965.6,2735.5,954.5,2721.9,954.5z M2726.6,1085.8c0,2.6-2.1,4.7-4.7,4.7h-106.7
		c-2.6,0-4.7-2.1-4.7-4.7V979.2c0-2.6,2.1-4.7,4.7-4.7h106.7c2.6,0,4.7,2.1,4.7,4.7V1085.8z"/>
	<path class="st0" d="M2702.1,999c-3.9-3.9-10.2-3.9-14.1,0l-20.3,20.3l-20.3-20.3c-3.9-3.9-10.2-3.9-14.1,0
		c-3.9,3.9-3.9,10.2,0,14.1l20.3,20.3l-20.3,20.3c-3.9,3.9-3.9,10.2,0,14.1c2,2,4.5,2.9,7.1,2.9s5.1-1,7.1-2.9l20.3-20.3l20.3,20.3
		c2,2,4.5,2.9,7.1,2.9s5.1-1,7.1-2.9c3.9-3.9,3.9-10.2,0-14.1l-20.5-20.2l20.3-20.3C2706,1009.3,2706,1002.9,2702.1,999z"/>
</g>
<g id="code">
	<path class="st1" d="M271,661.9h183c5.5,0,10-4.5,10-10s-4.5-10-10-10H271c-5.5,0-10,4.5-10,10S265.4,661.9,271,661.9z"/>
	<path class="st1" d="M77,748.9L77,748.9l394-0.7c5.5,0,10-4.5,10-10s-4.5-10-10-10l0,0l-394,0.7c-5.5,0-10,4.5-10,10
		S71.5,748.9,77,748.9z"/>
	<path class="st1" d="M508,748.2h105c5.5,0,10-4.5,10-10s-4.5-10-10-10H508c-5.5,0-10,4.5-10,10S502.4,748.2,508,748.2z"/>
	<path class="st1" d="M77,832.4h299c5.5,0,10-4.5,10-10s-4.5-10-10-10H77c-5.5,0-10,4.5-10,10S71.4,832.4,77,832.4z"/>
	<path class="st1" d="M413,812.4c-5.5,0-10,4.5-10,10s4.5,10,10,10h205c5.5,0,10-4.5,10-10s-4.5-10-10-10H413z"/>
	<path class="st1" d="M253,893.2H77c-5.5,0-10,4.5-10,10s4.5,10,10,10h176c5.5,0,10-4.5,10-10S258.5,893.2,253,893.2z"/>
	<path class="st1" d="M705.2,913.2c5.5,0,10-4.5,10-10s-4.5-10-10-10H534c-5.5,0-10,4.5-10,10s4.5,10,10,10H705.2z"/>
	<path class="st1" d="M253,979.2H77c-5.5,0-10,4.5-10,10s4.5,10,10,10h176c5.5,0,10-4.5,10-10S258.5,979.2,253,979.2z"/>
	<path class="st1" d="M506,979.2H297.8c-5.5,0-10,4.5-10,10s4.5,10,10,10H506c5.5,0,10-4.5,10-10S511.5,979.2,506,979.2z"/>
	<path class="st1" d="M711.2,979.2H540c-5.5,0-10,4.5-10,10s4.5,10,10,10h171.2c5.5,0,10-4.5,10-10S716.7,979.2,711.2,979.2z"/>
	<path class="st1" d="M241,1144.4H10c-5.5,0-10,4.5-10,10s4.5,10,10,10h231c5.5,0,10-4.5,10-10S246.5,1144.4,241,1144.4z"/>
	<path class="st1" d="M487.5,1144.4h-206c-5.5,0-10,4.5-10,10s4.5,10,10,10h206c5.5,0,10-4.5,10-10S493,1144.4,487.5,1144.4z"/>
</g>
<g id="y_x5F_code">
	<path class="st0" d="M243,652.9c0-5.5-4.5-10-10-10H10c-5.5,0-10,4.5-10,10s4.5,10,10,10h223C238.5,662.9,243,658.4,243,652.9z"/>
	<path class="st0" d="M292.7,913.2h199.2c5.5,0,10-4.5,10-10s-4.5-10-10-10H292.7c-5.5,0-10,4.5-10,10S287.2,913.2,292.7,913.2z"/>
	<path class="st0" d="M430,1061.4H77c-5.5,0-10,4.5-10,10s4.5,10,10,10h353c5.5,0,10-4.5,10-10S435.5,1061.4,430,1061.4z"/>
	<path class="st0" d="M521,1061.4h-49c-5.5,0-10,4.5-10,10s4.5,10,10,10h49c5.5,0,10-4.5,10-10S526.5,1061.4,521,1061.4z"/>
	<path class="st0" d="M123.2,1216.4c-5.2-1.8-10.9,1.1-12.7,6.3l-36,107c-1.8,5.2,1.1,10.9,6.3,12.7c1.1,0.4,2.1,0.5,3.2,0.5
		c4.2,0,8.1-2.6,9.5-6.8l36-107C131.2,1223.9,128.4,1218.2,123.2,1216.4z"/>
	<path class="st0" d="M66.4,1243.8c-3.9-3.9-10.2-3.9-14.1,0l-30,30c-3.9,3.9-3.9,10.2,0,14.1l30,30c2,2,4.5,2.9,7.1,2.9
		s5.1-1,7.1-2.9c3.9-3.9,3.9-10.2,0-14.1l-22.9-22.9l22.9-22.9C70.3,1254.1,70.3,1247.7,66.4,1243.8z"/>
	<path class="st0" d="M153.4,1243.8c-3.9-3.9-10.2-3.9-14.1,0c-3.9,3.9-3.9,10.2,0,14.1l22.9,22.9l-22.9,22.9
		c-3.9,3.9-3.9,10.2,0,14.1c2,2,4.5,2.9,7.1,2.9s5.1-1,7.1-2.9l30-30c3.9-3.9,3.9-10.2,0-14.1L153.4,1243.8z"/>
</g>
<g id="cart1">
	<path class="st0" d="M2057.7,1437.5h-150.8h-63h-144.2c-5.5,0-10,4.5-10,10s4.5,10,10,10h144.2h63h150.8c5.5,0,10-4.5,10-10
		S2063.3,1437.5,2057.7,1437.5z"/>
	<path class="st0" d="M1699.7,1395.5h144.2h63h28.8c5.5,0,10-4.5,10-10s-4.5-10-10-10h-28.8h-63h-144.2c-5.5,0-10,4.5-10,10
		S1694.2,1395.5,1699.7,1395.5z"/>
	<path class="st0" d="M1648.5,1347c-4-8.8-12.8-14.5-22.5-14.5h-106.7c-9.7,0-18.5,5.7-22.5,14.5l0,0c-1.4,3.2-2.2,6.6-2.2,10.1
		v106.7c0,13.6,11.1,24.7,24.7,24.7H1626c13.6,0,24.7-11.1,24.7-24.7v-106.6C1650.7,1353.7,1650,1350.3,1648.5,1347
		C1648.6,1347,1648.6,1347,1648.5,1347z M1630.7,1463.8c0,2.6-2.1,4.7-4.7,4.7h-106.7c-2.6,0-4.7-2.1-4.7-4.7v-106.6
		c0-0.7,0.1-1.3,0.4-1.9l0,0c0.8-1.7,2.4-2.8,4.2-2.8h106.7c1.8,0,3.5,1.1,4.2,2.8l0,0c0.3,0.6,0.4,1.3,0.4,1.9v106.6H1630.7z"/>
</g>
<g id="phone">
	<path class="st1" d="M1514,196h-324c-5.5,0-10,4.5-10,10s4.5,10,10,10h324c5.5,0,10-4.5,10-10S1519.5,196,1514,196z"/>
	<g>
		<path class="st1" d="M1184.6,1842c52.4,0,95-42.6,95-95s-42.6-95-95-95s-95,42.6-95,95S1132.2,1842,1184.6,1842z M1184.6,1672
			c41.4,0,75,33.6,75,75s-33.6,75-75,75s-75-33.6-75-75S1143.3,1672,1184.6,1672z"/>
		<path class="st1" d="M2253.7,1275.5h-336.8v-1012c0-74.2-60.3-134.5-134.5-134.5H912.3c-74.2,0-134.5,60.3-134.5,134.5V1611H270.1
			c-75,0-136,61-136,136s61,136,136,136h507.7v174.7c0,74.2,60.3,134.5,134.5,134.5h870.1c74.2,0,134.5-60.3,134.5-134.5v-508.2
			h336.8c26.5,0,48-21.5,48-48v-178C2301.7,1297,2280.2,1275.5,2253.7,1275.5z M797.8,263.5c0-63.1,51.4-114.5,114.5-114.5h870.1
			c63.1,0,114.5,51.4,114.5,114.5v1012h-43V284.4c0-49.4-40.2-89.6-89.6-89.6h-174c-9.3,0-16.9,7.6-16.9,16.9
			c0,18.7-15.2,33.9-33.9,33.9h-384.2c-6.8,0-13.3-2-18.9-5.8c-0.5-0.3-0.9-0.6-1.3-0.9c-1.3-1-2.5-2-3.7-3.2
			c-1.1-1.1-2.2-2.4-3.2-3.7c-0.3-0.4-0.6-0.9-0.9-1.3c-3.8-5.6-5.8-12.1-5.8-18.9c0-9.3-7.6-16.9-16.9-16.9h-174
			c-49.4,0-89.6,40.2-89.6,89.6V1611h-43V263.5H797.8z M1465.7,1549.5h368.2v487.3c0,38.4-31.2,69.6-69.6,69.6H930.5
			c-38.4,0-69.6-31.2-69.6-69.6V1883h330.8c75,0,136-61,136-136s-61-136-136-136H860.9V284.4c0-38.4,31.2-69.6,69.6-69.6h171
			c0.6,9.7,3.7,18.9,9.1,27c0.5,0.7,1,1.4,1.5,2.1c1.5,2.1,3.2,4,5.1,5.9c1.8,1.8,3.8,3.5,5.9,5.1c0.7,0.5,1.4,1,2.1,1.5
			c8.9,6,19.3,9.2,30.1,9.2h384.3c28.7,0,52.2-22.5,53.8-50.7h171c38.4,0,69.6,31.2,69.6,69.6v991h-88.7h-279.6
			c-26.5,0-48,21.5-48,48v27.6v150.4C1417.7,1528,1439.3,1549.5,1465.7,1549.5z M154.2,1747c0-64,52-116,116-116h517.7h63h340.8
			c64,0,116,52,116,116s-52,116-116,116H850.9h-63H270.2C206.2,1863,154.2,1811,154.2,1747z M1897,2057.7
			c0,63.1-51.4,114.5-114.5,114.5H912.4c-63.1,0-114.5-51.4-114.5-114.5V1883h43v153.8c0,49.4,40.2,89.6,89.6,89.6h833.8
			c49.4,0,89.6-40.2,89.6-89.6v-487.3h43L1897,2057.7L1897,2057.7z M2281.7,1501.5c0,15.4-12.6,28-28,28h-346.8h-63h-378.2
			c-15.4,0-28-12.6-28-28v-150.4v-27.6c0-15.4,12.6-28,28-28h279.6h98.7h63h346.8c15.4,0,28,12.6,28,28L2281.7,1501.5L2281.7,1501.5
			z"/>
	</g>
</g>
<g id="search">
	<path class="st0" d="M751.6,1777.5H290.2c-5.5,0-10,4.5-10,10s4.5,10,10,10h461.4c5.5,0,10-4.5,10-10S757.1,1777.5,751.6,1777.5z"
		/>
	<path class="st0" d="M1233.4,1780.2l-22.1-22.1c4-6.6,6.3-14.3,6.3-22.5c0-24-19.5-43.5-43.5-43.5s-43.5,19.5-43.5,43.5
		s19.5,43.5,43.5,43.5c8.5,0,16.5-2.5,23.2-6.7l22,22c2,2,4.5,2.9,7.1,2.9s5.1-1,7.1-2.9c2-2,2.9-4.5,2.9-7.1
		S1235.4,1782.1,1233.4,1780.2z M1174.1,1759c-13,0-23.5-10.5-23.5-23.5s10.5-23.5,23.5-23.5s23.5,10.5,23.5,23.5
		S1187.1,1759,1174.1,1759z"/>
</g>
<g id="wheel">
	<path class="st1" d="M598.1,243.1h-17.3c-1.2-3.4-2.6-6.8-4.2-10.1l12.3-12.3c5.9-5.9,5.9-15.4,0-21.3l-35.7-35.7
		c-2.8-2.8-6.6-4.4-10.6-4.4s-7.8,1.6-10.6,4.4L519.7,176c-3.3-1.5-6.6-2.9-10.1-4.2v-17.3c0-8.3-6.7-15-15-15h-50.5
		c-8.3,0-15,6.7-15,15v17.3c-3.4,1.2-6.8,2.6-10.1,4.2l-12.3-12.3c-5.9-5.9-15.4-5.9-21.3,0l-35.7,35.7c-5.9,5.9-5.9,15.4,0,21.3
		L362,233c-1.5,3.3-2.9,6.6-4.2,10.1h-17.3c-8.3,0-15,6.7-15,15v50.5c0,8.3,6.7,15,15,15h17.3c1.2,3.4,2.6,6.8,4.2,10.1L349.7,346
		c-5.9,5.9-5.9,15.4,0,21.3l35.7,35.7c2.9,2.9,6.8,4.4,10.6,4.4c3.9,0,7.7-1.5,10.6-4.4l12.3-12.3c3.3,1.5,6.6,2.9,10.1,4.2v17.3
		c0,8.3,6.7,15,15,15h50.5c8.3,0,15-6.7,15-15v-17.3c3.4-1.2,6.8-2.6,10.1-4.2l12.3,12.3c2.8,2.8,6.6,4.4,10.6,4.4s7.8-1.6,10.6-4.4
		l35.7-35.7c5.9-5.9,5.9-15.4,0-21.3l-12.3-12.3c1.5-3.3,2.9-6.6,4.2-10.1H598c8.3,0,15-6.7,15-15v-50.5
		C613.2,249.8,606.4,243.1,598.1,243.1z M593.2,303.6h-19.6c0,0,0,0-0.1,0c-0.2,0-0.5,0-0.7,0c-0.1,0-0.2,0-0.3,0
		c-0.2,0-0.4,0.1-0.6,0.1c-0.1,0-0.3,0-0.4,0.1c-0.2,0-0.3,0.1-0.4,0.1c-0.2,0-0.3,0.1-0.5,0.1c-0.1,0-0.2,0.1-0.3,0.1
		c-0.2,0.1-0.4,0.2-0.6,0.2c-0.1,0-0.1,0-0.1,0.1c-0.2,0.1-0.5,0.2-0.7,0.4c-0.1,0-0.1,0.1-0.2,0.1c-0.2,0.1-0.4,0.2-0.6,0.4
		c-0.1,0.1-0.3,0.2-0.4,0.3s-0.3,0.2-0.4,0.3c-0.2,0.2-0.4,0.3-0.5,0.5c-0.1,0.1-0.1,0.1-0.2,0.2c-0.2,0.2-0.4,0.4-0.5,0.6l-0.1,0.1
		c-0.1,0.2-0.3,0.4-0.4,0.5s-0.1,0.2-0.2,0.2c-0.1,0.1-0.2,0.3-0.3,0.4s-0.2,0.3-0.2,0.4c-0.1,0.1-0.1,0.2-0.2,0.3
		c-0.1,0.2-0.2,0.4-0.3,0.6c0,0.1-0.1,0.2-0.1,0.3c-0.1,0.2-0.2,0.4-0.2,0.7c0,0,0,0,0,0.1c-2,6.9-4.8,13.6-8.3,20c0,0,0,0,0,0.1
		c-0.1,0.2-0.2,0.4-0.3,0.6c0,0.1-0.1,0.2-0.1,0.3c-0.1,0.2-0.1,0.4-0.2,0.6c0,0.1-0.1,0.2-0.1,0.4s-0.1,0.3-0.1,0.5
		s-0.1,0.3-0.1,0.5c0,0.1,0,0.2,0,0.3c0,0.2-0.1,0.4-0.1,0.7c0,0.1,0,0.1,0,0.2c0,0.3,0,0.5,0,0.8c0,0.1,0,0.2,0,0.2
		c0,0.2,0,0.5,0,0.7s0,0.3,0.1,0.5c0,0.2,0,0.3,0.1,0.5c0,0.2,0.1,0.4,0.2,0.7c0,0.1,0,0.2,0.1,0.3c0.1,0.2,0.2,0.5,0.2,0.7
		c0,0.1,0,0.1,0.1,0.2c0.1,0.2,0.2,0.4,0.3,0.6c0,0.1,0.1,0.2,0.1,0.3c0.1,0.1,0.2,0.3,0.3,0.4s0.2,0.3,0.2,0.4
		c0.1,0.1,0.1,0.2,0.2,0.3c0.1,0.2,0.2,0.3,0.4,0.5c0.1,0.1,0.1,0.1,0.2,0.2c0.2,0.2,0.3,0.4,0.5,0.5l0,0l13.9,13.9L543,385.4
		l-13.9-13.9c0,0,0,0-0.1,0c-0.2-0.2-0.3-0.3-0.5-0.5c-0.1-0.1-0.2-0.1-0.2-0.2c-0.2-0.1-0.3-0.2-0.5-0.4c-0.1-0.1-0.2-0.2-0.3-0.2
		c-0.1-0.1-0.3-0.2-0.4-0.2c-0.2-0.1-0.3-0.2-0.5-0.3c-0.1,0-0.2-0.1-0.3-0.1c-0.2-0.1-0.4-0.2-0.6-0.3c-0.1,0-0.1,0-0.2-0.1
		c-0.2-0.1-0.5-0.2-0.7-0.2c-0.1,0-0.2,0-0.3-0.1c-0.2-0.1-0.4-0.1-0.7-0.2c-0.2,0-0.3-0.1-0.5-0.1c-0.1,0-0.3,0-0.4-0.1
		c-0.3,0-0.5,0-0.8,0c-0.1,0-0.1,0-0.2,0c-0.3,0-0.5,0-0.8,0H521c-0.2,0-0.5,0.1-0.7,0.1c-0.1,0-0.2,0-0.3,0c-0.2,0-0.4,0.1-0.5,0.1
		s-0.3,0.1-0.4,0.1s-0.3,0.1-0.4,0.1c-0.2,0.1-0.4,0.1-0.6,0.2c-0.1,0-0.2,0.1-0.3,0.1c-0.2,0.1-0.4,0.2-0.6,0.3c0,0,0,0-0.1,0
		c-6.3,3.5-13,6.3-20,8.3c0,0,0,0-0.1,0c-0.2,0.1-0.5,0.2-0.7,0.2c-0.1,0-0.2,0.1-0.3,0.1c-0.2,0.1-0.4,0.2-0.6,0.3
		c-0.1,0.1-0.2,0.1-0.3,0.2c-0.1,0.1-0.3,0.2-0.4,0.2c-0.1,0.1-0.3,0.2-0.4,0.3s-0.2,0.1-0.2,0.2c-0.2,0.1-0.4,0.3-0.5,0.4l-0.1,0.1
		c-0.2,0.2-0.4,0.3-0.6,0.5c-0.1,0.1-0.1,0.1-0.2,0.2c-0.2,0.2-0.3,0.3-0.5,0.5c-0.1,0.1-0.2,0.3-0.3,0.4c-0.1,0.1-0.2,0.2-0.3,0.4
		c-0.1,0.2-0.3,0.4-0.4,0.6c0,0.1-0.1,0.1-0.1,0.2c-0.1,0.2-0.2,0.5-0.4,0.7c0,0,0,0.1-0.1,0.1c-0.1,0.2-0.2,0.4-0.2,0.6
		c0,0.1-0.1,0.2-0.1,0.3c-0.1,0.2-0.1,0.3-0.1,0.5s-0.1,0.3-0.1,0.5c0,0.1,0,0.3-0.1,0.4c0,0.2-0.1,0.4-0.1,0.6c0,0.1,0,0.2,0,0.3
		c0,0.2,0,0.5,0,0.7c0,0,0,0,0,0.1V407h-40.6v-19.6c0,0,0,0,0-0.1c0-0.2,0-0.5,0-0.7c0-0.1,0-0.2,0-0.3c0-0.2-0.1-0.4-0.1-0.6
		c0-0.1,0-0.3-0.1-0.4c0-0.2-0.1-0.3-0.1-0.5s-0.1-0.3-0.1-0.5c0-0.1-0.1-0.2-0.1-0.3c-0.1-0.2-0.2-0.4-0.2-0.6c0,0,0-0.1-0.1-0.1
		c-0.1-0.2-0.2-0.5-0.4-0.7c0-0.1-0.1-0.1-0.1-0.2c-0.1-0.2-0.3-0.4-0.4-0.6c-0.1-0.1-0.2-0.2-0.3-0.4c-0.1-0.1-0.2-0.3-0.3-0.4
		c-0.1-0.2-0.3-0.4-0.5-0.5c-0.1-0.1-0.1-0.1-0.2-0.2c-0.2-0.2-0.4-0.3-0.6-0.5l-0.1-0.1c-0.2-0.1-0.4-0.3-0.5-0.4s-0.2-0.1-0.2-0.2
		c-0.1-0.1-0.3-0.2-0.4-0.3s-0.3-0.2-0.4-0.2c-0.1-0.1-0.2-0.1-0.3-0.2c-0.2-0.1-0.4-0.2-0.6-0.3c-0.1,0-0.2-0.1-0.3-0.1
		c-0.2-0.1-0.5-0.2-0.7-0.2c0,0,0,0-0.1,0c-6.9-2-13.6-4.8-20-8.3c0,0,0,0-0.1,0c-0.2-0.1-0.4-0.2-0.6-0.3c-0.1,0-0.2-0.1-0.3-0.1
		c-0.2-0.1-0.4-0.2-0.6-0.2c-0.1,0-0.2-0.1-0.3-0.1c-0.2,0-0.3-0.1-0.5-0.1s-0.3-0.1-0.5-0.1c-0.1,0-0.2,0-0.3-0.1
		c-0.2,0-0.4-0.1-0.6-0.1c-0.1,0-0.2,0-0.3,0c-0.2,0-0.5,0-0.7,0c-0.1,0-0.2,0-0.3,0c-0.2,0-0.4,0-0.6,0s-0.4,0.1-0.6,0.1
		c-0.1,0-0.2,0-0.3,0c-0.3,0.1-0.5,0.1-0.8,0.2h-0.1c-0.3,0.1-0.6,0.2-0.8,0.3h-0.1c-0.2,0.1-0.5,0.2-0.7,0.3
		c-0.1,0-0.1,0.1-0.2,0.1c-0.2,0.1-0.3,0.2-0.5,0.3c-0.1,0.1-0.2,0.1-0.4,0.2c-0.1,0.1-0.2,0.2-0.3,0.2c-0.2,0.1-0.3,0.2-0.5,0.3
		c-0.1,0.1-0.2,0.1-0.2,0.2c-0.2,0.1-0.3,0.3-0.5,0.5c0,0,0,0-0.1,0L396.4,385l-28.7-28.7l13.9-13.9c0,0,0,0,0-0.1
		c0.2-0.2,0.3-0.3,0.5-0.5c0.1-0.1,0.1-0.1,0.2-0.2c0.1-0.2,0.2-0.3,0.4-0.5c0.1-0.1,0.2-0.2,0.2-0.3c0.1-0.1,0.2-0.3,0.2-0.4
		c0.1-0.2,0.2-0.3,0.3-0.5c0-0.1,0.1-0.2,0.1-0.3c0.1-0.2,0.2-0.4,0.3-0.6c0-0.1,0-0.1,0.1-0.2c0.1-0.2,0.2-0.5,0.2-0.7
		c0-0.1,0-0.2,0.1-0.2c0.1-0.2,0.1-0.5,0.2-0.7c0-0.2,0-0.3,0.1-0.5c0-0.2,0-0.3,0.1-0.5c0-0.2,0-0.5,0-0.7c0-0.1,0-0.1,0-0.2
		c0-0.3,0-0.5,0-0.8c0-0.1,0-0.1,0-0.2c0-0.2-0.1-0.5-0.1-0.7c0-0.1,0-0.2,0-0.3c0-0.2-0.1-0.3-0.1-0.5s-0.1-0.3-0.1-0.5
		c0-0.1-0.1-0.2-0.1-0.4c-0.1-0.2-0.1-0.4-0.2-0.6c0-0.1-0.1-0.2-0.1-0.3c-0.1-0.2-0.2-0.4-0.3-0.6c0,0,0,0,0-0.1
		c-3.5-6.3-6.3-13-8.3-20c0,0,0,0,0-0.1c-0.1-0.2-0.1-0.5-0.2-0.7c0-0.1-0.1-0.2-0.1-0.3c-0.1-0.2-0.2-0.4-0.3-0.6
		c-0.1-0.1-0.1-0.2-0.2-0.3s-0.2-0.3-0.2-0.4c-0.1-0.2-0.2-0.3-0.3-0.5c-0.1-0.1-0.1-0.1-0.2-0.2c-0.1-0.2-0.3-0.4-0.4-0.6l-0.1-0.1
		c-0.2-0.2-0.4-0.4-0.5-0.6l-0.1-0.1c-0.2-0.2-0.4-0.4-0.6-0.5c-0.1-0.1-0.2-0.2-0.3-0.2c-0.1-0.1-0.3-0.2-0.4-0.3
		c-0.2-0.1-0.4-0.2-0.6-0.3c-0.1,0-0.2-0.1-0.2-0.1c-0.2-0.1-0.4-0.2-0.7-0.3c-0.1,0-0.1-0.1-0.2-0.1c-0.2-0.1-0.4-0.2-0.6-0.2
		c-0.1,0-0.2-0.1-0.3-0.1c-0.2-0.1-0.3-0.1-0.5-0.1s-0.3-0.1-0.5-0.1c-0.1,0-0.2,0-0.4-0.1c-0.2,0-0.4-0.1-0.6-0.1
		c-0.1,0-0.2,0-0.3,0c-0.2,0-0.5,0-0.7,0c0,0,0,0-0.1,0h-19.6v-40.6h19.6l0,0c0.3,0,0.6,0,1-0.1c0.1,0,0.1,0,0.2,0
		c0.2,0,0.5-0.1,0.7-0.1c0.1,0,0.2,0,0.3-0.1c0.2,0,0.4-0.1,0.6-0.1c0.1,0,0.2-0.1,0.3-0.1c0.2-0.1,0.4-0.1,0.6-0.2s0.3-0.1,0.5-0.2
		s0.4-0.2,0.5-0.3s0.2-0.1,0.3-0.2c0.2-0.1,0.3-0.2,0.4-0.3s0.2-0.1,0.3-0.2c0.2-0.1,0.3-0.2,0.5-0.3c0.1-0.1,0.2-0.1,0.2-0.2
		c0.2-0.2,0.4-0.3,0.5-0.5l0.1-0.1c0.4-0.4,0.8-0.9,1.2-1.4c0-0.1,0.1-0.1,0.1-0.2c0.1-0.2,0.2-0.4,0.3-0.6c0.1-0.1,0.1-0.2,0.2-0.3
		c0.1-0.2,0.2-0.3,0.2-0.5c0.1-0.1,0.1-0.3,0.2-0.4s0.1-0.3,0.2-0.4c0-0.1,0.1-0.3,0.1-0.4c0,0,0,0,0-0.1c2-6.9,4.8-13.6,8.3-20
		c0,0,0,0,0-0.1c0.1-0.2,0.2-0.4,0.3-0.6c0-0.1,0.1-0.2,0.1-0.3c0.1-0.2,0.1-0.4,0.2-0.6c0-0.1,0.1-0.2,0.1-0.4
		c0-0.1,0.1-0.3,0.1-0.5s0.1-0.3,0.1-0.5c0-0.1,0-0.2,0-0.3c0-0.2,0.1-0.4,0.1-0.7c0-0.1,0-0.1,0-0.2c0-0.3,0-0.5,0-0.8
		c0-0.1,0-0.1,0-0.2c0-0.2,0-0.5,0-0.7s0-0.3-0.1-0.5c0-0.2,0-0.3-0.1-0.5c0-0.2-0.1-0.5-0.2-0.7c0-0.1,0-0.2-0.1-0.2
		c-0.1-0.2-0.2-0.5-0.2-0.7c0-0.1,0-0.1-0.1-0.2c-0.1-0.2-0.2-0.4-0.3-0.6c0-0.1-0.1-0.2-0.1-0.3c-0.1-0.2-0.2-0.3-0.3-0.5
		c-0.1-0.1-0.2-0.3-0.2-0.4c-0.1-0.1-0.2-0.2-0.2-0.3c-0.1-0.2-0.2-0.3-0.4-0.5c-0.1-0.1-0.1-0.2-0.2-0.2c-0.2-0.2-0.3-0.4-0.5-0.5
		c0,0,0,0,0-0.1l-13.9-13.9l28.7-28.7l13.8,13.8c0,0,0,0,0.1,0.1l0,0c0.3,0.3,0.6,0.5,0.9,0.8c0.1,0.1,0.2,0.2,0.3,0.2
		c0.2,0.2,0.5,0.3,0.7,0.5c0.1,0.1,0.2,0.1,0.3,0.2c0.3,0.2,0.6,0.3,1,0.5h0.1c0.4,0.2,0.8,0.3,1.1,0.4c0.1,0,0.2,0,0.3,0.1
		c0.3,0.1,0.6,0.1,0.9,0.2c0.1,0,0.2,0,0.4,0.1c0.4,0,0.7,0.1,1.1,0.1h0.1c0.1,0,0.1,0,0.2,0c0.3,0,0.6,0,0.9-0.1
		c0.1,0,0.3,0,0.4-0.1c0.2,0,0.5-0.1,0.7-0.1c0.1,0,0.3-0.1,0.4-0.1c0.3-0.1,0.6-0.2,0.9-0.3c0.1,0,0.1,0,0.2-0.1
		c0.4-0.1,0.7-0.3,1.1-0.5c0,0,0,0,0.1,0c6.3-3.5,13-6.3,20-8.3c0,0,0,0,0.1,0c0.2-0.1,0.5-0.2,0.7-0.2c0.1,0,0.2-0.1,0.3-0.1
		c0.2-0.1,0.4-0.2,0.6-0.3c0.1-0.1,0.2-0.1,0.3-0.2c0.1-0.1,0.3-0.2,0.4-0.2c0.1-0.1,0.3-0.2,0.4-0.3s0.2-0.1,0.2-0.2
		c0.2-0.1,0.4-0.3,0.5-0.4c0.1,0,0.1-0.1,0.1-0.1c0.2-0.2,0.4-0.3,0.6-0.5c0.1-0.1,0.1-0.1,0.2-0.2c0.2-0.2,0.3-0.3,0.5-0.5
		c0.1-0.1,0.2-0.3,0.3-0.4c0.1-0.1,0.2-0.2,0.3-0.4c0.1-0.2,0.3-0.4,0.4-0.6c0-0.1,0.1-0.1,0.1-0.2c0.1-0.2,0.2-0.5,0.4-0.7
		c0,0,0-0.1,0.1-0.1c0.1-0.2,0.2-0.4,0.2-0.6c0-0.1,0.1-0.2,0.1-0.3c0.1-0.2,0.1-0.3,0.1-0.5s0.1-0.3,0.1-0.5c0-0.1,0-0.3,0.1-0.4
		c0-0.2,0.1-0.4,0.1-0.6c0-0.1,0-0.2,0-0.3c0-0.2,0-0.5,0-0.7c0,0,0,0,0-0.1v-19h40.6v19.6c0,0,0,0,0,0.1c0,0.2,0,0.5,0,0.7
		c0,0.1,0,0.2,0,0.3c0,0.2,0.1,0.4,0.1,0.6c0,0.1,0,0.3,0.1,0.4c0,0.2,0.1,0.3,0.1,0.5s0.1,0.3,0.1,0.5c0,0.1,0.1,0.2,0.1,0.3
		c0.1,0.2,0.2,0.4,0.2,0.6c0,0,0,0.1,0.1,0.1c0.1,0.2,0.2,0.5,0.4,0.7c0,0.1,0.1,0.1,0.1,0.2c0.1,0.2,0.3,0.4,0.4,0.6
		c0.1,0.1,0.2,0.2,0.3,0.4c0.1,0.1,0.2,0.3,0.3,0.4c0.1,0.2,0.3,0.4,0.5,0.5c0.1,0.1,0.1,0.1,0.2,0.2c0.2,0.2,0.4,0.3,0.6,0.5
		c0.1,0,0.1,0.1,0.1,0.1c0.2,0.1,0.4,0.3,0.5,0.4c0.1,0.1,0.2,0.1,0.2,0.2c0.1,0.1,0.3,0.2,0.4,0.3s0.3,0.2,0.4,0.2
		c0.1,0.1,0.2,0.1,0.3,0.2c0.2,0.1,0.4,0.2,0.6,0.3c0.1,0,0.2,0.1,0.3,0.1c0.2,0.1,0.5,0.2,0.7,0.2c0,0,0,0,0.1,0
		c6.9,2,13.6,4.8,20,8.3c0,0,0,0,0.1,0c0.4,0.2,0.7,0.4,1.1,0.5c0.1,0,0.1,0,0.2,0.1c0.3,0.1,0.6,0.2,0.9,0.3c0.1,0,0.3,0.1,0.4,0.1
		c0.2,0.1,0.5,0.1,0.7,0.1c0.1,0,0.3,0,0.4,0.1c0.3,0,0.6,0.1,0.9,0.1c0.1,0,0.1,0,0.2,0h0.1c0.4,0,0.7,0,1.1-0.1c0.1,0,0.2,0,0.3,0
		c0.3,0,0.6-0.1,0.9-0.2c0.1,0,0.2,0,0.3-0.1c0.4-0.1,0.8-0.2,1.1-0.4c0,0,0,0,0.1,0c0.3-0.1,0.7-0.3,1-0.5c0.1-0.1,0.2-0.1,0.3-0.2
		c0.2-0.1,0.5-0.3,0.7-0.5c0.1-0.1,0.2-0.1,0.3-0.2c0.3-0.2,0.6-0.5,0.9-0.8l0,0c0,0,0,0,0.1-0.1l13.8-13.8l28.7,28.7L558,224l0,0
		c-0.2,0.2-0.3,0.4-0.5,0.5c-0.1,0.1-0.1,0.1-0.2,0.2c-0.1,0.2-0.3,0.3-0.4,0.5c-0.1,0.1-0.1,0.2-0.2,0.3s-0.2,0.3-0.2,0.4
		c-0.1,0.1-0.2,0.3-0.3,0.4c0,0.1-0.1,0.2-0.1,0.3c-0.1,0.2-0.2,0.4-0.3,0.6c0,0.1,0,0.1-0.1,0.2c-0.1,0.2-0.2,0.5-0.2,0.7
		c0,0.1,0,0.2-0.1,0.3c-0.1,0.2-0.1,0.4-0.2,0.7c0,0.2,0,0.3-0.1,0.5c0,0.2,0,0.3-0.1,0.5c0,0.2,0,0.5,0,0.7c0,0.1,0,0.2,0,0.2
		c0,0.3,0,0.5,0,0.8c0,0.1,0,0.1,0,0.2c0,0.2,0.1,0.4,0.1,0.7c0,0.1,0,0.2,0,0.3c0,0.2,0.1,0.3,0.1,0.5s0.1,0.3,0.1,0.5
		c0,0.1,0.1,0.2,0.1,0.4c0.1,0.2,0.1,0.4,0.2,0.6c0,0.1,0.1,0.2,0.1,0.3c0.1,0.2,0.2,0.4,0.3,0.6c0,0,0,0,0,0.1
		c3.5,6.3,6.3,13,8.3,20c0,0,0,0,0,0.1s0.1,0.3,0.1,0.4c0.1,0.1,0.1,0.3,0.2,0.4c0.1,0.1,0.1,0.3,0.2,0.4c0.1,0.2,0.2,0.3,0.2,0.5
		c0.1,0.1,0.1,0.2,0.2,0.3c0.1,0.2,0.2,0.4,0.3,0.6c0,0.1,0.1,0.1,0.1,0.2c0.3,0.5,0.7,1,1.2,1.4l0.1,0.1c0.2,0.2,0.4,0.3,0.6,0.5
		c0.1,0.1,0.1,0.1,0.2,0.2c0.2,0.1,0.3,0.2,0.5,0.4c0.1,0.1,0.2,0.1,0.3,0.2s0.3,0.2,0.5,0.3c0.1,0.1,0.2,0.1,0.3,0.2
		c0.2,0.1,0.4,0.2,0.6,0.3c0.1,0.1,0.3,0.1,0.4,0.2c0.2,0.1,0.4,0.2,0.6,0.2c0.1,0,0.2,0.1,0.3,0.1c0.2,0.1,0.4,0.1,0.6,0.1
		c0.1,0,0.2,0,0.3,0.1c0.2,0,0.5,0.1,0.7,0.1c0.1,0,0.1,0,0.2,0c0.3,0,0.6,0.1,1,0.1l0,0h19.6v40.2L593.2,303.6L593.2,303.6z"/>
	<path class="st1" d="M469.3,216.6c-36.8,0-66.8,29.9-66.8,66.8s29.9,66.8,66.8,66.8c36.8,0,66.8-29.9,66.8-66.8
		S506.1,216.6,469.3,216.6z M513.2,299.4c-6,16.5-21.1,28.6-39.1,30.5c-1.6,0.2-3.2,0.2-4.8,0.2c-25.8,0-46.8-21-46.8-46.8
		s21-46.8,46.8-46.8c1.6,0,3.2,0.1,4.8,0.2c18.1,1.8,33.1,14,39.1,30.5c1.8,5,2.8,10.4,2.8,16.1C516.1,289,515.1,294.4,513.2,299.4z
		"/>
</g>
<g id="x">
	<path class="st0" d="M2274,1771.2c-3.9-3.9-10.2-3.9-14.1,0l-58.2,58.2l-58.2-58.2c-3.9-3.9-10.2-3.9-14.1,0
		c-3.9,3.9-3.9,10.2,0,14.1l58.2,58.2l-58.2,58.2c-3.9,3.9-3.9,10.2,0,14.1c2,2,4.5,2.9,7.1,2.9s5.1-1,7.1-2.9l58.2-58.2l58.2,58.2
		c2,2,4.5,2.9,7.1,2.9s5.1-1,7.1-2.9c3.9-3.9,3.9-10.2,0-14.1l-58.2-58.2l58.2-58.2C2277.9,1781.5,2277.9,1775.1,2274,1771.2z"/>
	<path class="st0" d="M2522.5,1898.6h-156c-5.5,0-10,4.5-10,10s4.5,10,10,10h156c5.5,0,10-4.5,10-10S2528,1898.6,2522.5,1898.6z"/>
	<path class="st0" d="M2368.5,1874.6h62c5.5,0,10-4.5,10-10s-4.5-10-10-10h-62c-5.5,0-10,4.5-10,10S2363,1874.6,2368.5,1874.6z"/>
</g>
<g>
	<g>
		<path class="st1" d="M2293,739.3h-141c-52.7,0-95.5-42.8-95.5-95.5s42.8-95.5,95.5-95.5h141c52.7,0,95.5,42.8,95.5,95.5
			S2345.6,739.3,2293,739.3z M2152,568.3c-41.6,0-75.5,33.9-75.5,75.5s33.9,75.5,75.5,75.5h141c41.6,0,75.5-33.9,75.5-75.5
			s-33.9-75.5-75.5-75.5H2152z"/>
	</g>
</g>
<g id="Circle">
	<g>
		<path class="st0" d="M2154.6,703.3c-32.8,0-59.5-26.7-59.5-59.5s26.7-59.5,59.5-59.5s59.5,26.7,59.5,59.5
			S2187.5,703.3,2154.6,703.3z M2154.6,604.3c-21.8,0-39.5,17.7-39.5,39.5s17.7,39.5,39.5,39.5s39.5-17.7,39.5-39.5
			S2176.4,604.3,2154.6,604.3z"/>
	</g>
</g>
<path id="Father_cat" class="st1" d="M3925.6,1229.5h-347.1v-43v-23V813.3c0-46-37.5-83.5-83.5-83.5h-525.1
	c-46,0-83.5,37.5-83.5,83.5v84.2h-324.8c-26.5,0-48,21.5-48,48v178c0,26.5,21.5,48,48,48h324.8v27.4h-28.7c-9,0-16.3,7.3-16.3,16.3
	v23.2c-5.3,1.8-10.4,4-15.4,6.4l-16.4-16.4c-3.1-3.1-7.2-4.8-11.5-4.8s-8.4,1.7-11.5,4.8l-44.3,44.3c-3.1,3.1-4.8,7.2-4.8,11.5
	s1.7,8.4,4.8,11.5l16.4,16.4c-2.4,5-4.5,10.1-6.4,15.4h-23.2c-4.3,0-8.4,1.7-11.5,4.8s-4.8,7.2-4.8,11.5v62.7
	c0,9,7.3,16.3,16.3,16.3h23.2c1.8,5.3,4,10.4,6.4,15.4l-16.4,16.4c-3.1,3.1-4.8,7.2-4.8,11.5s1.7,8.4,4.8,11.5l44.3,44.3
	c3.1,3.1,7.2,4.8,11.5,4.8s8.4-1.7,11.5-4.8l16.4-16.4c5,2.4,10.1,4.5,15.4,6.4v23.2c0,4.3,1.7,8.4,4.8,11.5s7.2,4.8,11.5,4.8h29.6
	c5.9,40.3,40.7,71.4,82.6,71.4H3495c46,0,83.5-37.5,83.5-83.5v-35.8h347.1c26.5,0,48-21.5,48-48v-178
	C3973.6,1251,3952,1229.5,3925.6,1229.5z M2886.4,1435.4c-15.2-0.5-29-6.8-39.3-16.7c-0.2-0.3-0.5-0.6-0.8-0.9
	c-6.4-6.4-11.2-14-14.2-22.3c0,0,0-0.1-0.1-0.1c-0.3-0.8-0.6-1.7-0.8-2.6c-0.1-0.3-0.2-0.6-0.3-0.9c-0.2-0.6-0.4-1.3-0.5-1.9
	c-0.1-0.4-0.2-0.9-0.3-1.3c-0.1-0.5-0.2-1-0.3-1.5s-0.2-1.1-0.3-1.6c-0.1-0.4-0.2-0.9-0.2-1.3c-0.1-0.6-0.2-1.2-0.2-1.8
	c0-0.4-0.1-0.8-0.1-1.2c-0.1-0.7-0.1-1.4-0.2-2c0-0.3-0.1-0.7-0.1-1c-0.1-1-0.1-2-0.1-3.1c0-1,0-2,0.1-3.1c0-0.3,0.1-0.7,0.1-1
	c0-0.7,0.1-1.4,0.2-2c0-0.4,0.1-0.8,0.1-1.2c0.1-0.6,0.1-1.2,0.2-1.8c0.1-0.4,0.1-0.9,0.2-1.3c0.1-0.6,0.2-1.1,0.3-1.7
	c0.1-0.5,0.2-1,0.3-1.5s0.2-0.9,0.3-1.4c0.2-0.6,0.3-1.3,0.5-1.9c0.1-0.3,0.2-0.6,0.3-0.9c0.3-0.9,0.5-1.7,0.8-2.5
	c0-0.1,0-0.1,0.1-0.2c3-8.3,7.8-15.9,14.2-22.3c0.3-0.3,0.6-0.6,0.8-0.9c10.3-10,24.1-16.2,39.3-16.7V1435.4z M2886.4,1294.6
	c-20.7,0.5-40.1,8.8-54.6,23.6c-15,15.1-23.2,35.3-23.2,56.8s8.2,41.7,23.2,56.8c14.6,14.8,33.9,23.1,54.6,23.6v75.7h-25v-26.8
	c0,0,0,0,0-0.1c0-0.2,0-0.5,0-0.7c0-0.1,0-0.2,0-0.3c0-0.2-0.1-0.4-0.1-0.6c0-0.1,0-0.3-0.1-0.4c0-0.2-0.1-0.3-0.1-0.4
	c0-0.2-0.1-0.3-0.1-0.5c0-0.1-0.1-0.2-0.1-0.3c-0.1-0.2-0.2-0.4-0.2-0.6c0-0.1-0.1-0.1-0.1-0.2c-0.1-0.2-0.2-0.5-0.3-0.7
	c0-0.1-0.1-0.1-0.1-0.2c-0.1-0.2-0.2-0.4-0.4-0.6c-0.1-0.1-0.2-0.3-0.3-0.4s-0.2-0.2-0.3-0.4c-0.2-0.2-0.3-0.4-0.5-0.5
	c0-0.1-0.1-0.1-0.1-0.2c-0.2-0.2-0.4-0.4-0.6-0.5l-0.1-0.1c-0.2-0.1-0.4-0.3-0.6-0.4c-0.1-0.1-0.1-0.1-0.2-0.2
	c-0.2-0.1-0.3-0.2-0.5-0.3c-0.1-0.1-0.3-0.2-0.4-0.2c-0.1-0.1-0.2-0.1-0.4-0.2s-0.4-0.2-0.5-0.3c-0.1,0-0.2-0.1-0.3-0.1
	c-0.2-0.1-0.4-0.2-0.7-0.2c0,0,0,0-0.1,0c-8.8-2.5-17.3-6.1-25.3-10.5c0,0,0,0-0.1,0c-0.2-0.1-0.4-0.2-0.6-0.3
	c-0.1,0-0.2-0.1-0.3-0.1c-0.2-0.1-0.4-0.1-0.6-0.2c-0.1,0-0.3-0.1-0.4-0.1c-0.1,0-0.3-0.1-0.4-0.1c-0.2,0-0.4-0.1-0.6-0.1
	c-0.1,0-0.2,0-0.2,0c-0.2,0-0.5-0.1-0.7-0.1h-0.1c-0.3,0-0.6,0-0.9,0h-0.1c-0.3,0-0.6,0-0.8,0c-0.1,0-0.2,0-0.4,0.1
	c-0.2,0-0.4,0-0.6,0.1c-0.2,0-0.4,0.1-0.7,0.2c-0.1,0-0.2,0-0.3,0.1c-0.2,0.1-0.5,0.2-0.7,0.2c-0.1,0-0.1,0-0.2,0.1
	c-0.2,0.1-0.4,0.2-0.6,0.3c-0.1,0-0.2,0.1-0.3,0.1c-0.2,0.1-0.3,0.2-0.5,0.3c-0.1,0.1-0.3,0.1-0.4,0.2c-0.1,0.1-0.2,0.2-0.3,0.2
	c-0.2,0.1-0.3,0.2-0.5,0.4c-0.1,0.1-0.2,0.1-0.2,0.2c-0.2,0.1-0.3,0.3-0.5,0.5c0,0,0,0-0.1,0l-18.9,18.9l-39-39l18.9-18.9
	c0,0,0,0,0-0.1c0.2-0.2,0.3-0.3,0.5-0.5c0.1-0.1,0.1-0.2,0.2-0.2c0.1-0.2,0.2-0.3,0.4-0.5c0.1-0.1,0.2-0.2,0.2-0.3
	c0.1-0.1,0.1-0.2,0.2-0.4c0.1-0.2,0.2-0.3,0.3-0.5c0-0.1,0.1-0.2,0.1-0.2c0.1-0.2,0.2-0.4,0.3-0.7v-0.1c0.1-0.3,0.2-0.5,0.3-0.8
	c0-0.1,0-0.1,0-0.2c0.1-0.3,0.1-0.5,0.2-0.8c0-0.1,0-0.3,0.1-0.4c0-0.2,0.1-0.3,0.1-0.5s0-0.5,0-0.7c0-0.1,0-0.2,0-0.3
	c0-0.2,0-0.5,0-0.7c0-0.1,0-0.1,0-0.2c0-0.2-0.1-0.4-0.1-0.6c0-0.1,0-0.2,0-0.3c0-0.2-0.1-0.3-0.1-0.5s-0.1-0.3-0.1-0.5
	c0-0.1-0.1-0.2-0.1-0.3c-0.1-0.2-0.1-0.4-0.2-0.6c0-0.1-0.1-0.2-0.1-0.2c-0.1-0.2-0.2-0.5-0.3-0.7c0,0,0,0,0-0.1
	c-4.4-8-7.9-16.5-10.5-25.3c0,0,0,0,0-0.1c-0.1-0.2-0.1-0.4-0.2-0.7c0-0.1-0.1-0.2-0.1-0.3c-0.1-0.2-0.2-0.4-0.3-0.6
	c-0.1-0.1-0.1-0.2-0.2-0.4c-0.1-0.1-0.2-0.3-0.2-0.4c-0.1-0.2-0.2-0.3-0.3-0.4s-0.1-0.2-0.2-0.3c-0.1-0.2-0.3-0.4-0.4-0.5
	c0-0.1-0.1-0.1-0.2-0.2c-0.2-0.2-0.3-0.4-0.5-0.5c-0.1-0.1-0.2-0.1-0.2-0.2c-0.2-0.1-0.3-0.3-0.5-0.4s-0.3-0.3-0.5-0.4
	c-0.1-0.1-0.2-0.1-0.3-0.2c-0.2-0.2-0.5-0.3-0.7-0.5c0,0,0,0-0.1,0c-0.3-0.1-0.5-0.3-0.8-0.4l0,0c-0.2-0.1-0.5-0.2-0.7-0.3
	c-0.1,0-0.1,0-0.2-0.1c-0.2-0.1-0.4-0.1-0.6-0.2c-0.1,0-0.2-0.1-0.4-0.1c-0.1,0-0.3-0.1-0.4-0.1c-0.2,0-0.4-0.1-0.6-0.1
	c-0.1,0-0.2,0-0.3,0c-0.2,0-0.4,0-0.7,0c0,0,0,0-0.1,0h-26.8v-55.2h26.7l0,0c0.3,0,0.6,0,1-0.1c0.1,0,0.1,0,0.2,0
	c0.2,0,0.5-0.1,0.7-0.1c0.1,0,0.2,0,0.3-0.1c0.2,0,0.4-0.1,0.6-0.1c0.1,0,0.2-0.1,0.3-0.1c0.2-0.1,0.4-0.1,0.6-0.2
	c0.1-0.1,0.3-0.1,0.4-0.2c0.2-0.1,0.4-0.2,0.6-0.3c0.1-0.1,0.2-0.1,0.3-0.2c0.2-0.1,0.3-0.2,0.5-0.3c0.1-0.1,0.2-0.1,0.3-0.2
	c0.2-0.1,0.3-0.2,0.5-0.4c0.1-0.1,0.2-0.1,0.2-0.2c0.2-0.2,0.4-0.3,0.5-0.5l0.1-0.1c0.4-0.4,0.8-0.9,1.2-1.4c0-0.1,0.1-0.1,0.1-0.2
	c0.1-0.2,0.2-0.4,0.3-0.6c0.1-0.1,0.1-0.2,0.2-0.3c0.1-0.2,0.2-0.3,0.2-0.5c0.1-0.1,0.1-0.2,0.2-0.4c0.1-0.1,0.1-0.3,0.2-0.4
	c0-0.1,0.1-0.3,0.1-0.4c0,0,0,0,0-0.1c2.5-8.8,6.1-17.3,10.5-25.3c0,0,0,0,0-0.1c0.1-0.2,0.2-0.4,0.3-0.7c0-0.1,0.1-0.2,0.1-0.2
	c0.1-0.2,0.2-0.4,0.2-0.6c0-0.1,0.1-0.2,0.1-0.3c0-0.2,0.1-0.3,0.1-0.5s0.1-0.3,0.1-0.5c0-0.1,0-0.2,0-0.3c0-0.2,0.1-0.4,0.1-0.7
	c0-0.1,0-0.1,0-0.2c0-0.3,0-0.5,0-0.8c0-0.1,0-0.1,0-0.2c0-0.2,0-0.5,0-0.7s0-0.3-0.1-0.4c0-0.2,0-0.3-0.1-0.5
	c0-0.2-0.1-0.5-0.2-0.7c0-0.1,0-0.1-0.1-0.2c-0.1-0.3-0.2-0.5-0.3-0.7c0-0.1,0-0.1-0.1-0.2c-0.1-0.2-0.2-0.4-0.3-0.6
	c0-0.1-0.1-0.2-0.1-0.3c-0.1-0.2-0.2-0.3-0.3-0.5c-0.1-0.1-0.1-0.3-0.2-0.4c-0.1-0.1-0.2-0.2-0.2-0.3c-0.1-0.2-0.2-0.3-0.4-0.5
	c-0.1-0.1-0.1-0.2-0.2-0.2c-0.2-0.2-0.3-0.4-0.5-0.5c0,0,0,0,0-0.1l-18.9-18.9l39-39l18.9,18.9l0,0l0,0c0.3,0.3,0.6,0.5,0.9,0.8
	c0.1,0.1,0.2,0.1,0.3,0.2c0.2,0.2,0.5,0.3,0.7,0.5c0.1,0.1,0.2,0.1,0.3,0.2c0.3,0.2,0.7,0.3,1,0.5c0,0,0,0,0.1,0
	c0.4,0.2,0.8,0.3,1.1,0.4c0.1,0,0.2,0,0.3,0.1c0.3,0.1,0.6,0.1,0.9,0.2c0.1,0,0.2,0,0.4,0.1c0.4,0,0.7,0.1,1.1,0.1h0.1
	c0.1,0,0.1,0,0.2,0c0.3,0,0.6,0,0.9-0.1c0.1,0,0.3,0,0.4-0.1c0.2,0,0.5-0.1,0.7-0.1c0.1,0,0.3-0.1,0.4-0.1c0.3-0.1,0.6-0.2,0.9-0.3
	c0.1,0,0.1,0,0.2-0.1c0.4-0.1,0.7-0.3,1.1-0.5c0,0,0,0,0.1,0c8-4.4,16.5-7.9,25.3-10.5c0,0,0,0,0.1,0c0.2-0.1,0.5-0.1,0.7-0.2
	c0.1,0,0.2-0.1,0.3-0.1c0.2-0.1,0.4-0.2,0.6-0.3c0.1-0.1,0.2-0.1,0.4-0.2c0.1-0.1,0.3-0.2,0.4-0.2c0.2-0.1,0.3-0.2,0.5-0.3
	c0.1-0.1,0.1-0.1,0.2-0.2c0.2-0.1,0.4-0.3,0.6-0.4l0.1-0.1c0.2-0.2,0.4-0.3,0.6-0.5l0.1-0.1c0.2-0.2,0.3-0.4,0.5-0.6
	c0.1-0.1,0.2-0.2,0.3-0.3s0.2-0.3,0.3-0.4c0.1-0.2,0.2-0.4,0.4-0.6c0-0.1,0.1-0.2,0.1-0.2c0.1-0.2,0.2-0.4,0.3-0.7
	c0-0.1,0.1-0.1,0.1-0.2c0.1-0.2,0.2-0.4,0.2-0.6c0-0.1,0.1-0.2,0.1-0.3c0.1-0.2,0.1-0.3,0.1-0.5s0.1-0.3,0.1-0.5
	c0-0.1,0-0.3,0.1-0.4c0-0.2,0.1-0.4,0.1-0.6c0-0.1,0-0.2,0-0.3c0-0.2,0-0.5,0-0.7c0,0,0,0,0-0.1v-26.8h25v75.9L2886.4,1294.6
	L2886.4,1294.6z M2561.6,1151.5c-15.4,0-28-12.6-28-28v-178c0-15.4,12.6-28,28-28h788c15.4,0,28,12.6,28,28v178
	c0,15.4-12.6,28-28,28H2561.6z M3558.5,1539c0,35-28.5,63.5-63.5,63.5h-525.1c-35,0-63.5-28.5-63.5-63.5v-367.5h443.2
	c26.5,0,48-21.5,48-48v-178c0-26.5-21.5-48-48-48h-443.2v-84.2c0-35,28.5-63.5,63.5-63.5H3495c35,0,63.5,28.5,63.5,63.5v350.2v23v43
	h-420.9c-26.5,0-48,21.5-48,48v178c0,26.5,21.5,48,48,48h420.9V1539z M3953.6,1455.5c0,15.4-12.6,28-28,28h-788
	c-15.4,0-28-12.6-28-28v-178c0-15.4,12.6-28,28-28h788c15.4,0,28,12.6,28,28V1455.5z"/>
<path id="box_diagram" class="st1" d="M3108.9,394.5l-126.1-126.1V22c0-12.1-9.9-22-22-22h-393c-12.1,0-22,9.9-22,22v393
	c0,12.1,9.9,22,22,22h393c12.1,0,22-9.9,22-22V296.7l112,112c2,2,4.5,2.9,7.1,2.9s5.1-1,7.1-2.9
	C3112.8,404.7,3112.8,398.4,3108.9,394.5z M2962.7,414.9c0,1.1-0.9,2-2,2h-393c-1.1,0-2-0.9-2-2v-393c0-1.1,0.9-2,2-2h393
	c1.1,0,2,0.9,2,2v226.4l-114.1-114.1c-3.9-3.9-10.2-3.9-14.1,0l-234,234c-3.9,3.9-3.9,10.2,0,14.1s10.2,3.9,14.1,0l226.9-226.9
	l121.2,121.2L2962.7,414.9L2962.7,414.9z"/>
<g id="diagram">
	<g>
		<path class="st0" d="M2765.8,356c-2.7,0-5.2-1.1-7.1-2.9L2627,221.4l-100.9,100.9c-3.9,3.9-10.2,3.9-14.1,0
			c-3.9-3.9-3.9-10.2,0-14.1l108-108c1.9-1.9,4.4-2.9,7.1-2.9s5.2,1.1,7.1,2.9l131.7,131.7L3091.1,6.7c3.9-3.9,10.2-3.9,14.1,0
			s3.9,10.2,0,14.1L2773,353C2771,355,2768.5,356,2765.8,356z"/>
	</g>
</g>
<path class="st0" d="M1514.1,2020.6h-324c-5.5,0-10,4.5-10,10s4.5,10,10,10h324c5.5,0,10-4.5,10-10S1519.6,2020.6,1514.1,2020.6z"/>
</svg>
