<?xml version="1.0" encoding="iso-8859-1"?>
<!-- Generator: Adobe Illustrator 21.1.0, SVG Export Plug-In . SVG Version: 6.00 Build 0)  -->
<svg version="1.1" id="svg4525" xmlns="http://www.w3.org/2000/svg" xmlns:xlink="http://www.w3.org/1999/xlink" x="0px" y="0px"
	 viewBox="0 0 1150 469.261" style="enable-background:new 0 0 1150 469.261;" xml:space="preserve">
<g>
	<path style="fill:#363636;" d="M1148.108,455.416l-89.535-110.68l84.946-104.874c2.063-2.546,2.478-6.051,1.067-9.009
		c-1.411-2.958-4.396-4.841-7.672-4.841h-89.583c-2.77,0-5.366,1.349-6.957,3.616l-35.491,50.555l-34.947-50.508
		c-1.587-2.294-4.2-3.664-6.99-3.664h-88.054c-3.243,0-6.203,1.845-7.631,4.756s-1.075,6.381,0.909,8.946l81.226,104.954
		l-87.89,110.811c-2.026,2.555-2.413,6.044-0.994,8.98s4.392,4.802,7.653,4.802h92.64c2.796,0,5.413-1.375,7-3.678l37.123-53.88
		l38.217,53.97c1.594,2.25,4.18,3.588,6.937,3.588h91.417c3.276,0,6.26-1.883,7.671-4.839
		C1150.582,461.466,1150.168,457.962,1148.108,455.416z M1054.479,452.261l-42.709-60.313c-1.594-2.251-4.181-3.588-6.937-3.588
		c-0.018,0-0.037,0-0.055,0c-2.776,0.018-5.37,1.391-6.945,3.677l-41.493,60.223h-70.583l81.097-102.247
		c2.43-3.064,2.456-7.392,0.063-10.484l-74.697-96.518h66.272l39.352,56.874c1.582,2.286,4.181,3.654,6.961,3.664
		c2.8-0.002,5.389-1.341,6.986-3.616l39.959-56.921h67.341l-78.059,96.37c-2.525,3.118-2.527,7.577-0.003,10.696l82.662,102.183
		H1054.479z"/>
	<path style="fill:#363636;" d="M748.722,232.343c-1.356-3.088-4.41-5.082-7.783-5.082h-73.885c-3.341,0-6.373,1.958-7.748,5.003
		l-101.554,225c-1.187,2.631-0.958,5.684,0.607,8.108c1.566,2.424,4.254,3.889,7.141,3.889h81.183c3.569,0,6.758-2.229,7.983-5.582
		l14.066-38.483l69.948,0.261l16.648,38.666c1.343,3.118,4.412,5.139,7.807,5.139h76.622c2.871,0,5.547-1.449,7.117-3.853
		c1.569-2.403,1.82-5.438,0.666-8.065L748.722,232.343z M768.73,452.261l-16.639-38.646c-1.338-3.107-4.392-5.126-7.775-5.139
		l-81.486-0.304c-0.011,0-0.021,0-0.032,0c-3.568,0-6.758,2.229-7.983,5.582l-14.075,38.506h-62.077l93.881-208h62.845l91.352,208
		H768.73z"/>
	<path style="fill:#363636;" d="M703.234,288.772c-3.373,0.021-6.414,2.034-7.75,5.131L663.191,368.7
		c-1.134,2.627-0.871,5.648,0.701,8.039c1.572,2.391,4.241,3.83,7.103,3.83h65.699c2.88,0,5.564-1.458,7.131-3.875
		c1.567-2.417,1.804-5.462,0.63-8.092l-33.407-74.797C709.673,290.726,706.576,288.783,703.234,288.772z M683.923,363.569
		l19.496-45.159l20.169,45.159H683.923z"/>
	<path style="fill:#363636;" d="M191.722,232.343c-1.356-3.088-4.41-5.082-7.783-5.082h-73.885c-3.341,0-6.373,1.958-7.748,5.003
		l-101.554,225c-1.187,2.631-0.958,5.684,0.607,8.108c1.566,2.424,4.254,3.889,7.141,3.889h81.183c3.569,0,6.758-2.229,7.983-5.582
		l14.066-38.483l69.948,0.261l16.648,38.666c1.343,3.118,4.412,5.139,7.807,5.139h76.622c2.871,0,5.547-1.449,7.117-3.853
		c1.569-2.403,1.82-5.438,0.666-8.065L191.722,232.343z M211.73,452.261l-16.639-38.646c-1.338-3.107-4.392-5.126-7.775-5.139
		l-81.486-0.304c-0.011,0-0.021,0-0.032,0c-3.568,0-6.758,2.229-7.983,5.582l-14.075,38.506H21.662l93.881-208h62.845l91.352,208
		H211.73z"/>
	<path style="fill:#363636;" d="M146.234,288.772c-3.373,0.021-6.414,2.034-7.75,5.131L106.191,368.7
		c-1.134,2.627-0.871,5.648,0.701,8.039c1.572,2.391,4.241,3.83,7.103,3.83h65.699c2.88,0,5.564-1.458,7.131-3.875
		c1.567-2.417,1.804-5.462,0.63-8.092l-33.407-74.797C152.673,290.726,149.585,288.783,146.234,288.772z M126.923,363.569
		l19.496-45.159l20.169,45.159H126.923z"/>
	<path style="fill:#363636;" d="M565.177,251.758c2.39,0.052,4.69-0.893,6.343-2.618l33.69-35.167
		c3.202-3.342,3.141-8.633-0.138-11.9L517.3,114.598c-1.593-1.588-3.75-2.479-6-2.479c-0.005,0-0.01,0-0.014,0
		c-2.254,0.004-4.415,0.903-6.006,2.5l-87.179,87.475c-3.239,3.25-3.314,8.484-0.169,11.826l33.099,35.167
		c1.629,1.73,3.88,2.718,6.285,2.674c2.376-0.026,4.633-1.047,6.223-2.813l9.415-10.461V392.2c0,11.608-9.444,21.053-21.052,21.053
		h-46.515c-11.608,0-21.052-9.444-21.052-21.053v-25.415c0-4.694-3.806-8.5-8.5-8.5h-62.799c-4.694,0-8.5,3.806-8.5,8.5v56.371
		c0,25.423,20.683,46.105,46.105,46.105h153.494c25.422,0,46.105-20.683,46.105-46.105V238.801l8.728,10.037
		C560.535,250.641,562.789,251.701,565.177,251.758z M548.153,210.495c-2.327-2.675-6.068-3.625-9.392-2.384
		c-3.321,1.242-5.522,4.416-5.522,7.961v207.083c0,16.049-13.057,29.105-29.105,29.105H350.64
		c-16.049,0-29.105-13.057-29.105-29.105v-47.871h45.799V392.2c0,20.982,17.07,38.053,38.052,38.053H451.9
		c20.982,0,38.052-17.07,38.052-38.053V216.072c0-3.579-2.242-6.774-5.606-7.992c-3.367-1.22-7.133-0.198-9.424,2.551l-2.851,3.422
		L457.08,230.71l-21.127-22.447l75.368-75.624l75.848,75.592l-21.483,22.425L548.153,210.495z"/>
	<path style="fill:#363636;" d="M340.308,354.664c1.593,1.588,3.75,2.479,6,2.479c0.005,0,0.01,0,0.014,0
		c2.254-0.004,4.415-0.903,6.006-2.5l87.18-87.475c3.239-3.25,3.314-8.484,0.169-11.826l-33.099-35.167
		c-1.628-1.73-3.885-2.712-6.284-2.674c-2.376,0.026-4.633,1.047-6.223,2.813l-9.415,10.461V77.062
		c0-11.608,9.444-21.052,21.053-21.052h46.514c11.608,0,21.052,9.444,21.052,21.052v25.415c0,4.694,3.806,8.5,8.5,8.5h62.799
		c4.694,0,8.5-3.806,8.5-8.5V46.105C553.074,20.683,532.391,0,506.968,0H353.474c-25.423,0-46.105,20.683-46.105,46.105V230.46
		l-8.728-10.037c-1.567-1.803-3.821-2.862-6.209-2.92c-2.386-0.046-4.69,0.893-6.343,2.618l-33.69,35.167
		c-3.202,3.342-3.141,8.633,0.138,11.9L340.308,354.664z M291.923,238.605l17.532,20.162c2.327,2.676,6.07,3.628,9.392,2.384
		c3.321-1.242,5.522-4.416,5.522-7.961V46.105c0-16.049,13.057-29.105,29.105-29.105h153.494c16.049,0,29.105,13.057,29.105,29.105
		v47.871h-45.799V77.062c0-20.982-17.07-38.052-38.052-38.052h-46.514c-20.982,0-38.053,17.07-38.053,38.052v176.127
		c0,3.579,2.241,6.774,5.606,7.992c3.365,1.22,7.132,0.198,9.423-2.55l2.852-3.422l14.991-16.657l21.127,22.447l-75.368,75.624
		l-75.848-75.592L291.923,238.605z"/>
</g>
</svg>
