<?xml version="1.0" encoding="iso-8859-1"?>
<!-- Generator: Adobe Illustrator 21.1.0, SVG Export Plug-In . SVG Version: 6.00 Build 0)  -->
<svg version="1.1" id="Capa_1" xmlns="http://www.w3.org/2000/svg" xmlns:xlink="http://www.w3.org/1999/xlink" x="0px" y="0px"
	 viewBox="-932 182.911 480 480.518" style="enable-background:new -932 182.911 480 480.518;" xml:space="preserve">
<g>
	<rect x="-932" y="614.911" style="fill:#FFE045;" width="56" height="16"/>
	<rect x="-900" y="582.911" style="fill:#FFE045;" width="56" height="16"/>
	<rect x="-932" y="582.911" style="fill:#FFE045;" width="16" height="16"/>
	<rect x="-900" y="646.911" style="fill:#FFE045;" width="56" height="16"/>
	<rect x="-932" y="646.911" style="fill:#FFE045;" width="16" height="16"/>
	<rect x="-860" y="614.911" style="fill:#FFE045;" width="16" height="16"/>
	<rect x="-540" y="614.911" style="fill:#FFE045;" width="56" height="16"/>
	<rect x="-508" y="582.911" style="fill:#FFE045;" width="56" height="16"/>
	<rect x="-540" y="582.911" style="fill:#FFE045;" width="16" height="16"/>
	<rect x="-508" y="646.911" style="fill:#FFE045;" width="56" height="16"/>
	<rect x="-540" y="646.911" style="fill:#FFE045;" width="16" height="16"/>
	<rect x="-468" y="614.911" style="fill:#FFE045;" width="16" height="16"/>
	<rect x="-932" y="222.911" style="fill:#FFE045;" width="56" height="16"/>
	<rect x="-900" y="190.911" style="fill:#FFE045;" width="56" height="16"/>
	<rect x="-932" y="190.911" style="fill:#FFE045;" width="16" height="16"/>
	<rect x="-900" y="254.911" style="fill:#FFE045;" width="56" height="16"/>
	<rect x="-932" y="254.911" style="fill:#FFE045;" width="16" height="16"/>
	<rect x="-860" y="222.911" style="fill:#FFE045;" width="16" height="16"/>
	<rect x="-540" y="222.911" style="fill:#FFE045;" width="56" height="16"/>
	<rect x="-508" y="190.911" style="fill:#FFE045;" width="56" height="16"/>
	<rect x="-540" y="190.911" style="fill:#FFE045;" width="16" height="16"/>
	<rect x="-508" y="254.911" style="fill:#FFE045;" width="56" height="16"/>
	<rect x="-540" y="254.911" style="fill:#FFE045;" width="16" height="16"/>
	<rect x="-468" y="222.911" style="fill:#FFE045;" width="16" height="16"/>
	<path style="fill:#FFE045;" d="M-538.592,549.551c12.46,12.496,32.691,12.525,45.187,0.065
		c12.496-12.46,12.525-32.691,0.065-45.187c-4.047-4.058-9.11-6.953-14.66-8.382V349.775c17.081-4.414,27.35-21.839,22.936-38.92
		c-4.414-17.081-21.839-27.35-38.92-22.936c-5.528,1.429-10.572,4.313-14.607,8.352l-122.792-72.56
		c0.873-2.854,1.339-5.816,1.384-8.8c0-17.673-14.327-32-32-32c-17.673,0-32,14.327-32,32c0.045,2.984,0.511,5.946,1.384,8.8
		l-122.792,72.56c-12.46-12.496-32.691-12.525-45.187-0.065c-12.496,12.46-12.525,32.691-0.065,45.187
		c4.047,4.058,9.11,6.953,14.66,8.382v146.272c-17.081,4.414-27.35,21.839-22.936,38.92s21.839,27.35,38.92,22.936
		c5.528-1.429,10.572-4.313,14.607-8.352l122.792,72.56c-5.141,16.909,4.398,34.784,21.307,39.925
		c16.909,5.141,34.784-4.398,39.925-21.307c1.845-6.069,1.845-12.549,0-18.618L-538.592,549.551z M-500,526.911
		c0,8.837-7.163,16-16,16s-16-7.163-16-16s7.163-16,16-16S-500,518.074-500,526.911z M-516,302.911c8.837,0,16,7.163,16,16
		c0,8.837-7.163,16-16,16s-16-7.163-16-16C-532,310.074-524.837,302.911-516,302.911z M-692,198.911c8.837,0,16,7.163,16,16
		s-7.163,16-16,16s-16-7.163-16-16S-700.837,198.911-692,198.911z M-837.384,310.111l122.792-72.56
		c12.473,12.477,32.698,12.481,45.176,0.008c0.003-0.003,0.006-0.006,0.008-0.008l122.792,72.56c-1.845,5.722-1.845,11.878,0,17.6
		L-692,413.615l-145.384-85.904C-835.539,321.989-835.539,315.833-837.384,310.111z M-884,318.911c0-8.837,7.163-16,16-16
		s16,7.163,16,16c0,8.837-7.163,16-16,16S-884,327.748-884,318.911z M-868,542.911c-8.837,0-16-7.163-16-16s7.163-16,16-16
		s16,7.163,16,16S-859.163,542.911-868,542.911z M-837.384,535.711c5.09-16.527-4.181-34.051-20.708-39.142
		c-0.63-0.194-1.267-0.368-1.908-0.522V349.775c5.508-1.392,10.543-4.231,14.584-8.224L-700,427.479v172.568
		c-5.509,1.393-10.547,4.233-14.592,8.224L-837.384,535.711z M-692,646.911c-8.837,0-16-7.163-16-16s7.163-16,16-16s16,7.163,16,16
		S-683.163,646.911-692,646.911z M-669.408,608.271c-4.045-3.991-9.083-6.831-14.592-8.224V427.479l145.408-85.928
		c4.045,3.991,9.083,6.831,14.592,8.224v146.272c-14.085,3.637-23.945,16.317-24,30.864c0.045,2.984,0.511,5.946,1.384,8.8
		L-669.408,608.271z"/>
	
		<rect x="-751.423" y="445.608" transform="matrix(0.8609 -0.5088 0.5088 0.8609 -334.3068 -315.4253)" style="fill:#FFE045;" width="14.952" height="16"/>
	
		<rect x="-777.155" y="460.822" transform="matrix(0.8609 -0.5088 0.5088 0.8609 -345.6255 -326.4003)" style="fill:#FFE045;" width="14.952" height="16"/>
	
		<rect x="-725.668" y="430.39" transform="matrix(0.8609 -0.5088 0.5088 0.8609 -322.9793 -304.4373)" style="fill:#FFE045;" width="14.952" height="16"/>
	
		<rect x="-802.88" y="476.013" transform="matrix(0.8609 -0.5088 0.5088 0.8609 -356.9339 -337.376)" style="fill:#FFE045;" width="14.952" height="16"/>
	
		<rect x="-828.663" y="491.248" transform="matrix(0.8609 -0.5088 0.5088 0.8609 -368.2742 -348.3761)" style="fill:#FFE045;" width="14.952" height="16"/>
	
		<rect x="-570.81" y="491.74" transform="matrix(0.5087 -0.8609 0.8609 0.5087 -706.2818 -239.2871)" style="fill:#FFE045;" width="16" height="14.952"/>
	
		<rect x="-596.556" y="476.539" transform="matrix(0.5086 -0.861 0.861 0.5086 -705.9473 -268.9049)" style="fill:#FFE045;" width="16" height="14.952"/>
	
		<rect x="-622.317" y="461.35" transform="matrix(0.5087 -0.8609 0.8609 0.5087 -705.4222 -298.5616)" style="fill:#FFE045;" width="16" height="14.952"/>
	
		<rect x="-673.823" y="430.943" transform="matrix(0.5087 -0.8609 0.8609 0.5087 -704.5449 -357.8422)" style="fill:#FFE045;" width="16" height="14.952"/>
	
		<rect x="-648.059" y="446.125" transform="matrix(0.5086 -0.861 0.861 0.5086 -705.0696 -328.1938)" style="fill:#FFE045;" width="16" height="14.952"/>
	<rect x="-700" y="382.911" style="fill:#FFE045;" width="16" height="16"/>
	<rect x="-700" y="350.911" style="fill:#FFE045;" width="16" height="16"/>
	<rect x="-700" y="318.911" style="fill:#FFE045;" width="16" height="16"/>
	<rect x="-700" y="286.911" style="fill:#FFE045;" width="16" height="16"/>
	<rect x="-700" y="254.911" style="fill:#FFE045;" width="16" height="16"/>
</g>
</svg>
