<?xml version="1.0" encoding="utf-8"?>
<!-- Generator: Adobe Illustrator 21.1.0, SVG Export Plug-In . SVG Version: 6.00 Build 0)  -->
<svg version="1.1" id="Capa_1" xmlns="http://www.w3.org/2000/svg" xmlns:xlink="http://www.w3.org/1999/xlink" x="0px" y="0px"
	 viewBox="-811.7 116.9 437.5 552.1" style="enable-background:new -811.7 116.9 437.5 552.1;" xml:space="preserve">
<g>
	<path d="M-478.1,130.7c-1.2-8.3-8.5-14.4-17-13.7c-29.6,2.1-63.1,20.3-83.4,45.3c-22,27.1-32.1,60.4-26.9,89
		c1.3,7.4,7.7,12.9,15.2,13.2c0.9,0,1.7,0,2.6,0c30.4,0,62.9-17,83.4-43.9C-483.3,193.3-473.8,160.6-478.1,130.7z"/>
	<path d="M-375.5,519c-1.7-4.1-4.9-7.2-9-8.8c-32.5-12.5-54.3-42.6-56.9-78.5c-2.5-35.3,14.4-66.6,45.2-83.7c4.1-2.3,7-6.2,7.9-10.8
		c0.9-4.6-0.2-9.4-3.1-13.1c-27-34.3-65.6-54.8-103.2-54.8c-26.2,0-44.5,7.1-59.3,12.8c-11.4,4.4-20.4,7.8-30.8,7.8
		c-11.7,0-22.7-4-35.4-8.6c-15.4-5.6-32.9-11.9-55-11.9c-42.7,0-85.8,26-112.6,68c-40.2,63.1-28.8,171.8,27.2,258.5
		c21.8,33.9,52.3,72.8,94.5,73.2c0.3,0,0.5,0,0.8,0c17.5,0,29.6-5.5,40.3-10.3c11.2-5.1,21.7-9.9,40.6-10c18-0.5,29.2,4.7,40.1,9.8
		c10.7,5,23.1,10.4,40.7,10.4c41.1-0.3,71.6-39,96-76.8c14.8-22.9,20.5-34.8,31.8-60.4C-373.8,527.6-373.8,523-375.5,519z"/>
</g>
</svg>
