<?xml version="1.0" encoding="iso-8859-1"?>
<!-- Generator: Adobe Illustrator 21.1.0, SVG Export Plug-In . SVG Version: 6.00 Build 0)  -->
<svg version="1.1" id="svg4525" xmlns="http://www.w3.org/2000/svg" xmlns:xlink="http://www.w3.org/1999/xlink" x="0px" y="0px"
	 viewBox="0 0 746.994 671" style="enable-background:new 0 0 746.994 671;" xml:space="preserve">
<path style="fill:#363636;" d="M746.835,621.799c-2.041-40.281-22.922-93.045-62.074-156.873
	c4.932-15.379,20.371-72.493,6.889-150.011c-9.084-52.238-29.528-102.896-60.765-150.568
	C592.03,105.045,536.28,50.253,465.184,1.491c-3.513-2.409-8.267-1.847-11.119,1.317c-2.854,3.163-2.925,7.949-0.167,11.196
	c0.309,0.363,31.127,37.028,53.901,97.177c20.284,53.571,37.81,136.636,8.983,232.303c-18.264-11.425-62.002-39.49-115.369-78.583
	c-64.839-47.498-157.562-121.456-231.082-204.062c-2.922-3.283-7.864-3.798-11.4-1.186c-3.535,2.612-4.496,7.488-2.216,11.246
	c0.793,1.307,66.115,108.4,146.828,201.479C229.527,220.949,115.239,138.92,84.038,101.827c-2.828-3.363-7.756-4.016-11.364-1.503
	c-3.606,2.513-4.702,7.362-2.526,11.182c1.061,1.861,26.604,46.372,81.926,114.964c49.64,61.547,133.336,154.376,252.51,250.78
	c-15.796,8.979-50.45,25.543-99.967,31.841c-63.809,8.113-166.166,0.346-291.417-82.748c-3.397-2.254-7.918-1.779-10.771,1.134
	c-2.854,2.912-3.237,7.44-0.915,10.791c2.406,3.47,60.034,85.738,157.808,150.972c57.668,38.475,117.248,62.78,177.088,72.242
	c74.979,11.854,150.403,0.31,224.166-34.319c0.328-0.154,0.646-0.329,0.952-0.523c0.498-0.318,50.4-31.569,98.138-18.153
	c25.982,7.302,46.872,26.734,62.089,57.758c1.209,2.464,3.531,4.192,6.238,4.642c0.465,0.077,0.931,0.115,1.394,0.115
	c2.235,0,4.403-0.883,6.011-2.489C736.741,667.165,748.489,654.428,746.835,621.799z M728.471,643.283
	c-16.574-26.649-38.114-43.83-64.206-51.163c-52.865-14.857-105.371,16.161-111.372,19.869
	c-128.079,59.95-257.181,47.638-383.71-36.606c-54.769-36.466-97.194-79.279-123.464-109.228
	c43.419,24.33,86.81,41.714,129.477,51.838c45.347,10.761,89.978,13.392,132.646,7.822c73.055-9.536,114.691-39.563,116.428-40.836
	c2.135-1.565,3.418-4.035,3.472-6.681s-1.128-5.167-3.196-6.817c-122.774-97.972-208.572-192.908-258.929-255.298
	c-16.839-20.863-30.944-39.574-42.407-55.49c84.789,69.051,228.645,165.458,236.328,170.597c3.666,2.453,8.601,1.692,11.358-1.75
	c2.759-3.442,2.426-8.422-0.767-11.467c-56.8-54.165-111.638-126.77-149.294-180.826C280.45,194.1,343.55,243.593,391.525,278.729
	c70.971,51.979,125.144,84.671,125.683,84.995c2.209,1.329,4.902,1.583,7.325,0.69c2.421-0.894,4.304-2.838,5.119-5.286
	c15.412-46.235,21.709-93.734,18.718-141.176c-2.392-37.924-10.692-75.873-24.672-112.792
	c-9.162-24.198-19.491-44.666-28.812-60.786c125.23,98.564,167.223,201.085,179.847,272.489
	c15.014,84.923-7.046,145.531-7.267,146.124c-0.927,2.468-0.657,5.227,0.732,7.468C730.602,571.141,732.922,621.728,728.471,643.283
	z"/>
</svg>
