<?xml version="1.0" encoding="iso-8859-1"?>
<!-- Generator: Adobe Illustrator 21.1.0, SVG Export Plug-In . SVG Version: 6.00 Build 0)  -->
<svg version="1.1" id="svg4525" xmlns="http://www.w3.org/2000/svg" xmlns:xlink="http://www.w3.org/1999/xlink" x="0px" y="0px"
	 viewBox="0 0 493.809 558.896" style="enable-background:new 0 0 493.809 558.896;" xml:space="preserve">
<g>
	<path style="fill:#363636;" d="M491.584,2.954c-1.609-1.763-3.886-2.767-6.272-2.768L8.504,0C8.502,0,8.501,0,8.5,0
		C6.113,0,3.835,1.004,2.225,2.767C0.614,4.53-0.181,6.89,0.035,9.269l44.259,487.223c0.319,3.508,2.768,6.456,6.157,7.412
		l193.773,54.673c0.754,0.213,1.531,0.319,2.308,0.319c0.777,0,1.555-0.106,2.311-0.32l194.889-55.045
		c3.39-0.957,5.839-3.907,6.155-7.416L493.775,9.45C493.989,7.073,493.194,4.716,491.584,2.954z M433.481,488.761l-186.95,52.803
		L60.695,489.13L17.808,17.004l458.2,0.179L433.481,488.761z"/>
	<path style="fill:#363636;" d="M86.861,128.924l5.145,57.495c0.693,7.747,7.101,13.59,14.905,13.59h76.778l-77.484,32.933
		c-5.996,2.538-9.629,8.587-9.042,15.026l5.074,57.494c0.678,7.766,7.083,13.621,14.9,13.621h184.974l-4.167,48.658l-50.692,14.033
		l-50.855-13.566l-1.651-18.097c-0.708-7.729-7.115-13.559-14.903-13.559h-58.224c-4.174,0-8.19,1.758-11.02,4.824
		c-2.855,3.095-4.268,7.271-3.879,11.417l6.497,72.951c0.551,6.161,4.941,11.407,10.927,13.054l118.949,32.702
		c1.192,0.336,2.506,0.507,3.904,0.507c0.15,0,0.304-0.003,0.455-0.007c1.737,0.036,3.098-0.264,4.118-0.544l118.595-32.722
		c5.998-1.648,10.388-6.909,10.922-13.08l15.617-177.705c0.357-4.149-1.057-8.294-3.893-11.384
		c-2.823-3.063-6.838-4.819-11.016-4.819h-63.46l74.795-33.014c4.988-2.208,8.376-6.946,8.839-12.357l4.975-57.468
		c0.376-4.18-1.048-8.345-3.875-11.393c-2.817-3.073-6.835-4.836-11.023-4.836h-290.28c-4.172,0-8.186,1.758-11.014,4.824
		c-2.834,3.073-4.253,7.226-3.894,11.392C86.86,128.905,86.861,128.914,86.861,128.924z M389.815,129.68l-4.675,53.998
		l-110.544,48.793c-3.676,1.623-5.714,5.599-4.885,9.53c0.829,3.932,4.298,6.746,8.317,6.746h101.54l-15.289,173.977
		l-116.967,32.271c-0.039,0.001-0.078,0.002-0.117,0.003l-117.174-32.215l-6.166-69.23h54.135l2.017,22.11
		c0.324,3.55,2.829,6.521,6.274,7.44l58.822,15.692c1.461,0.389,3.001,0.383,4.458-0.021l58.616-16.226
		c3.425-0.948,5.898-3.927,6.202-7.467l5.46-63.773c0.203-2.372-0.598-4.721-2.208-6.474c-1.61-1.754-3.881-2.752-6.262-2.752
		H119.005l-4.772-54.082l114.511-48.669c3.719-1.581,5.811-5.561,5.004-9.52c-0.807-3.959-4.289-6.804-8.329-6.804h-116.65
		l-4.772-53.329H389.815z"/>
</g>
</svg>
