<?xml version="1.0" encoding="utf-8"?>
<!-- Generator: Adobe Illustrator 21.1.0, SVG Export Plug-In . SVG Version: 6.00 Build 0)  -->
<svg version="1.1" id="Capa_1" xmlns="http://www.w3.org/2000/svg" xmlns:xlink="http://www.w3.org/1999/xlink" x="0px" y="0px"
	 viewBox="0 0 505 512" style="enable-background:new 0 0 505 512;" xml:space="preserve">
<style type="text/css">
	.st0{fill:#FFE045;}
</style>
<g>
	<g>
		<g>
			<path class="st0" d="M505,234.5c0-4.1-3.4-7.5-7.5-7.5H315v-62.5c0-4.1-3.4-7.5-7.5-7.5h-50H245v-27.5c0-8.4-1.6-16.6-4.9-24.3
				c-3.1-7.4-7.7-14.1-13.4-19.9c-5.7-5.7-12.4-10.2-19.9-13.4c-7.7-3.3-15.9-4.9-24.3-4.9c-8.4,0-16.6,1.6-24.3,4.9
				c-0.2,0.1-0.4,0.2-0.6,0.3c-0.2-0.1-0.4-0.2-0.6-0.3c-7.7-3.3-15.9-4.9-24.3-4.9c-8.4,0-16.6,1.6-24.3,4.9
				c-7.4,3.1-14.1,7.6-19.9,13.4c-5.7,5.7-10.2,12.4-13.4,19.9c-3.3,7.7-4.9,15.9-4.9,24.3V157H7.5c-4.1,0-7.5,3.4-7.5,7.5v0v0v340
				c0,4.1,3.4,7.5,7.5,7.5h249.8c0.1,0,0.1,0,0.2,0h50h0h0h190c4.1,0,7.5-3.4,7.5-7.5c0-0.1,0-0.1,0-0.2c0-0.1,0-0.1,0-0.2
				L505,234.5L505,234.5z M182.5,82c12.7,0,24.6,4.9,33.6,13.9c9,9,13.9,20.9,13.9,33.6V157h-34.8v-27.5c0-8.4-1.7-16.6-4.9-24.3
				c-3.1-7.4-7.6-14.1-13.4-19.9c-0.9-0.9-1.8-1.7-2.7-2.6C176.9,82.3,179.7,82,182.5,82z M157.6,89.1c3.1,1.9,6,4.2,8.7,6.9
				c9,9,13.9,20.9,13.9,33.6V157H135v-27.5c0-12.7,4.9-24.6,13.9-33.6C151.6,93.3,154.5,91,157.6,89.1z M99.1,95.9
				c9-9,20.9-13.9,33.6-13.9c2.8,0,5.6,0.3,8.4,0.8c-0.9,0.8-1.8,1.7-2.7,2.6c-5.7,5.7-10.3,12.4-13.4,19.9
				c-3.3,7.7-4.9,15.9-4.9,24.3V157H85.2v-27.5h0C85.2,116.8,90.1,104.9,99.1,95.9z M250,497H15V172h55.2v52.5
				c0,4.1,3.4,7.5,7.5,7.5c4.1,0,7.5-3.4,7.5-7.5V172h42.3c0,0,0.1,0,0.1,0c0,0,0.1,0,0.1,0h52.6v52.5c0,4.1,3.4,7.5,7.5,7.5
				c4.1,0,7.5-3.4,7.5-7.5V172h42.3c0,0,0.1,0,0.1,0s0.1,0,0.1,0H250V497z M300,497h-35V172h35V497z M440,497H315V321.5
				c5.1-0.7,10.1-2,14.9-4c6.9-2.9,13-7,18.3-12.3c5.3-5.3,9.4-11.4,12.3-18.3c3-7.1,4.5-14.6,4.5-22.4c0-4.1-3.4-7.5-7.5-7.5
				c-4.1,0-7.5,3.4-7.5,7.5c0,11.3-4.4,22-12.4,30c-6.2,6.2-14.1,10.3-22.6,11.8V242h125L440,497L440,497z M490,497h-35V242h35V497z
				"/>
		</g>
	</g>
	<g>
		<g>
			<path class="st0" d="M392.5,30C380.1,30,370,40.1,370,52.5S380.1,75,392.5,75S415,64.9,415,52.5S404.9,30,392.5,30z M392.5,60
				c-4.1,0-7.5-3.4-7.5-7.5s3.4-7.5,7.5-7.5s7.5,3.4,7.5,7.5S396.6,60,392.5,60z"/>
		</g>
	</g>
	<g>
		<g>
			<path class="st0" d="M452.5,90c-12.4,0-22.5,10.1-22.5,22.5s10.1,22.5,22.5,22.5s22.5-10.1,22.5-22.5S464.9,90,452.5,90z
				 M452.5,120c-4.1,0-7.5-3.4-7.5-7.5s3.4-7.5,7.5-7.5s7.5,3.4,7.5,7.5S456.6,120,452.5,120z"/>
		</g>
	</g>
	<g>
		<g>
			<path class="st0" d="M472.8,32.2c-2.9-2.9-7.7-2.9-10.6,0l-90,90c-2.9,2.9-2.9,7.7,0,10.6c1.5,1.5,3.4,2.2,5.3,2.2
				s3.8-0.7,5.3-2.2l90-90C475.7,39.9,475.7,35.1,472.8,32.2z"/>
		</g>
	</g>
	<g>
		<g>
			<path class="st0" d="M497.5,0h-150c-4.1,0-7.5,3.4-7.5,7.5c0,0.4,0,0.8,0.1,1.3C340,9.2,340,9.6,340,10v47.5
				c0,4.1,3.4,7.5,7.5,7.5c4.1,0,7.5-3.4,7.5-7.5V15h135v128l-67.5,36L355,143V87.5c0-4.1-3.4-7.5-7.5-7.5c-4.1,0-7.5,3.4-7.5,7.5
				v59.9c0,0.3,0,0.5,0,0.8c0.1,1,0.4,1.9,0.8,2.7c0,0,0,0.1,0.1,0.1c0,0,0,0.1,0.1,0.1c0.7,1.2,1.7,2.3,3,3l75,40
				c1.1,0.6,2.3,0.9,3.5,0.9s2.4-0.3,3.5-0.9l75-40c1.1-0.6,2-1.4,2.6-2.4c0,0,0,0,0-0.1c0.1-0.1,0.1-0.2,0.2-0.4
				c0.1-0.1,0.1-0.2,0.2-0.3c0-0.1,0.1-0.1,0.1-0.2c0.5-1,0.8-2.1,0.8-3.3c0,0,0,0,0-0.1c0,0,0,0,0,0V7.5C505,3.4,501.6,0,497.5,0z"
				/>
		</g>
	</g>
</g>
</svg>
