<?xml version="1.0" encoding="iso-8859-1"?>
<!-- Generator: Adobe Illustrator 21.1.0, SVG Export Plug-In . SVG Version: 6.00 Build 0)  -->
<svg version="1.1" id="Background_2" xmlns="http://www.w3.org/2000/svg" xmlns:xlink="http://www.w3.org/1999/xlink" x="0px"
	 y="0px" viewBox="0 0 284.009 326.875" style="enable-background:new 0 0 284.009 326.875;" xml:space="preserve">
<g>
	<path style="fill:#FFE045;" d="M169.66,65.176l4.582,11.005c0.801,1.921,2.659,3.08,4.618,3.08c0.641,0,1.292-0.124,1.92-0.386
		c2.55-1.062,3.756-3.989,2.694-6.538l-4.614-11.08c-1.889-4.533-6.898-7.015-11.654-5.778c-0.019,0.005-0.085,0.023-0.104,0.028
		c-1.879,0.515-46.213,12.365-62.716-8.183c-1.73-2.153-4.878-2.496-7.029-0.767c-2.153,1.729-2.497,4.876-0.768,7.03
		C116.725,78.653,163.979,66.723,169.66,65.176z"/>
	<path style="fill:#FFE045;" d="M11.86,246.473c0.183,0,0.367-0.01,0.553-0.031c2.745-0.305,4.725-2.753,4.419-5.498
		c-0.195-3.314,4.123-24.195,11.367-43.369c4.504-11.924,18.981-14.043,31.755-15.914c4.103-0.601,7.979-1.168,11.261-2.053
		c0.421-0.114,0.836-0.23,1.23-0.353c2.99-0.928,6.207-2.202,9.559-3.779l0.136-0.052c3.445-1.329,6.737-3.022,9.837-5.027
		c1.175,3.042,3.093,6.477,6.232,9.77c8.611,9.034,22.849,13.614,42.315,13.614c19.443,0,33.796-4.564,42.659-13.566
		c3.106-3.154,5.08-6.438,6.35-9.382c2.639,1.827,5.479,3.342,8.496,4.505l6.868,2.649l8.414,3.246
		c0.081,0.031,0.163,0.042,0.245,0.069c0.067,0.022,0.126,0.058,0.196,0.077c0.777,0.22,1.559,0.422,2.345,0.599
		c3.865,0.865,8.05,1.438,12.098,1.992c13.899,1.903,27.028,3.701,31.758,16.223c7.011,18.557,8.614,31.601,8.27,34.702
		c-0.305,2.745,1.673,5.217,4.417,5.522c0.188,0.021,0.374,0.031,0.559,0.031c2.514,0,4.68-1.891,4.964-4.448
		c0.473-4.25-0.77-17.943-8.854-39.341c-6.833-18.089-25.089-20.589-39.757-22.597c-4.02-0.55-7.816-1.07-11.27-1.842
		c-0.545-0.122-1.088-0.266-1.63-0.417l-8.154-3.145l-6.868-2.649c-3.299-1.272-6.326-3.088-9-5.397
		c-0.386-0.333-0.761-0.678-1.129-1.028c-0.464-1.333-1.463-2.409-2.743-2.962c-3.32-4.078-5.571-8.912-6.471-14.031
		c-0.008-0.046-0.016-0.091-0.023-0.135v-8.518c5.667-6.497,9.732-14.194,11.909-22.525c0.127-0.023,0.254-0.048,0.381-0.074
		c8.85-1.812,15.272-9.933,15.272-19.311v-3.581c0-4.302-1.432-8.517-3.993-11.917c3.943-24.045-0.161-43.876-11.926-57.461
		C182.081,5.418,163.328-1.122,139.661,0.157c-20.149,1.089-33.703,9.654-39.502,14.151c-2.892,0.489-6.726,1.564-10.617,3.899
		C82.981,22.144,75.161,30.3,75.161,46.803c0,10.537,1.359,19.648,2.752,26.222c-4.556,3.649-7.346,9.367-7.346,15.479v3.525
		c0,9.377,6.423,17.499,15.271,19.31c0.127,0.026,0.254,0.05,0.382,0.074c2.177,8.331,6.242,16.027,11.91,22.525v8.824l-0.002,0.044
		c-0.211,5.233-2.203,10.187-5.574,14.119c-0.731,0.442-1.323,1.079-1.747,1.827c-0.479,0.449-0.971,0.886-1.491,1.297
		c0,0-0.001,0.001-0.001,0.001l-0.138,0.109c-0.195,0.155-0.391,0.311-0.588,0.455c-3.094,2.259-6.475,4.103-10.046,5.48l-0.259,0.1
		c-0.06,0.023-0.11,0.06-0.168,0.085c-0.058,0.025-0.119,0.035-0.176,0.063c-3.006,1.424-5.852,2.556-8.46,3.365
		c-0.279,0.087-0.573,0.168-0.869,0.248c-2.712,0.731-6.304,1.257-10.106,1.814c-13.958,2.043-33.075,4.842-39.661,22.274
		c-7.067,18.708-12.572,42.403-11.955,47.96C7.174,244.56,9.344,246.473,11.86,246.473z M95.198,105.786
		c-0.462-2.447-2.674-4.181-5.139-4.067c-0.741,0.036-1.479-0.026-2.215-0.177c-4.217-0.863-7.277-4.864-7.277-9.513v-3.525
		c0-3.739,2.036-7.147,5.188-8.683c2.115-1.031,3.226-3.396,2.668-5.682c-1.488-6.091-3.262-15.777-3.262-27.336
		c0-9.492,3.205-16.228,9.525-20.021c3.238-1.943,6.479-2.561,8.122-2.755c0.95-0.113,1.849-0.497,2.588-1.104
		c3.324-2.737,15.66-11.745,34.805-12.78c20.455-1.109,36.419,4.244,46.146,15.474c10.092,11.654,13.286,29.457,9.235,51.483
		c-0.298,1.623,0.224,3.288,1.394,4.451c1.811,1.799,2.849,4.313,2.849,6.897v3.581c0,4.649-3.061,8.65-7.275,9.513
		c-0.738,0.151-1.484,0.211-2.218,0.177c-2.48-0.11-4.677,1.621-5.139,4.067c-1.618,8.569-5.622,16.456-11.578,22.806
		c-0.869,0.927-1.353,2.15-1.353,3.42v10.847c0,0.258,0.021,0.516,0.06,0.771c0.036,0.227,0.074,0.463,0.116,0.699
		c1.239,7.044,4.396,13.671,9.05,19.183c-0.51,2.302-1.858,6.058-5.429,9.686c-6.816,6.923-19.104,10.583-35.534,10.583
		c-16.231,0-28.297-3.57-34.894-10.323c-3.781-3.872-4.961-7.924-5.328-10.213c4.728-5.595,7.517-12.619,7.817-20.043l0.006-0.144
		c0.003-0.066,0.004-0.133,0.004-0.2v-10.848c0-1.271-0.483-2.494-1.354-3.42C100.82,122.241,96.816,114.355,95.198,105.786z"/>
	<path style="fill:#FFE045;" d="M199.747,250.095l-36.097-6.392l-17.232-32.355c-0.868-1.63-2.565-2.649-4.413-2.649
		s-3.545,1.019-4.413,2.649l-17.233,32.355l-36.097,6.392c-1.819,0.322-3.313,1.621-3.883,3.378
		c-0.571,1.757-0.127,3.686,1.155,5.016l25.445,26.388l-5.075,36.305c-0.256,1.83,0.519,3.651,2.014,4.737
		c1.495,1.086,3.466,1.26,5.127,0.451l32.96-16.046l32.959,16.046c0.694,0.338,1.442,0.504,2.188,0.504
		c1.038,0,2.07-0.323,2.939-0.955c1.495-1.086,2.27-2.907,2.014-4.737l-5.075-36.305l25.445-26.388
		c1.282-1.33,1.727-3.259,1.155-5.016C203.06,251.716,201.566,250.418,199.747,250.095z M168.141,279.688
		c-1.066,1.106-1.565,2.641-1.353,4.163l4.112,29.419l-26.707-13.003c-1.381-0.673-2.996-0.673-4.377,0l-26.709,13.003l4.113-29.419
		c0.213-1.522-0.286-3.057-1.353-4.163l-20.619-21.383l29.25-5.179c1.513-0.268,2.818-1.217,3.541-2.573l13.965-26.218
		l13.964,26.218c0.723,1.356,2.028,2.305,3.541,2.573l29.25,5.179L168.141,279.688z"/>
	<path style="fill:#FFE045;" d="M283.764,272.626c-0.57-1.757-2.063-3.056-3.883-3.378l-25.069-4.439l-11.969-22.471
		c-0.868-1.631-2.565-2.649-4.413-2.649s-3.545,1.019-4.413,2.649l-13.113,24.619c-1.298,2.437-0.375,5.465,2.063,6.764
		c2.438,1.298,5.466,0.376,6.764-2.063l8.7-16.334l8.7,16.334c0.723,1.356,2.028,2.305,3.541,2.573l18.223,3.227l-12.846,13.322
		c-1.066,1.106-1.565,2.641-1.353,4.163l2.563,18.328l-16.64-8.101c-1.381-0.673-2.996-0.673-4.377,0l-16.639,8.101l2.563-18.328
		c0.213-1.522-0.286-3.057-1.353-4.163l-8.071-8.37c-1.917-1.988-5.083-2.046-7.07-0.128c-1.987,1.917-2.045,5.082-0.129,7.07
		l6.382,6.618l-3.525,25.214c-0.256,1.83,0.519,3.651,2.014,4.737c0.869,0.632,1.901,0.955,2.939,0.955
		c0.745,0,1.493-0.167,2.188-0.504l22.891-11.145l22.891,11.145c1.662,0.81,3.635,0.636,5.127-0.451
		c1.495-1.085,2.27-2.907,2.014-4.737l-3.524-25.214l17.672-18.327C283.891,276.311,284.335,274.382,283.764,272.626z"/>
	<path style="fill:#FFE045;" d="M71.268,282.409l-8.071,8.37c-1.066,1.106-1.565,2.641-1.353,4.163l2.562,18.328l-16.639-8.101
		c-1.381-0.673-2.996-0.673-4.377,0l-16.639,8.101l2.563-18.328c0.213-1.522-0.286-3.057-1.353-4.163l-12.847-13.322l18.223-3.227
		c1.513-0.268,2.818-1.217,3.541-2.573l8.7-16.334l8.7,16.334c1.299,2.438,4.325,3.362,6.764,2.063
		c2.438-1.298,3.36-4.327,2.063-6.764l-13.113-24.619c-0.868-1.631-2.565-2.649-4.413-2.649s-3.545,1.019-4.413,2.649
		l-11.969,22.471l-25.069,4.439c-1.819,0.322-3.312,1.621-3.883,3.378c-0.571,1.757-0.127,3.686,1.155,5.016l17.673,18.327
		l-3.525,25.214c-0.256,1.83,0.519,3.651,2.014,4.737c1.493,1.086,3.465,1.26,5.127,0.451l22.891-11.145L68.47,326.37
		c0.694,0.338,1.442,0.504,2.188,0.504c1.038,0,2.07-0.323,2.939-0.955c1.495-1.086,2.27-2.908,2.014-4.737l-3.525-25.214
		l6.382-6.618c1.916-1.988,1.858-5.153-0.129-7.07C76.348,280.362,73.184,280.421,71.268,282.409z"/>
</g>
</svg>
