<?xml version="1.0" encoding="utf-8"?>
<!-- Generator: Adobe Illustrator 21.1.0, SVG Export Plug-In . SVG Version: 6.00 Build 0)  -->
<svg version="1.1" id="Capa_1" xmlns="http://www.w3.org/2000/svg" xmlns:xlink="http://www.w3.org/1999/xlink" x="0px" y="0px"
	 viewBox="714 353.9 480 512.1" style="enable-background:new 714 353.9 480 512.1;" xml:space="preserve">
<path d="M1161.9,556.5L809.8,362.2c-20.6-11.4-45-11-65.3,1C725.4,374.4,714,394,714,415.6v388.7c0,21.6,11.4,41.2,30.5,52.5
	c10.4,6.1,21.9,9.2,33.4,9.2c10.9,0,21.8-2.8,31.9-8.3l276.4-152.6c0.3-0.1,0.6-0.3,0.9-0.5l74.8-41.3
	c20.1-11.1,32.2-31.1,32.1-53.5C1194.1,587.6,1182,567.6,1161.9,556.5z M778,385.9c5.6,0,11.2,1.4,16.4,4.2l240.1,132.6l-54.8,54.8
	L772.5,386.4C774.3,386.1,776.2,385.9,778,385.9z M746.7,810.4c-0.4-2-0.7-4.1-0.7-6.2V415.6c0-3.1,0.5-6,1.4-8.8L957,600.2
	L746.7,810.4z M794.4,829.7c-7.8,4.3-16.5,5.3-24.8,3.2l211-211l71.3,65.7L794.4,829.7z M1146.4,635.4l-65.1,35.9l-78.1-72.1
	l60.4-60.4l82.8,45.7c9.7,5.4,15.6,14.9,15.6,25.4S1156.2,630,1146.4,635.4z"/>
</svg>
