<?xml version="1.0" encoding="iso-8859-1"?>
<!-- Generator: Adobe Illustrator 21.1.0, SVG Export Plug-In . SVG Version: 6.00 Build 0)  -->
<svg version="1.1" id="svg4525" xmlns="http://www.w3.org/2000/svg" xmlns:xlink="http://www.w3.org/1999/xlink" x="0px" y="0px"
	 viewBox="0 0 493.809 558.896" style="enable-background:new 0 0 493.809 558.896;" xml:space="preserve">
<g>
	<g>
		<path style="fill:#363636;" d="M246.532,558.896c-0.777,0-1.554-0.106-2.308-0.319L50.451,503.903
			c-3.39-0.956-5.838-3.904-6.157-7.412L0.035,9.269C-0.181,6.89,0.614,4.53,2.225,2.767C3.835,1.004,6.113,0,8.5,0
			c0.001,0,0.002,0,0.004,0l476.809,0.186c2.386,0.001,4.663,1.005,6.272,2.768c1.61,1.762,2.405,4.119,2.19,6.496l-43.887,486.665
			c-0.316,3.509-2.765,6.459-6.155,7.416l-194.889,55.045C248.088,558.789,247.31,558.896,246.532,558.896z M60.695,489.13
			l185.836,52.434l186.95-52.803l42.527-471.579l-458.2-0.178L60.695,489.13z"/>
	</g>
	<g>
		<g>
			<path style="fill:#363636;" d="M247.471,473.641c-2.592,0-5.187-0.329-7.604-0.987c-19.012-5.176-38.312-10.52-56.976-15.688
				c-19.491-5.396-39.646-10.978-59.484-16.37c-8.359-2.271-12.575-7.333-13.266-15.929c-1.83-22.773-3.871-45.046-6.031-68.626
				c-0.714-7.795-1.432-15.624-2.143-23.5c-0.215-2.377,0.58-4.735,2.19-6.498s3.888-2.767,6.275-2.767h61.783
				c4.382,0,8.045,3.331,8.461,7.692c0.393,4.111,0.809,8.236,1.226,12.373c1.067,10.577,2.17,21.515,2.885,32.407
				c0.015,0.229,0.033,0.426,0.051,0.592c0.145,0.043,0.313,0.091,0.51,0.141c10.575,2.698,21.247,5.608,31.567,8.422
				c8.438,2.301,17.163,4.679,25.746,6.918c1.667,0.435,3.651,0.48,5.055,0.117c20.013-5.174,40.144-10.606,59.843-16.151
				c1.928-19.903,3.616-40.142,5.251-59.739l0.421-5.045c-12.725-0.049-25.45-0.102-38.174-0.153
				c-51.904-0.216-105.577-0.436-158.351-0.37c-0.014,0-0.029,0-0.042,0c-14.97,0-17.664-9.265-18.338-17.339
				c-3.628-43.417-7.609-87.551-11.459-130.23c-1.28-14.187-2.559-28.372-3.829-42.559c-0.105-1.176-0.145-2.284-0.191-3.567
				c-0.022-0.628-0.047-1.326-0.083-2.135c-0.105-2.318,0.743-4.579,2.347-6.257c1.604-1.678,3.824-2.627,6.145-2.627h311.296
				c2.387,0,4.664,1.004,6.274,2.766c1.61,1.763,2.406,4.12,2.191,6.498l-5.584,61.92c-0.396,4.381-4.067,7.736-8.466,7.736H167.731
				c0.011,0.187,0.024,0.37,0.04,0.552c0.456,5.373,0.973,10.854,1.474,16.154c0.935,9.889,1.9,20.11,2.524,30.261
				c0.044,0.005,0.086,0,0.13,0c55.422-0.259,111.765-0.369,166.253-0.475l42.237-0.085c2.114-0.006,4.229-0.004,6.678-0.002
				l4.009,0.001c2.361,0,4.617,0.982,6.225,2.712c1.608,1.729,2.424,4.05,2.253,6.405c-0.214,2.947-0.411,5.822-0.604,8.646
				c-0.417,6.097-0.81,11.854-1.337,17.703c-3.166,35.092-6.369,70.18-9.571,105.268l-3.256,35.688
				c-0.033,0.357-0.068,0.714-0.115,1.07c-0.258,1.951-0.333,4.217-0.412,6.615c-0.224,6.8-0.478,14.507-5.22,20.319
				c-4.814,5.903-12.619,7.375-19.504,8.673c-2.19,0.413-4.258,0.804-6.006,1.291l-0.352,0.098
				c-32.152,8.96-65.398,18.225-98.182,27.09C252.607,473.317,250.04,473.641,247.471,473.641z M127.157,423.979
				c0.187,0.063,0.419,0.133,0.708,0.212c19.878,5.402,40.052,10.989,59.563,16.391c18.646,5.163,37.928,10.502,56.905,15.669
				c1.896,0.517,4.34,0.52,6.226,0.01c32.721-8.849,65.936-18.104,98.057-27.056l0.352-0.099c2.447-0.682,4.975-1.158,7.419-1.619
				c2.932-0.553,8.389-1.582,9.497-2.731c1.098-1.347,1.271-6.623,1.387-10.115c0.089-2.705,0.181-5.503,0.548-8.274
				c0.017-0.124,0.028-0.26,0.04-0.396l3.256-35.69c3.202-35.082,6.404-70.163,9.569-105.249c0.5-5.541,0.881-11.085,1.281-16.94
				c-0.516,0-1.026,0.001-1.538,0.002l-42.24,0.085c-54.477,0.105-110.808,0.215-166.206,0.475
				c-10.73,0.012-16.527-5.21-17.16-15.639c-0.605-9.974-1.568-20.166-2.5-30.023c-0.504-5.34-1.026-10.862-1.489-16.317
				c-0.213-2.52-0.162-4.949-0.112-7.3c0.021-1.024,0.044-2.082,0.044-3.188c0-4.694,3.806-8.5,8.5-8.5H389.2l4.051-44.92H100.324
				c1.154,12.873,2.315,25.745,3.476,38.617c3.853,42.707,7.836,86.869,11.469,130.342c0.061,0.733,0.129,1.296,0.193,1.723
				c0.328,0.021,0.738,0.028,1.226,0.032c52.818-0.066,106.515,0.155,158.441,0.37c12.728,0.053,25.455,0.104,38.182,0.153
				c2.207,0.009,4.304,0.138,6.332,0.262c0.84,0.052,1.67,0.103,2.489,0.143c4.023,0.196,7.355,3.189,7.982,7.168
				c0.074,0.468,0.149,0.84,0.212,1.151c0.196,0.98,0.465,2.323,0.327,3.969l-0.9,10.767c-1.707,20.459-3.472,41.615-5.511,62.425
				c-0.617,6.289-7.016,10.84-11.362,12.063c-20.042,5.647-40.535,11.181-60.908,16.447c-4.188,1.082-9.144,1.034-13.6-0.127
				c-8.674-2.262-17.445-4.653-25.927-6.966c-10.255-2.796-20.859-5.687-31.299-8.351c-8.511-2.172-12.745-7.285-13.323-16.092
				c-0.695-10.596-1.783-21.383-2.835-31.814c-0.161-1.592-0.321-3.183-0.48-4.771h-44.77c0.433,4.752,0.867,9.489,1.3,14.214
				c2.165,23.629,4.209,45.947,6.047,68.815C127.108,423.575,127.132,423.798,127.157,423.979z"/>
		</g>
		<g>
			<path style="fill:#363636;" d="M247.471,473.641c-2.592,0-5.187-0.329-7.604-0.987c-19.012-5.176-38.312-10.52-56.976-15.688
				c-19.491-5.396-39.646-10.978-59.484-16.37c-8.359-2.271-12.575-7.333-13.266-15.929c-1.83-22.773-3.871-45.046-6.031-68.626
				c-0.714-7.795-1.432-15.624-2.143-23.5c-0.215-2.377,0.58-4.735,2.19-6.498s3.888-2.767,6.275-2.767h61.783
				c4.382,0,8.045,3.331,8.461,7.692c0.393,4.111,0.809,8.236,1.226,12.373c1.067,10.577,2.17,21.515,2.885,32.407
				c0.015,0.229,0.033,0.426,0.051,0.592c0.145,0.043,0.313,0.091,0.51,0.141c10.575,2.698,21.247,5.608,31.567,8.422
				c8.438,2.301,17.163,4.679,25.746,6.918c1.667,0.435,3.651,0.48,5.055,0.117c20.013-5.174,40.144-10.606,59.843-16.151
				c1.928-19.903,3.616-40.142,5.251-59.739l0.421-5.045c-12.725-0.049-25.45-0.102-38.174-0.153
				c-51.904-0.216-105.577-0.436-158.351-0.37c-0.014,0-0.029,0-0.042,0c-14.97,0-17.664-9.265-18.338-17.339
				c-3.628-43.417-7.609-87.551-11.459-130.23c-1.28-14.187-2.559-28.372-3.829-42.559c-0.105-1.176-0.145-2.284-0.191-3.567
				c-0.022-0.628-0.047-1.326-0.083-2.135c-0.105-2.318,0.743-4.579,2.347-6.257c1.604-1.678,3.824-2.627,6.145-2.627h311.296
				c2.387,0,4.664,1.004,6.274,2.766c1.61,1.763,2.406,4.12,2.191,6.498l-5.584,61.92c-0.396,4.381-4.067,7.736-8.466,7.736H167.731
				c0.011,0.187,0.024,0.37,0.04,0.552c0.456,5.373,0.973,10.854,1.474,16.154c0.935,9.889,1.9,20.11,2.524,30.261
				c0.044,0.005,0.086,0,0.13,0c55.422-0.259,111.765-0.369,166.253-0.475l42.237-0.085c2.114-0.006,4.229-0.004,6.678-0.002
				l4.009,0.001c2.361,0,4.617,0.982,6.225,2.712c1.608,1.729,2.424,4.05,2.253,6.405c-0.214,2.947-0.411,5.822-0.604,8.646
				c-0.417,6.097-0.81,11.854-1.337,17.703c-3.166,35.092-6.369,70.18-9.571,105.268l-3.256,35.688
				c-0.033,0.357-0.068,0.714-0.115,1.07c-0.258,1.951-0.333,4.217-0.412,6.615c-0.224,6.8-0.478,14.507-5.22,20.319
				c-4.814,5.903-12.619,7.375-19.504,8.673c-2.19,0.413-4.258,0.804-6.006,1.291l-0.352,0.098
				c-32.152,8.96-65.398,18.225-98.182,27.09C252.607,473.317,250.04,473.641,247.471,473.641z M127.157,423.979
				c0.187,0.063,0.419,0.133,0.708,0.212c19.878,5.402,40.052,10.989,59.563,16.391c18.646,5.163,37.928,10.502,56.905,15.669
				c1.896,0.517,4.34,0.52,6.226,0.01c32.721-8.849,65.936-18.104,98.057-27.056l0.352-0.099c2.447-0.682,4.975-1.158,7.419-1.619
				c2.932-0.553,8.389-1.582,9.497-2.731c1.098-1.347,1.271-6.623,1.387-10.115c0.089-2.705,0.181-5.503,0.548-8.274
				c0.017-0.124,0.028-0.26,0.04-0.396l3.256-35.69c3.202-35.082,6.404-70.163,9.569-105.249c0.5-5.541,0.881-11.085,1.281-16.94
				c-0.516,0-1.026,0.001-1.538,0.002l-42.24,0.085c-54.477,0.105-110.808,0.215-166.206,0.475
				c-10.73,0.012-16.527-5.21-17.16-15.639c-0.605-9.974-1.568-20.166-2.5-30.023c-0.504-5.34-1.026-10.862-1.489-16.317
				c-0.213-2.52-0.162-4.949-0.112-7.3c0.021-1.024,0.044-2.082,0.044-3.188c0-4.694,3.806-8.5,8.5-8.5H389.2l4.051-44.92H100.324
				c1.154,12.873,2.315,25.745,3.476,38.617c3.853,42.707,7.836,86.869,11.469,130.342c0.061,0.733,0.129,1.296,0.193,1.723
				c0.328,0.021,0.738,0.028,1.226,0.032c52.818-0.066,106.515,0.155,158.441,0.37c12.728,0.053,25.455,0.104,38.182,0.153
				c2.207,0.009,4.304,0.138,6.332,0.262c0.84,0.052,1.67,0.103,2.489,0.143c4.023,0.196,7.355,3.189,7.982,7.168
				c0.074,0.468,0.149,0.84,0.212,1.151c0.196,0.98,0.465,2.323,0.327,3.969l-0.9,10.767c-1.707,20.459-3.472,41.615-5.511,62.425
				c-0.617,6.289-7.016,10.84-11.362,12.063c-20.042,5.647-40.535,11.181-60.908,16.447c-4.188,1.082-9.144,1.034-13.6-0.127
				c-8.674-2.262-17.445-4.653-25.927-6.966c-10.255-2.796-20.859-5.687-31.299-8.351c-8.511-2.172-12.745-7.285-13.323-16.092
				c-0.695-10.596-1.783-21.383-2.835-31.814c-0.161-1.592-0.321-3.183-0.48-4.771h-44.77c0.433,4.752,0.867,9.489,1.3,14.214
				c2.165,23.629,4.209,45.947,6.047,68.815C127.108,423.575,127.132,423.798,127.157,423.979z"/>
		</g>
	</g>
</g>
</svg>
