<?xml version="1.0" encoding="iso-8859-1"?>
<!-- Generator: Adobe Illustrator 21.1.0, SVG Export Plug-In . SVG Version: 6.00 Build 0)  -->
<svg version="1.1" id="svg4525" xmlns="http://www.w3.org/2000/svg" xmlns:xlink="http://www.w3.org/1999/xlink" x="0px" y="0px"
	 viewBox="0 0 1713.988 949.265" style="enable-background:new 0 0 1713.988 949.265;" xml:space="preserve">
<g>
	<path style="fill:#363636;" d="M1116.321,609.235c-10.703-1.222-30.305,0.252-47.842,1.729l-1.547,0.13
		c-18.579,1.572-32.972,5.585-44.037,12.29c-12.712,7.79-21.499,22.575-23.505,39.549c-2.068,17.493,3.26,34.035,14.615,45.383
		c10.51,10.51,23.371,14.689,36.692,14.689c17.077,0,34.906-6.873,49.477-16.089c0.489-0.31,1.084-0.677,1.758-1.092
		c11.473-7.074,21.8-14.203,22.159-23.603c0.004-0.119,0.006-0.237,0.006-0.356l-0.241-64.218
		C1123.84,613.339,1120.603,609.724,1116.321,609.235z M1093.01,691.355c-0.744,0.458-1.4,0.864-1.932,1.201
		c-20.371,12.886-48.158,20.633-65.053,3.738c-7.65-7.646-11.205-19.078-9.753-31.365c1.4-11.846,7.197-21.958,15.47-27.028
		c8.736-5.294,20.716-8.522,36.618-9.867l1.547-0.13c8.83-0.744,25.173-2.121,36.569-2.121c0.138,0,0.273,0,0.41,0l0.207,55.039
		C1106.045,682.365,1102.658,685.405,1093.01,691.355z"/>
	<path style="fill:#363636;" d="M1181.299,620.491v-65.588c0-23.349-2.147-41.224-12.829-58.153
		c-15.014-23.905-39.111-38.352-71.623-42.938c-24.697-3.484-53.871-1.233-86.709,6.687c-6.871,1.651-41.651,10.337-51.676,19.154
		c-2.396,2.107-3.41,5.379-2.626,8.472l8.768,34.567c1.146,4.52,5.726,7.273,10.25,6.169c6.322-1.54,11.496-3.31,16.974-5.185
		c7.791-2.667,15.848-5.423,28.552-7.933c19.856-3.828,36.886-4.745,52.059-2.802c18.009,2.314,24.588,9.038,28.935,18.44
		c2.521,5.418,4.2,12.196,5.126,20.709l-0.154,19.869c-6.409,0.519-16.168,1.223-24.584,1.831
		c-14.356,1.036-27.917,2.015-31.813,2.507c-22.603,2.899-54.594,10.723-78.646,31.533c-23.654,20.467-33.922,49.236-29.693,83.198
		c5.621,45.145,30.673,68.883,78.84,74.707c6.372,0.771,12.256,1.17,17.871,1.17c15.607,0,29.136-3.092,45.276-9.928
		c8.577-3.631,16.697-7.859,24.069-12.526c3.339-2.073,6.524-4.429,9.344-6.679l2.996,15.195c0.786,3.983,4.279,6.855,8.34,6.855
		h44.288c4.392,0,8.061-3.346,8.464-7.72c0.618-6.702,0.491-59.209,0.261-114.953
		C1181.324,628.892,1181.299,622.854,1181.299,620.491z M1164.396,742.825h-29.063l-4.429-22.464
		c-0.529-2.684-2.318-4.95-4.808-6.086c-2.485-1.136-5.371-1.007-7.747,0.35c-1.362,0.778-2.686,1.941-5.09,4.054
		c-3.536,3.109-8.882,7.807-14.622,11.371c-6.653,4.211-13.943,8.005-21.669,11.275c-19.151,8.111-33.407,10.082-54.479,7.535
		c-40.779-4.931-59.324-22.293-64.011-59.931c-3.544-28.466,4.513-51.426,23.948-68.241c20.848-18.038,49.401-24.925,69.67-27.525
		c3.427-0.434,18.016-1.486,30.888-2.415c33.551-2.421,33.551-2.421,35.786-3.608c2.757-1.463,4.49-4.32,4.515-7.441l0.218-27.959
		c0.002-0.318-0.013-0.636-0.046-0.953c-1.115-10.634-3.297-19.328-6.662-26.557c-7.725-16.709-20.736-25.391-42.193-28.148
		c-5.853-0.749-11.918-1.125-18.242-1.125c-12.037,0-25.012,1.362-39.235,4.103c-13.868,2.74-22.863,5.818-30.8,8.535
		c-2.489,0.852-4.911,1.681-7.387,2.463l-5.1-20.106c7.811-3.757,23.882-8.981,40.28-12.923
		c48.287-11.648,111.77-16.112,139.966,28.78c8.544,13.542,10.216,28.256,10.216,49.096v65.588c0,2.374,0.025,8.437,0.06,16.732
		C1164.46,661.872,1164.703,721.07,1164.396,742.825z"/>
	<path style="fill:#363636;" d="M1648.184,609.053c-0.011,0-0.022,0-0.034,0c-1.697,0.007-3.458,0.009-5.272,0.011
		c-33.871,0.039-85.058,0.098-103.392,30.399c-10.804,17.875-10.285,43.749,1.232,61.521c9.354,14.436,24.362,22.11,42.839,22.11
		c2.87,0,5.826-0.186,8.855-0.56c15.543-1.933,31.82-8.967,48.41-20.929c1.884-1.371,3.619-2.785,5.298-4.152
		c2.251-1.833,4.377-3.565,6.093-4.534c2.662-1.504,4.312-4.323,4.318-7.381l0.152-67.966c0.005-2.264-0.893-4.436-2.495-6.035
		C1652.595,609.946,1650.435,609.053,1648.184,609.053z M1639.541,680.981c-1.416,1.06-2.798,2.185-4.157,3.292
		c-1.502,1.223-3.055,2.488-4.534,3.565c-14.219,10.252-27.856,16.25-40.527,17.826c-15.934,1.97-28.159-2.847-35.339-13.925
		c-8.032-12.395-8.439-31.088-0.951-43.479c12.879-21.286,57.157-22.129,85.632-22.191L1639.541,680.981z"/>
	<path style="fill:#363636;" d="M1700.938,496.387c-14.506-23.767-38.601-38.06-71.616-42.482
		c-24.544-3.289-53.577-1.083-86.272,6.552c-1.648,0.382-40.52,9.47-51.79,19.123c-2.014,1.725-3.107,4.29-2.957,6.937
		c0.354,6.23,7.24,32.752,10.235,38.099c1.804,3.222,5.486,4.91,9.104,4.177c3.664-0.742,8.409-2.305,14.417-4.283
		c8.904-2.932,19.986-6.581,31.642-8.863c30.742-6.093,69.624-8.327,80.315,15.625c4.132,9.294,6.986,31.701,6.6,40.924
		c-5.226,0.468-14.006,0.746-18.354,0.883c-3.207,0.102-5.74,0.182-7.231,0.281c-34.024,2.141-60.313,4.817-88.811,19.827
		c-39.468,20.669-57.411,54.572-51.891,98.042c5.773,45.458,30.086,68.437,78.822,74.503c5.605,0.703,11.082,1.06,16.473,1.059
		c24.189,0,46.617-7.177,70.851-22.403c3.669-2.307,6.721-4.548,9.268-6.589l2.838,15.026c0.758,4.011,4.261,6.917,8.343,6.922
		l44.558,0.052c0.003,0,0.006,0,0.01,0c2.252,0,4.413-0.894,6.007-2.486c1.597-1.595,2.493-3.758,2.493-6.014V554.903
		C1713.988,530.831,1711.909,514.377,1700.938,496.387z M1696.988,742.789l-29.012-0.034l-4.26-22.555
		c-0.528-2.796-2.421-5.142-5.041-6.251c-2.621-1.108-5.622-0.832-7.996,0.736c-1.894,1.25-3.628,2.841-5.637,4.683
		c-3.192,2.927-7.166,6.57-13.617,10.626c-26.431,16.608-49.206,22.251-76.169,18.868c-40.756-5.073-59.316-22.391-64.064-59.775
		c-4.612-36.314,9.825-63.513,42.93-80.85c25.525-13.444,50.076-15.903,82.007-17.913c1.228-0.082,3.749-0.162,6.669-0.254
		c22.729-0.72,26.562-1.404,29.744-3.741c0.354-0.26,0.687-0.547,0.996-0.858c2.039-2.051,5.835-5.869,3.156-29.533
		c-1.138-10.053-3.612-23.626-7.151-31.585c-6.513-14.591-22.352-29.689-60.001-29.689c-11.056,0-23.996,1.303-39.129,4.302
		c-12.678,2.482-24.318,6.316-33.672,9.396c-1.938,0.638-3.778,1.244-5.464,1.782c-1.785-5.958-4.019-14.514-5.196-19.968
		c8.359-4.202,26.168-9.768,40.819-13.163c30.695-7.169,57.663-9.274,80.164-6.261c27.686,3.709,47.658,15.313,59.361,34.487
		c8.929,14.641,10.563,28.211,10.563,49.662V742.789z"/>
	<path style="fill:#363636;" d="M1456.114,458.689l-52.985-0.039c-0.688-0.008-1.316-0.021-1.891-0.033
		c-4.228-0.089-8.594-0.18-12.034,3.589c-2.887,3.163-3.081,6.792-3.352,11.815c-0.173,3.225-0.41,7.641-1.256,14.062
		c-2.861,21.89-7.594,45.821-14.063,71.114c-4.151,16.111-20.257,72.965-30.71,105.464l-8.427-31.93
		c-0.022-0.086-0.047-0.172-0.072-0.258c-1.664-5.586-3.287-11.111-4.899-16.602c-3.997-13.61-7.773-26.465-12.018-39.792
		l-26.211-83.349c-0.727-2.281-1.445-4.601-2.166-6.93c-2.262-7.31-4.601-14.868-7.341-21.674c-1.293-3.21-4.403-5.317-7.864-5.325
		l-62.741-0.153c-0.007,0-0.014,0-0.021,0c-2.321,0-4.542,0.95-6.146,2.628c-1.608,1.684-2.456,3.954-2.344,6.28
		c0.151,3.14,3.104,14.495,38.802,127.126c2.907,9.172,5.008,15.799,5.551,17.569c3.836,12.452,7.658,24.549,11.355,36.248
		c3.535,11.186,7.19,22.753,10.798,34.445c2.795,9.193,5.822,18.633,8.749,27.763c4.611,14.381,9.38,29.252,13.334,43.444
		c1.024,3.675,4.372,6.218,8.188,6.218l71.015,0.01h0.001c0.674,0,1.346-0.08,2-0.239c5.362-1.298,8.225-6.316,13.477-17.456
		c0.353-0.748,0.642-1.364,0.887-1.856c1.79-3.682,3.348-7.171,4.854-10.546c0.823-1.844,1.653-3.705,2.532-5.621
		c4.855-10.567,9.371-22.421,13.582-33.666c14.852-39.776,28.548-85.809,43.105-144.872c0.687-2.794,16.806-68.554,16.806-78.937
		C1464.609,462.497,1460.807,458.693,1456.114,458.689z M1431.295,542.065c-14.395,58.404-27.907,103.839-42.521,142.979
		c-4.1,10.945-8.488,22.471-13.109,32.529c-0.906,1.976-1.76,3.889-2.605,5.784c-1.518,3.399-2.951,6.611-4.577,9.957
		c-0.243,0.487-0.593,1.226-1.017,2.124c-1.688,3.583-3.023,6.239-3.991,7.944l-60.704-0.008
		c-3.641-12.554-7.755-25.387-11.753-37.854c-2.908-9.069-5.915-18.447-8.684-27.551c-3.634-11.78-7.299-23.375-10.842-34.588
		c-3.688-11.669-7.501-23.736-11.316-36.12c-0.563-1.836-2.564-8.151-5.594-17.71c-8.38-26.438-28.311-89.324-35.496-113.872
		l45.834,0.112c1.706,4.809,3.308,9.986,4.872,15.039c0.734,2.374,1.466,4.739,2.197,7.034l26.211,83.349
		c4.195,13.172,7.945,25.938,11.914,39.453c1.606,5.469,3.224,10.973,4.88,16.536l15.126,57.315c0.804,3.046,3.227,5.397,6.294,6.11
		c3.071,0.713,6.281-0.33,8.344-2.708c1.9-2.189,5.081-5.854,22.565-64.94c8.917-30.137,17.548-61.287,19.678-69.551
		c6.641-25.966,11.503-50.574,14.451-73.13c0.866-6.573,1.158-11.353,1.338-14.648c0.075,0.001,0.152,0.002,0.23,0.003l43.292,0.032
		C1443.456,490.709,1436.461,521.028,1431.295,542.065z"/>
	<path style="fill:#363636;" d="M914.955,365.894c-0.022-4.098-2.966-7.597-7-8.32c-5.377-0.964-22.217-0.973-51.414-0.655
		c-4.779,0.052-8.81,0.097-11.425,0.102c-4.687,0.01-8.481,3.813-8.481,8.5v95.617c0,0,0,0.001,0,0.001l0.039,246.467
		c0,20.411-3.971,88.305-55.063,105.001c-2.328,0.761-4.215,2.489-5.177,4.742c-0.962,2.253-0.905,4.811,0.155,7.019
		c1.853,3.854,7.096,9.897,15.497,19.438c5.029,5.71,10.729,12.183,12.854,15.36c1.595,2.385,4.26,3.775,7.063,3.775
		c0.492,0,0.988-0.043,1.484-0.131c17.199-3.045,41.555-18.015,51.427-27.39c13.633-12.873,22.454-23.287,32.83-44.477
		c17.969-36.633,17.657-75.146,17.327-115.919c-0.045-5.594-0.092-11.378-0.092-17.171c0-31.88,0.056-64.312,0.109-95.675
		C915.199,497.837,915.314,431.306,914.955,365.894z M898.073,675.161c0.326,40.389,0.608,75.27-15.594,108.301
		c-9.288,18.967-16.827,27.881-29.254,39.614c-7.111,6.754-24.72,17.714-37.816,21.777c-2.896-3.575-6.658-7.848-10.563-12.282
		c-2.141-2.431-4.779-5.427-7.127-8.176c18.16-8.848,32.242-23.99,41.955-45.15c11.571-25.208,14-52.872,14-71.64l-0.039-246.467
		v-87.186c0.988-0.011,2.022-0.022,3.092-0.034c10.774-0.118,30.449-0.333,41.27-0.041c0.309,62.806,0.199,126.548,0.094,188.272
		c-0.054,31.37-0.109,63.809-0.109,95.704C897.981,663.715,898.027,669.533,898.073,675.161z"/>
	<path style="fill:#363636;" d="M261.543,426.794c5.085,6.595,9.738,11.914,14.238,17.057c3.426,3.917,6.662,7.616,9.675,11.43
		c5.079,6.468,10.866,12.528,16.462,18.389c2.953,3.093,6.007,6.291,8.854,9.452c0.205,0.226,20.596,22.628,27.505,27.483
		c1.477,1.037,3.185,1.545,4.884,1.545c2.178,0,4.342-0.834,5.983-2.46c2.924-2.895,3.354-7.468,1.022-10.857l-19.304-28.062
		c-5.413-7.866-11.163-17.119-18.085-29.103c-11.191-19.479-23.377-42.353-28.89-64.297c-8.968-35.807,11.048-59.516,32.239-84.618
		c1.911-2.264,3.823-4.529,5.74-6.833c2.359-2.863,5.044-5.621,7.887-8.541c1.136-1.167,2.266-2.328,3.371-3.492
		c16.908-17.808,38.023-37.948,58.443-57.425c9.395-8.96,18.268-17.424,26.586-25.519c30.665-30.012,45.705-61.907,48.765-103.398
		c1.074-14.117,0.411-73.88-22.702-86.504c-2.818-1.54-6.268-1.357-8.909,0.469c-2.643,1.828-4.028,4.989-3.583,8.171
		c4.226,30.154,6.006,52.374-7.222,85.196c-15.506,38.589-42.097,61.512-68.004,81.684c-23.877,18.588-63.665,52.645-85.17,72.904
		c-24.702,23.45-40.31,43.36-47.712,60.867c-15.786,37.32,0.138,61.889,15.536,85.646
		C246.552,407.401,254.176,417.263,261.543,426.794z M239.275,316.953c9.62-22.752,35.315-47.145,43.736-55.138
		c21.17-19.945,60.391-53.516,83.932-71.842c27.739-21.599,56.25-46.243,73.331-88.751c4.976-12.346,8.046-23.414,9.76-33.882
		c0.373,7.361,0.307,14.02-0.066,18.934c-2.771,37.582-15.842,65.251-43.686,92.502c-8.24,8.019-17.084,16.454-26.446,25.384
		c-20.569,19.62-41.84,39.908-59.038,58.021c-1.057,1.113-2.138,2.224-3.225,3.339c-2.959,3.04-6.018,6.183-8.8,9.558
		c-1.865,2.243-3.751,4.476-5.636,6.709c-21.947,25.997-46.822,55.463-35.738,99.72c4.345,17.293,11.969,34.223,20.54,50.422
		c-4.132-4.725-8.403-9.641-12.939-15.524c-7.489-9.689-14.563-18.84-21.579-29.671C238.659,363.959,227,345.97,239.275,316.953z"/>
	<path style="fill:#363636;" d="M289.895,883.58c127.859-0.001,279.538-10.239,343.21-53.993c11.108-7.54,16.763-14.361,17.799-21.5
		c1.859-13.171-11.256-23.214-17.898-26.014c-3.411-1.437-7.358-0.503-9.764,2.31c-2.404,2.813-2.712,6.858-0.761,10.003
		c2.01,3.241,2.912,5.945,2.474,7.421c-0.939,3.163-9.024,6.95-11.679,8.194c-44.8,20.972-189.071,30.301-309.152,32.039
		c-72.082,1.064-130.068-2.72-182.504-11.916l-1.273-0.217c-35.411-6.017-43.986-11.342-45.977-13.18
		c0.349-0.913,1.759-2.921,6.152-5.649c9.76-6.07,29.193-12.068,53.286-16.45c1.344-0.239,3.435-0.538,5.649-0.854
		c8.052-1.148,13.581-2.003,16.934-3.368c3.55-1.445,5.693-5.087,5.233-8.892c-0.459-3.805-3.408-6.832-7.199-7.39
		c-16.154-2.38-47.794,0.795-76.946,7.724c-25.769,6.125-59.189,17.268-72.064,35.569c-6.486,9.208-5.978,16.774-4.408,21.5
		c3.983,11.997,18.102,18.053,31.39,22.396c49.745,16.236,149.048,20.944,223.603,22.034
		C267.057,883.497,278.367,883.58,289.895,883.58z M17.14,833.561c-0.609-1.836,0.845-4.468,2.176-6.357
		c6.587-9.363,23.688-17.564,43.843-23.845c-5.83,6.286-6.436,12.389-5.613,16.85c2.116,12.069,18.926,19.487,59.953,26.458
		l1.214,0.207c53.486,9.38,112.479,13.246,185.66,12.165c46.412-0.671,178.114-3.869,261.361-18.675
		C498.942,859.3,394,868.205,256.236,866.35c-105.215-1.539-180.794-8.868-218.563-21.196
		C22.205,840.099,17.969,836.06,17.14,833.561z"/>
	<path style="fill:#363636;" d="M360.534,292.519c-20.511,29.092-25.597,60.361-15.117,92.938
		c6.866,21.351,19.495,38.673,30.638,53.956c12.635,17.331,23.548,32.297,22.175,47.555c-1.148,12.841-11.49,26.903-19.041,37.17
		c-2.978,4.048-5.549,7.544-7.314,10.594c-1.777,3.069-1.462,6.919,0.79,9.658c1.646,2,4.071,3.102,6.566,3.102
		c0.922,0,1.853-0.15,2.758-0.46c11.483-3.94,40.16-27.979,47.145-35.123c12.043-12.503,28.232-31.824,29.786-55.167
		c1.639-25.498-17.774-56.33-21.682-62.25c-2.079-3.151-4.124-6.195-6.11-9.151c-22.707-33.793-34.104-50.755-5.877-85.806
		c11.012-13.614,23.148-24.564,37.986-36.819c18.14-14.992,47.276-34.922,66.75-47.145l23.688-15.226
		c3.348-2.152,4.755-6.338,3.386-10.074c-1.369-3.737-5.152-6.027-9.092-5.503c-10.582,1.395-31.913,9.316-52.855,17.311
		c-3.036,1.159-5.713,2.181-7.881,2.989c-16.468,6.206-36.849,15.989-54.532,26.177
		C400.253,250.005,375.973,270.622,360.534,292.519z M488.09,222.976c-12.925,8.997-25.845,18.503-35.682,26.633
		c-15.626,12.907-28.472,24.518-40.387,39.248c-36.092,44.817-17.96,71.802,4.995,105.965c1.96,2.917,3.979,5.92,6.031,9.032
		c10.085,15.281,19.843,37.224,18.907,51.778c-1.183,17.772-14.872,33.899-25.021,44.438c-1.601,1.636-3.891,3.748-6.59,6.1
		c2.478-5.652,4.272-11.59,4.817-17.683c1.946-21.623-11.322-39.822-25.37-59.089c-10.896-14.943-22.161-30.396-28.19-49.145
		c-15.885-49.377,10.899-94.56,79.597-134.286C456.319,237.253,473.463,228.864,488.09,222.976z"/>
	<path style="fill:#363636;" d="M228.668,718.569c1.646-2.896,1.45-6.485-0.502-9.184c-1.952-2.699-5.306-4.008-8.565-3.351
		c-20.529,4.136-43.712,16.826-46.102,34.913c-1.168,8.845,2.226,21.77,25.037,33.113c28.456,14.12,70.561,18.876,100.87,20.379
		c8.97,0.445,18.07,0.663,27.117,0.663c27.507,0,54.497-2.013,75.647-5.774c7.877-1.4,28.395-5.912,47.809-10.759
		c38.667-9.654,42.793-12.999,44.776-14.607c2.363-1.917,3.521-4.949,3.038-7.953s-2.535-5.52-5.38-6.598
		c-14.993-5.68-26.201-12.094-41.57-21.22c-1.168-0.698-2.096-1.285-2.864-1.769c-6.202-3.918-8.765-3.973-15.655-2.12
		c-1.025,0.276-2.268,0.611-3.796,0.99c-44.445,10.949-118.629,10.534-158.903,9.312c-38.596-1.197-44.167-7.257-44.915-8.497
		c-0.254-0.417-0.287-0.612-0.288-0.612c0.017-0.691,1.425-2.695,2.181-3.771C227.302,720.729,228.025,719.7,228.668,718.569z
		 M269.122,751.596c50.245,1.524,119.386,1.063,163.487-9.802c1.672-0.415,3.021-0.777,4.132-1.076
		c0.48-0.129,0.99-0.267,1.434-0.381c0.236,0.147,0.488,0.307,0.729,0.459c0.862,0.544,1.906,1.203,3.239,2
		c7.783,4.622,15.725,9.337,24.537,13.791c-21.291,6.001-55.09,13.8-67.486,16.004c-49.759,8.849-147.152,9.041-193.095-13.755
		c-10.624-5.283-16.363-10.992-15.747-15.662c0.629-4.76,7.165-10.936,17.192-15.524c0.285,2.297,1.084,4.738,2.629,7.271
		C218.21,748.254,244.47,750.832,269.122,751.596z"/>
	<path style="fill:#363636;" d="M511.807,657.675c-0.453-3.459-2.973-6.29-6.355-7.14c-11.951-3.003-22.569-11.19-27.904-15.864
		l-0.671-0.575c-6.581-5.66-9.305-6.336-18.219-4.533c-1.749,0.354-3.927,0.795-6.798,1.275
		c-50.905,8.485-203.32,23.189-244.93,6.034c-6.377-2.644-7.414-4.443-7.464-5.267c-0.12-2.039,1.122-3.644,3.985-6.821
		c1.301-1.444,2.646-2.937,3.785-4.681c1.809-2.771,1.846-6.339,0.095-9.146c-1.751-2.807-4.967-4.344-8.256-3.937
		c-23.655,2.928-50.501,18.68-52.624,39.021c-0.841,8.057,1.799,22.966,28.927,32.291c34.357,11.772,93.373,16.504,147.117,16.504
		c31.226,0,60.682-1.599,82.461-4.343c16.378-2.102,85.979-15.085,102.549-24.284C510.555,664.518,512.26,661.134,511.807,657.675z
		 M402.812,673.631c-56.261,7.087-170.681,6.178-221.916-11.376c-5.527-1.9-18.301-7.111-17.536-14.447
		c0.61-5.846,8.304-13.362,19.187-18.485c-0.096,1.048-0.117,2.146-0.05,3.295c0.776,12.852,13.683,18.202,17.938,19.966
		c16.504,6.804,45.877,9.262,79.213,9.261c65.896-0.001,147.24-9.608,175.013-14.238c3.16-0.529,5.593-1.021,7.369-1.381
		c0.802-0.162,1.666-0.337,2.333-0.457c0.428,0.355,0.946,0.801,1.43,1.217l0.623,0.534c3.669,3.215,8.343,6.888,13.776,10.263
		C456.026,664.276,417.82,671.704,402.812,673.631z"/>
	<path style="fill:#363636;" d="M132.086,587.504c57.42,8,111.834,12.002,166.292,12.002c55.75,0,111.545-4.195,170.637-12.59
		c20.43-2.896,32.712-10.702,45.715-18.968l0.487-0.31c2.941-1.874,6.212-3.789,9.675-5.816c6.762-3.959,13.753-8.054,19.347-12.479
		c2.889-2.285,3.976-6.171,2.694-9.624c-1.281-3.452-4.631-5.685-8.321-5.535c-5.338,0.222-11.646,1.398-17.211,2.437
		c-2.252,0.42-4.379,0.817-6.286,1.125l-4.439,0.662c-6.351,0.949-12.349,1.846-18.718,2.687
		c-48.358,6.775-100.411,11.991-146.572,14.687c-19.109,1.122-62.53,2.758-104.078,1.768c-55.166-1.314-75.708-6.521-83.278-9.886
		c2.282-2.425,7.141-5.083,9.049-6.126c16.256-8.719,33.738-13.438,50.644-18c6.865-1.853,13.965-3.769,20.836-5.918
		c3.864-1.208,6.34-4.974,5.916-9c-0.423-4.026-3.627-7.196-7.658-7.575c-35.041-3.287-118.938,21.112-149.366,40.127
		c-10.733,6.69-15.342,14.004-13.697,21.738C76.746,576.993,99.237,582.927,132.086,587.504z M96.449,555.591
		c10.736-6.71,29.799-14.442,50.847-21.163c-4.855,4.446-8.645,10.518-7.208,18.671c0.32,1.817,1.224,3.481,2.573,4.74
		c6.783,6.328,24.347,14.944,98.24,16.705c42.105,1.004,86.112-0.654,105.477-1.792c46.602-2.721,99.14-7.985,147.872-14.813
		c1.932-0.255,3.83-0.516,5.714-0.781c-9.974,6.17-19.16,10.917-33.337,12.926c-115.18,16.364-217.633,16.544-332.195,0.583
		c-8.326-1.16-18.041-2.646-26.97-4.871c-10.292-2.564-14.597-4.912-16.301-6.155C91.98,558.774,93.543,557.403,96.449,555.591z"/>
	<path style="fill:#363636;" d="M688.799,829.324c-2.487-1.873-5.797-2.235-8.632-0.947c-3.619,1.646-6.625,4.074-9.276,6.216
		c-1.332,1.076-2.59,2.092-3.841,2.934c-100.038,68.873-330.74,63.779-459.396,54.608l-71.83-6.031
		c-4.164-0.347-7.97,2.384-8.966,6.444c-0.997,4.061,1.108,8.244,4.964,9.863c7.182,3.016,14.562,6.832,22.374,10.871
		c27.095,14.009,60.806,31.439,118.896,33.188c24.757,2.026,49.771,2.795,73.502,2.795c33.41,0,64.258-1.525,88.145-3.212
		c69.45-4.921,148.572-12.725,208.764-43.223c41.72-18.98,46.713-52.75,48.593-65.473
		C692.551,834.278,691.286,831.196,688.799,829.324z M636.317,887.423c-0.115,0.052-0.229,0.107-0.342,0.164
		c-57.384,29.131-134.583,36.7-202.436,41.508c-57.807,4.083-112.885,4.226-159.278,0.414c-0.148-0.012-0.298-0.02-0.446-0.024
		c-43.27-1.272-71.437-11.531-94.71-22.687l27.178,2.282c0.035,0.003,0.071,0.006,0.106,0.008
		c61.26,4.368,152.74,8.283,240.657,2.123c100.374-7.033,175.144-25.521,222.398-54.937
		C664.19,867.971,654.645,879.123,636.317,887.423z"/>
	<path style="fill:#363636;" d="M654.949,504.088c-15.275-8.934-32.318-13.084-50.656-12.324
		c-14.147,0.578-39.854,5.959-48.605,17.939c-2.164,2.962-2.184,6.979-0.048,9.962c2.135,2.983,5.945,4.261,9.445,3.166
		c22.003-6.873,48.286-2.697,62.482,9.924c13.363,11.915,14.773,36.642,3.284,57.508c-12.914,23.377-40.82,49.301-78.594,73.007
		c-1.759,1.109-3.568,2.157-5.318,3.171c-3.117,1.806-6.34,3.673-9.438,5.967c-3.081,2.281-4.254,6.343-2.863,9.916
		c1.281,3.291,4.445,5.417,7.917,5.417c0.297,0,0.596-0.016,0.896-0.047c20.745-2.19,67.081-23.347,84.288-33.97
		c30.536-18.865,50.546-39.913,59.468-62.546C703.368,550.401,679.941,518.783,654.949,504.088z M671.397,584.928
		c-7.552,19.159-25.247,37.439-52.591,54.332c-4.257,2.628-10.104,5.778-16.747,9.056c17.271-14.456,33.481-31.382,43.68-49.843
		c15.47-28.097,12.586-61.072-6.867-78.415c-4.475-3.979-9.739-7.32-15.542-9.983c8.13,1.574,15.831,4.474,23.021,8.678
		C666.452,530.573,683.591,554.162,671.397,584.928z"/>
</g>
</svg>
