<?xml version="1.0" encoding="iso-8859-1"?>
<!-- Generator: Adobe Illustrator 21.1.0, SVG Export Plug-In . SVG Version: 6.00 Build 0)  -->
<svg version="1.1" id="svg4525" xmlns="http://www.w3.org/2000/svg" xmlns:xlink="http://www.w3.org/1999/xlink" x="0px" y="0px"
	 viewBox="0 0 1296.213 310.992" style="enable-background:new 0 0 1296.213 310.992;" xml:space="preserve">
<g>
	<path style="fill:#363636;" d="M547.509,49.555c-19.841-8.007-56.284-6.867-75.179,20.742
		c-16.249,23.742-23.601,51.318-21.851,81.962c1.463,25.6,17.134,39.771,44.128,39.902c4.21,0.02,8.421,0.015,12.634,0.01
		l5.89-0.005c0.007,0,0.014,0,0.021,0c2.265,0,4.531-0.023,6.798-0.046c5.279-0.056,10.264-0.106,15.263,0.127
		c0.361,0.017,0.728,0.026,1.099,0.026c6.048,0,13.372-2.397,16.236-12.972c3.887-14.353,8.002-28.925,11.981-43.018
		c1.635-5.79,3.27-11.58,4.895-17.373c3.412-12.164,4.58-23.033,3.569-33.229C571.249,68.071,562.436,55.58,547.509,49.555z
		 M553.057,114.319c-1.622,5.783-3.254,11.564-4.887,17.344c-3.992,14.136-8.12,28.753-12.031,43.193
		c-0.041,0.153-0.081,0.289-0.118,0.41c-0.006,0-0.012-0.001-0.018-0.001c-3.166-0.147-6.324-0.191-9.446-0.191
		c-2.284,0-4.55,0.023-6.782,0.046c-2.215,0.022-4.438,0.06-6.643,0.045l-5.913,0.005c-4.177,0.004-8.354,0.01-12.53-0.01
		c-17.899-0.087-26.3-7.449-27.238-23.872c-1.531-26.804,4.83-50.823,18.907-71.391c13.422-19.613,40.626-20.293,54.787-14.579
		c9.059,3.656,13.803,10.659,14.931,22.038C556.887,95.523,555.927,104.09,553.057,114.319z"/>
	<path style="fill:#363636;" d="M572.468,7.994c-15.074-6.136-31.956-8.697-51.606-7.83c-37.938,1.676-67.558,16.512-88.037,44.095
		c-25.854,34.823-37.787,75.682-35.469,121.44c0.863,17.024,6.625,31.986,17.127,44.469c13.354,15.875,32.108,24.662,57.333,26.862
		c8.616,0.752,17.291,0.946,25.565,0.946c4.617,0,9.109-0.061,13.397-0.118c6.876-0.092,13.371-0.18,19.32-0.02
		c0.076,0.002,0.152,0.003,0.228,0.003c6.531,0,12.801-0.004,18.879-0.008c16.454-0.01,31.995-0.021,47.253,0.057
		c0.045,0,0.089,0,0.134,0c11.304,0,14.873-7.233,15.993-11.557c2.906-11.211,5.899-22.387,8.794-33.195
		c1.545-5.768-0.104-9.499-1.76-11.612c-1.645-2.099-4.809-4.59-10.645-4.459c-2.563,0.052-5.199,0.049-7.787,0.041
		c0.268-0.7,0.529-1.393,0.783-2.077c1.053-2.836,2.119-5.67,3.185-8.504c7.996-21.258,16.263-43.241,19.182-66.821
		C628.178,68.701,616.895,26.079,572.468,7.994z M607.468,97.616c-2.671,21.576-10.225,41.661-18.223,62.926
		c-1.075,2.857-2.149,5.713-3.21,8.573c-1.006,2.71-2.135,5.565-3.356,8.485c-2.296,5.49-0.974,9.335,0.54,11.594
		c1.512,2.256,4.574,4.928,10.483,4.903c2.005-0.013,4.01-0.003,6.015,0.005c1.253,0.005,2.523,0.011,3.804,0.012
		c-2.348,8.771-4.74,17.75-7.085,26.777c-15.27-0.076-30.8-0.066-47.241-0.056c-6.039,0.004-12.268,0.008-18.754,0.008
		c-6.259-0.163-12.881-0.075-19.891,0.019c-12.135,0.165-24.684,0.333-37.256-0.765c-20.796-1.814-35.35-8.446-45.802-20.871
		c-8.06-9.581-12.487-21.15-13.158-34.386c-2.113-41.715,8.7-78.875,32.14-110.446c17.524-23.603,42.102-35.786,75.138-37.246
		c2.224-0.098,4.403-0.147,6.54-0.147c14.351,0,26.804,2.219,37.907,6.739C601.583,38.2,610.568,72.575,607.468,97.616z"/>
	<path style="fill:#363636;" d="M865.289,138.951c6.615,0.037,13.325,0.03,19.813,0.021l6.324-0.005
		c0.602,0.135,1.228,0.207,1.871,0.207l4.29-0.002c3.224,0,6.447-0.003,9.668,0.004c1.541,0.004,3.082,0.019,4.623,0.034
		c1.827,0.018,3.688,0.036,5.565,0.036c1.49,0,2.99-0.011,4.492-0.043c0.161-0.002,0.323,0,0.484,0.001
		c9.046,0.093,11.762-5.781,12.596-9.283c4.032-16.92-5.326-33.34-21.304-37.381c-13.569-3.431-26.725-2.58-39.102,2.531
		c-11.251,4.645-19.123,13.507-22.764,25.629c-1.916,6.378-0.207,10.573,1.565,12.968
		C855.178,136.058,858.673,138.914,865.289,138.951z M881.097,110.784c8.926-3.686,18.498-4.28,28.446-1.762
		c5.748,1.454,9.435,6.917,9.392,13.22c-2.256,0.015-4.527-0.008-6.893-0.031c-1.581-0.015-3.162-0.03-4.744-0.035
		c-1.811-0.004-3.621-0.006-5.432-0.006c-1.43,0-2.86,0.001-4.291,0.001l-2.405,0.001c-0.603-0.135-1.23-0.207-1.874-0.207
		l-8.215,0.006c-5.121,0.006-10.38,0.013-15.605-0.004C871.878,116.687,875.707,113.01,881.097,110.784z"/>
	<path style="fill:#363636;" d="M949.071,184.97c-8.536-0.004-17.072-0.003-25.609-0.001c-13.115,0.001-26.233,0.004-39.351-0.016
		c-5.753-0.009-11.834-0.288-17.332-2.254c-5.626-2.012-8.468-6.703-7.627-12.571c11.367-0.004,22.733-0.002,34.101-0.003l15.224,0
		l12.995-0.004c12.276-0.007,24.972-0.013,37.449,0.035c0.031,0,0.062,0,0.093,0c10.587,0,13.64-6.778,14.518-10.827
		c3.337-15.401,6.301-32.085,5.397-49.737c-1.69-33.031-19.745-53.664-52.21-59.668c-10.907-2.017-22.602-2.243-36.804-0.709
		c-24.978,2.697-44.375,11.24-59.3,26.118c-10.497,10.464-18.25,23.326-23.704,39.322c-6.341,18.599-13.527,43.345-12.802,69.827
		c0.599,21.854,11.532,37.698,31.617,45.818c9.504,3.843,19.756,6.047,31.341,6.741c12.105,0.725,24.289,0.9,36.312,0.9
		c5.679,0,11.322-0.039,16.904-0.078c10.042-0.07,20.426-0.142,30.59,0.02c8,0.104,13.726-4.392,15.705-12.394
		c1.623-6.559,3.322-13.231,4.965-19.684l0.882-3.463c1.134-4.456,2.307-9.064-0.92-13.218
		C958.279,184.975,953.598,184.972,949.071,184.97z M940.206,220.87c-10.051-0.146-20.208-0.076-30.042-0.008
		c-17.122,0.12-34.825,0.242-52.083-0.792c-9.716-0.582-18.215-2.391-25.984-5.532c-13.717-5.545-20.585-15.529-20.996-30.522
		c-0.65-23.773,6.018-46.625,11.899-63.876c4.592-13.47,11.008-24.188,19.615-32.768c12.244-12.205,27.853-18.959,49.123-21.256
		c5.551-0.599,10.631-0.9,15.375-0.9c5.951,0,11.37,0.474,16.512,1.425c24.852,4.596,37.03,18.521,38.325,43.821
		c0.753,14.722-1.627,29.163-4.482,42.689c-12.023-0.042-24.208-0.036-36.006-0.029l-12.986,0.004l-15.222,0
		c-11.418,0-22.837-0.001-34.256,0.003c-9.703,0.003-15.139,4.657-16.62,14.227c-2.166,13.982,5.34,26.581,18.677,31.351
		c7.947,2.843,16.102,3.237,23.031,3.247c13.126,0.02,26.254,0.018,39.379,0.016c7.17-0.002,14.339-0.003,21.511,0
		C943.398,208.161,941.772,214.55,940.206,220.87z"/>
	<path style="fill:#363636;" d="M810.474,52.581c-3.168-3.866-7.674-3.804-9.84-3.781c-4.75,0.062-9.613,0.049-14.318,0.038
		c-4.301-0.012-8.749-0.023-13.149,0.022c-2.064,0.021-3.807,0.001-5.287-0.015c-5.446-0.059-9.391-0.104-12.989,2.696
		c-3.798,2.955-4.549,6.97-5.5,12.052c-0.313,1.669-0.666,3.56-1.176,5.877c-7.948,36.111-15.846,72.652-23.282,107.131
		c-2.195,0.021-4.376,0.061-6.511,0.101c-8.544,0.157-16.613,0.308-24.546-0.749c-3.886-0.517-5.779-1.736-6.029-7.268
		c-0.222-4.897,0.647-9.958,1.526-14.262c4.128-20.197,8.279-40.388,12.431-60.58l5.828-28.359c0.828-4.03,1.765-8.598-1.495-12.603
		c-3.27-4.016-8.008-4.025-12.189-4.032c-9.971-0.018-19.942-0.011-29.914-0.005l-2.098,0.001c-5.045,0.003-9.03,0.005-12.577,2.983
		c-3.512,2.948-4.234,6.864-5.149,11.823l-0.053,0.287c-3.308,17.917-6.846,36.814-11.473,61.275l-0.367,1.938
		c-3.691,19.485-7.507,39.633-6.293,60.533c1.68,28.896,19.108,46.927,47.815,49.473c6.526,0.579,13.077,0.725,19.309,0.725
		c3.326,0,6.562-0.042,9.654-0.082c5.568-0.072,10.828-0.139,15.573,0.035c0.104,0.004,0.208,0.006,0.313,0.006l13.475-0.006
		c11.042-0.008,20.579-0.015,30.332,0.032c0.04,0,0.078,0,0.117,0c11.095,0,14.334-7.536,15.277-12.04
		c12.184-58.217,23.457-111.528,34.463-162.979C812.686,61.284,813.704,56.523,810.474,52.581z M761.559,220.863
		c-9.478-0.043-19.17-0.035-29.409-0.028l-13.311,0.006c-5.12-0.184-10.532-0.114-16.257-0.04
		c-8.895,0.114-18.091,0.233-27.243-0.579c-20.274-1.797-31.157-13.077-32.345-33.525c-1.093-18.809,2.364-37.06,6.024-56.383
		l0.368-1.943c4.631-24.485,8.174-43.406,11.486-61.347l0.053-0.289c0.054-0.292,0.109-0.592,0.165-0.89
		c0.29,0,0.579-0.001,0.854-0.001l2.098-0.001c8.72-0.006,17.438-0.012,26.158,0L685.15,90.42
		c-4.153,20.198-8.306,40.396-12.435,60.6c-1.088,5.327-2.16,11.683-1.853,18.436c0.596,13.161,8.166,21.671,20.768,23.35
		c9.206,1.226,18.305,1.056,27.105,0.895c3.271-0.061,6.654-0.124,9.924-0.108c0.025,0,0.049,0,0.074,0
		c4.547,0,10.351-1.967,12.365-11.314c7.556-35.036,15.612-72.324,23.718-109.152c0.568-2.58,0.965-4.701,1.284-6.405
		c0.055-0.292,0.111-0.592,0.167-0.89c0.471,0.003,0.957,0.008,1.425,0.014c1.58,0.017,3.442,0.038,5.647,0.015
		c4.293-0.043,8.686-0.033,12.935-0.021c2.646,0.006,5.344,0.011,8.053,0.007C783.853,114.858,773.114,165.661,761.559,220.863z"/>
	<path style="fill:#363636;" d="M1295.425,26.462L1295.425,26.462c-0.933-2.377-4.038-7.776-12.64-6.611
		c-0.1,0.014-0.199,0.028-0.295,0.04c-5.698-0.031-11.396-0.022-17.094-0.013c-9.057,0.014-18.422,0.027-27.591-0.125
		c-7.444-0.104-13.34,3.006-17.537,9.302c-4.2,6.301-8.578,12.671-12.813,18.832c-1.997,2.905-3.993,5.81-5.98,8.72l-13.213,19.354
		c-10.023,14.683-20.047,29.367-30.081,44.042c-2.987-3.975-7.661-6.086-13.622-5.993c-8.792,0.15-17.777,0.123-26.466,0.098
		c-4.127-0.012-8.251-0.026-12.381-0.019c-3.265,0.004-8.73,0.012-12.124,4.51c-3.408,4.517-1.879,9.9-0.966,13.117
		c3.197,11.266,5.738,18.998,8.196,26.476c2.328,7.084,4.735,14.409,7.747,24.886c0.756,2.629,0.775,5.066,0.06,7.667
		c-1.146,4.172-2.259,8.404-3.335,12.496c-1.617,6.15-3.29,12.509-5.078,18.666c-1.332,4.583-0.843,8.443,1.451,11.47
		c3.446,4.546,8.93,4.494,10.736,4.481c4.896-0.044,9.898-0.034,14.737-0.025c4.084,0.008,8.168,0.008,12.251-0.012
		c4.681-0.022,9.522-0.046,14.222,0.062c0.157,0.003,0.312,0.005,0.467,0.005c7.52,0,12.849-4.196,14.655-11.571
		c1.458-5.952,3.073-12.015,4.635-17.879c1.124-4.222,2.287-8.587,3.392-12.914c0.83-3.249,2.16-6.049,4.066-8.561
		c12.033-15.862,24.215-32.021,35.996-47.648l16.281-21.588c19.684-26.093,39.367-52.187,59.033-78.284
		c0.11-0.143,0.238-0.281,0.363-0.425C1293.835,37.48,1297.911,32.8,1295.425,26.462z M1219.528,107.488l-16.284,21.592
		c-11.773,15.617-23.948,31.766-35.965,47.607c-3.303,4.354-5.591,9.139-6.993,14.628c-1.084,4.242-2.235,8.565-3.349,12.747
		c-1.461,5.487-2.968,11.146-4.37,16.796c-2.409-0.042-4.819-0.056-7.21-0.056c-2.036,0-4.059,0.009-6.053,0.019
		c-4.046,0.019-8.092,0.019-12.138,0.011c-2.951-0.005-5.962-0.011-8.983-0.005c1.23-4.454,2.402-8.91,3.547-13.263
		c1.064-4.048,2.165-8.234,3.287-12.315c1.557-5.667,1.52-11.185-0.114-16.869c-3.1-10.784-5.558-18.264-7.935-25.497
		c-2.193-6.674-4.28-13.025-6.837-21.794c2.637,0.003,5.275,0.011,7.912,0.019c8.734,0.025,17.763,0.052,26.686-0.098
		c0.171,0.875,0.308,1.624,0.425,2.266c0.686,3.756,1.835,10.043,9.569,11.056c4.544,0.596,8.372-1.362,11.392-5.813l0.122-0.179
		c12.034-17.589,24.05-35.191,36.066-52.793l13.212-19.352c1.978-2.896,3.965-5.787,5.951-8.678
		c4.268-6.21,8.682-12.631,12.948-19.032c1.076-1.614,1.521-1.761,3.108-1.733c9.324,0.155,18.766,0.14,27.9,0.127
		c2.455-0.004,4.909-0.007,7.363-0.008C1255.039,60.413,1237.283,83.952,1219.528,107.488z"/>
	<path style="fill:#363636;" d="M1122.597,107.137c6.097-0.007,12.194-0.015,18.291-0.018c2.989-0.001,7.993-0.004,11.332-4.151
		c3.335-4.144,2.271-9.022,1.636-11.937c-0.487-2.234-0.999-4.463-1.511-6.692c-0.628-2.736-1.278-5.564-1.859-8.319
		c-2.976-14.127-12.314-23.067-27.004-25.855c-4.333-0.822-8.873-1.242-13.493-1.248c-10.443-0.013-20.887-0.012-31.33-0.009
		l-10.629,0.001c-0.343-0.042-0.692-0.064-1.047-0.064c-4.392,0-8.784,0.004-13.176,0.009c-11.727,0.012-23.853,0.024-35.763-0.055
		c-8.172-0.012-13.538,4.295-15.148,12.246c-3.244,16.023-6.713,32.303-10.069,48.046c-1.387,6.507-2.774,13.015-4.15,19.524
		l-1.917,9.072c-5.73,27.108-11.656,55.139-17.438,82.721c-1.026,4.895-1.995,9.519,1.335,13.63
		c3.319,4.097,8.021,4.108,12.999,4.12c0,0,0,0,0,0c5.008,0.012,10.015,0.017,15.022,0.017c5.502,0,11.005-0.006,16.507-0.014
		c5.004-0.008,8.957-0.014,12.471-2.891c3.572-2.926,4.285-6.789,5.189-11.688c6.504-35.252,14.243-73.221,23.657-116.077
		c0.039-0.176,0.076-0.333,0.111-0.471c0.067-0.001,0.14-0.002,0.217,0C1078.763,107.189,1101.046,107.162,1122.597,107.137z
		 M1056.757,90.032c-9.172,0-14.844,4.651-16.859,13.825c-9.455,43.044-17.23,81.197-23.771,116.648
		c-0.04,0.215-0.081,0.434-0.121,0.653c-0.287,0.001-0.573,0.001-0.846,0.002c-9.542,0.015-19.084,0.021-28.627,0.003
		c5.596-26.686,11.319-53.755,16.858-79.961l1.918-9.072c1.374-6.5,2.759-12.998,4.144-19.496
		c3.268-15.332,6.644-31.17,9.823-46.828c11.539,0.07,23.229,0.059,34.548,0.046c4.037-0.004,8.074-0.009,12.111-0.009
		c0.343,0.042,0.693,0.064,1.047,0.064l11.679-0.001c10.436-0.002,20.87-0.004,31.306,0.009c3.616,0.004,6.999,0.315,10.344,0.95
		c7.938,1.506,11.987,5.292,13.539,12.657c0.612,2.907,1.28,5.812,1.925,8.622c0.151,0.659,0.303,1.318,0.454,1.977
		c-4.551,0.004-9.102,0.009-13.653,0.015c-21.514,0.026-43.762,0.052-65.624-0.104C1056.887,90.032,1056.822,90.032,1056.757,90.032
		z"/>
	<path style="fill:#363636;" d="M381.408,100.219L381.408,100.219c-8.099-0.007-16.197-0.004-24.299-0.004l-9.189,0.001
		c-12.043,0.001-16.049,3.188-18.634,14.827l-5.537,24.941c-5.797,26.124-11.792,53.138-17.735,79.692l-0.093,0.415
		c-1.805,8.071-3.511,15.694-7.68,21.874c-3.189,4.725-5.58,4.759-7.949,4.36c-1.697-0.286-3.313-0.46-4.875-0.628
		c-1.825-0.196-3.549-0.382-5.042-0.718c-7.447-1.678-13.368,2.113-15.081,9.66l-1.657,7.328c-2.184,9.676-4.443,19.683-6.839,29.44
		c-1.099,4.477-0.607,8.293,1.461,11.346c2.062,3.041,5.403,4.903,9.933,5.535c9.42,1.313,19.435,2.173,30.591,2.627
		c1.17,0.051,2.325,0.077,3.47,0.077c25.098,0,44.173-12.304,55.297-35.742c1.412-2.974,3.236-6.929,4.829-11.153
		c5.343-14.171,8.367-28.848,11.291-43.042c0.478-2.32,0.956-4.64,1.444-6.958c4.225-20.068,8.488-40.128,12.752-60.188
		c2.578-12.131,5.156-24.262,7.726-36.396c0.573-2.704,1.764-8.329-1.854-12.797C390.106,100.228,384.448,100.222,381.408,100.219z
		 M371.238,150.374c-4.266,20.071-8.532,40.142-12.759,60.221c-0.493,2.341-0.976,4.686-1.458,7.03
		c-2.92,14.172-5.678,27.558-10.548,40.475c-1.071,2.841-2.391,5.882-4.279,9.861c-8.832,18.607-22.394,26.864-42.692,25.969
		c-9.188-0.374-17.517-1.032-25.334-2.002c2.114-8.767,4.112-17.622,6.053-26.218l0.771-3.409c0.903,0.114,1.777,0.208,2.608,0.298
		c1.375,0.147,2.673,0.287,3.868,0.489c6.973,1.175,16.95,0.115,24.866-11.614c5.967-8.843,8.108-18.415,10.179-27.672l0.092-0.413
		c5.946-26.569,11.943-53.591,17.742-79.722l5.536-24.938c0.069-0.311,0.198-0.891,0.343-1.5c0.686-0.012,1.349-0.012,1.696-0.012
		l9.192-0.001c7.055-0.001,14.111-0.003,21.166,0.002C375.936,128.27,373.587,139.321,371.238,150.374z"/>
	<path style="fill:#363636;" d="M249.28,119.102c-1.605-1.931-3.982-3.054-6.494-3.067c-2.507-0.03-4.9,1.085-6.524,3
		c-0.292,0.344-0.581,0.692-0.87,1.041c-0.518,0.624-1.006,1.213-1.462,1.708c-11.2,12.113-25.425,18.602-42.279,19.285
		c-29.61,1.201-53.972-9.65-72.414-32.25c-15.313-18.766-20.962-38.249-17.269-59.565c0.467-2.698,1.303-5.502,2.188-8.471
		c0.45-1.51,0.899-3.021,1.311-4.538c1.037-3.824-0.706-7.858-4.202-9.724c-3.497-1.865-7.818-1.067-10.417,1.923
		c-7.783,8.955-16.192,19.994-19.543,33.974c-6.24,26.026-0.716,51.167,16.419,74.723c19.534,26.854,50.71,41.996,82.567,41.994
		c11.193-0.001,22.477-1.872,33.361-5.76c21.658-7.739,37.695-22.625,47.666-44.247c1.371-2.972,0.913-6.467-1.177-8.986
		L249.28,119.102z M101.471,127.14C90.213,111.663,85.06,96.029,85.887,79.68c3.112,13.891,9.85,27.228,20.179,39.885
		c22.006,26.969,51.034,39.913,86.274,38.489c1.5-0.061,2.982-0.158,4.449-0.291C162.263,169.527,123.222,157.041,101.471,127.14z"
		/>
	<path style="fill:#363636;" d="M350.912,93.151c4.97,0.017,9.94,0.01,14.911,0.005c7.543-0.01,15.345-0.02,22.992,0.058
		c0.074,0.001,0.147,0.001,0.222,0.001c7.901,0,13.326-4.31,14.895-11.852c2.245-10.777,4.538-21.388,6.817-31.539
		c0.915-4.074,0.266-7.494-1.93-10.164c-2.203-2.679-5.492-3.977-9.778-3.868c-4.597,0.121-9.342,0.097-13.931,0.073
		c-1.927-0.01-3.853-0.02-5.78-0.02c-0.015,0-0.03,0-0.045,0c-1.979,0-3.958,0.014-5.937,0.028
		c-4.54,0.031-9.236,0.063-13.764-0.082c-7.92-0.248-13.382,4.116-14.981,11.996c-1.286,6.333-2.782,12.794-4.229,19.042
		c-0.769,3.32-1.538,6.641-2.282,9.965c-0.618,2.76-1.769,7.896,1.604,12.123C343.053,93.123,348.165,93.141,350.912,93.151z
		 M356.938,70.663c1.348-5.821,2.738-11.823,3.985-17.83c4.23,0.097,8.447,0.067,12.545,0.039c1.94-0.014,3.881-0.027,5.82-0.027
		c0.014,0,0.027,0,0.04,0c1.898,0,3.797,0.01,5.695,0.02c2.507,0.013,5.058,0.027,7.629,0.016
		c-1.679,7.601-3.356,15.412-5.01,23.321c-4.734-0.042-9.501-0.053-14.215-0.053c-2.562,0-5.108,0.003-7.626,0.006
		c-3.377,0.004-6.755,0.008-10.133,0.005C356.089,74.327,356.513,72.495,356.938,70.663z"/>
	<path style="fill:#363636;" d="M162.951,107.171c9.957,5.231,20.833,7.906,31.925,7.906c3.369,0,6.759-0.247,10.147-0.744
		c0,0,0,0,0,0c14.842-2.178,43.886-23.695,45.997-36.598c0.568-3.472-1.062-6.936-4.1-8.711c-3.039-1.775-6.856-1.496-9.603,0.705
		c-14.712,11.786-43.567,4.792-56.194-5.005c-19.76-15.333-18.683-36.607-14.299-51.755c1.065-3.682-0.465-7.622-3.737-9.619
		c-3.272-1.996-7.476-1.556-10.263,1.075c-15.157,14.309-30.237,49.568-19.368,72.25C139.742,89.79,149.941,100.336,162.951,107.171
		z M148.821,45.083c3.092,12.943,10.455,24.204,21.882,33.071c9.829,7.626,26.174,13.969,42.582,14.714
		c-4.052,2.442-7.904,4.23-10.729,4.645c-22.146,3.25-44.258-8.339-53.768-28.185C145.748,62.983,146.299,54.017,148.821,45.083z"/>
	<path style="fill:#363636;" d="M245.718,182.695c-0.535-3.286-2.939-5.957-6.151-6.833c-3.213-0.876-6.64,0.203-8.77,2.761
		l-2.539,3.048c-0.693,0.627-1.383,1.259-2.068,1.898c-1.632,1.519-3.173,2.954-4.72,4.126
		c-26.685,20.214-57.781,24.953-95.066,14.489c-25.32-7.106-47.833-23.125-66.916-47.611c-17.87-22.93-24.539-49.167-19.822-77.979
		c0.648-3.957,1.924-8.042,3.275-12.366c0.67-2.146,1.363-4.364,2.03-6.712c1.003-3.537-0.38-7.317-3.43-9.371
		c-3.051-2.054-7.074-1.913-9.973,0.347C21.838,56.076,9.896,73.821,5.49,87.24c-10.755,32.756-5.692,66.422,15.047,100.062
		c14.458,23.452,36.381,41.916,65.162,54.88c16.66,7.505,33.836,11.259,51.395,11.258c15.36,0,31.015-2.875,46.863-8.624
		c25.468-9.239,45.191-26.389,58.662-50.954C244.191,192.02,246.647,188.392,245.718,182.695z M178.159,228.836
		c-29.659,10.76-58.419,10.036-85.479-2.154c-25.626-11.543-45.03-27.794-57.673-48.302c-17.929-29.081-22.46-56.699-13.832-84.381
		c-0.089,25.836,8.249,49.652,24.903,71.023c21.361,27.411,46.841,45.421,75.731,53.529c27.499,7.718,52.797,7.924,75.606,0.666
		C191.506,223.113,185.081,226.324,178.159,228.836z"/>
</g>
</svg>
