<?xml version="1.0" encoding="iso-8859-1"?>
<!-- Generator: Adobe Illustrator 21.1.0, SVG Export Plug-In . SVG Version: 6.00 Build 0)  -->
<svg version="1.1" id="svg4525" xmlns="http://www.w3.org/2000/svg" xmlns:xlink="http://www.w3.org/1999/xlink" x="0px" y="0px"
	 viewBox="0 0 493.809 558.896" style="enable-background:new 0 0 493.809 558.896;" xml:space="preserve">
<g>
	<path style="fill:#363636;" d="M491.584,2.953c-1.609-1.762-3.886-2.766-6.272-2.767L8.504,0C8.502,0,8.501,0,8.5,0
		C6.113,0,3.835,1.004,2.225,2.767C0.614,4.53-0.181,6.89,0.035,9.269l44.259,487.223c0.319,3.507,2.768,6.455,6.157,7.412
		l193.773,54.673c0.754,0.213,1.531,0.319,2.308,0.319c0.777,0,1.555-0.106,2.311-0.32l194.889-55.045
		c3.39-0.958,5.839-3.908,6.155-7.417L493.775,9.449C493.989,7.073,493.194,4.715,491.584,2.953z M433.481,488.761l-186.95,52.803
		L60.695,489.13L17.808,17.003l458.2,0.179L433.481,488.761z"/>
	<path style="fill:#363636;" d="M75.502,330.134c-0.077,0.123-0.146,0.25-0.216,0.377c-0.091,0.164-0.176,0.331-0.256,0.502
		c-0.069,0.145-0.137,0.29-0.197,0.439c-0.068,0.168-0.124,0.343-0.182,0.517c-0.085,0.258-0.158,0.519-0.218,0.786
		c-0.042,0.183-0.084,0.366-0.113,0.55c-0.025,0.157-0.041,0.314-0.057,0.473c-0.02,0.2-0.033,0.399-0.039,0.597
		c-0.003,0.095-0.019,0.187-0.019,0.282l0.178,54.43c0.013,3.831,2.586,7.18,6.285,8.178l133.326,35.991
		c0.738,0.199,1.482,0.295,2.217,0.295c3.256,0,6.315-1.88,7.727-4.961c1.232-2.691,0.951-5.736-0.558-8.106
		c0.208-14.314,0.443-62.805,0.443-147.73V124.416c0.569-1.143,0.887-2.428,0.887-3.782v-0.177c0-4.694-3.806-8.5-8.5-8.5h-45.21
		c-4.687,0-8.49,3.794-8.5,8.481l-0.674,226.961l-76.876-20.968c-0.186-0.051-0.373-0.085-0.56-0.123
		c-0.073-0.015-0.146-0.035-0.219-0.048c-0.339-0.06-0.677-0.097-1.015-0.115c-0.069-0.004-0.137-0.001-0.206-0.003
		c-0.277-0.008-0.552-0.003-0.825,0.016c-0.095,0.006-0.19,0.014-0.285,0.024c-0.281,0.029-0.559,0.071-0.834,0.128
		c-0.062,0.013-0.125,0.02-0.187,0.034c-0.318,0.073-0.63,0.167-0.936,0.275c-0.11,0.039-0.218,0.085-0.327,0.128
		c-0.211,0.085-0.418,0.177-0.622,0.278c-0.074,0.037-0.151,0.062-0.225,0.101c-0.04,0.021-0.074,0.049-0.113,0.071
		c-0.274,0.152-0.542,0.317-0.798,0.498c-0.102,0.072-0.196,0.152-0.295,0.229c-0.17,0.132-0.336,0.268-0.495,0.413
		c-0.104,0.094-0.206,0.188-0.305,0.287c-0.167,0.167-0.326,0.343-0.48,0.525c-0.088,0.104-0.175,0.207-0.258,0.314
		C75.802,329.679,75.647,329.902,75.502,330.134z M178.88,329.19c0-0.024,0-0.048,0-0.073l0.598-200.161h22.189
		c1.291,0.788,2.807,1.241,4.423,1.241h0.732v142.556c0,84.646-0.226,124.451-0.363,140.861L91.362,382.543l-0.119-36.265
		c3.465,0.967,8.417,2.337,15.511,4.297c6.209,1.715,13.279,3.669,20.68,5.724l40.601,11.169c2.554,0.705,5.29,0.175,7.397-1.428
		c2.109-1.603,3.35-4.097,3.357-6.746L178.88,329.19z"/>
	<path style="fill:#363636;" d="M265.994,325.198c1.912,1.596,4.428,2.275,6.883,1.853l77.714-13.318l-0.769,27.256l-82.516,21.949
		c-3.774,1.004-6.378,4.45-6.314,8.354l0.887,53.898c0.043,2.607,1.28,5.051,3.356,6.628c1.495,1.136,3.305,1.732,5.143,1.732
		c0.715,0,1.435-0.09,2.142-0.274l122.511-31.913c3.495-0.911,6.033-3.93,6.329-7.529l12.233-148.751
		c0.208-2.532-0.727-5.024-2.549-6.794s-4.341-2.63-6.866-2.35l-80.976,9.05v-61.457l87.98-0.323
		c4.446-0.017,8.128-3.456,8.447-7.891l3.9-54.252c0.17-2.361-0.653-4.687-2.27-6.416c-1.618-1.729-3.851-2.67-6.25-2.694
		l-145.56,0.709c-2.262,0.011-4.426,0.923-6.013,2.534c-1.587,1.611-2.467,3.788-2.445,6.05l1.95,197.507
		C262.966,321.248,264.082,323.602,265.994,325.198z M405.914,129.001l-2.677,37.237l-88.567,0.326
		c-4.682,0.017-8.469,3.818-8.469,8.5v79.429c0,2.419,1.03,4.723,2.833,6.335c1.803,1.612,4.206,2.378,6.611,2.112l80.158-8.959
		l-10.893,132.451l-106.213,27.667l-0.599-36.441l82.225-21.872c3.637-0.968,6.206-4.212,6.312-7.975l1.241-43.969
		c0.072-2.546-1.002-4.991-2.926-6.66c-1.924-1.669-4.496-2.389-7.006-1.958l-78.102,13.384l-1.767-178.985L405.914,129.001z"/>
</g>
</svg>
