<?xml version="1.0" encoding="iso-8859-1"?>
<!-- Generator: Adobe Illustrator 21.1.0, SVG Export Plug-In . SVG Version: 6.00 Build 0)  -->
<svg version="1.1" id="svg4525" xmlns="http://www.w3.org/2000/svg" xmlns:xlink="http://www.w3.org/1999/xlink" x="0px" y="0px"
	 viewBox="0 0 1198.95 412.298" style="enable-background:new 0 0 1198.95 412.298;" xml:space="preserve">
<g>
	<path style="fill:#363636;" d="M1030.3,69.169C1030.3,69.169,1030.3,69.169,1030.3,69.169c-7.933-7.245-19.025-6.031-28.807-4.956
		c-4.057,0.444-7.891,0.863-11.134,0.69c-0.731-0.037-1.364-0.018-1.826-0.001c-0.103,0.004-0.205,0.009-0.308,0.01
		c-5.48-0.586-9.898,0.613-13.138,3.568c-5.034,4.592-4.89,11.32-4.843,13.531c0.208,9.76,0.163,19.744,0.119,29.399
		c-0.019,4.138-0.038,8.274-0.038,12.412l0,70.78c-2.634-4.563-5.269-9.126-7.903-13.689
		c-19.396-33.595-39.452-68.333-58.958-102.609c-3.774-6.633-9.805-14.163-23.083-13.603c-15.094,0.651-30.217,0.653-44.945,0.008
		c-4.223-0.177-10.353,0.069-14.851,4.401c-4.485,4.32-5.025,10.459-4.995,15.325c0.259,40.855,0.227,82.411,0.196,122.6
		c-0.01,13.462-0.021,26.925-0.021,40.388c0,7.399,0.021,14.8,0.042,22.199c0.055,19.006,0.112,38.659-0.215,57.939
		c-0.069,4.134,0.346,10.11,4.743,14.274c4.356,4.125,10.167,4.221,14.158,3.938c9.119-0.651,17.151-0.649,24.557,0.008
		c5.075,0.451,11.523,0.387,16.37-4.141c4.918-4.592,5.428-11.222,5.323-16.484c-0.484-24.307-0.4-49.082-0.318-73.042
		c0.032-9.355,0.064-18.712,0.064-28.067v-31.59c5.132,8.846,10.263,17.692,15.394,26.539c16.796,28.961,34.164,58.907,51.31,88.328
		c1.705,2.925,3.296,6.228,4.981,9.724c4.829,10.021,9.823,20.385,19.257,25.731c5.535,3.136,11.716,3.968,18.046,3.968
		c3.619,0,7.286-0.271,10.908-0.54c4.786-0.354,9.307-0.688,13.339-0.378c5.188,0.403,11.771,0.28,16.651-4.268
		c4.947-4.609,5.539-11.487,5.502-16.964c-0.275-41.002-0.274-82.706-0.273-123.037c0.001-30.103,0.001-61.23-0.112-91.854
		c-0.011-2.893,0.398-6.271,0.831-9.847C1037.547,89.756,1039.069,77.18,1030.3,69.169z M1019.447,97.818
		c-0.476,3.935-0.969,8.004-0.954,11.952c0.114,30.592,0.113,61.703,0.112,91.791c-0.001,40.359-0.002,82.092,0.273,123.151
		c0.015,2.232-0.138,3.505-0.274,4.189c-0.628,0.073-1.739,0.12-3.566-0.021c-5.317-0.412-10.702-0.014-15.909,0.373
		c-7.428,0.551-15.108,1.121-19.315-1.264c-4.809-2.726-8.629-10.654-12.324-18.321c-1.753-3.638-3.566-7.4-5.607-10.903
		c-17.137-29.405-34.501-59.345-51.292-88.298c-8.09-13.949-16.18-27.897-24.276-41.843c-1.19-2.05-2.435-4.083-4.011-6.657
		c-0.874-1.427-1.869-3.053-3.045-4.991c-1.568-2.586-4.351-4.092-7.267-4.092c-0.76,0-1.53,0.103-2.29,0.315
		c-3.671,1.026-6.21,4.373-6.21,8.186v62.662c0,9.336-0.032,18.673-0.064,28.01c-0.082,24.057-0.167,48.933,0.321,73.438
		c0.034,1.704-0.062,2.783-0.164,3.431c-0.601,0.044-1.563,0.052-3.03-0.078c-8.318-0.737-17.239-0.748-27.271-0.031
		c-0.252,0.019-0.481,0.03-0.688,0.038c-0.008-0.289-0.01-0.623-0.003-1.006c0.329-19.448,0.272-39.187,0.217-58.275
		c-0.021-7.384-0.042-14.768-0.042-22.15c0-13.458,0.01-26.917,0.021-40.375c0.031-40.218,0.063-81.804-0.196-122.72
		c-0.008-1.219,0.044-2.062,0.108-2.63c0.468-0.031,1.116-0.042,1.992-0.005c15.218,0.666,30.836,0.663,46.422-0.008
		c3.483-0.147,4.835,0.207,7.576,5.025c19.532,34.323,39.602,69.085,59.01,102.702c4.939,8.555,9.878,17.108,14.814,25.666
		c1.795,3.11,3.616,6.103,5.725,9.566c1.033,1.697,2.127,3.496,3.307,5.453c1.97,3.271,5.879,4.825,9.557,3.803
		s6.224-4.372,6.224-8.189l0-101.89c0-4.111,0.019-8.223,0.038-12.335c0.044-9.686,0.089-19.698-0.118-29.601
		c0.755,0.042,1.404,0.021,1.872,0.005c0.131-0.005,0.261-0.013,0.333-0.013c4.625,0.245,9.337-0.27,13.893-0.769
		c5.896-0.647,13.234-1.45,15.491,0.61C1021.141,83.828,1020.202,91.585,1019.447,97.818z"/>
	<path style="fill:#363636;" d="M672.967,111.71c-21.337-0.238-37.458,10.238-46.692,30.177
		c-9.434,20.368-10.521,41.616-10.799,59.935c0,0.043-0.001,0.086-0.001,0.129c0.001,24.097,0.899,47.496,11.741,68.883
		c9.352,18.444,24.76,28.146,44.645,28.146c0.608,0,1.224-0.009,1.84-0.027c20.439-0.604,35.638-11.258,42.798-29.999
		c15.278-39.994,15.606-82.079,0.973-125.085C710.585,123.629,694.364,111.908,672.967,111.71z M700.618,262.886
		c-4.682,12.256-13.908,18.674-27.419,19.073c-14.307,0.407-24.098-5.556-30.819-18.813c-9.148-18.046-9.902-38.361-9.904-61.129
		c0.253-16.557,1.203-35.662,9.226-52.985c6.333-13.673,16.37-20.323,30.681-20.323c0.142,0,0.287,0,0.429,0.002
		c14.14,0.13,24.019,7.266,28.567,20.634C714.699,188.494,714.443,226.695,700.618,262.886z"/>
	<path style="fill:#363636;" d="M682.438,61.86c-41.561-3.134-82.006,13.997-103.027,43.644
		c-16.713,23.57-26.711,58.309-27.432,95.309c-0.753,38.72,8.515,74.682,26.098,101.259c19.887,30.061,54.915,47.887,93.939,47.885
		c0.516,0,1.038-0.003,1.556-0.009c38.727-0.47,73.112-18.709,91.98-48.79c16.815-26.81,26.387-58.489,26.27-86.933
		c0.869-41.705-8.676-69.574-23.272-98.575C752.826,84.405,721.439,64.801,682.438,61.86z M774.824,213.973
		c-0.001,0.074-0.002,0.149-0.002,0.224c0.128,25.336-8.5,53.739-23.67,77.927c-15.784,25.164-44.862,40.425-77.785,40.824
		c-33.855,0.367-64.164-14.638-81.111-40.256c-34.458-52.086-27.879-136.594,1.023-177.354c16.227-22.885,46.706-36.849,79.3-36.849
		c2.847,0,5.711,0.106,8.582,0.322c32.909,2.481,59.226,18.693,72.205,44.48C766.834,150.053,775.638,175.714,774.824,213.973z"/>
	<path style="fill:#363636;" d="M471.294,170.963C471.294,170.963,471.294,170.963,471.294,170.963
		c-7.178-1.925-14.472-3.693-21.526-5.402c-3.633-0.881-7.266-1.762-10.892-2.665c-3.032-0.755-6.08-1.421-9.026-2.064
		c-8.395-1.833-16.324-3.563-23.402-7.157c-5.394-2.738-7.846-6.993-7.715-13.391c0.068-3.307,1.009-8.024,8.373-10.799
		c16.124-6.078,44.23-5.254,53.348,15.809c2.92,6.746,9.116,13.824,22.052,9.249c6.884-2.436,13.986-4.768,20.855-7.021
		c2.733-0.897,5.466-1.794,8.195-2.701c10.135-3.365,16.252-5.396,18.678-11.787c2.442-6.437-0.71-11.883-6.433-21.768
		c-19.487-33.661-50.699-49.481-98.225-49.781c-13.15-0.403-26.323,1.388-40.283,5.467c-26.186,7.651-47.245,26.912-57.777,52.842
		c-10.276,25.3-8.75,52.925,4.187,75.794c12.005,21.221,33.029,30.31,50.003,35.857c13.35,4.363,27.039,8.1,40.277,11.713
		c8.621,2.353,17.534,4.785,26.2,7.352c11.354,3.361,11.507,10.8,11.558,13.244c0.147,7.139-3.732,12.465-11.531,15.829
		c-10.949,4.726-29.936,6.587-45.75-0.489c-9.7-4.34-16.188-11.245-19.285-20.524c-3.995-11.971-13.043-11.746-18.083-10.547
		c-13.773,3.277-28.267,6.574-44.311,10.078c-3.204,0.7-7.765,2.148-10.373,6.629c-2.64,4.535-1.621,9.325-0.624,12.533
		c5.245,16.881,14.31,31.198,27.714,43.769c18.578,17.422,47.13,27.609,80.398,28.685c1.879,0.062,3.753,0.091,5.623,0.091
		c28.28,0,55.25-6.888,73.022-18.789c33.292-22.293,47.722-53.701,41.733-90.827C532.62,205.138,509.458,181.2,471.294,170.963z
		 M487.082,316.89c-33.211,22.239-104.824,22.809-137.955-8.262c-10.665-10.001-18.027-21.278-22.461-34.415
		c14.628-3.206,27.991-6.247,40.727-9.268c4.736,13.298,14.44,23.541,28.125,29.664c20.609,9.221,44.697,6.934,59.426,0.58
		c14.142-6.101,22.084-17.688,21.793-31.79c-0.292-14.174-8.94-24.814-23.727-29.193c-8.84-2.618-17.844-5.075-26.551-7.451
		c-13.039-3.559-26.521-7.238-39.472-11.471c-14.929-4.88-31.415-12.03-40.489-28.07c-10.365-18.322-11.543-40.564-3.232-61.025
		c8.567-21.091,25.623-36.735,46.795-42.921c12.25-3.58,23.731-5.151,35.091-4.79c0.072,0.002,0.145,0.003,0.217,0.004
		c41.504,0.242,67.324,12.979,83.72,41.3c1.37,2.366,2.768,4.781,3.738,6.626c-1.825,0.683-4.25,1.488-6.628,2.277
		c-2.711,0.9-5.425,1.792-8.14,2.683c-6.959,2.284-14.156,4.646-21.223,7.146c-0.259,0.092-0.488,0.168-0.69,0.231
		c-0.029-0.064-0.06-0.134-0.091-0.206c-5.907-13.645-17.86-23.362-33.658-27.363c-13.273-3.36-28.321-2.485-41.286,2.399
		c-12.063,4.546-19.124,14.154-19.374,26.359c-0.264,12.931,5.779,23.192,17.016,28.896c9.02,4.579,18.399,6.627,27.471,8.608
		c2.958,0.646,5.751,1.256,8.543,1.951c3.662,0.912,7.33,1.801,10.997,2.69c6.956,1.686,14.148,3.429,21.127,5.301h0
		c31.658,8.491,50.029,27.169,54.601,55.513C526.413,273.409,514.836,298.305,487.082,316.89z"/>
	<path style="fill:#363636;" d="M102.584,47.932c1.301-1.073,8.646-1.981,11.057-2.279c0.407-0.051,0.813-0.074,1.208-0.102
		c2.987-0.205,12.076-0.83,14.072-12.062c1.542-8.677,2.719-18.507-2.873-25.343c-4.957-6.062-12.805-7.465-23.063-7.709
		c0,0,0,0-0.001,0l-2.205-0.054c-6.35-0.158-12.917-0.321-19.529,0.119c-31.134,2.075-49.553,19.457-53.267,50.27
		c-1.114,9.246-1.729,19.192-1.879,30.406c-0.165,12.281-0.208,24.747-0.249,36.803c-0.05,14.632-0.102,29.762-0.372,44.608
		c-0.244,13.377-6.986,16.813-12.037,18.232C7.481,182.5-2.125,187.571,0.574,202.69c0.09,0.527-0.106,2.119-0.237,3.173
		c-0.562,4.555-2.055,16.653,12.118,21.062c6.068,1.888,13.054,5.905,13.22,20.338c0.138,12.012,0.105,24.257,0.075,36.099
		c-0.014,5.214-0.027,10.427-0.027,15.64c0,1.227,0.26,2.393,0.728,3.446c-0.019,4.209-0.069,8.451-0.118,12.583
		c-0.14,11.831-0.284,24.066,0.277,36.19c1.705,36.867,18.208,56.581,50.451,60.269c4.199,0.479,8.387,0.641,12.537,0.641
		c4.305,0,8.57-0.173,12.762-0.344c3.951-0.161,7.683-0.313,11.432-0.329c1.866-0.009,7.542-0.033,11.594-4.331
		c2.623-2.782,3.826-6.507,3.578-11.072c-0.245-4.478-0.245-9.156,0.001-13.905c0.265-5.136-1.209-13.977-14.059-15.47
		c-3.004-0.349-10.986-1.276-12.293-2.392c-1.032-1.486-1.102-9.582-1.128-12.63c-0.103-12.027-0.058-24.285-0.014-36.139
		c0.061-16.492,0.124-33.546-0.208-50.361c-0.425-21.516-3.559-43.351-22.393-58.611c22.177-17.666,22.337-43.289,22.479-66.098
		l0.018-2.718c0.089-11.612,0.071-23.4,0.054-34.8c-0.022-14.481-0.045-29.456,0.152-44.148
		C101.655,52.484,102.018,48.808,102.584,47.932z M90.137,36.357c-4.951,5.351-5.44,12.893-5.565,22.196
		c-0.2,14.82-0.176,29.859-0.154,44.403c0.018,11.36,0.036,23.109-0.053,34.643l-0.019,2.743
		c-0.145,23.235-0.27,43.303-20.398,55.965c-5.313,3.342-6.147,7.672-6.171,9.956c-0.044,4.215,2.251,7.879,6.822,10.889
		c15.785,10.396,19.227,26.204,19.664,48.341c0.329,16.616,0.266,33.568,0.206,49.963c-0.044,11.904-0.089,24.215,0.015,36.346
		c0.092,10.823,0.523,18.328,5.463,23.825c4.754,5.289,11.81,6.609,21.941,7.814c-0.141,3.735-0.146,7.43-0.015,11.033
		c-3.442,0.051-6.872,0.189-10.206,0.325c-7.934,0.323-15.427,0.629-22.676-0.201c-23.82-2.724-34.076-15.519-35.401-44.163
		c-0.538-11.632-0.396-23.615-0.26-35.205c0.063-5.312,0.128-10.804,0.128-16.229c0-1.232-0.262-2.403-0.734-3.46
		c0.004-4.045,0.015-8.091,0.025-12.136c0.031-11.901,0.063-24.207-0.076-36.339c-0.271-23.678-13.837-32.85-25.169-36.375
		c-0.218-0.068-0.4-0.133-0.55-0.191c0.03-0.735,0.16-1.785,0.255-2.556c0.286-2.318,0.643-5.203,0.1-8.241
		c-0.199-1.118-0.229-1.801-0.219-2.179c0.206-0.093,0.514-0.212,0.958-0.337c15.432-4.339,24.109-16.516,24.433-34.288
		c0.273-14.972,0.325-30.166,0.375-44.859c0.041-12.015,0.083-24.438,0.247-36.633c0.142-10.605,0.717-19.961,1.759-28.601
		c2.76-22.896,14.331-33.796,37.52-35.341c5.837-0.391,11.733-0.242,17.976-0.087l2.225,0.055c7.935,0.188,9.896,1.192,10.301,1.484
		c0.205,0.443,0.777,2.445-0.39,9.764c-0.31,0.028-0.622,0.06-0.935,0.099C102.029,29.959,94.915,31.192,90.137,36.357z"/>
	<path style="fill:#363636;" d="M1180.607,182.753c-5.23-1.493-6.41-8.039-6.674-10.784c-0.196-2.033-0.425-4.066-0.654-6.1
		c-0.55-4.877-1.07-9.483-1.117-14.012c-0.124-11.952-0.131-24.127-0.138-35.9c-0.011-18.207-0.021-37.034-0.464-55.59
		c-0.903-37.94-20.201-51.749-36.23-56.652c-17.113-5.231-33.852-3.994-52.391-1.982c-4.833,0.523-8.507,2.399-10.92,5.575
		c-3.683,4.846-2.754,10.49-2.199,13.862c0.109,0.667,0.246,1.496,0.258,1.832c0.004,0.352-0.167,1.371-0.279,2.046
		c-0.442,2.65-1.048,6.28,0.248,10.117c1.159,3.43,4.151,7.9,11.821,9.718c6.096,1.444,13.684,3.242,14.701,4.585
		c1.078,1.424,1.096,9.039,1.114,16.468c0.021,8.782,0.013,17.564,0.004,26.347c-0.018,20.131-0.037,40.946,0.304,61.451
		c0.373,22.384,7.579,39.543,21.955,52.094c-19.155,15.591-22.165,37.563-22.239,59.356c-0.038,11.098-0.014,22.371,0.009,33.272
		c0.038,17.817,0.077,36.241-0.152,54.328c-0.112,8.917-0.803,11.554-1.362,12.195c-0.328,0.377-2.04,1.33-10.838,2.062
		c-5.677,0.472-9.785,2.319-12.558,5.649c-3.928,4.716-3.381,10.213-3.02,13.85c0.083,0.829,0.16,1.612,0.166,2.181
		c0.006,0.671-0.083,1.637-0.179,2.66c-0.382,4.123-0.961,10.354,3.451,15.267c2.924,3.256,7.228,4.948,12.792,5.031
		c3.097,0.046,6.297,0.172,9.393,0.294c4.108,0.162,8.271,0.325,12.49,0.325c6.297,0,12.717-0.365,19.251-1.648
		c23.129-4.545,37.388-18.796,42.38-42.358c2.355-11.116,2.386-22.009,2.416-32.542c0.01-3.541,0.02-7.202,0.124-10.748
		c0.287-9.812,0.14-19.701-0.001-29.265c-0.233-15.746-0.475-32.028,1.273-47.74c1.308-11.759,7.3-15.009,12.374-16.526
		c8.701-2.602,13.01-8.374,13.173-17.648l0.021-1.096C1199.1,202.926,1199.391,188.116,1180.607,182.753z M1181.912,212.392
		l-0.021,1.128c-0.011,0.635-0.056,1.06-0.099,1.326c-0.203,0.088-0.508,0.204-0.948,0.336c-9.89,2.958-22.15,10.726-24.398,30.935
		c-1.867,16.774-1.617,33.6-1.376,49.871c0.139,9.379,0.283,19.078,0.006,28.517c-0.11,3.77-0.121,7.545-0.131,11.196
		c-0.028,10.114-0.055,19.669-2.046,29.066c-3.592,16.957-12.544,25.962-29.026,29.2c-8.958,1.76-18.108,1.399-27.796,1.018
		c-3.105-0.122-6.313-0.248-9.522-0.301c0.04-0.593,0.098-1.221,0.146-1.733c0.124-1.337,0.265-2.852,0.25-4.388
		c-0.012-1.332-0.138-2.593-0.248-3.705c-0.026-0.259-0.056-0.559-0.083-0.862c0.049-0.005,0.1-0.009,0.151-0.014
		c9.097-0.756,17.051-1.867,22.251-7.838c4.934-5.664,5.419-13.496,5.541-23.146c0.23-18.212,0.191-36.7,0.153-54.579
		c-0.023-10.879-0.046-22.128-0.009-33.18c0.083-24.54,4.059-40.851,24.136-51.601c2.696-1.442,4.409-4.223,4.486-7.279
		c0.077-3.057-1.494-5.919-4.114-7.496c-16.396-9.87-23.868-23.876-24.226-45.414c-0.339-20.355-0.32-41.096-0.302-61.152
		c0.008-8.801,0.016-17.602-0.004-26.468c-0.032-13.325-0.049-20.666-4.56-26.624c-4.619-6.101-11.822-7.899-23.663-10.706
		c0.037-0.23,0.074-0.455,0.107-0.653c0.269-1.608,0.573-3.431,0.5-5.446c-0.051-1.417-0.272-2.769-0.469-3.964
		c16.425-1.743,30.207-2.609,43.759,1.535c15.75,4.817,23.668,18.163,24.208,40.8c0.438,18.359,0.448,37.086,0.459,55.195
		c0.007,11.814,0.014,24.032,0.139,36.066c0.056,5.396,0.649,10.655,1.223,15.741c0.219,1.941,0.438,3.883,0.625,5.823
		c1.247,12.941,8.323,22.475,18.929,25.503C1181.558,200.704,1182.117,201.946,1181.912,212.392z"/>
	<path style="fill:#363636;" d="M280.081,64.739c-7.707,0.438-15.369,0.341-23.479,0.236c-3.463-0.045-7.038-0.101-10.591-0.089
		c-9.731,0.004-15.604,0.006-20.105,4.355c-4.625,4.47-4.626,10.255-4.627,19.84c-0.003,16.487,0.007,32.974,0.017,49.46
		c0.024,39.204,0.049,79.743-0.11,119.604c-0.063,15.876-4.761,20.847-20.946,22.162c-2.86,0.226-6.848-0.543-10.71-1.29
		c-8.828-1.712-20.917-4.054-27.637,6.053c-5.51,8.284-4.512,18.849-3.547,29.064c0.357,3.788,0.695,7.366,0.672,10.568
		c-0.004,0.561,0.018,1.127,0.044,1.693c0.011,0.248,0.027,0.576,0.027,0.751c-0.896,5.232-0.026,9.662,2.587,13.167
		c4.178,5.604,11.238,6.405,13.558,6.668c11.382,1.293,23.376,2.407,35.701,2.407c5.416,0,10.897-0.216,16.417-0.726
		c22.08-2.039,39.568-9.558,51.979-22.347c12.643-13.029,19.376-30.854,20.011-52.979c0.625-21.775,0.469-43.861,0.318-65.219
		c-0.06-8.493-0.122-17.246-0.134-25.896c0.332-0.909,0.513-1.891,0.513-2.915c0-8.681-0.021-17.362-0.042-26.043
		c-0.056-22.586-0.113-45.94,0.227-68.868c0.066-4.447-0.382-10.874-5.016-15.315C290.615,64.681,284.378,64.498,280.081,64.739z
		 M283.223,84.145c-0.341,23.074-0.284,46.504-0.229,69.162c0.019,7.694,0.038,15.388,0.042,23.082
		c-0.333,0.91-0.514,1.894-0.514,2.919c0,9.652,0.069,19.453,0.136,28.931c0.149,21.209,0.304,43.141-0.312,64.611
		c-1.01,35.199-20.568,55.562-56.56,58.886c-16.549,1.527-33.155,0.112-48.636-1.645c-0.524-0.06-0.948-0.127-1.286-0.193
		c0.298-1.711,0.229-3.199,0.178-4.289c-0.012-0.261-0.028-0.521-0.026-0.781c0.029-4.066-0.366-8.248-0.748-12.292
		c-0.646-6.839-1.377-14.578,0.7-17.93c1.69-0.572,7.073,0.47,10.327,1.101c4.754,0.921,10.144,1.968,15.319,1.544
		c24.852-2.019,36.472-14.423,36.57-39.037c0.159-39.9,0.134-80.459,0.11-119.683c-0.01-16.481-0.02-32.964-0.017-49.446
		c0-2.506,0.001-5.24,0.109-7.076c1.932-0.121,4.893-0.091,7.76-0.122c3.395,0,6.873,0.044,10.237,0.088
		c8.044,0.1,16.364,0.209,24.662-0.263c0,0,0,0,0.001,0c0.928-0.053,1.604-0.045,2.084-0.017
		C283.192,82.235,283.239,83.025,283.223,84.145z"/>
</g>
</svg>
