<?xml version="1.0" encoding="iso-8859-1"?>
<!-- Generator: Adobe Illustrator 21.1.0, SVG Export Plug-In . SVG Version: 6.00 Build 0)  -->
<svg version="1.1" id="svg4525" xmlns="http://www.w3.org/2000/svg" xmlns:xlink="http://www.w3.org/1999/xlink" x="0px" y="0px"
	 viewBox="0 0 2630.629 578.555" style="enable-background:new 0 0 2630.629 578.555;" xml:space="preserve">
<g>
	<path style="fill:#363636;" d="M973.141,257.296l206.668-215.371c3.19-3.324,4.088-8.233,2.281-12.472
		c-1.808-4.239-5.971-6.99-10.579-6.99h-139.263c-3.199,0-6.253,1.332-8.429,3.677L831.111,233.777V33.963
		c0-6.352-5.148-11.5-11.5-11.5H704.308c-6.352,0-11.5,5.148-11.5,11.5V558.07c0,6.352,5.148,11.5,11.5,11.5h115.304
		c6.352,0,11.5-5.148,11.5-11.5V402.485l47.915-49.687l154.406,212.044c2.165,2.973,5.62,4.73,9.297,4.73h138.515
		c4.342,0,8.313-2.445,10.269-6.322s1.56-8.524-1.021-12.015L973.141,257.296z M1048.581,546.573L889.556,328.186
		c-2.001-2.747-5.114-4.469-8.505-4.703c-3.394-0.242-6.712,1.043-9.07,3.49l-60.647,62.889c-2.066,2.143-3.222,5.005-3.222,7.982
		V546.57h-92.304V45.463h92.304v217.61c0,4.729,2.896,8.977,7.298,10.705c4.404,1.727,9.415,0.584,12.631-2.882l209.225-225.434
		h107.272L949.828,248.371c-3.88,4.043-4.28,10.294-0.949,14.799l209.56,283.403H1048.581z"/>
	<path style="fill:#363636;" d="M1356.352,235.852c-34.331,0-63.733,12.551-85.026,36.296
		c-19.699,21.968-30.548,51.983-30.548,84.519v1.5c0,32.27,11.438,62.576,32.205,85.336c21.756,23.842,51.895,36.972,84.865,36.972
		c34.331,0,63.733-12.552,85.026-36.299c19.699-21.968,30.548-51.984,30.548-84.52v-1.489c0-32.272-11.438-62.581-32.205-85.342
		C1419.462,248.982,1389.323,235.852,1356.352,235.852z M1450.422,359.655c0,47.112-28.97,97.818-92.574,97.818
		c-53.629,0-94.07-42.693-94.07-99.308v-1.5c0-47.11,28.97-97.814,92.574-97.814c53.629,0,94.07,42.696,94.07,99.314V359.655z"/>
	<path style="fill:#363636;" d="M1520.659,201.477c-42.316-41.084-100.138-63.71-162.812-63.71
		c-62.956,0-121.146,22.896-163.852,64.469c-42.257,41.138-65.529,96.516-65.529,155.931v1.489
		c0,59.336,23.11,114.451,65.073,155.191c42.316,41.083,100.137,63.708,162.812,63.708c62.956,0,121.146-22.895,163.852-64.465
		c42.258-41.136,65.53-96.511,65.53-155.924v-1.5C1585.733,297.331,1562.623,242.218,1520.659,201.477z M1562.733,358.166
		c0,110.686-90.653,197.389-206.382,197.389c-116.804,0-204.885-84.219-204.885-195.899v-1.489
		c0-110.691,90.653-197.399,206.381-197.399c116.804,0,204.886,84.219,204.886,195.899V358.166z"/>
	<path style="fill:#363636;" d="M1843.796,145.255h-82.841V54.178c0-6.352-5.148-11.5-11.5-11.5h-113.808
		c-6.352,0-11.5,5.148-11.5,11.5v91.081h-36.418c-6.352,0-11.5,5.148-11.5,11.5v97.33c0,6.352,5.148,11.5,11.5,11.5h36.418v178.678
		c0,47.776,11.802,81.67,36.079,103.618c21.157,19.128,51.324,28.426,92.225,28.426c36.779,0,67.193-7.888,95.716-24.822
		c3.49-2.072,5.629-5.83,5.629-9.889v-91.349c0-4.063-2.144-7.824-5.64-9.895c-3.496-2.071-7.825-2.142-11.388-0.19
		c-15.31,8.392-32.61,12.819-50.118,12.819c-0.169,0-0.338,0-0.506-0.001c-18.598,0-25.189-7.179-25.189-27.433V265.589h82.841
		c6.352,0,11.5-5.148,11.5-11.5v-97.334C1855.296,150.403,1850.147,145.255,1843.796,145.255z M1832.296,242.589h-82.841
		c-6.352,0-11.5,5.148-11.5,11.5v171.463c0,41.683,26.206,50.433,48.134,50.433c15.242,0.035,30.438-2.626,44.707-7.895V534.9
		c-23.233,12.54-48.313,18.41-78.345,18.41c-73.811,0-105.304-32.611-105.304-109.044V254.089c0-6.352-5.148-11.5-11.5-11.5h-36.418
		v-74.33h36.418c6.352,0,11.5-5.148,11.5-11.5V65.678h90.808v91.077c0,6.352,5.148,11.5,11.5,11.5h82.841V242.589z"/>
	<path style="fill:#363636;" d="M2010.271,0h-113.808c-6.352,0-11.5,5.148-11.5,11.5v546.57c0,6.352,5.148,11.5,11.5,11.5h113.808
		c6.352,0,11.5-5.148,11.5-11.5V11.5C2021.771,5.148,2016.622,0,2010.271,0z M1998.771,546.57h-90.808V23h90.808V546.57z"/>
	<path style="fill:#363636;" d="M2191.199,0h-119.792c-6.352,0-11.5,5.148-11.5,11.5v101.077c0,6.352,5.148,11.5,11.5,11.5h119.792
		c6.352,0,11.5-5.148,11.5-11.5V11.5C2202.699,5.148,2197.551,0,2191.199,0z M2179.699,101.077h-96.792V23h96.792V101.077z"/>
	<path style="fill:#363636;" d="M2188.211,145.255h-113.804c-6.352,0-11.5,5.148-11.5,11.5l-0.004,401.315
		c0,3.05,1.212,5.975,3.368,8.132c2.156,2.156,5.082,3.368,8.132,3.368h113.808c6.352,0,11.5-5.148,11.5-11.5V156.755
		C2199.711,150.403,2194.563,145.255,2188.211,145.255z M2176.711,546.57h-90.808l0.004-378.315h90.804V546.57z"/>
	<path style="fill:#363636;" d="M2591.81,181.512c-25.912-28.618-63.587-43.745-108.95-43.745c-49,0-82.063,21.048-106.049,45.17
		v-26.182c0-6.352-5.148-11.5-11.5-11.5h-113.807c-6.352,0-11.5,5.148-11.5,11.5L2240,558.07c0,3.05,1.212,5.975,3.368,8.132
		c2.156,2.156,5.082,3.368,8.132,3.368h113.811c6.352,0,11.5-5.148,11.5-11.5V334.203c0-31.984,10.345-70.111,59.626-70.111
		c38.078,0,57.386,23.589,57.386,70.111V558.07c0,6.352,5.148,11.5,11.5,11.5h113.807c6.352,0,11.5-5.148,11.5-11.5V298.267
		C2630.629,249.934,2617.205,209.561,2591.81,181.512z M2607.629,546.57h-90.807V334.203c0-59.174-29.3-93.111-80.386-93.111
		c-51.737,0-82.626,34.808-82.626,93.111V546.57H2263l0.004-378.315h90.807v45.4c0,4.913,3.121,9.283,7.768,10.877
		c4.646,1.598,9.795,0.061,12.81-3.816c23.06-29.645,53.979-59.949,108.472-59.949c79.293,0,124.77,50.117,124.77,137.5V546.57z"/>
	<path style="fill:#363636;" d="M546.138,29.303c-1.779-4.3-5.974-7.104-10.627-7.104H274.593H11.5c-6.352,0-11.5,5.148-11.5,11.5
		v276.675v247.337c0,0.038,0.004,0.075,0.004,0.113c0.001,0.165,0.01,0.331,0.019,0.496c0.006,0.12,0.011,0.24,0.021,0.359
		c0.014,0.158,0.034,0.316,0.054,0.474c0.016,0.126,0.03,0.252,0.05,0.376c0.023,0.147,0.054,0.294,0.083,0.441
		c0.026,0.133,0.052,0.267,0.083,0.398c0.032,0.135,0.071,0.27,0.108,0.405c0.039,0.141,0.077,0.282,0.121,0.421
		c0.04,0.125,0.085,0.249,0.13,0.373c0.052,0.145,0.104,0.291,0.161,0.434c0.015,0.038,0.026,0.076,0.042,0.113
		c0.035,0.084,0.077,0.164,0.113,0.247c0.062,0.139,0.124,0.278,0.19,0.415c0.061,0.124,0.126,0.245,0.19,0.366
		c0.067,0.126,0.135,0.251,0.207,0.374c0.073,0.124,0.149,0.246,0.227,0.367c0.073,0.115,0.146,0.229,0.223,0.341
		c0.083,0.121,0.169,0.238,0.256,0.355c0.081,0.108,0.162,0.216,0.247,0.321c0.089,0.112,0.182,0.221,0.276,0.329
		c0.09,0.105,0.182,0.208,0.276,0.31c0.094,0.101,0.19,0.199,0.288,0.297c0.102,0.102,0.205,0.203,0.311,0.302
		c0.097,0.089,0.195,0.176,0.295,0.262c0.113,0.098,0.228,0.195,0.345,0.289c0.1,0.08,0.202,0.157,0.305,0.233
		c0.122,0.091,0.245,0.181,0.371,0.268c0.106,0.073,0.215,0.142,0.324,0.212c0.127,0.081,0.254,0.161,0.385,0.237
		c0.117,0.068,0.235,0.132,0.354,0.196c0.127,0.068,0.254,0.137,0.385,0.2c0.13,0.064,0.263,0.122,0.395,0.181
		c0.088,0.039,0.173,0.084,0.263,0.121c0.031,0.013,0.064,0.021,0.095,0.034c0.315,0.127,0.635,0.244,0.962,0.343
		c0.041,0.012,0.082,0.021,0.123,0.033c0.285,0.083,0.573,0.154,0.865,0.215c0.104,0.022,0.208,0.04,0.312,0.059
		c0.24,0.043,0.483,0.079,0.727,0.107c0.101,0.012,0.201,0.025,0.302,0.034c0.33,0.029,0.662,0.048,0.997,0.048
		c0.003,0,0.007,0,0.01,0c0,0,0.001,0,0.001,0s0.001,0,0.001,0h524.011c4.644,0,8.832-2.793,10.617-7.08
		c1.784-4.287,0.815-9.228-2.456-12.522L290.453,294.572L543.635,41.838C546.929,38.551,547.916,33.603,546.138,29.303z M23,45.199
		h224.788L23,281.591V45.199z M507.887,546.211H39.229l160.214-160.497l74.746-74.878L507.887,546.211z M266.072,286.411L23,529.913
		V314.969l256.527-269.77h228.186L266.072,286.411z"/>
</g>
</svg>
