<?xml version="1.0" encoding="iso-8859-1"?>
<!-- Generator: Adobe Illustrator 21.1.0, SVG Export Plug-In . SVG Version: 6.00 Build 0)  -->
<svg version="1.1" id="svg4525" xmlns="http://www.w3.org/2000/svg" xmlns:xlink="http://www.w3.org/1999/xlink" x="0px" y="0px"
	 viewBox="0 0 1374.392 1012.875" style="enable-background:new 0 0 1374.392 1012.875;" xml:space="preserve">
<g>
	<path style="fill:#363636;" d="M373.763,42.956c-3.076-5.342-11.164-19.398-28.251-15.252c-12.586,1.072-25.093,2.163-37.545,3.25
		c-33.633,2.935-65.401,5.706-97.911,8.065c-6.306,0.458-14.016,1.803-17.701,8.193c-4.118,7.143-0.026,15.565,2.173,20.091
		c61.074,125.684,123.489,254.688,185.514,383.434c3.6,7.473,8.812,14.692,19.983,14.692c2.458,0,5.205-0.35,8.285-1.123
		c47.024-11.803,97.864-23.915,155.425-37.028c7.122-1.623,14.817-4.239,17.898-11.338c3.098-7.138-0.235-14.533-3.904-20.826
		C512.701,283.58,445.983,168.387,373.763,42.956z M559.959,410.703c-57.684,13.141-108.642,25.281-155.788,37.115
		c-5.67,1.422-6.081,1.213-8.814-4.46C333.325,314.596,270.901,185.574,209.819,59.874c-0.75-1.542-1.25-2.698-1.583-3.557
		c0.764-0.126,1.762-0.249,3.051-0.343c32.633-2.368,65.944-5.274,98.158-8.085c12.672-1.105,25.401-2.217,38.213-3.307
		c0.509-0.044,1.014-0.133,1.508-0.268c2.783-0.758,4.982-1.354,9.864,7.123c72.235,125.459,138.969,240.677,204.013,352.238
		c1.578,2.706,2.266,4.359,2.566,5.293C564.719,409.382,563.033,410.002,559.959,410.703z"/>
	<path style="fill:#363636;" d="M682.02,533.622c12.669,21.675,25.339,43.35,38.027,65.014c2.446,4.176,8.192,13.987,20.379,13.987
		c2.772,0,5.877-0.508,9.352-1.704c78.038-26.88,162.766-55.679,266.646-90.634c6.133-2.063,12.689-5.091,14.817-11.895
		c2.146-6.864-1.688-13.263-5.268-18.07c-25.058-33.652-50.16-68.178-74.436-101.565l-13.933-19.156l-0.688-0.957
		c-3.05-4.263-8.717-12.175-19.972-9.992l-0.66,0.106c-1,0.157-2.134,0.336-3.381,0.66c-22.046,5.728-44.092,11.458-66.137,17.189
		c-66.583,17.311-135.432,35.21-203.173,52.702c-2.201,0.568-8.898,2.297-11.476,8.498c-2.564,6.169,0.879,12.041,2.729,15.194
		C650.594,479.86,666.307,506.741,682.02,533.622z M851.043,393.057c22.044-5.73,44.089-11.462,66.133-17.188
		c0.439-0.114,1.076-0.215,1.75-0.321c0.313-0.049,0.625-0.098,0.935-0.15c0.094-0.016,0.187-0.033,0.279-0.052
		c0.157-0.031,0.273-0.047,0.354-0.054c0.637,0.503,1.805,2.135,2.596,3.241c0.255,0.355,0.511,0.713,0.769,1.067l13.928,19.15
		c24.305,33.427,49.437,67.991,74.552,101.721c0.791,1.063,1.34,1.896,1.718,2.531c-0.706,0.318-1.691,0.712-3.055,1.171
		c-103.918,34.967-188.684,63.778-266.76,90.671c-4.671,1.61-5.902,1.386-9.525-4.801c-12.686-21.659-25.353-43.33-38.02-65
		c-15.559-26.617-31.116-53.233-46.71-79.831C717.049,427.893,785.157,410.186,851.043,393.057z"/>
	<path style="fill:#363636;" d="M935.921,337.201c1.543,0,3.208-0.204,5.004-0.662c17.149-4.374,34.606-8.769,51.489-13.019
		c16.803-4.23,34.179-8.604,51.26-12.961c0.265-0.067,0.541-0.128,0.823-0.19c13.032-2.915,12.443-12.532,11.585-16.531
		c-0.23-1.076-0.668-2.097-1.287-3.005c-0.199-0.292-0.408-0.613-0.629-0.952c-0.646-0.991-1.45-2.226-2.422-3.464
		c-7.597-9.679-15.201-19.353-22.806-29.025c-17.536-22.305-35.669-45.369-53.391-68.128c-8.582-11.023-20.36-8.894-25.389-7.983
		c-8.531,1.542-17.058,3.104-25.585,4.666c-22.96,4.206-46.702,8.555-70.083,12.416c-3.132,0.518-11.453,1.892-14.314,8.907
		c-2.818,6.91,1.891,13.332,4.42,16.782c21.586,29.436,44.653,61.066,74.831,102.611
		C922.227,330.518,927.082,337.201,935.921,337.201z M927.636,202.668c8.515-1.56,17.029-3.119,25.547-4.659
		c6.055-1.092,7.377-0.322,8.951,1.699c17.746,22.79,35.892,45.87,53.439,68.19c7.046,8.963,14.092,17.926,21.132,26.894
		c-16.164,4.116-32.559,8.244-48.442,12.242c-16.895,4.254-34.365,8.651-51.539,13.032c-0.333,0.085-0.55,0.111-0.669,0.119
		c-0.682-0.495-1.993-2.301-2.913-3.566c-29.861-41.111-52.785-72.547-74.207-101.761
		C881.918,211.043,905.152,206.787,927.636,202.668z"/>
	<path style="fill:#363636;" d="M599.266,469.697c29.193,54.128,59.482,107.201,87.865,156.492
		c11.041,19.173,18.799,29.682,30.562,33.911c3.66,1.315,7.415,1.936,11.541,1.936c8.813,0,19.315-2.831,34.189-7.758
		c1.609-0.532,3.164-1.103,4.667-1.653c0.692-0.254,1.385-0.508,2.082-0.757c26.53-9.508,53.063-19.008,79.595-28.509
		c64.641-23.146,131.482-47.079,197.189-70.726c21.639-7.788,32.5-11.697,35.547-21.727c3.052-10.048-3.851-19.405-17.603-38.049
		c-23.297-31.583-46.302-62.486-70.656-95.203c-7.978-10.717-16.012-21.509-24.114-32.404c4.52-1.308,8.616-2.481,12.79-3.604
		c20.12-5.415,40.248-10.804,60.376-16.192c13.482-3.609,26.965-7.219,40.445-10.836c5.249-1.408,15.02-4.029,17.83-12.674
		c2.739-8.426-3.385-15.998-5.397-18.486c-12.638-15.629-25.258-31.271-37.879-46.915c-23.439-29.054-47.678-59.097-71.64-88.555
		v-0.001c-9.361-11.508-20.768-16.205-33.91-13.958c-18.008,3.083-36.346,6.121-54.079,9.059
		c-25.602,4.242-52.076,8.628-78.086,13.235c-9.417,1.669-19.758,4.163-23.285,12.697c-3.519,8.514,2.063,17.604,7.57,25.456
		l8.769,12.506c23.025,32.844,46.834,66.806,70.717,99.907c0.892,1.236,2.25,3.119,3.26,4.697c-1.09,0.372-2.63,0.818-4.786,1.312
		c-81.036,18.509-158.872,37.527-252.206,60.468c-8.417,2.067-10.691,1.09-15.21-6.551c-27.685-46.797-56.053-94.234-83.487-140.111
		c-41.656-69.66-84.731-141.691-126.306-212.971C389.9,6.789,370.748-2.787,339.518,0.682c-40.966,4.55-82.866,7.659-123.386,10.667
		c-12.545,0.931-25.09,1.862-37.629,2.835c-12.616,0.979-25.099,3.195-30.961,12.707c-5.897,9.568-2.215,21.861,2.642,33.721
		c1.013,2.472,2.125,4.83,3.2,7.111c0.426,0.904,0.853,1.809,1.27,2.716c16.933,36.783,33.868,73.565,50.804,110.348
		c44.156,95.902,89.815,195.069,134.663,292.629c16.425,35.731,32.817,43.728,70.161,34.236l11.192-2.846
		c52.744-13.405,107.284-27.268,160.673-41.982C592.514,459.966,594.434,460.736,599.266,469.697z M417.285,488.331l-11.193,2.845
		c-29.445,7.487-37.472,3.538-50.526-24.86c-44.85-97.564-90.51-196.733-134.667-292.638
		c-16.936-36.782-33.871-73.563-50.804-110.348c-0.439-0.954-0.887-1.904-1.335-2.854c-1.028-2.183-2-4.243-2.846-6.308
		c-5.482-13.386-4.554-17.297-3.9-18.357c0.641-1.041,3.66-3.58,17.803-4.677c12.521-0.972,25.046-1.901,37.573-2.831
		c40.672-3.019,82.73-6.14,124.004-10.724c24.351-2.71,37.314,3.764,49.537,24.719c41.622,71.36,84.721,143.433,126.4,213.131
		c27.424,45.86,55.782,93.28,83.445,140.042c8.339,14.1,18.16,18.271,33.9,14.404c93.257-22.921,171.024-41.923,251.934-60.404
		c7.999-1.826,15.767-4.488,18.424-11.534c2.832-7.508-2.114-14.363-6.896-20.993c-23.815-33.009-47.591-66.922-70.584-99.719
		l-8.771-12.51c-3.524-5.024-4.828-7.698-5.309-9.015c1.267-0.597,4.065-1.573,10.072-2.637c25.917-4.592,52.343-8.97,77.899-13.204
		c17.756-2.941,36.117-5.983,54.169-9.074c6.919-1.181,12.43,1.261,17.854,7.931v-0.001c23.94,29.433,48.167,59.462,71.597,88.503
		c12.624,15.647,25.249,31.296,37.891,46.93c0.783,0.969,1.307,1.734,1.653,2.313c-0.974,0.432-2.594,1.021-5.272,1.738
		c-13.478,3.617-26.957,7.226-40.437,10.835c-20.135,5.39-40.269,10.78-60.397,16.197c-5.237,1.41-10.518,2.941-16.107,4.563
		c-2.763,0.802-5.652,1.64-8.734,2.521c-2.684,0.767-4.818,2.802-5.714,5.445c-0.896,2.643-0.436,5.557,1.229,7.797
		c10.591,14.251,21.059,28.313,31.433,42.249c24.344,32.702,47.337,63.591,70.612,95.144c6.757,9.16,14.385,19.501,14.929,22.988
		c-2.379,2.576-14.348,6.884-24.949,10.699c-65.693,23.642-132.529,47.573-197.163,70.717
		c-26.534,9.501-53.068,19.002-79.598,28.509c-0.733,0.264-1.466,0.531-2.198,0.8c-1.444,0.529-2.809,1.029-4.164,1.478
		c-17.288,5.727-27.927,8.376-34.634,5.962c-6.729-2.419-13.008-11.511-21.58-26.396c-28.322-49.184-58.541-102.133-87.635-156.079
		c-6.941-12.869-14.65-17.23-23.915-17.23c-3.929,0-8.139,0.786-12.686,2.039C524.404,461.104,469.948,474.945,417.285,488.331z"/>
	<path style="fill:#363636;" d="M1137.121,806.876c-2.035-0.188-4.035-0.282-5.999-0.282c-24.438,0.001-43.145,14.426-50.134,39.134
		c-6.477,22.897-6.252,23.206,16.996,23.224c2.813,0.002,5.624,0.003,8.437,0.003c6.472,0,12.946-0.005,19.418-0.012
		c8.766-0.007,17.531-0.012,26.297-0.012c4.581,0,9.164,0.001,13.744,0.004c0.021,0,0.041,0,0.062,0
		c4.795,0,8.546-0.381,10.117-6.611C1182.646,836.22,1164.042,809.369,1137.121,806.876z M1152.136,851.931
		c-8.771,0-17.54,0.005-26.311,0.012c-6.472,0.007-12.939,0.012-19.405,0.012c-2.808,0-5.615-0.001-8.423-0.003
		c-0.353,0-0.722,0-1.102-0.001c0.156-0.556,0.308-1.092,0.451-1.596c4.881-17.257,16.877-26.761,33.776-26.761
		c1.443,0,2.932,0.07,4.431,0.209c7.757,0.718,14.893,4.929,19.578,11.553c3.512,4.965,5.318,10.773,5.252,16.576
		C1157.636,851.931,1154.886,851.931,1152.136,851.931z"/>
	<path style="fill:#363636;" d="M1215.317,800.062c-8.409-13.866-20.317-24.584-35.395-31.855
		c-14.974-7.221-30.874-10.883-47.256-10.883c-47.183,0-88.647,30.374-103.179,75.581c-7.884,24.526-9.908,50.608-6.19,79.737
		c3.855,30.201,14.262,72.384,59.932,89.964c17.353,6.68,35.217,10.066,53.097,10.066c20.542,0,41.235-4.456,61.505-13.245
		c0.341-0.144,1.361-0.48,2.106-0.726c5.527-1.821,17.029-5.612,20.95-17.375c1.793-5.379,2.388-14.004-4.963-24.546
		c-0.484-0.694-1.359-2.506-2.061-3.961c-3.233-6.695-9.959-20.628-26.079-20.63c-0.001,0-0.003,0-0.005,0
		c-6.96,0-13.925,2.842-21.291,8.687c-0.8,0.5-3.245,1.31-4.871,1.849l-1.072,0.357c-8.025,2.688-15.795,4.05-23.096,4.05
		c-21.662,0-36.999-12.117-41.905-32.715c4.75,0.175,9.864,0.259,15.648,0.259c5.51,0,11.057-0.075,16.422-0.147
		c5.236-0.071,10.65-0.144,15.914-0.144l24.398-0.001c24.972,0,44.697,0,56.19-13.192c11.584-13.297,8.82-33.289,5.32-58.601
		C1227.118,825.816,1222.499,811.906,1215.317,800.062z M1167.928,897.38c-8.133,0-16.266,0-24.4,0.001
		c-10.773,0.001-21.561,0.292-32.334,0.292c-7.236,0-14.467-0.131-21.676-0.57c-0.735-0.045-1.429-0.067-2.084-0.067
		c-10.37,0-11.003,5.539-9.716,14.512c4.733,32.993,28.357,52.581,59.733,52.581c8.952,0,18.539-1.596,28.494-4.93
		c3.828-1.282,7.99-2.523,11.056-4.964c4.54-3.614,8.016-5.049,10.782-5.048c7.71,0.001,9.9,11.151,14.199,17.315
		c9.254,13.272-4.771,14.664-10.912,17.327c-18.007,7.808-36.337,11.842-54.742,11.842c-15.664,0-31.382-2.924-46.99-8.932
		c-34.292-13.2-44.966-43.273-49.176-76.251c-3.107-24.338-2.101-48.699,5.511-72.382c12.686-39.467,48.696-63.784,86.994-63.784
		c13.308,0,26.895,2.937,39.872,9.195c25.578,12.335,36.385,34.819,40.06,61.398C1219.523,894.996,1217.316,897.38,1167.928,897.38z
		"/>
	<path style="fill:#363636;" d="M320.904,897.885c-4.057-0.315-8.112-0.497-12.146-0.497c-16.13,0-31.935,2.903-46.278,11.765
		c-10.6,6.549-16.189,16.474-14.675,29.241c1.409,11.88,7.958,20.395,19.28,24.44c5.275,1.885,10.571,2.77,15.721,2.77
		c24.065,0,44.884-19.341,44.887-46.347C328.933,910.516,330.099,898.599,320.904,897.885z M310.861,916.869
		c-0.112,0.79-0.168,1.588-0.168,2.386c-0.002,18.371-14.18,29.349-27.887,29.349c-3.333,0-6.698-0.598-10-1.779
		c-5.104-1.824-7.456-4.847-8.119-10.435c-0.495-4.171-0.022-8.605,6.728-12.776c10.189-6.295,22.055-9.227,37.343-9.227
		c0.801,0,1.609,0.008,2.425,0.024C311.096,915.144,310.99,915.96,310.861,916.869z"/>
	<path style="fill:#363636;" d="M384.407,947.075c-1.846-0.357-2.418-0.801-2.423-0.806c-0.256-0.317-1.197-2.001-1.549-9.401
		c-0.556-11.692-0.434-23.322-0.305-35.636c0.054-5.157,0.11-10.49,0.11-15.776c0-1.38-0.164-2.721-0.475-4.005
		c0.019-4.114,0.062-8.263,0.104-12.307c0.13-12.515,0.264-25.456-0.297-38.383c-1.112-25.647-12.675-45.965-33.439-58.756
		c-15.058-9.276-33.83-14.179-54.285-14.179c-29.805,0-58.446,10.642-76.673,28.477c-0.322,0.261-1.06,0.797-1.61,1.197
		c-4.58,3.33-14.111,10.259-13.855,22.318c0.112,5.294,2.22,12.899,11.545,19.28c0.561,0.582,1.649,1.957,2.391,2.895
		c4.514,5.705,12.069,15.253,25.193,15.253c8.78,0,16.824-4.321,24.591-13.208c5.433-6.218,14.548-9.93,24.381-9.93
		c4.911,0,9.629,0.96,13.646,2.777c7.334,3.317,8.53,8.138,9.397,25.54c0.006,0.117,0.012,0.234,0.017,0.35
		c-1.08-0.016-2.154-0.023-3.212-0.023c-31.947,0-58.347,7.054-80.707,21.567c-25.535,16.574-37.36,42.67-33.297,73.481
		c2.086,15.815,7.975,29.181,17.504,39.727c9.569,10.591,22.379,17.854,38.072,21.589c8.806,2.095,17.472,3.158,25.757,3.158
		c20.142,0,38.307-6.09,54.093-18.119c7.652,9.136,20.5,17.882,41.645,17.882c2.68,0,5.491-0.142,8.353-0.423
		c7.545-0.74,13.618-3.637,18.05-8.612c4.618-5.184,6.283-11.312,7.218-16.072c0.11-0.563,0.311-1.384,0.524-2.254
		c1.397-5.712,3.998-16.343-2.184-25.992C399.991,954.48,394.634,949.054,384.407,947.075z M387.664,983.655
		c-1.443,7.352-3.753,10.404-10.245,11.04c-2.261,0.222-4.496,0.342-6.693,0.342c-12.74,0-24.172-4.041-31.467-15.743
		c-2.968-4.76-5.144-7.05-7.763-7.05c-2.203,0-4.721,1.621-8.284,4.755c-14.362,12.627-30.707,18.276-48.224,18.276
		c-7.099,0-14.393-0.928-21.821-2.696c-24.765-5.893-39.4-22.3-42.657-47c-3.105-23.545,5.177-43.679,25.698-56.999
		c21.74-14.111,46.251-18.827,71.451-18.827c1.687,0,3.381,0.021,5.074,0.062c0.459,0.011,0.904,0.017,1.339,0.017
		c11.318,0,14.521-3.843,13.901-15.521c-0.915-17.223-0.748-34.429-19.509-42.914c-6.348-2.872-13.472-4.288-20.652-4.288
		c-13.94,0-28.092,5.341-37.182,15.743c-4.718,5.399-8.541,7.395-11.79,7.395c-7.745,0-12.223-11.351-17.74-15.014
		c-11.058-7.342,1.75-12.63,5.84-16.656c15.793-15.542,40.689-23.751,64.91-23.751c16.459,0,32.61,3.793,45.369,11.653
		c16.705,10.291,24.549,26.042,25.372,45.019c0.779,17.955,0.167,35.969,0.167,53.958c0.161,0,0.323,0,0.484,0
		c0,17.41-0.612,34.849,0.214,52.22c0.556,11.677,2.558,23.155,17.724,26.089C393.693,966.187,389.016,976.766,387.664,983.655z"/>
	<path style="fill:#363636;" d="M773.367,947.636c-4.13-0.836-4.582-1.865-4.753-2.252c-1.154-2.622-1.249-8.403-1.326-13.049
		c-0.276-16.651-0.259-33.661-0.244-50.11c0.015-15.498,0.03-31.523-0.197-47.346c-0.409-28.565-12.683-50.653-35.495-63.874
		c-14.925-8.65-33.175-13.222-52.778-13.222c-29.559,0-58.044,10.609-76.26,28.393c-0.329,0.263-1.069,0.795-1.622,1.193
		c-4.596,3.304-14.16,10.18-13.992,22.223c0.074,5.282,2.115,12.888,11.347,19.322c0.558,0.581,1.652,1.972,2.397,2.92
		c4.526,5.756,12.102,15.39,25.308,15.39c8.726,0,16.733-4.256,24.478-13.012c5.59-6.319,14.786-10.092,24.597-10.092
		c4.847,0,9.539,0.95,13.566,2.746c7.43,3.314,8.632,8.185,9.472,25.788c0.002,0.041,0.004,0.081,0.006,0.122
		c-1.146-0.018-2.286-0.027-3.41-0.027c-31.702,0-57.986,7.019-80.353,21.458c-25.581,16.514-37.471,42.583-33.481,73.403
		c2.049,15.822,7.897,29.202,17.381,39.769c9.553,10.643,22.359,17.94,38.062,21.688c8.56,2.043,17.01,3.079,25.114,3.079
		c19.711,0,38.144-6.067,55.009-18.071c13.175,14.441,29.3,17.98,41.935,17.98c2.558,0,5.217-0.143,7.903-0.423
		c20.343-2.126,24.04-18.688,25.255-24.131c0.136-0.61,0.292-1.25,0.451-1.91c1.573-6.512,4.205-17.41-1.968-27.106
		C787.261,954.543,782.378,949.461,773.367,947.636z M774.697,983.796c-1.645,7.368-3.979,10.252-10.431,10.927
		c-2.104,0.22-4.148,0.331-6.136,0.331c-17.07,0-29.867-8.204-38.356-26.246c-17.876,17.783-37.232,26.337-58.588,26.337
		c-6.843,0-13.897-0.879-21.167-2.615c-24.778-5.915-39.333-22.406-42.531-47.104c-3.049-23.552,5.293-43.672,25.842-56.938
		c21.665-13.986,46.054-18.741,71.133-18.74c1.803,0,3.613,0.025,5.422,0.072c0.465,0.012,0.916,0.018,1.355,0.018
		c11.482,0,14.292-4.235,13.72-15.68c-0.863-17.245-0.819-34.424-19.64-42.819c-6.34-2.828-13.393-4.221-20.491-4.221
		c-13.956,0-28.09,5.383-37.33,15.829c-4.695,5.308-8.506,7.276-11.745,7.276c-7.787,0-12.267-11.381-17.757-15.1
		c-10.937-7.409,1.968-12.631,6.057-16.648c15.78-15.501,40.423-23.692,64.523-23.692c15.885,0,31.535,3.559,44.253,10.931
		c18.951,10.983,26.721,28.444,27.021,49.409c0.465,32.493-0.097,65.002,0.441,97.494c0.23,13.937,0.571,27.807,19.702,31.682
		C779.95,966.315,776.266,976.766,774.697,983.796z"/>
	<path style="fill:#363636;" d="M707.802,897.86c-4.214-0.389-8.423-0.605-12.614-0.605c-15.962,0-31.611,3.15-45.797,11.955
		c-10.589,6.573-16.138,16.53-14.577,29.287c1.452,11.869,8.023,20.361,19.369,24.367c5.255,1.856,10.522,2.728,15.642,2.728
		c24.106,0,44.864-19.35,44.867-46.437C715.266,911.891,716.266,898.641,707.802,897.86z M697.745,917.815
		c-0.035,0.445-0.053,0.891-0.053,1.338c-0.002,18.427-14.17,29.439-27.867,29.439c-3.321,0-6.679-0.591-9.981-1.757
		c-5.109-1.804-7.472-4.818-8.155-10.402c-0.51-4.17-0.056-8.605,6.668-12.778c10.189-6.324,22.237-9.399,36.832-9.399
		c0.917,0,1.849,0.012,2.794,0.037C697.911,915.706,697.807,917.022,697.745,917.815z"/>
	<path style="fill:#363636;" d="M1002.652,764.399c-5.356-2.98-11.525-4.491-18.338-4.491c-17.844,0-39.809,11.285-45.68,30.169
		c-3.088,9.933-6.269,20.043-9.345,29.82c-7.382,23.464-14.906,47.377-22.086,71.798c-4.656-15.568-9.566-30.948-14.396-46.075
		c-3.891-12.19-7.916-24.794-11.705-37.187c-4.745-15.517-7.88-25.768-13.727-33.431c-9.139-11.979-21.941-13.515-32.073-13.515
		c-6.367,0-13.96,0.632-23.574,1.432l-0.12,0.01c-5.176,0.431-9.871,3.204-12.746,7.529c-2.876,4.325-3.617,9.727-2.012,14.667
		c0.576,1.774,1.137,3.524,1.692,5.256c1.184,3.694,2.408,7.514,3.696,11.284c7.606,22.264,15.222,44.524,22.837,66.785
		c11.115,32.489,22.608,66.085,33.881,99.134c4.622,13.55,8.077,22.957,13.772,29.986c9.181,11.333,21.329,12.644,29.668,12.644
		c6.108,0,13.393-0.791,20.945-1.671c4.617-0.538,18.668-2.176,24.138-18.934c13.432-41.148,27.229-82.954,40.571-123.383
		c7.875-23.864,16.018-48.54,24.002-72.823c0.062-0.186,0.135-0.376,0.206-0.569c0.801-2.173,2.291-6.218,1.876-11.281
		C1013.548,774.384,1009.362,768.132,1002.652,764.399z M995.903,788.091c-21.508,65.42-43.213,130.776-64.584,196.241
		c-1.81,5.544-4.783,6.721-9.947,7.323c-7.911,0.922-14.055,1.557-18.975,1.557c-15.804,0-18.969-6.547-27.35-31.118
		c-18.87-55.322-37.824-110.615-56.721-165.927c-1.818-5.321-3.487-10.693-5.308-16.298c9.388-0.781,16.599-1.383,22.284-1.383
		c18.767,0.001,20.873,6.565,29.544,34.918c13.366,43.708,28.61,86.858,39.165,131.409c0.496,2.096,2.024,3.947,4.075,7.797
		c13.758-54.476,30.727-105.842,46.783-157.486c3.245-10.439,17.431-18.216,29.446-18.216c3.688,0,7.172,0.733,10.072,2.346
		C998.911,781.771,996.865,785.165,995.903,788.091z"/>
	<path style="fill:#363636;" d="M184.288,975.225c-0.003-0.84,0.035-1.829,0.075-2.877c0.228-5.99,0.609-16.016-6.985-23.905
		c-5.116-5.314-12.343-8.009-21.48-8.009c-0.772,0-1.575,0.019-2.387,0.056c-6.782,0.31-14.144,0.454-23.169,0.454
		c-5.684,0-11.506-0.056-17.137-0.111c-5.712-0.055-11.619-0.113-17.468-0.113c-8.948,0-16.375,0.136-23.286,0.426
		c0-0.136,0.001-0.276,0.003-0.42c0.279-30.926,0.252-62.329,0.225-92.699c-0.033-37.566-0.067-76.411,0.481-114.543
		c0.149-10.382-2.448-18.138-7.939-23.709c-4.932-5.004-11.62-7.541-19.877-7.542c-2.173,0-4.248,0.157-6.079,0.296
		c-0.922,0.07-1.793,0.136-2.588,0.176c-0.092,0.005-0.184,0.006-0.277,0.006c-0.805,0-1.986-0.098-3.236-0.202
		c-1.78-0.148-3.798-0.316-5.976-0.316c-8.081,0-14.645,2.542-19.511,7.556c-5.46,5.626-7.962,13.425-7.649,23.843
		c0.855,28.512,0.68,57.689,0.511,85.905c-0.07,11.641-0.142,23.678-0.141,35.541c0,10.956,0.019,21.912,0.037,32.868
		c0.05,29.73,0.102,60.473-0.228,90.651c-0.075,6.886,0.706,15.667,7.469,22.504c7.568,7.651,17.973,7.651,21.393,7.651
		c0.26,0,0.522-0.002,0.789-0.005c19.983-0.268,43.544-0.542,66.779-0.542c21.172,0,40.144,0.221,57.998,0.676
		c0.467,0.012,0.923,0.018,1.367,0.018c9.279,0,16.559-2.689,21.637-7.992c7.396-7.723,6.981-17.303,6.734-23.026
		C184.33,976.887,184.291,975.988,184.288,975.225z M156.001,991.856c-0.303,0-0.615-0.004-0.934-0.012
		c-19.472-0.496-38.946-0.682-58.431-0.682c-22.333,0-44.678,0.244-67.007,0.543c-0.19,0.003-0.377,0.004-0.561,0.004
		c-9.805,0-11.965-3.617-11.863-12.969c0.45-41.231,0.193-82.47,0.191-123.706c-0.002-40.655,0.841-81.336-0.378-121.955
		c-0.357-11.886,4.352-13.889,10.168-13.889c2.958,0,6.204,0.519,9.213,0.519c0.381,0,0.757-0.008,1.129-0.027
		c2.679-0.135,5.356-0.45,7.813-0.45c6.2,0,10.992,2.01,10.819,14.006c-0.994,69.1-0.083,138.225-0.707,207.333
		c-0.113,12.488,2.396,17.642,14.718,17.642c0.717,0,1.468-0.017,2.253-0.052c7.762-0.341,15.535-0.443,23.312-0.443
		c11.533,0,23.072,0.224,34.605,0.224c7.987,0,15.973-0.107,23.944-0.471c0.561-0.026,1.097-0.038,1.612-0.038
		c13.943,0,11.363,9.212,11.391,17.847C167.315,983.518,169.811,991.856,156.001,991.856z"/>
	<path style="fill:#363636;" d="M1373.794,974.474c-0.123-0.947-0.288-2.205-0.313-2.833c1.752-9.133-1.162-15.36-3.948-18.997
		c-4.277-5.583-10.775-8.666-19.311-9.162c-5.263-0.306-9.098-0.659-11.463-1.055c-0.39-3.624-0.394-9.668-0.396-11.994
		c-0.012-16.784-0.047-33.844-0.082-50.341c-0.112-53.655-0.227-109.137,0.456-163.634c0.094-7.509-0.681-18.404-8.469-26.29
		c-7.509-7.604-17.408-8.629-26.1-8.629c-0.445,0-0.897,0.003-1.359,0.008c-8.03,0.094-20.164,0.236-28.761,9.299
		c-7.827,8.25-8.317,19.319-8.005,26.926c1.077,26.253,0.861,53.212,0.653,79.283c-0.087,10.873-0.177,22.115-0.173,33.204
		c0.004,12.019-0.038,24.255-0.078,36.089c-0.09,26.472-0.182,53.845,0.222,80.839c0.285,19.078,6.454,35.459,17.838,47.371
		c11.288,11.811,27.167,18.316,44.711,18.316c7.635,0,15.543-1.21,23.503-3.596c12.737-3.818,17.924-11.595,20.033-17.448
		C1375.18,985.095,1374.346,978.703,1373.794,974.474z M1347.838,992.994c-6.491,1.946-12.738,2.88-18.622,2.88
		c-26.177,0-45.095-18.517-45.551-48.942c-0.582-38.885-0.13-77.786-0.142-116.679c-0.012-37.733,1.051-75.509-0.494-113.178
		c-0.697-16.983,6.117-18.367,19.979-18.529c0.394-0.005,0.78-0.007,1.16-0.007c12.84,0,17.757,2.775,17.57,17.706
		c-0.896,71.391-0.426,142.799-0.376,214.201c0.018,26.04,1.986,28.503,27.872,30.008c6.691,0.389,8.562,3.137,7.504,8.222
		C1354.988,977.077,1363.205,988.388,1347.838,992.994z"/>
	<path style="fill:#363636;" d="M582.663,796.499c-0.259-2.151-0.264-4.302-0.016-6.221c1.211-9.37-0.685-17.046-5.633-22.815
		c-6.853-7.989-16.644-9.131-23.412-9.295c-1.068-0.026-2.143-0.039-3.192-0.039c-20.598,0-38.04,5.163-52.714,15.682
		c-4.961-8.204-13.203-12.837-23.534-12.838c-3.368,0-6.501,0.471-9.019,0.85c-1.231,0.185-2.909,0.438-3.603,0.447
		c-0.918-0.074-1.825-0.112-2.699-0.112c-9.24-0.001-14.756,4.098-17.757,7.536c-6.837,7.833-5.521,17.464-4.889,22.093
		c0.069,0.508,0.162,1.186,0.193,1.513c-0.104,22.355-0.072,45.053-0.042,67.008c0.053,38.396,0.107,78.098-0.56,117.056
		c-0.178,10.397,2.405,18.167,7.897,23.754c7.513,7.643,17.283,7.643,20.493,7.643c1.77,0,3.424-0.087,5.024-0.17
		c0.832-0.044,1.677-0.089,2.528-0.115c0.161-0.005,0.323-0.007,0.485-0.007c0.899,0,2.01,0.06,3.185,0.123
		c1.458,0.078,3.111,0.167,4.839,0.167c3.203,0,12.948,0,20.46-7.746c5.513-5.686,8.036-13.553,7.713-24.052
		c-0.88-28.599-0.7-57.87-0.526-86.176c0.071-11.505,0.144-23.401,0.146-35.124c0.001-7.622,0.832-12.511,2.54-14.947
		c1.704-2.43,6.018-4.897,13.189-7.542c5.844-2.156,11.393-3.249,16.493-3.249c2.291,0,4.508,0.226,6.59,0.672
		c3.63,0.777,6.874,1.155,9.919,1.155c10.358,0,16.524-4.501,19.873-8.277C583.87,815.314,583.657,804.772,582.663,796.499z
		 M556.761,814.748c-1.795,0-3.9-0.252-6.359-0.778c-3.342-0.716-6.737-1.049-10.15-1.049c-7.495,0-15.077,1.607-22.377,4.3
		c-20.807,7.676-26.842,16.128-26.846,38.436c-0.006,40.612-0.86,81.252,0.388,121.826c0.384,12.485-4.789,14.276-11.181,14.276
		c-2.572,0-5.341-0.29-8.024-0.29c-0.339,0-0.677,0.005-1.013,0.015c-2.427,0.075-4.814,0.278-7.025,0.278
		c-6.588,0-11.603-1.798-11.392-14.106c1.052-61.481,0.318-122.992,0.605-184.49c0.023-4.99-3.756-14.008,5.451-14.007
		c0.434,0,0.897,0.02,1.39,0.062c0.416,0.035,0.84,0.051,1.274,0.051c3.932,0,8.52-1.297,12.658-1.297
		c5.136,0,9.58,1.999,11.222,10.955c0.801,4.372,2.911,8.503,5.425,15.575c16.184-21.839,36.048-29.374,59.602-29.374
		c0.92,0,1.848,0.011,2.78,0.034c9.786,0.237,13.868,3.1,12.597,12.938c-0.442,3.424-0.415,6.995-0.002,10.427
		C566.965,808.357,565.804,814.748,556.761,814.748z"/>
</g>
</svg>
