<?xml version="1.0" encoding="utf-8"?>
<!-- Generator: Adobe Illustrator 21.1.0, SVG Export Plug-In . SVG Version: 6.00 Build 0)  -->
<svg version="1.1" id="Layer_1" xmlns="http://www.w3.org/2000/svg" xmlns:xlink="http://www.w3.org/1999/xlink" x="0px" y="0px"
	 viewBox="0 0 1370.8 2469.3" style="enable-background:new 0 0 1370.8 2469.3;" xml:space="preserve">
<style type="text/css">
	.st0{fill:#FFFFFF;}
	.st1{opacity:0.8;fill:#E3E3E3;}
</style>
<g>
	<path class="st0" d="M751.4,857.4L1105,300.8c10.8-17,37.1-6.2,32.8,13.5l-184.5,845.8c-1.8,8.3-9.1,14.2-17.6,14.2H710.4
		c-11.3,0-19.8-10.3-17.7-21.4l56.2-289.1C749.4,861.5,750.2,859.3,751.4,857.4z"/>
	<path class="st0" d="M747,1735.9l-138.8,524.3c-5.1,19.3,20.4,31.4,32.1,15.1L1367.4,1259c8.5-11.9,0-28.5-14.6-28.5h-293.1
		c-6.3,0-12.2,3.3-15.4,8.7l-295.2,492C748.1,1732.7,747.4,1734.3,747,1735.9z"/>
	<path class="st1" d="M920,592c0,0-116.8,545-116.8,545s26.2,169.6,154.8-0.1l-13.8,58.3H659.2l111-367.5L920,592z"/>
	<polygon class="st1" points="693.2,1950.6 1228.3,1230.5 1059.6,1230.5 750.2,1722.7 	"/>
	<path class="st0" d="M450.8,1458.4l-249.1,983.8c-5.9,23.3,24.8,37.4,38.6,17.8l927.4-1316.3c10.1-14.3-0.2-34.1-17.7-34.1H726.5
		c-14.1,0-24.4-13.2-21-26.9L969,27c5.9-23.6-25.6-37.4-39-17.2L3.6,1410.6c-9.7,14.6,1.2,34.1,18.7,33.5l406.9-12.7
		C443.6,1431,454.4,1444.5,450.8,1458.4z"/>
</g>
</svg>
