<?xml version="1.0" encoding="iso-8859-1"?>
<!-- Generator: Adobe Illustrator 21.1.0, SVG Export Plug-In . SVG Version: 6.00 Build 0)  -->
<svg version="1.1" id="Background_2" xmlns="http://www.w3.org/2000/svg" xmlns:xlink="http://www.w3.org/1999/xlink" x="0px"
	 y="0px" viewBox="0 0 200.667 450.587" style="enable-background:new 0 0 200.667 450.587;" xml:space="preserve">
<g>
	<path style="fill:#FFE045;" d="M193.667,436.587h-26.209V305.462h10.292c9.971,0,18.083-8.112,18.083-18.083V148.083
		c0-9.117-6.789-16.659-15.572-17.888l-18.828-26.427c-1.313-1.843-3.438-2.938-5.701-2.938h-8.114V79.598c0-3.866-3.134-7-7-7
		h-12.934l-21-35.259V7c0-3.866-3.134-7-7-7c-0.062,0-0.121,0.008-0.183,0.009C99.439,0.008,99.379,0,99.317,0c-3.866,0-7,3.134-7,7
		v30.339l-21,35.259H58.383c-3.866,0-7,3.134-7,7v21.232h-8.114c-2.264,0-4.388,1.095-5.701,2.938l-19.1,26.808
		c-7.823,1.99-13.635,9.073-13.635,17.507v139.295c0,9.971,8.112,18.083,18.084,18.083h9.541v131.125H7c-3.866,0-7,3.134-7,7
		s3.134,7,7,7h186.667c3.866,0,7-3.134,7-7S197.533,436.587,193.667,436.587z M99.5,52.638l11.889,19.96h-0.106H87.718h-0.106
		L99.5,52.638z M75.273,86.598c0.005,0,0.01,0.001,0.015,0.001c0.005,0,0.01-0.001,0.015-0.001h12.414h23.564h12.414
		c0.005,0,0.01,0.001,0.015,0.001c0.005,0,0.01-0.001,0.015-0.001h9.89v14.232h-22.335H87.718H65.383V86.598H75.273z
		 M46.876,114.831h11.507h29.335h23.564h29.335h11.507L162.931,130H36.069L46.876,114.831z M18.833,287.379V148.083
		c0-2.251,1.832-4.083,4.084-4.083h153.594c0.003,0,0.005,0,0.008,0c0.002,0,0.004,0,0.006,0h1.224c2.251,0,4.083,1.832,4.083,4.083
		v139.295c0,2.251-1.832,4.083-4.083,4.083h-17.292h-121H22.917C20.665,291.462,18.833,289.63,18.833,287.379z M153.458,305.462
		v130.473h-107V305.462H153.458z"/>
	<path style="fill:#FFE045;" d="M69.333,427.303c3.866,0,7-3.134,7-7V319.895c0-3.866-3.134-7-7-7s-7,3.134-7,7v100.408
		C62.333,424.169,65.467,427.303,69.333,427.303z"/>
	<path style="fill:#FFE045;" d="M130.833,427.303c3.866,0,7-3.134,7-7V319.895c0-3.866-3.134-7-7-7s-7,3.134-7,7v100.408
		C123.833,424.169,126.967,427.303,130.833,427.303z"/>
	<path style="fill:#FFE045;" d="M99.958,427.303c3.866,0,7-3.134,7-7V319.895c0-3.866-3.134-7-7-7s-7,3.134-7,7v100.408
		C92.958,424.169,96.092,427.303,99.958,427.303z"/>
	<path style="fill:#FFE045;" d="M100.333,277.796c33.269,0,60.334-27.065,60.334-60.333s-27.065-60.333-60.334-60.333
		C67.065,157.129,40,184.194,40,217.462S67.065,277.796,100.333,277.796z M100.333,171.129c25.549,0,46.334,20.785,46.334,46.333
		s-20.785,46.333-46.334,46.333C74.785,263.796,54,243.011,54,217.462S74.785,171.129,100.333,171.129z"/>
	<path style="fill:#FFE045;" d="M84.14,219.349l11.934,10.119c1.306,1.107,2.916,1.661,4.527,1.661c1.578,0,3.157-0.532,4.45-1.597
		l23.066-19c2.984-2.458,3.411-6.869,0.953-9.854c-2.459-2.982-6.868-3.411-9.854-0.952l-18.551,15.28l-7.472-6.335
		c-2.95-2.501-7.365-2.138-9.866,0.812C80.828,212.432,81.191,216.849,84.14,219.349z"/>
</g>
</svg>
