<?xml version="1.0" encoding="utf-8"?>
<!-- Generator: Adobe Illustrator 21.1.0, SVG Export Plug-In . SVG Version: 6.00 Build 0)  -->
<svg version="1.1" id="Layer_1" xmlns="http://www.w3.org/2000/svg" xmlns:xlink="http://www.w3.org/1999/xlink" x="0px" y="0px"
	 viewBox="0 0 512 512" style="enable-background:new 0 0 512 512;" xml:space="preserve">
<style type="text/css">
	.st0{fill:#FFE045;}
</style>
<path class="st0" d="M92,422h156v30H92V422z"/>
<path class="st0" d="M201,60h61v30h-61V60z"/>
<path class="st0" d="M108,75c0,8.3-6.7,15-15,15s-15-6.7-15-15s6.7-15,15-15S108,66.7,108,75z"/>
<path class="st0" d="M168,75c0,8.3-6.7,15-15,15s-15-6.7-15-15s6.7-15,15-15S168,66.7,168,75z"/>
<path class="st0" d="M325,147V40.3C325,18.1,306.9,0,284.7,0H55.3C33.1,0,15,18.1,15,40.3v431.3c0,22.3,18.1,40.3,40.3,40.3h229.3
	c22.3,0,40.3-18.1,40.3-40.3V375h131.8c21.7,0,39.3-17.6,39.3-39.3v-152c0-20.3-16.5-36.8-36.8-36.8H325z M437,177l-127,94.3
	L183,177H437z M295,471.7c0,5.7-4.6,10.3-10.3,10.3H55.3c-5.7,0-10.3-4.6-10.3-10.3V40.3C45,34.6,49.6,30,55.3,30h229.3
	c5.7,0,10.3,4.6,10.3,10.3V147H161c-20.4,0-37,16.6-37,37v150.5c0,22.4,18.1,40.5,40.5,40.5H295V471.7z M447.8,345H172.2
	c-10,0-18.2-8.1-18.2-18.2v-134l156,115.9l156-115.9v134C466,336.9,457.9,345,447.8,345z"/>
</svg>
