<?xml version="1.0" encoding="iso-8859-1"?>
<!-- Generator: Adobe Illustrator 21.1.0, SVG Export Plug-In . SVG Version: 6.00 Build 0)  -->
<svg version="1.1" id="svg4525" xmlns="http://www.w3.org/2000/svg" xmlns:xlink="http://www.w3.org/1999/xlink" x="0px" y="0px"
	 viewBox="0 0 1010.741 666.965" style="enable-background:new 0 0 1010.741 666.965;" xml:space="preserve">
<g>
	<path style="fill:#363636;" d="M231.633,376.889c-0.51-4.274-4.136-7.493-8.44-7.493h-44.122c-3.666,0-6.92,2.351-8.07,5.832
		l-46.071,139.354L79.146,375.242c-1.146-3.488-4.403-5.847-8.075-5.847H24.956c-4.28,0-7.894,3.184-8.433,7.43
		C7.743,446.009,2.185,521.08,0.003,599.952c-0.063,2.295,0.804,4.517,2.404,6.162s3.798,2.573,6.093,2.573h33.912
		c4.639,0,8.421-3.719,8.499-8.357c0.795-47.311,2.432-91.87,4.879-133.033l43.055,135.465c1.121,3.529,4.398,5.926,8.101,5.926
		h28.327c3.697,0,6.971-2.39,8.097-5.911l44.279-138.488c3.64,43.234,5.977,88.833,6.966,136.077
		c0.097,4.624,3.873,8.322,8.498,8.322h37.206c2.293,0,4.488-0.927,6.089-2.568c1.6-1.643,2.468-3.861,2.408-6.153
		C247.062,532.826,241.281,457.772,231.633,376.889z M211.422,591.688c-1.454-59.675-5.058-116.679-10.721-169.569
		c-0.463-4.319-4.108-7.595-8.452-7.595h-0.331c-3.697,0-6.971,2.39-8.097,5.911l-54.755,171.253h-15.903L58.739,420.449
		c-1.121-3.529-4.398-5.926-8.101-5.926h-0.324c-4.436,0-8.126,3.411-8.474,7.834c-3.989,50.726-6.603,107.656-7.776,169.33H17.253
		c2.238-72.319,7.348-141.294,15.208-205.292h32.455l51.748,157.491c1.146,3.488,4.403,5.847,8.075,5.847h0.331
		c3.666,0,6.92-2.351,8.07-5.832l52.072-157.506h30.424c8.65,74.037,14.004,143.008,15.936,205.292H211.422z"/>
	<path style="fill:#363636;" d="M401.672,427.666h-35.235c-4.282,0-7.896,3.187-8.433,7.435
		c-4.663,36.919-12.021,72.069-21.947,104.916c-0.978-3.625-2.087-7.465-3.328-11.523l-29.304-94.83
		c-1.101-3.562-4.394-5.99-8.121-5.99h-36.552c-2.717,0-5.271,1.299-6.87,3.495c-1.6,2.195-2.054,5.024-1.221,7.61l40.828,126.79
		c7.664,23.838,8.809,32.332,8.809,35.273c0,6.573-2.971,12.49-9.026,18.038c-5.025,4.522-11.68,6.721-20.341,6.721
		c-5.286,0-10.084-0.305-14.262-0.905c-2.439-0.356-4.913,0.375-6.776,1.989s-2.934,3.958-2.934,6.424v19.821
		c0,3.45,2.086,6.559,5.278,7.866c10.137,4.151,18.622,6.169,25.94,6.169c25.932,0,49.688-15.751,70.633-46.856
		c25.341-38.093,45.938-99.456,61.221-182.388c0.094-0.508,0.141-1.038,0.141-1.555
		C410.172,431.472,406.367,427.666,401.672,427.666z M334.683,610.652c-17.565,26.086-36.576,39.313-56.505,39.313
		c-3.843,0-8.61-0.976-14.219-2.905v-4.628c2.243,0.112,4.57,0.169,6.972,0.169c12.868,0,23.538-3.729,31.769-11.134
		c9.687-8.876,14.599-19.18,14.599-30.625c0-4.525-0.998-13.645-9.626-40.48l-37.253-115.688h18.615l27.445,88.816
		c7.723,25.249,8.574,36.536,7.93,41.559c-0.55,4.281,2.196,8.295,6.386,9.333c4.184,1.04,8.492-1.227,10.005-5.27
		c15.383-41.081,26.504-86.275,33.092-134.445h17.527C376.788,520.215,357.707,576.042,334.683,610.652z"/>
	<path style="fill:#363636;" d="M896.921,564.324h-61.634V377.896c0-4.694-3.806-8.5-8.5-8.5h-35.552c-4.694,0-8.5,3.806-8.5,8.5
		v222.292c0,4.694,3.806,8.5,8.5,8.5h105.686c4.694,0,8.5-3.806,8.5-8.5v-27.363C905.421,568.13,901.616,564.324,896.921,564.324z
		 M888.421,591.688h-88.686V386.396h18.552v186.429c0,4.694,3.806,8.5,8.5,8.5h61.634V591.688z"/>
	<path style="fill:#363636;" d="M543.593,484.664c-0.229-0.162-0.466-0.313-0.71-0.453c-0.32-0.182-32.193-18.338-47.804-26.812
		c-14.855-8.252-22.388-17.263-22.388-26.784c0-5.66,2.328-10.479,7.155-14.766c4.473-4.021,11.414-6.06,20.631-6.06
		c12.859,0,26.136,2.871,39.46,8.532c4.26,1.811,9.184-0.12,11.079-4.343l8.57-19.095c1.718-3.827,0.387-8.335-3.135-10.615
		c-18.274-11.836-38.767-17.837-60.907-17.837c-22.021,0-40.366,6.312-54.515,18.753c-14.478,12.697-21.818,29.525-21.818,50.017
		c0,23.232,8.624,39.431,28.837,54.162c0.249,0.182,0.508,0.35,0.775,0.503c0.312,0.179,31.407,18.025,46.819,26.489
		c14.436,8.078,21.756,17.004,21.756,26.53c0,7.362-2.972,13.41-8.817,17.965c-6.051,4.694-14.881,7.074-26.244,7.074
		c-12.893,0-27.669-4.126-43.917-12.264c-2.018-1.011-4.351-1.176-6.49-0.466c-2.14,0.712-3.908,2.244-4.917,4.261l-9.555,19.088
		c-1.909,3.813-0.697,8.451,2.834,10.843c21.776,14.748,44.651,22.226,67.991,22.226c25.245,0,45.84-6.798,61.228-20.219
		c15.681-13.747,23.631-31.519,23.631-52.821C573.144,515.481,564.306,499.358,543.593,484.664z M538.323,578.597
		c-12.186,10.628-29.02,16.017-50.038,16.017c-17.694,0-35.222-5.146-52.195-15.308l2.412-4.819
		c15.726,6.932,30.439,10.439,43.837,10.439c15.226,0,27.561-3.58,36.679-10.652c10.063-7.842,15.383-18.695,15.383-31.387
		c0-16.141-10.246-30.058-30.514-41.398c-14.37-7.892-42.472-23.998-46.19-26.131c-15.653-11.51-21.483-22.434-21.483-40.155
		c0-15.598,5.242-27.777,16.036-37.243c11.116-9.774,25.279-14.526,43.297-14.526c16.322,0,31.572,3.828,45.435,11.393l-2.165,4.824
		c-12.861-4.556-25.722-6.859-38.337-6.859c-13.543,0-24.308,3.505-31.957,10.383c-8.393,7.452-12.829,16.941-12.829,27.442
		c0,16.159,10.475,30.171,31.205,41.686c14.617,7.935,43.578,24.409,47.198,26.47c16.064,11.487,22.049,22.313,22.049,39.803
		C556.144,554.992,550.309,568.089,538.323,578.597z"/>
	<path style="fill:#363636;" d="M767.331,597.936l-29.88-14.745c0.668-0.733,1.312-1.472,1.936-2.218
		c18.619-21.873,28.061-54.191,28.061-96.055c0-38.55-7.894-68.154-23.46-87.99c-16.06-20.464-40.162-30.84-71.638-30.84
		c-30.819,0-55.273,10.435-72.671,30.998c-18.607,21.891-28.042,54.103-28.042,95.74c0,40.982,8.428,71.736,25.077,91.439
		c15.684,18.38,39.249,27.7,70.042,27.7c9.948,0,19.315-1.098,27.906-3.266l50.123,29.18c1.31,0.763,2.787,1.154,4.276,1.154
		c0.728,0,1.459-0.094,2.175-0.283c2.181-0.576,4.042-1.997,5.175-3.947l14.508-24.977c1.183-2.036,1.468-4.471,0.788-6.726
		C771.027,600.848,769.443,598.978,767.331,597.936z M745.986,618.907l-45.85-26.691c-1.311-0.764-2.788-1.154-4.276-1.154
		c-0.808,0-1.619,0.115-2.408,0.349c-7.987,2.359-16.969,3.556-26.695,3.556c-25.95,0-44.631-7.109-57.084-21.704
		c-13.958-16.519-21.035-43.581-21.035-80.436c0-37.491,8.073-65.999,24.008-84.745c14.228-16.818,33.758-24.993,59.705-24.993
		c26.354,0,45.413,7.96,58.264,24.335c13.161,16.77,19.834,42.843,19.834,77.495c0,37.713-8.077,66.322-24.054,85.093
		c-2.461,2.942-5.348,5.743-9.084,8.813c-2.231,1.832-3.379,4.672-3.049,7.54s2.094,5.372,4.683,6.649l32.707,16.141
		L745.986,618.907z"/>
	<path style="fill:#363636;" d="M729.918,491.158c0-33.495-4.836-57.581-14.797-73.653c-9.963-15.975-25.57-24.075-46.388-24.075
		c-20.111,0-35.438,8.442-45.554,25.092c-9.415,15.497-13.992,37.543-13.992,67.396c0,33.979,4.836,58.274,14.783,74.276h-0.001
		c9.945,16.001,25.551,24.114,46.379,24.114c0.011,0,0.021,0,0.031,0c20.116,0,35.443-8.504,45.556-25.274
		C725.345,543.43,729.918,521.228,729.918,491.158z M670.377,567.308c-0.009,0-0.017,0-0.024,0
		c-14.767,0-25.216-5.263-31.943-16.089c-0.001,0-0.001,0-0.001,0c-8.109-13.045-12.221-35.016-12.221-65.302
		c0-75.487,32.022-75.487,42.546-75.487c14.764,0,25.219,5.257,31.95,16.051c8.118,13.1,12.234,34.859,12.234,64.678
		C712.918,567.308,680.902,567.308,670.377,567.308z"/>
	<path style="fill:#363636;" d="M706.07,116.043c0.256,0.022,0.511,0.034,0.763,0.034c4.354,0,8.064-3.328,8.457-7.748
		c1.434-16.13-16.362-27.123-18.396-28.323c-4.034-2.378-9.216-1.043-11.611,2.981c-2.395,4.024-1.07,9.235,2.945,11.644
		c4.463,2.678,10.466,8.404,10.129,12.192C697.941,111.5,701.394,115.627,706.07,116.043z"/>
	<path style="fill:#363636;" d="M1009.977,408.726c-15.249-33.548-39.021-56.387-55.001-68.965c8.146-1.37,18.411-2.879,30.29-4.439
		c5.938-0.781,11.026-4.716,13.278-10.269c2.28-5.621,1.396-11.813-2.362-16.565c-27.302-34.503-78.977-56.188-93.45-61.771
		c-5.363-13.864-26.416-64.427-74.679-139.406c-30.436-47.284-68.467-65.084-95.011-71.689c-21.287-5.299-38.668-4.464-46.752-3.577
		C677.502,22.873,653.381,0,631.44,0c-0.049,0-0.101,0-0.15,0.001c-8.506,0.04-15.987,3.499-21.635,10.002
		c-8.754,10.08-14.295,28.504,9.023,59.027c11.141,14.582,19.682,31.784,25.388,51.13c7.028,23.83,17.452,43.037,22.052,50.886
		c-14.499,38.031-14.501,76.121,0.117,105.082c8.399,16.641,20.953,28.486,33.582,31.688c6.226,1.578,12.057,0.329,16.859-3.611
		c6.71-5.506,10.334-16.246,12.249-27.425c13.058,21.392,34.666,44.673,70.367,64.54c0.522,0.291,0.954,0.528,1.286,0.717
		c2.412,1.936,5.799,2.481,8.813,1.126c2.932-1.318,4.883-4.195,5.02-7.407c0.229-5.35-3.698-7.534-6.853-9.29
		c-50.615-28.166-69.904-63.208-77.173-87.646c-1.228-4.125-5.348-6.678-9.586-5.952c-4.242,0.729-7.27,4.515-7.05,8.813
		c1.017,19.903-1.898,44.496-7.859,49.383c-0.407,0.335-0.698,0.577-1.896,0.274c-5.84-1.48-15.259-8.358-22.583-22.869
		c-6.11-12.105-18.145-45.596,2.03-95.012c1.046-2.562,0.776-5.477-0.717-7.806c-0.14-0.218-14.021-22.044-22.354-50.299
		c-6.295-21.346-15.777-40.402-28.183-56.642c-9.035-11.826-18.051-27.941-9.697-37.561c2.475-2.85,5.21-4.129,8.87-4.149
		c0.028,0,0.056,0,0.084,0c13.763,0,35.058,18.211,45.264,29.71c1.99,2.248,5.046,3.276,7.987,2.71
		c0.193-0.037,19.559-3.616,45.017,2.893c33.931,8.671,62.208,30.271,84.046,64.198c54.69,84.965,74.169,139.112,74.357,139.646
		c0.854,2.418,2.759,4.323,5.177,5.181c0.607,0.215,60.789,21.849,89.166,57.207c-18.359,2.42-41.887,5.902-51.089,8.903
		c-3.199,1.043-5.477,3.878-5.816,7.227c-0.34,3.348,1.333,6.584,4.258,8.248c0.426,0.242,42.854,24.802,64.689,72.839
		c1.424,3.133,4.513,4.984,7.743,4.984c1.177,0,2.372-0.245,3.513-0.764C1010.03,418.039,1011.919,413,1009.977,408.726z"/>
</g>
</svg>
