<?xml version="1.0" encoding="iso-8859-1"?>
<!-- Generator: Adobe Illustrator 21.1.0, SVG Export Plug-In . SVG Version: 6.00 Build 0)  -->
<svg version="1.1" id="svg4525" xmlns="http://www.w3.org/2000/svg" xmlns:xlink="http://www.w3.org/1999/xlink" x="0px" y="0px"
	 viewBox="0 0 1675.266 1144.028" style="enable-background:new 0 0 1675.266 1144.028;" xml:space="preserve">
<g>
	<path style="fill:#363636;" d="M934.302,748.864c12.082,3.83,23.734,5.733,34.846,5.732c23.179-0.001,43.985-8.286,61.298-24.635
		c47.644-44.997,82.142-98.738,102.536-159.731c0.173-0.516,0.374-1.018,0.567-1.511c0.98-2.505,2.324-5.937,1.818-10.142
		c-0.443-3.693-2.452-8.866-9.502-12.531c-8.017-4.167-16.099-8.742-23.915-13.167c-3.139-1.776-6.278-3.554-9.426-5.313
		c-3.62-2.901-8.789-8.617-12.545-13.904c-0.131-0.185-0.269-0.365-0.411-0.542c-50.755-62.448-50.714-134.504,0.11-197.693
		c0.037-0.045,0.063-0.095,0.098-0.141c0.043-0.055,0.092-0.103,0.134-0.159c3.224-4.317,5.815-7.072,11.83-11.048
		c0.001-0.001,0.002-0.002,0.004-0.003c15.599-10.299,23.428-15.47,24.235-25.25c0.803-9.727-6.23-16.256-18.998-28.108
		c-8.04-7.462-15.396-14.088-24.007-19.593c-26.569-16.985-53.64-27.408-80.46-30.979c-28.901-3.846-57.58,0.246-85.247,12.165
		c-43.754,18.849-83.57,18.961-129.103,0.36c-33.546-13.704-70.265-14.568-106.187-2.499c-34.11,11.462-64.834,34.199-86.511,64.023
		c-22.104,30.411-35.854,63.27-42.039,100.457c-5.402,32.483-4.843,67.587,1.712,107.318
		c12.716,77.067,44.198,147.101,96.246,214.101c23.236,29.911,43.62,46.419,66.092,53.523c23.448,7.414,49.296,4.867,83.809-8.259
		c2.209-0.841,4.406-1.715,6.603-2.59c3.415-1.36,6.641-2.646,9.911-3.801c30.583-10.797,60.164-10.563,90.438,0.723
		c3.319,1.237,6.628,2.506,9.938,3.773C916.638,742.685,925.386,746.038,934.302,748.864z M852.141,706.104
		c-17.11,0-34.261,3.014-51.331,9.042c-3.662,1.293-7.235,2.716-10.69,4.092c-2.095,0.835-4.189,1.67-6.296,2.471
		c-56.747,21.583-86.152,12.585-125.852-38.519c-49.849-64.169-79.978-131.107-92.109-204.637
		c-12.995-78.769-1.368-139.781,36.593-192.01c40.576-55.826,109.569-78.207,167.77-54.431
		c51.173,20.905,96.001,20.747,145.353-0.515c47.231-20.348,96.381-14.555,146.088,17.221c7.139,4.564,13.748,10.531,21.03,17.291
		c4.202,3.901,8.836,8.203,11.178,10.906c-2.817,2.352-8.333,5.994-13.707,9.542c0,0,0,0,0,0c-0.001,0.001-0.003,0.002-0.004,0.003
		c-8.405,5.556-12.61,10.039-16.973,15.865c-27.962,34.828-42.751,73.604-42.765,112.149c-0.015,38.53,14.727,77.089,42.637,111.531
		c5.24,7.32,12.009,14.6,17.314,18.613c0.387,0.293,0.794,0.559,1.219,0.795c3.345,1.866,6.678,3.753,10.012,5.64
		c7.032,3.981,14.275,8.081,21.612,11.97c-0.051,0.146-0.102,0.295-0.152,0.447c-19.287,57.679-51.936,108.524-97.039,151.122
		c-20.017,18.901-45.378,23.663-75.378,14.152c-8.326-2.64-16.78-5.88-24.956-9.013c-3.369-1.291-6.738-2.582-10.117-3.842
		C887.891,709.4,870.037,706.104,852.141,706.104z"/>
	<path style="fill:#363636;" d="M833.261,199.98c4.693,2.068,10.196,3.074,16.822,3.074c5.284,0,11.494-0.632,18.966-1.93
		c18.937-2.057,37.342-9.207,54.718-21.26c15.519-10.765,29.568-24.961,41.757-42.194c23.346-33.009,36.768-73.351,35.904-107.915
		c-0.203-8.113-2.301-14.574-6.415-19.751C989.889,3.553,982.225,0,973.433,0h0c-3.246,0-6.662,0.458-10.75,1.442
		c-38.581,9.282-68.424,25.537-93.921,51.157c-37.213,37.394-54.04,78.227-51.441,124.833
		C817.875,187.395,823.834,195.825,833.261,199.98z M883.647,67.412c24.113-24.23,51.821-37.824,83.948-45.553
		c2.246-0.54,4.19-0.859,5.838-0.859c4.54,0,6.831,2.418,7.002,9.279c1.515,60.588-48.896,143.438-114.302,150.035
		c-5.753,1.023-11.378,1.739-16.049,1.739c-6.785,0-11.558-1.511-11.796-5.791C835.856,132.644,852.952,98.255,883.647,67.412z"/>
	<path style="fill:#363636;" d="M101.289,886.433c-0.381-0.003-0.766-0.005-1.144-0.005c-29.803,0-54.974,9.725-72.791,28.123
		C9.727,932.754,0.271,958.54,0.006,989.124c-0.269,31.042,8.622,57.386,25.709,76.185c17.415,19.158,42.323,29.536,72.032,30.012
		c0.736,0.012,1.479,0.018,2.208,0.018c29.588,0,54.764-9.591,72.807-27.737c17.961-18.064,27.666-43.46,28.066-73.441
		c0.437-32.841-9.322-60.406-28.221-79.717C154.908,896.359,130.246,886.673,101.289,886.433z M99.956,1077.339
		c-0.634,0-1.28-0.005-1.92-0.015c-50.162-0.803-80.497-34.173-80.03-88.044c0.456-52.747,31.576-84.851,82.14-84.851
		c0.33,0,0.664,0.001,0.995,0.004c51.09,0.422,82.417,34.74,81.689,89.488C182.145,1045.336,150.255,1077.339,99.956,1077.339z"/>
	<path style="fill:#363636;" d="M101.444,931.456c-0.282-0.004-0.557-0.006-0.836-0.006c-29.271,0.003-47.104,22.172-47.326,58.964
		c-0.215,36.095,18.573,59.884,47.232,59.884c0.142,0,0.285,0,0.428-0.002c28.668-0.236,47.052-24.157,46.685-60.747
		C147.269,953.751,129.869,931.863,101.444,931.456z M118.725,1025.096c-4.633,4.718-10.666,7.141-17.931,7.201l-0.28,0.001
		c-7.348,0-13.478-2.419-18.22-7.189c-7.191-7.235-11.103-19.518-11.013-34.588c0.113-18.735,5.293-41.069,29.328-41.071
		c0.197,0,0.385,0.001,0.577,0.004c8.609,0.123,15.08,3.06,19.785,8.978c5.529,6.954,8.522,17.777,8.658,31.298
		C129.784,1005.218,125.911,1017.777,118.725,1025.096z"/>
	<path style="fill:#363636;" d="M361.712,964.84c-15.918-28.186-38.797-34.103-55.188-34.103c-6.989,0-14.245,1.02-21.865,3.087
		c0.033-3.402,0.145-6.66,0.396-9.851c0.629-7.958,0.524-19.557-7.607-28.357c-9.011-9.751-22.232-9.751-26.577-9.751
		c-0.477,0-0.962,0.005-1.458,0.015c-4.53,0.09-18.314,0.363-26.894,11.078c-6.046,7.55-6.763,16.689-6.667,24.634
		c0.496,41.715,0.869,90.954-0.129,139.854c-0.234,11.371,3.017,20.829,9.402,27.347c5.048,5.153,11.738,7.991,18.837,7.991
		c5.609,0,11.301-1.8,16.46-5.206c3.456-2.281,5.953-2.589,7.94-2.589c3.707,0,8.157,1.253,13.31,2.703
		c3.922,1.104,8.367,2.355,13.11,3.178c2.987,0.518,6.034,0.781,9.053,0.781c11.495,0,23.107-3.791,34.512-11.268
		c16.363-10.729,28.271-30.633,32.673-54.608C375.288,1006.537,371.895,982.869,361.712,964.84z M328.479,1069.331
		c-7.617,4.993-15.847,8.322-24.644,8.322c-1.964,0-3.957-0.166-5.977-0.516c-10.021-1.739-19.471-6.146-29.497-6.146
		c-5.696,0-11.579,1.423-17.856,5.567c-2.29,1.511-4.508,2.228-6.544,2.228c-6.044,0-10.462-6.327-10.243-16.971
		c0.955-46.797,0.688-93.629,0.132-140.438c-0.145-12.052,2.089-17.224,15.919-17.498c0.375-0.007,0.741-0.011,1.101-0.011
		c14.131,0,17.264,5.738,16.24,18.691c-0.916,11.596-0.19,23.321-0.19,37.611c15.007-7.659,28.189-11.431,39.603-11.431
		c17.076,0,30.191,8.445,39.514,24.954C363.122,1003.939,354.217,1052.455,328.479,1069.331z"/>
	<path style="fill:#363636;" d="M293.318,975.261c-0.037,0-0.076,0-0.113,0c-22.066,0.055-26.837,17.5-26.621,36.116
		c0.227,19.261,4.365,38.078,27.863,38.316c0.138,0.001,0.271,0.002,0.408,0.002c22.229,0,24.963-18.624,26.33-35.765
		C320.427,994.229,317.089,975.259,293.318,975.261z M299.969,1029.756c-0.602,1.125-1.036,1.938-5.113,1.938l-0.223-0.001
		c-5.59-0.057-6.449-1.59-7.139-2.822c-1.832-3.269-2.811-9.227-2.911-17.707c-0.146-12.619,2.602-16.053,3.154-16.613
		c1.139-1.156,4.235-1.288,5.514-1.291l0.068,0h0.002c5.37,0,6.093,1.336,6.732,2.516c2.393,4.421,2.919,13.381,3.104,17.786
		C302.786,1018.085,302.027,1025.904,299.969,1029.756z"/>
	<path style="fill:#363636;" d="M1674.315,1022.957c-2.439-8.667-9.046-15.228-19.638-19.502c-1.007-0.406-2.16-0.923-3.38-1.469
		c-5.27-2.361-11.828-5.299-19.511-5.299c-8.191,0-22.922,3.422-29.553,26.337c-2.208,7.638-9.934,9.241-16.025,9.241l-0.137,0
		c-7.789-0.032-13.008-3.281-17.45-10.863c-4.22-7.202-4.616-16.633-4.998-25.753c-0.038-0.893-0.075-1.775-0.114-2.643
		c-0.001-1.294-0.005-2.352-0.009-3.255c-0.006-1.561-0.01-2.593,0.01-3.496c0.571-24.584,5.66-31.03,15.475-34.86
		c3.88-1.514,7.38-2.282,10.402-2.282c2.655,0,9.708,0,17.954,13.297c5.835,9.413,14.807,14.598,25.261,14.598
		c8.725,0,16.195-3.658,21.649-6.329c1.345-0.659,2.737-1.34,3.546-1.656c10.093-3.939,13.629-11.232,14.838-15.229
		c3.448-11.397-3.065-20.694-6.564-25.689c-0.456-0.65-1.075-1.535-1.288-1.891c-8.672-16.069-23.081-27.698-42.825-34.559
		c-10.714-3.724-22.044-5.612-33.675-5.612c-29.381,0-56.51,12.224-72.568,32.7c-27.719,35.339-32.521,77.661-13.885,122.39
		c13.562,32.551,41.56,51.731,78.838,54.008c2.775,0.169,5.534,0.255,8.199,0.255c15.823,0,29.967-3.024,42.039-8.987
		c13.82-6.827,24.984-17.462,33.181-31.609c0.27-0.459,1.187-1.694,1.856-2.595
		C1670.15,1046.537,1677.982,1035.987,1674.315,1022.957z M1648.512,1045.776c-13.419,23.159-34.91,31.62-59.646,31.62
		c-2.338,0-4.71-0.076-7.102-0.222c-29.296-1.789-52.021-15.846-63.319-42.964c-15.097-36.234-13.596-72.451,11.433-104.359
		c13.246-16.89,35.626-25.808,58.405-25.808c9.392,0,18.851,1.516,27.766,4.614c14.046,4.881,25.825,12.977,32.917,26.151
		c2.833,5.261,11.965,13.669,2.285,17.447c-5.216,2.036-12.245,6.753-18.649,6.753c-3.682,0-7.158-1.56-9.963-6.084
		c-8.954-14.439-19.958-21.811-33.251-21.811c-5.282,0-10.927,1.165-16.945,3.513c-22.939,8.95-26.426,29.673-26.927,51.232
		c-0.04,1.796-0.005,3.595-0.005,7.568c0.533,11.295,0.483,24.959,7.581,37.074c7.302,12.464,18.024,19.703,32.907,19.765
		c0.071,0,0.14,0,0.211,0c16.069,0,29.08-7.588,33.316-22.238c2.962-10.238,7.326-13.34,12.262-13.34
		c5.082,0,10.769,3.288,16.156,5.461C1666.183,1027.508,1652.719,1038.52,1648.512,1045.776z"/>
	<path style="fill:#363636;" d="M548.987,974.79c-0.178,0-0.358,0.001-0.537,0.004c-12.166,0.196-22.174,7.1-21.738,18.807
		c0.266,7.13,3.346,8.692,7.315,8.692c3.093,0,6.725-0.948,9.985-0.948c1.946,0,3.761,0.338,5.248,1.417
		c1.396-1.039,3.123-1.365,4.988-1.364c3.145,0,6.681,0.928,9.67,0.928c3.991,0,7.011-1.654,6.833-9.377
		C570.483,981.224,560.908,974.789,548.987,974.79z"/>
	<path style="fill:#363636;" d="M555.455,929.762c-2.582-0.24-5.18-0.362-7.721-0.362c-22.379,0-42.375,9.281-56.302,26.133
		c-16.463,19.918-22.629,48.429-16.917,78.221c6.577,34.307,28.246,55.807,61.017,60.54c6.519,0.942,12.391,1.399,17.952,1.399
		c13.894,0,25.723-2.878,36.165-8.799c11.691-6.629,21.365-17.128,28.754-31.206c2.59-4.934,2.748-10.789,0.429-15.856
		c-0.79-1.725-1.836-3.293-3.087-4.66c5.027-4.287,8.088-10.457,9.111-18.384c2.563-19.87-3.718-40.951-17.233-57.838
		C594.248,942.238,575.233,931.599,555.455,929.762z M607.003,1014.484c-1.052,8.151-5.085,8.764-9.818,8.764
		c-0.838,0-1.698-0.019-2.568-0.019c-0.167,0-0.336,0.001-0.505,0.002c-2.203,0.022-4.405,0.031-6.609,0.031
		c-7.693,0-15.389-0.105-23.08-0.105c-7.181,0-14.358,0.091-21.522,0.445c-0.146,0.007-0.295,0.011-0.446,0.011
		c-2.806,0-6.423-1.178-9.575-1.178c-3.482,0-6.396,1.439-7.019,7.496c-0.818,7.944,5.081,12.864,11.509,16.793
		c4.36,2.665,9.384,4.46,13.979,4.46c3.309,0,6.396-0.931,8.851-3.139c5.472-4.919,10.691-6.601,16.108-6.6
		c7.855,0.001,16.123,3.539,26.157,5.879c-12.216,23.276-29.308,30.37-48.98,30.37c-4.973,0-10.114-0.454-15.379-1.214
		c-25.743-3.718-40.918-20.068-45.912-46.114c-8.855-46.191,16.23-82.965,55.542-82.965c1.981,0,4.004,0.094,6.055,0.284
		C585.607,950.641,611.015,983.38,607.003,1014.484z"/>
	<path style="fill:#363636;" d="M1249.565,936.288c-10.29-4.541-21.045-6.843-31.968-6.843c-13.384,0-26.45,3.549-37.783,10.264
		c-11.626,6.888-21.149,16.957-27.541,29.119c-9.707,18.473-12.646,41.802-8.061,64.007c4.784,23.17,17.134,42.104,33.882,51.944
		c12.614,7.411,26.618,11.328,40.499,11.328c27.462,0,52.578-14.717,68.908-40.376c3.081-4.841,3.669-10.861,1.583-16.207
		c-0.671-1.719-1.592-3.302-2.718-4.708c4.41-4.072,7.319-9.936,8.348-17.251C1299.037,986.788,1277.938,948.81,1249.565,936.288z
		 M1276.891,1015.058c-1.023,7.274-4.58,8.259-8.576,8.259c-1.484,0-3.028-0.136-4.526-0.136c-0.127,0-0.255,0.001-0.382,0.003
		c-6.033,0.102-12.067,0.126-18.102,0.126c-5.312,0-10.625-0.019-15.938-0.019c-6.628,0-13.255,0.029-19.881,0.159
		c-0.075,0.001-0.15,0.002-0.226,0.002c-2.051,0-4.453-0.521-6.674-0.521c-2.899,0-5.492,0.887-6.603,4.974
		c-1.493,5.491,1.034,10.378,5.294,14.334c5.672,5.266,12.488,9.024,19.074,9.024c3.534,0,7.001-1.082,10.19-3.593
		c6.182-4.869,12.048-6.546,18.013-6.546c7.494,0,15.144,2.649,23.763,4.942c-13.417,21.083-33.248,32.041-53.723,32.041
		c-10.552,0-21.277-2.911-31.38-8.847c-25.949-15.246-35.376-60.906-19.006-92.059c9.989-19.008,28.965-29.756,49.39-29.756
		c8.162,0,16.558,1.718,24.7,5.311C1263.886,962.284,1280.016,992.798,1276.891,1015.058z"/>
	<path style="fill:#363636;" d="M1218.771,974.8c-0.201,0-0.403,0.002-0.605,0.006c-12.145,0.227-21.62,7.089-21.718,18.966
		c-0.06,7.194,2.9,8.66,6.883,8.66c2.739,0,5.963-0.694,9.021-0.694c2.017,0,3.962,0.302,5.648,1.304
		c1.375-1.612,3.212-2.123,5.253-2.123c3.551,0,7.718,1.549,11.133,1.549c3.312,0,5.918-1.458,6.57-7.197
		C1242.351,983.034,1232.091,974.799,1218.771,974.8z"/>
	<path style="fill:#363636;" d="M764.059,1015.296c-4.456-1.433-8.772-1.712-12.241-1.937c-1.3-0.084-3.244-0.21-3.982-0.372
		c-0.528-0.186-1.054-0.359-1.579-0.517c5.733-0.757,11.065-2.493,15.909-4.07c1.84-0.599,3.579-1.165,5.21-1.636
		c4.678-1.349,8.609-4.536,10.898-8.833s2.739-9.338,1.248-13.973c-5.854-18.199-13.988-31.426-24.869-40.435
		c-11.546-9.559-25.708-14.206-43.297-14.207c-3.012,0-6.185,0.141-9.431,0.419c-17.857,1.53-33.729,8.327-45.898,19.656
		c-12.137,11.298-20.103,26.657-23.039,44.415c-7.172,43.37,9.895,80.638,43.48,94.944c10.51,4.477,22.263,6.844,33.987,6.844
		c24.01,0,46.005-9.701,58.835-25.951c0.311-0.394,0.631-0.795,0.957-1.203c2.811-3.528,6.31-7.918,8.866-13.122
		c5.436-11.069,3.677-20.014,1.243-25.569C778.212,1024.856,773.645,1018.378,764.059,1015.296z M755.164,1058.489
		c-9.766,12.368-26.885,19.106-44.708,19.106c-9.088,0-18.362-1.753-26.934-5.404c-25.746-10.966-38.56-40.467-32.775-75.448
		c4.648-28.118,24.566-46.661,52.715-49.073c2.736-0.234,5.365-0.353,7.894-0.353c26.246,0,41.592,12.805,51.031,42.153
		c-7.406,2.137-14.988,5.389-21.843,5.389c-6.944,0-13.142-3.341-17.646-14.565c-0.818-2.039-4.113-3.668-6.574-4.366
		c-2.942-0.834-5.709-1.244-8.306-1.244c-8.984,0-15.901,4.909-20.774,14.116c-8.977,16.963-4.121,48.825,9.09,57.239
		c4.799,3.055,9.473,4.611,13.987,4.611c6.118,0,11.942-2.86,17.377-8.724c3.604-3.888,3.346-12.764,10.129-12.764
		c1.146,0,2.494,0.254,4.094,0.827c7.428,2.664,18.61-0.632,21.947,6.984C767.074,1044.288,760.136,1052.193,755.164,1058.489z
		 M732.049,1011.835c-5.132,1.235-9.653,4.136-13.073,8.466c-2.738,3.466-4.135,7.016-5.154,9.608
		c-0.093,0.236-0.201,0.51-0.304,0.767c-1.306,1.225-2.5,1.974-3.197,1.974c-0.711,0-2.181-0.453-4.198-1.718
		c-1.162-1.057-3.944-5.961-5.036-14.235c-1-7.572-0.188-15.217,2.066-19.478c2.4-4.535,3.943-4.535,4.864-4.535
		c0.261,0,0.542,0.015,0.839,0.046C715.426,1004.973,724.45,1009.961,732.049,1011.835z"/>
	<path style="fill:#363636;" d="M1129.775,938.737c-8.105-2.834-15.318-4.212-22.052-4.212c-11.103,0-20.901,3.92-28.335,11.337
		c-6.328,6.313-10.875,14.957-13.899,26.428c-0.989,3.75-2.151,7.521-3.426,11.296c-2.826-9.832-6.638-20.109-13.981-28.969
		c-11.385-13.736-27.917-20.444-50.542-20.508c-0.017,0-0.034,0-0.051,0c-5.964,0-11.542,2.954-14.893,7.89
		c-3.36,4.95-4.042,11.246-1.818,16.8c4.641,11.593,9.19,22.838,13.589,33.713c11.244,27.796,21.864,54.051,31.692,80.353
		c8.39,22.45,27.133,22.554,35.137,22.599l0.323,0.002c0.586,0.003,1.167,0.006,1.742,0.006c7.178,0,26.243,0,34.302-21.38
		c10.291-27.31,21-54.934,31.358-81.649c3.916-10.101,7.823-20.179,11.706-30.231c1.756-4.547,1.593-9.612-0.452-14.036
		S1134.376,940.346,1129.775,938.737z M1080.718,1067.744c-3.447,9.145-9.923,9.728-17.458,9.728c-0.647,0-1.303-0.004-1.964-0.008
		c-8.533-0.047-14.582-0.749-18.375-10.9c-13.775-36.863-28.921-73.213-45.432-114.455c60.088,0.17,39.47,56.413,65.955,78.048
		c6.436-17.267,14.587-34.839,19.451-53.278c4.287-16.258,11.987-24.354,24.829-24.354c4.664,0,10.009,1.069,16.111,3.203
		C1109.529,992.771,1094.878,1030.165,1080.718,1067.744z"/>
	<path style="fill:#363636;" d="M452.545,945.224c-6.231-7.232-15.532-10.747-28.434-10.747c-0.461,0-0.926,0.004-1.405,0.013
		c-12.975,0.242-22.246,3.95-28.346,11.336c-8.562,10.367-6.43,22.672-5.157,30.025c0.24,1.388,0.602,3.477,0.618,4.235
		c-0.849,21.659-0.716,43.508-0.587,64.639c0.061,9.974,0.123,20.287,0.08,30.381c-0.004,0.973,0.004,1.952,0.012,2.932
		c0.008,0.973,0.018,2.169,0.001,3.29c-11.067,1.601-19.442,8.354-23.136,18.75c-2.437,6.858-2.187,13.695-2.037,17.78l0.016,0.446
		c0.379,10.652,6.429,19.269,16.183,23.052c5.601,2.172,11.264,2.307,15.399,2.406c0.942,0.022,1.832,0.044,2.496,0.085
		c1.92,0.12,3.819,0.181,5.645,0.181c16.203,0,29.142-4.757,38.458-14.138c9.09-9.154,14.137-22.278,15-39.007
		c0.736-14.237,0.556-28.467,0.381-42.228c-0.056-4.388-0.113-8.888-0.139-13.35c0.405-1.5,0.621-3.077,0.621-4.705
		c0-4.667,0.096-9.3,0.197-14.206c0.241-11.66,0.49-23.717-0.647-35.961c-0.028-0.876,0.336-3.314,0.579-4.933
		C459.464,967.995,461.341,955.433,452.545,945.224z M439.836,982.052c1.496,16.054,0.377,32.353,0.377,48.547
		c-0.211,0-0.424,0-0.636,0c0,19.789,0.818,39.62-0.203,59.356c-1.268,24.574-13.028,36.073-35.481,36.073
		c-1.461,0-2.97-0.049-4.521-0.146c-6.909-0.432-16.888,0.89-17.212-8.216c-0.224-6.321-0.923-17.583,10.649-18.63
		c16.028-1.45,14.461-13.168,14.505-23.854c0.135-31.488-0.738-63.009,0.496-94.449c0.412-10.464-10.105-27.773,15.231-28.246
		c0.365-0.007,0.719-0.01,1.07-0.01C449.927,952.477,438.782,970.769,439.836,982.052z"/>
	<path style="fill:#363636;" d="M869.098,1034.204c-1.982-0.105-3.106-0.491-3.466-0.791c-0.318-0.264-0.831-1.075-1.317-2.558
		c-1.789-5.458-1.501-14.027-1.27-20.912c0.028-0.828,0.055-1.635,0.079-2.417c0.072-2.431-0.033-4.797-0.125-6.884
		c-0.052-1.156-0.118-2.645-0.121-3.909c0.61-0.099,1.373-0.193,2.309-0.26c9.013-0.65,16.518-5.813,20.589-14.168
		c2.897-5.944,3.369-12.265,3.255-16.52c-0.448-16.696-9.187-28.069-21.747-28.299c-0.957-0.017-1.754-0.067-2.409-0.13
		c0.012-1.409,0.088-3.035,0.148-4.309c0.359-7.683,0.852-18.205-5.434-27.624c-3.361-5.037-9-8.01-14.969-8.01
		c-0.661,0-1.325,0.036-1.991,0.11c-27.274,3.03-37.297,22.689-43.929,35.699c-2.984,5.854-5.803,11.382-9.079,13.675
		c-10.322,7.235-10.289,22.325-8.831,29.294c2.054,9.815,8.383,16.897,17.068,19.219c-0.039,0.5-0.081,0.988-0.117,1.417
		c-0.24,2.817-0.512,6.011-0.324,9.495c0.322,6.03,0.261,12.201,0.195,18.734c-0.09,9.014-0.183,18.335,0.766,27.899
		c2.475,24.943,24.04,43.752,50.162,43.752c9.125,0,18.093-2.425,25.932-7.013c12.574-7.359,18.421-21.489,14.895-36
		C886.571,1042.186,878.804,1034.717,869.098,1034.204z M865.381,1074.161c-5.318,3.112-11.131,4.548-16.84,4.548
		c-15.691,0-30.595-10.845-32.25-27.53c-1.504-15.152-0.084-30.573-0.899-45.823c-0.554-10.296,5.734-23.573-12.546-27.255
		c-6.495-1.308-5.22-14.832-2.902-16.457c17.724-12.406,15.661-43.008,44.672-46.23c8.613,12.908-9.866,39.48,22.337,40.07
		c4.242,0.078,7.689,22.262-3.063,23.036c-23.548,1.698-18.427,17.303-18.76,28.469c-0.488,16.351-2.667,43.833,23.018,45.19
		C871.385,1052.35,876.935,1067.4,865.381,1074.161z"/>
	<path style="fill:#363636;" d="M971.924,1000.703c0.042-8.914,0.086-18.131,0.077-27.222c-0.001-1.012,0.044-2.167,0.093-3.39
		c0.263-6.674,0.703-17.845-7.669-26.553c-5.904-6.141-14.194-9.127-25.344-9.127h-0.033c-4.679,0.004-18.876,0.015-28.295,10.116
		c-8.235,8.832-8.649,20.081-7.969,29.92c0.594,8.57,0.45,17.321,0.298,26.586c-0.067,4.125-0.138,8.391-0.138,12.656
		c0.001,5.072,0.09,10.152,0.177,15.065c0.198,11.195,0.384,21.77-0.398,32.16c-0.801,10.629,1.516,18.802,7.081,24.984
		c8.216,9.127,19.64,9.468,27.982,9.718l0.412,0.012c0.716,0.022,1.414,0.032,2.089,0.032c3.821,0,15.449,0,23.834-8.604
		c8.548-8.771,8.235-20.933,8.132-24.93C971.728,1041.755,971.828,1020.885,971.924,1000.703z M940.286,1077.662
		c-0.5,0-1.018-0.008-1.548-0.024c-11.029-0.332-19.196-0.384-18.067-15.37c1.213-16.108,0.274-32.378,0.272-48.577
		c0-13.5,0.728-27.05-0.203-40.485c-0.96-13.878,1.53-20.78,18.307-20.794c0.012,0,0.021,0,0.033,0
		c18.089,0,14.91,10.688,14.921,21.089c0.032,29.699-0.506,59.411,0.258,89.09C954.556,1074.144,950.635,1077.662,940.286,1077.662z
		"/>
	<path style="fill:#363636;" d="M397.402,911.786c5.202,5.227,12.184,7.877,20.752,7.877c1.666,0,3.402-0.089,5.484-0.285
		c1.787,0.108,3.634,0.213,5.59,0.213c3.33,0,13.461,0,21.285-7.891c5.456-5.503,8.18-13.246,8.096-23.014
		c-0.054-6.351-0.868-15.657-7.292-23.077c-5.442-6.285-13.307-9.472-23.378-9.472c-1.189,0-2.458,0.042-3.771,0.125
		c-0.969,0.061-2.039,0.089-3.171,0.119c-6.608,0.174-16.595,0.437-24.393,8.67c-5.477,5.782-7.999,13.583-7.71,23.848
		C389.173,898.827,391.956,906.313,397.402,911.786z M425.299,874.226c0.929-0.058,1.808-0.089,2.639-0.089
		c9.251,0,12.579,3.776,12.671,14.703c0.094,10.958-4.816,12.751-11.382,12.751c-1.878,0-3.892-0.147-5.962-0.268
		c-1.816,0.199-3.527,0.34-5.111,0.34c-6.596,0-10.963-2.441-11.267-13.27C406.446,872.701,415.447,874.847,425.299,874.226z"/>
	<path style="fill:#363636;" d="M942.673,856.077c-1.544,0-3.188,0.085-4.887,0.252c-0.928,0.091-2.194,0.111-3.534,0.133
		c-6.014,0.095-16.079,0.254-23.894,8.353c-5.493,5.692-8.065,13.362-7.866,23.448c0.194,9.797,2.787,17.266,7.928,22.833
		c3.637,3.939,10.296,8.635,21.363,8.635c1.623,0,3.328-0.094,5.183-0.288c0.644,0.013,1.33,0.037,2.042,0.062
		c1.271,0.044,2.585,0.09,3.985,0.09c3.401,0,13.753,0,21.52-7.898c5.37-5.461,8.011-13.091,7.85-22.677
		c-0.104-6.265-0.83-14.352-5.57-21.279C963.152,862.419,956.013,856.077,942.673,856.077z M942.993,901.594
		c-2.208,0-4.576-0.162-6.951-0.163c-1.512,0.187-2.934,0.298-4.259,0.298c-6.857,0-11.08-2.98-11.294-13.825
		c-0.319-16.109,9.76-12.747,19.063-13.663c1.12-0.11,2.158-0.166,3.121-0.166c9.28,0,11.524,5.123,11.691,15.245
		C954.547,900.207,949.461,901.594,942.993,901.594z"/>
	<path style="fill:#363636;" d="M1420.631,1000.822h-46c-6.6,0-12,5.4-12,12v2c0,6.6,5.4,12,12,12h46c6.6,0,12-5.4,12-12v-2
		C1432.631,1006.222,1427.231,1000.822,1420.631,1000.822z"/>
</g>
</svg>
