<?xml version="1.0" encoding="iso-8859-1"?>
<!-- Generator: Adobe Illustrator 21.1.0, SVG Export Plug-In . SVG Version: 6.00 Build 0)  -->
<svg version="1.1" id="Background_2" xmlns="http://www.w3.org/2000/svg" xmlns:xlink="http://www.w3.org/1999/xlink" x="0px"
	 y="0px" viewBox="0 0 236.423 439.92" style="enable-background:new 0 0 236.423 439.92;" xml:space="preserve">
<g>
	<path style="fill:#FFE045;" d="M229.423,425.92h-30.932v-68.587h10.265c3.866,0,7-3.134,7-7v-18.667c0-3.866-3.134-7-7-7h-34.049
		c0.043-0.454,0.073-0.912,0.076-1.377l0.449-60.905c0.007-0.901-0.163-1.76-0.467-2.553c1.297-3.261,2.395-6.502,3.314-9.562
		c4.962-16.532,6.762-33.863,6.345-43.704c-0.58-13.659,0.012-23.868,1.103-31.647c1.417,3.418,2.737,6.686,3.882,9.521
		c1.708,4.227,3.182,7.877,4.405,10.687c2.825,6.491,7.244,7.549,9.82,7.549c0.657,0,1.193-0.069,1.554-0.134
		c12.012-2.17,16.112-28.71,16.367-33.503c0.51-9.572-7.846-29.119-27.938-65.359c-1.985-3.582-3.589-6.944-5.004-9.91
		c-4.316-9.049-8.044-16.865-17.886-19.528c-7.903-2.138-12.146-4.533-12.286-4.614c-2.476-1.451-5.479-1.208-7.663,0.38
		c-1.457,0.024-2.918,0.493-4.159,1.452c-15.632,12.08-32.22,29.889-44.708,50.038c-2.111,0.3-4.584,0.708-7.428,1.181
		c-7.57,1.257-27.681,4.6-31.846,2.401c-6.732-4.252-12.083-8.083-16.382-11.16c-9.972-7.14-16.556-11.856-25.822-11.239
		c-2.463,0.171-5.344-1.802-6.225-3.121c0.531-0.388,1.592-0.977,3.415-1.538c14.053-4.323,23.579,1.268,34.571,9.028
		c6.631,4.68,15.683,6.28,24.843,4.387c9.835-2.032,18.495-7.81,23.167-15.456c5.887-9.633,18.854-14.322,19.012-14.378
		c3.64-1.277,5.563-5.259,4.294-8.905c-1.27-3.651-5.26-5.583-8.911-4.312c-0.723,0.251-17.799,6.317-26.34,20.295
		c-2.649,4.335-8.035,7.801-14.056,9.045c-5.374,1.111-10.457,0.341-13.935-2.114C47.611,86.678,33.567,78.47,13.507,84.643
		c-14.433,4.441-13.83,14.125-13.302,16.988c1.567,8.494,11.635,15.653,21.16,15.02c4.102-0.262,7.861,2.296,16.74,8.653
		c4.446,3.183,9.98,7.145,17.056,11.614c3.21,2.027,7.797,2.822,13.472,2.822c6.835,0,15.258-1.155,24.749-2.693
		c-6.376,13.31-10.629,27.21-11.469,40.856c-2.654,43.127-1.028,117.837-1.012,118.586c0.001,0.035,0.002,0.069,0.003,0.104
		c0.072,1.954,0.722,16.758,3.967,28.074H63.423c-3.866,0-7,3.134-7,7v18.667c0,3.866,3.134,7,7,7h10.265v68.587H42.756
		c-3.866,0-7,3.134-7,7s3.134,7,7,7h186.667c3.866,0,7-3.134,7-7S233.29,425.92,229.423,425.92z M153.259,324.667
		c-0.298-0.064-0.506-0.218-0.646-0.354c-0.187-0.182-0.41-0.498-0.412-0.971l-0.13-35.039c3.344-1.52,6.336-3.701,9.016-6.326
		l-0.304,41.217c-0.005,0.739-0.587,1.333-1.325,1.352l-4.674,0.121H153.259z M154.321,83.22c2.604,1.211,6.86,2.943,12.751,4.537
		c3.35,0.907,4.92,3.684,8.905,12.041c1.502,3.147,3.203,6.715,5.396,10.671c23.245,41.926,26.394,54.226,26.202,57.827
		c-0.248,4.669-1.819,10.639-3.484,15.103c-0.535-1.317-1.104-2.723-1.7-4.201c-8.01-19.83-15.184-36.789-21.875-43.48
		c-2.734-2.733-7.166-2.733-9.9,0c-2.733,2.733-2.733,7.166,0,9.899c1.591,1.591,3.487,4.655,5.497,8.496
		c-3.19,9.098-6.894,24.365-5.677,53.047c0.845,19.893-8.144,62.112-24.769,68.661c-8.89,3.502-26.029,13.542-40.938,41.434
		c-3.011,5.634-4.323,5.746-5.591,5.854c-0.028,0.002-0.056,0.005-0.084,0.007c-2.608-7.163-3.761-19.535-4.088-25.532
		c3.373-5.805,11.35-12.236,19.768-19.017c15.837-12.757,33.786-27.216,36.443-48.36c0.482-3.836-2.236-7.336-6.072-7.818
		c-3.844-0.483-7.338,2.237-7.818,6.072c-1.952,15.535-17.563,28.11-31.335,39.204c-3.965,3.194-7.843,6.32-11.36,9.473
		c-0.079-6.469-0.151-14.213-0.183-22.655c13.653-5.399,26.404-22.373,27.971-24.513c2.284-3.119,1.607-7.5-1.512-9.783
		s-7.499-1.608-9.783,1.512c-3.224,4.403-10.182,12.361-16.684,16.95c0.063-20.515,0.431-42.759,1.484-59.884
		C98.003,144.376,126.733,104.889,154.321,83.22z M117.078,323.854c7.13-13.34,14.678-21.795,21.025-27.117l0.099,26.656
		c0.001,0.429,0.031,0.852,0.067,1.274h-21.648C116.773,324.394,116.925,324.139,117.078,323.854z M70.423,338.667h82.473
		c0.219,0.009,0.435,0.031,0.654,0.031c0.136,0,0.273-0.002,0.41-0.005l0.999-0.026h46.797v4.667H70.423V338.667z M165.733,378.833
		h-57c-3.866,0-7,3.134-7,7v39.436H87.688V358h96.804v67.269h-11.759v-39.436C172.733,381.967,169.599,378.833,165.733,378.833z
		 M115.733,392.833h43v32.436h-43V392.833z"/>
	<path style="fill:#FFE045;" d="M136.9,67.667c14.393,0,25.666-14.861,25.666-33.833S151.292,0,136.9,0
		s-25.667,14.861-25.667,33.833S122.507,67.667,136.9,67.667z M136.9,14c5.518,0,11.666,8.146,11.666,19.833
		s-6.148,19.833-11.666,19.833c-5.519,0-11.667-8.146-11.667-19.833S131.381,14,136.9,14z"/>
	<path style="fill:#FFE045;" d="M108.23,189.335c0.673,0,1.356-0.098,2.033-0.303c48.061-14.564,52.775-73.696,52.952-76.207
		c0.272-3.856-2.633-7.203-6.489-7.475c-3.868-0.272-7.204,2.634-7.476,6.49c-0.037,0.519-4.111,51.995-43.048,63.793
		c-3.699,1.121-5.79,5.029-4.669,8.729C102.45,187.387,105.227,189.335,108.23,189.335z"/>
</g>
</svg>
