<?xml version="1.0" encoding="iso-8859-1"?>
<!-- Generator: Adobe Illustrator 21.1.0, SVG Export Plug-In . SVG Version: 6.00 Build 0)  -->
<svg version="1.1" id="svg4525" xmlns="http://www.w3.org/2000/svg" xmlns:xlink="http://www.w3.org/1999/xlink" x="0px" y="0px"
	 viewBox="0 0 812.847 438.905" style="enable-background:new 0 0 812.847 438.905;" xml:space="preserve">
<g>
	<g>
		<g>
			<path style="fill:#363636;" d="M151.367,333.837c-4.146,0-6.552-1.853-7.843-3.412c-1.88-2.271-2.498-5.133-1.837-8.504
				c3.467-17.698,6.905-35.404,10.343-53.109l3.804-19.582c2.7-13.884,5.403-27.767,8.106-41.649l7.305-37.509
				c1.463-7.483,2.976-15.221,4.371-22.823c1.049-5.713,5.145-9.115,10.963-9.115c0.028,0,0.055,0,0.082,0
				c10.096,0.057,20.431,0.051,31.374,0.045l11.088-0.004c0.045,0,0.09,0,0.136,0.001c3.829,0.062,8.014,0.026,12.446-0.012
				c7.72-0.065,16.467-0.139,25.136,0.314c14.362,0.752,26.138,4.094,36.001,10.218c13.886,8.622,22.31,21.618,24.361,37.584l0,0
				c4.735,36.842-12.984,72.116-45.141,89.864c-9.06,5-19.394,7.933-32.521,9.229c-11.796,1.165-23.585,1.052-34.985,0.941
				c-3.2-0.031-6.476-0.063-9.735-0.064c-1.392,7.352-2.825,14.739-4.218,21.921c-1.108,5.712-2.217,11.425-3.309,17.14
				c-1.006,5.263-4.898,8.525-10.165,8.525c-0.021,0-0.042,0-0.063,0c-12.325-0.06-24.313-0.061-35.626,0.001
				C151.417,333.837,151.391,333.837,151.367,333.837z M168.971,316.792c4.159,0,8.378,0.007,12.645,0.022
				c0.763-3.961,1.531-7.921,2.299-11.88c1.674-8.628,3.404-17.549,5.046-26.321c1.101-5.881,5.209-9.287,11.272-9.344
				c4.856-0.047,9.751,0,14.487,0.046c11.453,0.111,22.27,0.214,33.152-0.86c10.752-1.062,19.006-3.347,25.976-7.194
				c26.009-14.354,40.334-42.936,36.494-72.813l0,0c-1.417-11.03-6.804-19.309-16.467-25.309
				c-7.466-4.636-16.339-7.077-27.922-7.684c-8.153-0.426-16.262-0.357-24.104-0.291c-4.511,0.038-8.775,0.074-12.791,0.011
				l-11.015,0.004c-9.22,0.003-18.012,0.01-26.606-0.023c-1.148,6.106-2.344,12.223-3.508,18.178l-7.303,37.496
				c-2.703,13.881-5.406,27.762-8.105,41.645l-3.803,19.578c-2.897,14.918-5.794,29.835-8.708,44.75
				C162.961,316.795,165.95,316.792,168.971,316.792z M204.886,258.182c-4.078,0-6.466-1.844-7.755-3.398
				c-1.297-1.564-2.679-4.271-1.894-8.281c3.588-18.312,7.152-36.625,10.716-54.939l1.626-8.349c0.539-2.76,1.097-5.614,1.59-8.394
				c0.931-5.235,4.933-8.592,10.25-8.495c3.996,0.057,8.092,0.049,12.052,0.04l4.375-0.006c0.968-0.027,1.906-0.003,2.858-0.007
				c6.712-0.026,13.653-0.051,20.778,1.142c5.667,0.948,10.182,2.423,14.21,4.641c8.262,4.548,12.917,12.255,13.46,22.287
				c0.87,16.063-2.769,30.592-10.815,43.186l0,0c-5.976,9.353-15.087,15.342-27.854,18.312c-6.237,1.451-12.919,2.156-21.03,2.22
				c-3.847,0.031-7.695,0.025-11.541,0.023c-3.643-0.004-7.287-0.008-10.93,0.019C204.95,258.182,204.918,258.182,204.886,258.182z
				 M213.605,241.161c2.087,0.001,4.174,0.005,6.261,0.005c2.484,0,4.968-0.005,7.452-0.024c6.827-0.054,12.329-0.619,17.313-1.778
				c8.343-1.941,13.865-5.407,17.38-10.908c6.178-9.669,8.849-20.5,8.166-33.113c-0.284-5.24-2.652-7.196-4.684-8.314
				c-2.298-1.265-5.1-2.144-8.817-2.767c-5.7-0.954-11.632-0.931-17.909-0.909c-0.974,0.004-1.957,0-2.922,0.007l-4.338,0.006
				c-2.183,0.004-4.404,0.01-6.638,0.003c-0.202,1.044-0.404,2.082-0.604,3.106l-1.624,8.337
				C219.634,210.263,216.626,225.713,213.605,241.161z M269.174,233.032h0.01H269.174z"/>
		</g>
		<g>
			<path style="fill:#363636;" d="M530.838,333.83c-0.017,0-0.032,0-0.049,0c-12.811-0.049-25.397-0.033-36.019-0.012c0,0,0,0,0,0
				c-3.233-0.021-5.846-1.108-7.664-3.313c-1.263-1.532-2.607-4.185-1.835-8.118c4.848-24.686,9.724-49.799,14.439-74.084
				l15.695-80.896c0.434-2.232,0.875-4.462,1.315-6.692c0.899-4.551,1.83-9.257,2.67-13.867c0.979-5.371,4.982-8.703,10.45-8.703
				c0.012,0,0.022,0,0.034,0c20.032,0.046,40.065,0.02,60.1,0.038c1.556,0.003,3.112-0.007,4.667-0.016
				c6.683-0.036,13.589-0.074,20.595,0.672c15.815,1.687,27.694,6.215,37.386,14.252c10.493,8.703,16.765,20.043,18.137,32.796
				c3.879,36.065-8.821,64.935-37.749,85.808c-9.223,6.654-20.336,10.893-33.975,12.958c-10.992,1.664-21.915,1.665-32.477,1.666
				l-2.504,0.001c-1.833,0-3.657,0.004-5.481,0.009c-3.304,0.008-6.683,0.017-10.073-0.003c-1.013,5.251-2.032,10.496-3.051,15.74
				c-1.514,7.794-3.029,15.589-4.521,23.388C539.939,330.624,536.074,333.83,530.838,333.83z M494.753,325.318h0.01H494.753z
				 M512.341,316.798c4.206,0,8.542,0.004,12.935,0.015c1.155-5.999,2.32-11.995,3.485-17.991c1.346-6.929,2.693-13.858,4.023-20.79
				c1.054-5.494,5.146-8.836,10.665-8.762c5.001,0.082,10.127,0.069,15.083,0.057c1.838-0.004,3.676-0.009,5.513-0.009l2.512-0.001
				c10.391,0,20.206-0.001,29.934-1.474c11.054-1.674,19.498-4.831,26.572-9.936c23.944-17.276,34.017-40.24,30.794-70.203
				c-0.902-8.382-4.969-15.625-12.087-21.529c-6.997-5.803-16.001-9.118-28.335-10.433c-6.062-0.646-12.203-0.611-18.7-0.577
				c-1.593,0.009-3.185,0.016-4.777,0.016c-18.274-0.017-36.551,0.004-54.829-0.027c-0.571,2.982-1.158,5.951-1.732,8.857
				c-0.438,2.211-0.875,4.422-1.304,6.635l-15.695,80.896c-4.154,21.396-8.433,43.434-12.708,65.261
				C506.493,316.8,509.386,316.798,512.341,316.798z M560.999,258.164c-1.486,0-2.962-0.001-4.426-0.003
				c-2.725-0.003-5.449-0.006-8.173,0.001c-3.289,0.066-5.836-1.056-7.677-3.263c-1.048-1.256-2.687-3.97-1.892-8.026c0,0,0,0,0,0
				c5.64-28.761,9.958-50.96,14-71.98c1.03-5.359,5.064-8.662,10.604-8.563c3.844,0.054,7.789,0.044,11.604,0.038
				c1.492-0.003,2.974-0.012,4.477-0.006c1.027,0.001,2.043-0.001,3.061-0.004c6.583-0.019,13.388-0.04,20.379,1.108
				c3.48,0.57,6.671,1.392,9.755,2.511c10.76,3.905,17.169,12.339,18.046,23.751c1.105,14.39-1.919,28.209-8.99,41.072
				c-5.991,10.899-15.976,18.011-29.675,21.138c-5.996,1.369-12.225,2.077-19.044,2.164
				C569.033,258.153,564.984,258.164,560.999,258.164z M557.273,241.161c5.12,0.006,10.394,0.008,15.557-0.059
				c5.604-0.071,10.667-0.64,15.478-1.738c9.011-2.057,14.909-6.11,18.561-12.754c5.452-9.917,7.786-20.542,6.938-31.581
				c-0.364-4.738-2.426-7.451-6.895-9.073c-2.084-0.756-4.278-1.318-6.708-1.716c-5.6-0.919-11.419-0.901-17.579-0.884
				c-1.042,0.003-2.082,0.009-3.125,0.004c-1.481,0.003-2.948,0.003-4.428,0.006c-2.156,0.004-4.354,0.008-6.563,0.002
				C565.189,200.61,561.629,218.919,557.273,241.161z"/>
		</g>
		<g>
			<path style="fill:#363636;" d="M371.804,286.362c-0.035,0-0.071,0-0.106,0c-11.271-0.082-22.331-0.06-34.584-0.024
				c-1.277-0.006-5.165,0.016-7.964-3.375c-1.293-1.565-2.665-4.295-1.859-8.409c7.675-39.165,15.314-78.505,22.702-116.549
				c3.497-18.007,7.46-38.416,11.252-58.356c1.077-5.663,5.176-9.014,10.954-8.974c8.662,0.064,17.489,0.057,26.026,0.049
				l10.417-0.005c2.536,0,4.94,1.132,6.555,3.088c1.615,1.956,2.271,4.53,1.792,7.021l-1.035,5.376
				c-0.765,3.978-1.521,7.908-2.285,11.836l-1.019,5.245c-0.951,4.892-1.921,9.889-2.908,14.892
				c2.573-0.003,5.151-0.004,7.757-0.004c6.518,0,13.154,0.015,19.721,0.096c8.813,0.11,20.417,0.758,32.014,4.829
				c10.03,3.521,17.052,8.972,21.467,16.663c3.022,5.265,4.69,11.333,5.099,18.549c0.464,8.19-1.02,15.763-2.454,23.086
				l-0.246,1.258c-2.737,14.042-5.468,28.086-8.2,42.131l-4.188,21.526c-0.23,1.182-0.463,2.361-0.696,3.541
				c-0.54,2.727-1.097,5.545-1.591,8.291c-0.898,4.981-4.746,8.194-9.807,8.194c-0.009,0-0.019,0.003-0.028,0
				c-11.64-0.03-24.046-0.052-36.518,0.017c-4.25,0.008-6.698-2.139-7.754-3.431c-1.848-2.26-2.444-5.04-1.771-8.263l0.024-0.118
				l1.288-6.593c1.837-9.402,3.674-18.804,5.496-28.209l1.504-7.758c2.391-12.328,4.863-25.075,7.219-37.614
				c0.447-2.379,0.5-4.659,0.157-6.775c-0.229-1.416-0.567-1.656-1.553-2.033c-2.577-0.983-5.6-1.458-9.514-1.493
				c-6.18-0.055-12.482-0.056-18.578-0.057c-2.591,0-5.182-0.001-7.772-0.005c-2.528,13.081-5.064,26.164-7.601,39.246
				c-3.494,18.021-6.988,36.042-10.46,54.067C381.666,282.988,377.575,286.362,371.804,286.362z M354.648,269.306
				c4.153,0,8.242,0.007,12.336,0.027c3.17-16.441,6.357-32.88,9.544-49.318c2.893-14.917,5.785-29.834,8.664-44.753
				c0.989-5.109,4.81-8.274,9.977-8.274c0.02,0,0.038,0,0.057,0c4.457,0.021,8.912,0.021,13.367,0.022
				c6.131,0.001,12.472,0.002,18.725,0.058c6,0.053,10.901,0.882,15.426,2.61c6.744,2.574,11.102,7.971,12.271,15.197
				c0.658,4.063,0.581,8.313-0.23,12.632c-2.366,12.589-4.843,25.361-7.238,37.712l-1.503,7.754
				c-1.702,8.784-3.416,17.566-5.132,26.347c7.432-0.017,14.774-0.01,21.88,0.004c0.183-0.932,0.366-1.856,0.546-2.771
				c0.23-1.163,0.46-2.326,0.687-3.49l4.187-21.523c2.732-14.046,5.464-28.093,8.202-42.138l0.249-1.274
				c1.289-6.583,2.507-12.8,2.164-18.856c-0.259-4.578-1.171-8.088-2.87-11.047c-2.361-4.113-6.171-6.915-12.354-9.086
				c-7.229-2.538-15.431-3.731-26.594-3.87c-8.287-0.103-16.742-0.097-24.92-0.093c-3.645,0.001-7.29,0.004-10.933-0.002
				c-4.106,0.207-6.538-1.577-7.866-3.112c-1.111-1.284-2.847-4.072-1.991-8.321c1.591-7.883,3.153-15.922,4.663-23.697l1.021-5.251
				c0.458-2.353,0.912-4.705,1.368-7.069h-0.11c-6.957,0.005-14.107,0.012-21.223-0.021c-3.511,18.4-7.12,36.985-10.335,53.542
				c-6.854,35.297-13.926,71.712-21.042,108.07C348.691,269.31,351.686,269.306,354.648,269.306z"/>
		</g>
	</g>
	<g>
		<path style="fill:#363636;" d="M406.423,438.905c-107.652,0-208.994-22.294-285.355-62.777C42.996,334.74,0,279.098,0,219.453
			S42.996,104.165,121.068,62.777C197.43,22.294,298.771,0,406.423,0s208.994,22.294,285.355,62.777
			c78.072,41.388,121.068,97.03,121.068,156.676S769.851,334.74,691.779,376.128C615.417,416.61,514.076,438.905,406.423,438.905z
			 M406.423,17C301.497,17,202.984,38.591,129.03,77.796C56.787,116.096,17,166.403,17,219.453S56.787,322.81,129.03,361.108
			c73.954,39.205,172.467,60.796,277.393,60.796s203.439-21.591,277.393-60.796c72.244-38.299,112.03-88.606,112.03-141.656
			S756.06,116.096,683.816,77.796C609.863,38.591,511.35,17,406.423,17z"/>
	</g>
</g>
</svg>
