<?xml version="1.0" encoding="iso-8859-1"?>
<!-- Generator: Adobe Illustrator 21.1.0, SVG Export Plug-In . SVG Version: 6.00 Build 0)  -->
<svg version="1.1" id="Background_2" xmlns="http://www.w3.org/2000/svg" xmlns:xlink="http://www.w3.org/1999/xlink" x="0px"
	 y="0px" viewBox="0 0 419.731 259.333" style="enable-background:new 0 0 419.731 259.333;" xml:space="preserve">
<g>
	<path style="fill:#FFE045;" d="M400.731,61.151h-41.064h-25.603c-10.477,0-19,8.523-19,19v133.515v5.151c0,10.477,8.523,19,19,19
		h54.269h12.398c10.477,0,19-8.523,19-19V80.151C419.731,69.675,411.208,61.151,400.731,61.151z M405.731,218.818
		c0,2.757-2.243,5-5,5h-12.398h-54.269c-2.757,0-5-2.243-5-5v-5.151V80.151c0-2.757,2.243-5,5-5h25.603h41.064c2.757,0,5,2.243,5,5
		V218.818z"/>
	<path style="fill:#FFE045;" d="M374.231,87.485h-13.667c-3.866,0-7,3.134-7,7s3.134,7,7,7h13.667c3.866,0,7-3.134,7-7
		S378.098,87.485,374.231,87.485z"/>
	<path style="fill:#FFE045;" d="M105.689,213.667c0,3.866,3.134,7,7,7h45.121c3.058,6.497,9.681,11,17.189,11h45.333
		c7.508,0,14.131-4.503,17.189-11h60.167c3.866,0,7-3.134,7-7s-3.134-7-7-7h-65.407H112.689
		C108.823,206.667,105.689,209.8,105.689,213.667z"/>
	<path style="fill:#FFE045;" d="M376.333,245.333H19c-2.71,0-5-2.29-5-5v-14.667c0-2.71,2.29-5,5-5h16.667h35.522
		c3.866,0,7-3.134,7-7s-3.134-7-7-7H42.667V19c0-2.757,2.243-5,5-5h300c2.757,0,5,2.243,5,5v25.65c0,3.866,3.134,7,7,7s7-3.134,7-7
		V19c0-10.477-8.523-19-19-19h-300c-10.477,0-19,8.523-19,19v187.667H19c-10.477,0-19,8.523-19,19v14.667c0,10.477,8.523,19,19,19
		h357.333c3.866,0,7-3.134,7-7S380.199,245.333,376.333,245.333z"/>
	<path style="fill:#FFE045;" d="M204.5,40.5c3.866,0,7-3.134,7-7s-3.134-7-7-7h-13.667c-3.866,0-7,3.134-7,7s3.134,7,7,7H204.5z"/>
</g>
</svg>
