<?xml version="1.0" encoding="iso-8859-1"?>
<!-- Generator: Adobe Illustrator 21.1.0, SVG Export Plug-In . SVG Version: 6.00 Build 0)  -->
<svg version="1.1" id="Capa_1" xmlns="http://www.w3.org/2000/svg" xmlns:xlink="http://www.w3.org/1999/xlink" x="0px" y="0px"
	 viewBox="-882.958 175.667 512 512.001" style="enable-background:new -882.958 175.667 512 512.001;" xml:space="preserve">
<g>
	<path style="fill:#FFE045;" d="M-638.658,605.525c-2.63,0-5.21,1.07-7.07,2.931c-1.86,1.859-2.93,4.439-2.93,7.069
		c0,2.641,1.07,5.21,2.93,7.07c1.86,1.87,4.44,2.93,7.07,2.93s5.21-1.06,7.07-2.93c1.86-1.86,2.93-4.439,2.93-7.07
		c0-2.63-1.07-5.21-2.93-7.069C-633.448,606.596-636.028,605.525-638.658,605.525z"/>
	<path style="fill:#FFE045;" d="M-583.976,516.205v-73.582c0-3.322-1.65-6.428-4.403-8.287c-2.753-1.859-6.25-2.229-9.333-0.989
		l-172.313,69.397h-55.5c-31.668,0-57.433,25.765-57.433,57.435c0,31.67,25.765,57.435,57.435,57.435h6.609v60.052
		c0,5.522,4.477,10,10,10h40.824c5.523,0,10-4.478,10-10v-55.228l160.383,64.506c1.203,0.484,2.47,0.723,3.73,0.723
		c1.968,0,3.922-0.581,5.6-1.714c2.752-1.859,4.401-4.965,4.401-8.286v-73.581c20.054-4.563,35.072-22.525,35.072-43.94
		C-548.904,538.732-563.922,520.768-583.976,516.205z M-778.09,667.666h-20.824v-50.053h20.824V667.666z M-778.089,597.613h-47.434
		c-20.642,0-37.435-16.793-37.435-37.434c0-20.642,16.793-37.435,37.435-37.435h47.438L-778.089,597.613z M-603.975,662.865h-0.001
		l-154.109-61.983v-81.386l109.427-44.07v99.24c0,5.522,4.477,10,10,10c5.523,0,10-4.478,10-10V467.371l24.683-9.941V662.865z
		 M-583.976,583.13v-45.97c8.861,3.87,15.072,12.714,15.072,22.985S-575.114,579.26-583.976,583.13z"/>
	<path style="fill:#FFE045;" d="M-453.506,550.441h-56.618c-5.523,0-10,4.478-10,10c0,5.522,4.477,10,10,10h56.618
		c5.523,0,10-4.478,10-10C-443.506,554.919-447.983,550.441-453.506,550.441z"/>
	<path style="fill:#FFE045;" d="M-526.54,513.766c2.559,0,5.119-0.977,7.071-2.929l19.53-19.53c3.905-3.905,3.905-10.237,0-14.143
		c-3.905-3.904-10.237-3.904-14.143,0l-19.53,19.53c-3.905,3.905-3.905,10.237,0,14.143
		C-531.658,512.789-529.099,513.766-526.54,513.766z"/>
	<path style="fill:#FFE045;" d="M-519.388,608.458c-3.905-3.904-10.237-3.904-14.143,0c-3.905,3.905-3.905,10.237,0,14.143
		l20.184,20.184c1.953,1.952,4.512,2.929,7.071,2.929s5.119-0.977,7.071-2.929c3.905-3.905,3.905-10.237,0-14.143L-519.388,608.458z
		"/>
	<path style="fill:#FFE045;" d="M-410.958,175.667h-186c-22.056,0-40,17.944-40,40v4h-168c-13.234,0-24,10.767-24,24v158
		c0,13.233,10.766,24,24,24h10.333v30.667c0,4.045,2.437,7.691,6.173,9.239c1.237,0.512,2.536,0.761,3.825,0.761
		c2.602,0,5.16-1.016,7.073-2.929l37.738-37.738h198.638c13.234,0,24-10.767,24-24v-30h106.22c22.056,0,40-17.944,40-40v-116
		C-370.958,193.61-388.902,175.667-410.958,175.667z M-537.178,401.666c0,2.206-1.794,4-4,4h-202.78
		c-2.652,0-5.196,1.054-7.071,2.929l-23.595,23.596v-16.525c0-5.522-4.477-10-10-10h-20.334c-2.206,0-4-1.794-4-4v-158
		c0-2.206,1.794-4,4-4h168v92c0,22.056,17.944,40,40,40h59.78V401.666z M-390.958,331.667c0,11.028-8.972,20-20,20h-186
		c-11.028,0-20-8.972-20-20v-116c0-11.028,8.972-20,20-20h186c11.028,0,20,8.972,20,20V331.667z"/>
	<path style="fill:#FFE045;" d="M-463.783,265.006l-68.44-39.514c-3.094-1.787-6.906-1.787-10,0c-3.094,1.786-5,5.088-5,8.66v79.027
		c0,3.572,1.906,6.874,5,8.66c1.547,0.894,3.273,1.34,5,1.34s3.453-0.446,5-1.34l68.44-39.514c3.094-1.786,5-5.088,5-8.66
		C-458.783,270.094-460.688,266.792-463.783,265.006z M-527.223,295.859v-44.386l38.44,22.193L-527.223,295.859z"/>
	<path style="fill:#FFE045;" d="M-668.447,280.667h-100c-5.523,0-10,4.478-10,10c0,5.522,4.477,10,10,10h100c5.523,0,10-4.478,10-10
		C-658.447,285.144-662.924,280.667-668.447,280.667z"/>
	<path style="fill:#FFE045;" d="M-668.448,336.667c-2.63,0-5.21,1.069-7.07,2.93c-1.86,1.86-2.93,4.44-2.93,7.07
		c0,2.63,1.07,5.21,2.93,7.069c1.86,1.86,4.44,2.931,7.07,2.931c2.64,0,5.21-1.07,7.07-2.931c1.86-1.859,2.93-4.439,2.93-7.069
		c0-2.63-1.07-5.21-2.93-7.07C-663.238,337.735-665.818,336.667-668.448,336.667z"/>
	<path style="fill:#FFE045;" d="M-705.958,336.667h-62.489c-5.523,0-10,4.478-10,10c0,5.522,4.477,10,10,10h62.489
		c5.523,0,10-4.478,10-10C-695.958,341.144-700.435,336.667-705.958,336.667z"/>
</g>
</svg>
