<?xml version="1.0" encoding="iso-8859-1"?>
<!-- Generator: Adobe Illustrator 21.1.0, SVG Export Plug-In . SVG Version: 6.00 Build 0)  -->
<svg version="1.1" id="Layer_1" xmlns="http://www.w3.org/2000/svg" xmlns:xlink="http://www.w3.org/1999/xlink" x="0px" y="0px"
	 viewBox="0 0 937.5 937.5" style="enable-background:new 0 0 937.5 937.5;" xml:space="preserve">
<g>
	<g>
		<path style="fill:#FEE047;" d="M93.75,62.5v156.25H125V62.5c0-17.262,13.988-31.25,31.25-31.25h625
			c17.262,0,31.25,13.988,31.25,31.25h31.25c0-34.516-27.984-62.5-62.5-62.5h-625C121.734,0,93.75,27.984,93.75,62.5L93.75,62.5z
			 M93.75,62.5"/>
		<path style="fill:#FEE047;" d="M62.5,937.5h718.75c34.516,0,62.5-27.984,62.5-62.5v-62.5H812.5V875
			c0,17.262-13.988,31.25-31.25,31.25c-17.262,0-31.25-13.988-31.25-31.25v-46.875c0-8.633-6.992-15.625-15.625-15.625H125V500
			H93.75v312.5H15.625C6.992,812.5,0,819.492,0,828.125V875C0,909.516,27.984,937.5,62.5,937.5L62.5,937.5z M31.25,843.75h687.5V875
			c-0.008,10.98,2.875,21.758,8.395,31.25H62.5c-17.262,0-31.25-13.988-31.25-31.25V843.75z M31.25,843.75"/>
		<path style="fill:#FEE047;" d="M15.625,468.75h312.5c8.633,0,15.625-6.992,15.625-15.625v-187.5
			c0-8.633-6.992-15.625-15.625-15.625h-312.5C6.992,250,0,256.992,0,265.625v187.5C0,461.758,6.992,468.75,15.625,468.75
			L15.625,468.75z M31.25,281.25H312.5V437.5H31.25V281.25z M31.25,281.25"/>
		<path style="fill:#FEE047;" d="M98.328,317.078l-31.25,31.25c-6.098,6.106-6.098,15.988,0,22.094l31.25,31.25l22.094-22.094
			l-20.203-20.203l20.203-20.203L98.328,317.078z M98.328,317.078"/>
		<path style="fill:#FEE047;" d="M245.422,317.078l-22.094,22.094l20.203,20.203l-20.203,20.203l22.094,22.094l31.25-31.25
			c6.098-6.106,6.098-15.988,0-22.094L245.422,317.078z M245.422,317.078"/>
		<path style="fill:#FEE047;" d="M141.414,401.309l31.266-93.762l29.656,9.891l-31.281,93.753L141.414,401.309z M141.414,401.309"/>
		<path style="fill:#FEE047;" d="M921.875,93.75h-531.25c-8.633,0-15.625,6.992-15.625,15.625v312.5
			c0,8.633,6.992,15.625,15.625,15.625h531.25c8.633,0,15.625-6.992,15.625-15.625v-312.5
			C937.5,100.742,930.508,93.75,921.875,93.75L921.875,93.75z M906.25,406.25h-500v-38.031l140.312-84.188L683.355,372.5
			c4.7,3.027,10.665,3.32,15.625,0.75l113.122-58.594l94.148,53.782V406.25z M906.25,332.453l-85.938-49.141
			c-4.601-2.64-10.23-2.746-14.941-0.312l-112.605,58.332L555.422,252.5c-5.008-3.234-11.422-3.34-16.535-0.266L406.25,331.781V125
			h500V332.453z M906.25,332.453"/>
		<path style="fill:#FEE047;" d="M742.188,265.625c30.203,0,54.687-24.484,54.687-54.687c0-30.204-24.484-54.688-54.687-54.688
			c-30.204,0-54.688,24.484-54.688,54.688C687.5,241.141,711.984,265.625,742.188,265.625L742.188,265.625z M742.188,187.5
			c12.945,0,23.437,10.492,23.437,23.438c0,12.945-10.492,23.437-23.437,23.437c-12.946,0-23.438-10.492-23.438-23.437
			C718.75,197.992,729.242,187.5,742.188,187.5L742.188,187.5z M742.188,187.5"/>
		<path style="fill:#FEE047;" d="M156.25,515.625v187.5c0,8.633,6.992,15.625,15.625,15.625H562.5
			c8.633,0,15.625-6.992,15.625-15.625v-187.5c0-8.633-6.992-15.625-15.625-15.625H171.875
			C163.242,500,156.25,506.992,156.25,515.625L156.25,515.625z M187.5,531.25h359.375V687.5H187.5V531.25z M187.5,531.25"/>
		<rect x="218.75" y="562.5" style="fill:#FEE047;" width="62.5" height="31.25"/>
		<rect x="312.5" y="562.5" style="fill:#FEE047;" width="140.625" height="31.25"/>
		<rect x="484.375" y="562.5" style="fill:#FEE047;" width="31.25" height="31.25"/>
		<rect x="218.75" y="625" style="fill:#FEE047;" width="187.5" height="31.25"/>
		<rect x="437.5" y="625" style="fill:#FEE047;" width="78.125" height="31.25"/>
		<rect x="156.25" y="62.5" style="fill:#FEE047;" width="31.25" height="31.25"/>
		<rect x="218.75" y="62.5" style="fill:#FEE047;" width="31.25" height="31.25"/>
		<rect x="281.25" y="62.5" style="fill:#FEE047;" width="31.25" height="31.25"/>
		<rect x="156.25" y="125" style="fill:#FEE047;" width="187.5" height="31.25"/>
		<path style="fill:#FEE047;" d="M921.875,562.5H625c-8.633,0-15.625,6.992-15.625,15.625v187.5c0,8.633,6.992,15.625,15.625,15.625
			h296.875c8.633,0,15.625-6.992,15.625-15.625v-187.5C937.5,569.492,930.508,562.5,921.875,562.5L921.875,562.5z M906.25,750
			H640.625V593.75H906.25V750z M906.25,750"/>
		<rect x="671.875" y="625" style="fill:#FEE047;" width="31.25" height="31.25"/>
		<rect x="671.875" y="687.5" style="fill:#FEE047;" width="31.25" height="31.25"/>
		<rect x="734.375" y="625" style="fill:#FEE047;" width="140.625" height="31.25"/>
		<rect x="734.375" y="687.5" style="fill:#FEE047;" width="140.625" height="31.25"/>
		<rect x="812.5" y="468.75" style="fill:#FEE047;" width="31.25" height="62.5"/>
	</g>
</g>
</svg>
