<?xml version="1.0" encoding="utf-8"?>
<!-- Generator: Adobe Illustrator 21.1.0, SVG Export Plug-In . SVG Version: 6.00 Build 0)  -->
<svg version="1.1" id="speech-bubble" xmlns="http://www.w3.org/2000/svg" xmlns:xlink="http://www.w3.org/1999/xlink" x="0px"
	 y="0px" viewBox="0 0 56.2 47.8" style="enable-background:new 0 0 56.2 47.8;" xml:space="preserve">
<style type="text/css">
	.st0{fill:#FFE045;}
</style>
<g id="Group_2028">
	<path id="Path_3420" class="st0" d="M45.3,25.8V5.2C45.3,2.3,43,0,40.2,0h-35C2.3,0,0,2.3,0,5.2v20.7C0,28.7,2.3,31,5.2,31h1.5v6.2
		c0,1.1,0.9,2.1,2.1,2.1c0,0,0,0,0,0l0,0c0.6,0,1.2-0.3,1.6-0.7l6.6-7.6h23.3C43,31,45.3,28.7,45.3,25.8z M16.2,28.2
		c-0.4,0-0.8,0.2-1.1,0.5l-5.7,6.6v-5.7c0-0.8-0.6-1.4-1.4-1.4c0,0,0,0,0,0H5.2c-1.3,0-2.4-1.1-2.4-2.4V5.2c0-1.3,1.1-2.4,2.4-2.4
		h35c1.3,0,2.4,1.1,2.4,2.4v20.7c0,1.3-1.1,2.4-2.4,2.4H16.2z"/>
	<path id="Path_3421" class="st0" d="M45.9,47.1c0.4,0.5,1,0.7,1.6,0.7c0.3,0,0.5,0,0.7-0.1c0.8-0.3,1.4-1.1,1.4-2v-6.2H51
		c2.9,0,5.2-2.3,5.2-5.2V13.7c0-2.9-2.3-5.2-5.2-5.2c-0.8,0-1.4,0.6-1.4,1.4c0,0.8,0.6,1.4,1.4,1.4c1.3,0,2.4,1.1,2.4,2.4v20.7
		c0,1.3-1.1,2.4-2.4,2.4h-2.9c-0.8,0-1.4,0.6-1.4,1.4c0,0,0,0,0,0v5.7L41,37.2c-0.3-0.3-0.7-0.5-1.1-0.5H18.8
		c-0.8,0-1.4,0.7-1.4,1.5c0,0.8,0.6,1.4,1.4,1.4h20.5L45.9,47.1z"/>
	<circle id="Ellipse_320" class="st0" cx="22.7" cy="16" r="1.7"/>
	<circle id="Ellipse_321" class="st0" cx="28.3" cy="16" r="1.7"/>
	<circle id="Ellipse_322" class="st0" cx="17.1" cy="16" r="1.7"/>
</g>
</svg>
