<?xml version="1.0" encoding="iso-8859-1"?>
<!-- Generator: Adobe Illustrator 21.1.0, SVG Export Plug-In . SVG Version: 6.00 Build 0)  -->
<svg version="1.1" id="svg4525" xmlns="http://www.w3.org/2000/svg" xmlns:xlink="http://www.w3.org/1999/xlink" x="0px" y="0px"
	 viewBox="0 0 706.009 706.009" style="enable-background:new 0 0 706.009 706.009;" xml:space="preserve">
<g>
	<path style="fill:#363636;" d="M144.594,208.547c1.19,0.01,2.354,0.019,3.461,0.019c26.63,0,67.698-3.135,70.813-3.378
		c0.342-0.017,0.608-0.03,0.875-0.03c5.393,0,9.232,3.66,9.556,9.095c0.198,3.445-1.438,9.507-8.832,10.378
		c-0.026,0.003-0.085,0.011-0.11,0.014c-0.076,0.01-8.956,1.062-20.865,1.935c-2.62,0.192-5.004,1.585-6.458,3.771
		c-1.454,2.188-1.814,4.925-0.978,7.414l86.817,258.293c1.163,3.461,4.406,5.792,8.057,5.792c0.003,0,0.007,0,0.011,0
		c3.654-0.005,6.897-2.345,8.053-5.812l50.478-151.413c0.608-1.823,0.58-3.799-0.079-5.604L306.47,232.425
		c-1.147-3.144-4.033-5.321-7.371-5.563c-12.415-0.898-22.975-2.218-23.072-2.229c-0.203-0.027-0.408-0.046-0.613-0.058
		c-5.044-0.286-8.452-4.265-8.29-9.688c0.161-5.599,4.133-9.674,9.462-9.729l0.888,0.026c3.461,0.265,44.905,3.372,70.038,3.372
		c26.85,0,68.326-3.173,70.885-3.374c0.321-0.02,0.564-0.025,0.804-0.025c5.398,0,9.242,3.66,9.565,9.095
		c0.198,3.444-1.441,9.506-8.871,10.38c-1.604,0.185-10.153,1.145-20.965,1.937c-2.613,0.191-4.992,1.578-6.447,3.757
		s-1.824,4.907-1,7.395l81.012,244.42c1.154,3.482,4.408,5.826,8.067,5.826c0.04,0,0.08,0,0.12-0.001
		c3.708-0.052,6.954-2.502,8.021-6.053l22.015-73.259c10.568-33.724,18.203-58.095,18.203-79.655
		c0-32.522-11.388-55.202-22.062-73.907c-0.05-0.087-0.102-0.174-0.154-0.26l-2.971-4.801c-1.38-2.226-2.692-4.308-3.938-6.28
		c-9.717-15.406-14.151-22.438-14.151-39.799c0-20.541,13.059-38.746,31.756-44.273c3.032-0.896,5.316-3.401,5.93-6.504
		c0.613-3.102-0.547-6.287-3.01-8.27C473.12,106.919,413.706,86,353.022,86c-41.874,0-83.646,9.964-120.798,28.815
		c-37.06,18.804-69.707,46.538-94.412,80.202c-1.888,2.573-2.176,5.985-0.746,8.838S141.403,208.52,144.594,208.547z M353.022,103
		c52.128,0,103.255,16.485,145.465,46.668c-18.103,11.132-29.843,31.697-29.843,54.283c0,22.275,6.673,32.854,16.772,48.868
		c1.223,1.938,2.513,3.982,3.863,6.162l2.888,4.666c9.57,16.784,19.752,37.063,19.752,65.351c0,18.97-7.315,42.313-17.441,74.621
		c-0.01,0.032-0.02,0.063-0.029,0.096l-14.284,47.536l-69.148-208.626c5.717-0.527,9.774-0.984,10.885-1.112
		c16.43-1.934,24.543-15.994,23.834-28.254c-0.849-14.311-12.257-25.102-26.536-25.102c-0.577,0-1.165,0.013-1.958,0.064
		c-0.045,0.003-0.102,0.008-0.146,0.011c-0.41,0.034-42.679,3.324-69.584,3.324c-25.172,0-68.484-3.302-68.901-3.335
		c-0.142-0.012-0.284-0.02-0.427-0.023l-1.231-0.037c-0.085-0.003-0.171-0.004-0.256-0.004c-14.716,0-26.136,11.282-26.564,26.231
		c-0.438,14.566,9.865,26.18,24.012,27.14c1.563,0.192,8.928,1.075,18.232,1.858l36.029,98.676l-41.509,124.509l-75.271-223.942
		c5.889-0.544,10.022-1.014,10.872-1.121c16.389-1.953,24.48-16,23.772-28.249c-0.849-14.311-12.253-25.102-26.526-25.102
		c-0.549,0-1.097,0.021-1.837,0.058c-0.089,0.004-0.19,0.011-0.279,0.019c-0.342,0.027-29.855,2.332-55.247,3.092
		C209.586,135.722,279.612,103,353.022,103z"/>
	<path style="fill:#363636;" d="M454.277,596.198l-76.652-209.939c-2.196-6.032-7.985-10.085-14.403-10.085
		c-0.026,0-0.121,0-0.146,0c-6.463,0.06-12.23,4.21-14.353,10.328c-0.003,0.007-0.005,0.014-0.007,0.021l-74.882,217.586
		c-1.345,3.942-1.024,8.319,0.895,12.035c1.927,3.701,5.322,6.493,9.308,7.656c24.441,7.158,49.611,10.787,74.813,10.787
		c30.058,0,59.648-5.055,87.966-15.029c4.401-1.559,7.814-4.971,9.369-9.381c1.536-4.391,1.015-9.18-1.441-13.155
		C454.485,596.608,454.333,596.313,454.277,596.198z M358.849,617.587c-23.007,0-45.996-3.235-68.364-9.619l72.779-211.477
		l75.118,205.739c0.029,0.082,0.061,0.163,0.093,0.244c0.219,0.545,0.483,1.117,0.792,1.71
		C413.354,613.079,386.312,617.587,358.849,617.587z"/>
	<path style="fill:#363636;" d="M125.068,239.43c-2.179-6.001-7.669-10.045-14.029-10.36c-6.294-0.482-12.543,3.328-15.208,9.33
		c-16.19,36.294-24.4,74.847-24.4,114.587c0,108.755,60.81,205.852,158.667,253.385c2.139,1.05,4.533,1.604,6.924,1.604
		c3.902,0,7.652-1.439,10.56-4.052c0.002-0.002,0.004-0.004,0.006-0.005c4.81-4.331,6.478-11.059,4.253-17.132L125.068,239.43z
		 M88.431,352.986c0-36.322,7.3-71.589,21.706-104.885l124.688,341.647C144.443,544.6,88.431,454.16,88.431,352.986z"/>
	<path style="fill:#363636;" d="M353.004,0C158.356,0,0,158.356,0,353.004s158.356,353.005,353.004,353.005
		s353.005-158.357,353.005-353.005S547.651,0,353.004,0z M353.004,689.009C167.73,689.009,17,538.277,17,353.004
		S167.73,17,353.004,17s336.005,150.73,336.005,336.004S538.277,689.009,353.004,689.009z"/>
	<path style="fill:#363636;" d="M600.063,217.882c-3.625-6.6-11.491-9.719-18.78-7.386c-7.212,2.384-11.711,9.573-10.696,17.108
		c1.101,8.08,1.658,16.562,1.658,25.208c0,28.422-6.101,56.911-19.198,89.659c-0.05,0.124-0.097,0.251-0.141,0.378l-81.197,234.728
		c-2.139,6.199-0.174,13.169,4.903,17.354c2.815,2.31,6.372,3.582,10.013,3.582c2.796,0,5.548-0.745,7.958-2.156
		c86.354-50.367,140.004-143.615,140.004-243.352C634.597,305.792,622.659,259.068,600.063,217.882z M488.862,579.99l80.045-231.394
		c13.874-34.742,20.338-65.185,20.338-95.784c0-7.146-0.352-14.202-1.048-21.048c19.254,37.267,29.398,79.041,29.39,121.239
		C617.587,445.62,568.349,532.282,488.862,579.99z"/>
</g>
</svg>
