<?xml version="1.0" encoding="iso-8859-1"?>
<!-- Generator: Adobe Illustrator 21.1.0, SVG Export Plug-In . SVG Version: 6.00 Build 0)  -->
<svg version="1.1" id="Layer_1" xmlns="http://www.w3.org/2000/svg" xmlns:xlink="http://www.w3.org/1999/xlink" x="0px" y="0px"
	 viewBox="-701.377 135.254 482.753 512" style="enable-background:new -701.377 135.254 482.753 512;" xml:space="preserve">
<g>
	<path style="fill:#FFE045;" d="M-438.017,550.486c-2.559,0-5.119-0.977-7.07-2.929l-0.251-0.257
		c-3.82-3.989-3.683-10.318,0.305-14.138c3.979-3.809,10.283-3.684,14.105,0.271c3.887,3.907,3.881,10.224-0.018,14.124
		C-432.899,549.51-435.458,550.486-438.017,550.486z"/>
	<path style="fill:#FFE045;" d="M-417.376,556.79c-4.794,0-9.027-3.458-9.849-8.342c-0.916-5.447,2.757-10.603,8.203-11.519
		c6.823-1.147,11.776-7.015,11.776-13.953c0-7.801-6.348-14.15-14.151-14.149c-6.968,0-12.987,5.184-14,12.059
		c-0.805,5.464-5.888,9.237-11.349,8.435c-5.464-0.805-9.24-5.885-8.435-11.349c2.447-16.614,16.972-29.144,33.783-29.144
		c0.001,0,0,0,0.001,0c18.828,0,34.148,15.318,34.149,34.147c0,16.741-11.969,30.902-28.459,33.674
		C-416.267,556.745-416.826,556.79-417.376,556.79z"/>
	<path style="fill:#FFE045;" d="M-464.015,603.216c-8.27,0-14.999-6.728-14.999-14.999c0-8.27,6.728-14.999,14.999-14.999
		c8.27,0,14.999,6.728,14.999,14.999C-449.016,596.488-455.744,603.216-464.015,603.216z"/>
	<path style="fill:#FFE045;" d="M-517.782,550.384c-8.27,0-14.999-6.728-14.999-14.999c0-8.27,6.728-14.999,14.999-14.999
		c8.27,0,14.999,6.728,14.999,14.999C-502.783,543.656-509.512,550.384-517.782,550.384z"/>
	<path style="fill:#FFE045;" d="M-464.015,349.649c-8.27,0-14.999-6.728-14.999-14.999s6.728-14.999,14.999-14.999
		c8.27,0,14.999,6.728,14.999,14.999S-455.744,349.649-464.015,349.649z"/>
	<path style="fill:#FFE045;" d="M-488.066,443.504c-15.99,0-28.998-13.008-28.998-28.998s13.008-28.998,28.998-28.998
		s28.998,13.008,28.998,28.998S-472.076,443.504-488.066,443.504z M-488.066,405.507c-4.962,0-8.999,4.038-8.999,8.999
		s4.038,8.999,8.999,8.999c4.962,0,8.999-4.038,8.999-8.999S-483.104,405.507-488.066,405.507z"/>
	<path style="fill:#FFE045;" d="M-252.762,351.241c10.51-12.35,16.349-28.017,16.349-44.602c0-38.046-30.952-68.998-68.998-68.998
		c-0.042,0-0.085,0-0.127,0c0.002-0.246,0.003-0.491,0.003-0.736c0-43.627-35.493-79.121-79.121-79.121
		c-7.264,0-14.419,0.983-21.353,2.931c-14.96-16.265-35.774-25.46-58.132-25.46c-28.645,0-54.51,15.208-68.511,39.521
		c-9.714-4.114-20.206-6.257-30.849-6.257c-43.627,0-79.121,35.494-79.121,79.12c0,7.036,0.912,13.931,2.72,20.612
		c-35.352,8.052-61.474,39.737-61.474,77.134c0,29.112,15.577,55.196,40.464,69.048c-3.31,8.448-5.031,17.488-5.031,26.619
		c0,32.502,21.731,61.054,52.46,70.055c7.008,76.24,71.306,136.148,149.343,136.148c81.057,0,147.293-64.634,149.899-145.069h12.061
		c46.074,0,83.558-37.484,83.558-83.558C-218.624,391.603-231.425,366.827-252.762,351.241z M-464.142,627.256
		c-71.676,0-129.989-58.313-129.989-129.989c0-9.574,1.057-18.942,3.035-27.998h219.947c5.523,0,9.999-4.477,9.999-9.999
		c0-5.523-4.477-9.999-9.999-9.999h-213.854c13.97-35.342,43.075-63.543,80.933-75.749c4.13-1.332,6.929-5.174,6.931-9.513V262.722
		h65.995v101.279c-0.002,4.342,2.799,8.188,6.931,9.52c53.869,17.368,90.062,67.096,90.062,123.745
		C-334.152,568.943-392.466,627.256-464.142,627.256z M-302.182,482.186h-12.714c-2.659-26.825-12.415-52.179-28.611-74.063
		c-17.353-23.446-40.626-41.041-67.638-51.215v-94.186h6.999c5.523,0,9.999-4.477,9.999-9.999s-4.477-9.999-9.999-9.999h-119.99
		c-5.523,0-9.999,4.477-9.999,9.999s4.477,9.999,9.999,9.999h6.999v94.187c-27.013,10.173-50.287,27.769-67.638,51.215
		c-17.705,23.922-27.707,51.992-29.162,81.594c-19.041-8.237-32.009-27.27-32.009-48.667c0-9.249,2.433-18.367,7.034-26.368
		c1.449-2.52,1.73-5.545,0.77-8.289c-0.96-2.744-3.067-4.934-5.772-6c-22.759-8.969-37.465-30.563-37.465-55.01
		c0-30.073,22.603-55.188,52.077-58.684c1.403-0.146,5.341-0.08,6.866-0.08c11.411,0,22.471,3.305,31.934,9.411
		c-14.879,17.779-13.978,44.374,2.721,61.074c1.953,1.953,4.512,2.929,7.07,2.929s5.119-0.976,7.07-2.929
		c3.905-3.905,3.905-10.236,0-14.142c-9.865-9.864-9.865-25.915,0-35.78c9.865-9.866,25.916-9.865,35.78,0
		c3.905,3.905,10.236,3.905,14.142,0c3.905-3.905,3.905-10.236,0-14.142c-13.488-13.487-33.429-16.663-49.97-9.551
		c-13.094-10.291-29.091-16.177-45.78-16.803c-2.092-6.116-3.158-12.499-3.158-19.05c0-32.6,26.522-59.122,59.122-59.122
		c10.663,0,21.119,2.877,30.24,8.319c2.502,1.492,5.53,1.82,8.292,0.897c2.763-0.923,4.986-3.005,6.087-5.702
		c9.131-22.34,30.618-36.777,54.742-36.777c14.327,0,27.796,5.076,38.398,14.187c-10.125,6.139-18.89,14.539-25.484,24.714
		c-8.503-1.187-17.156,0.214-24.99,4.152c-4.935,2.48-6.923,8.49-4.444,13.425c2.48,4.935,8.488,6.925,13.425,4.444
		c5.419-2.724,11.573-3.174,17.332-1.268c5.758,1.906,10.429,5.941,13.152,11.36c1.756,3.494,5.282,5.511,8.942,5.511
		c1.509,0,3.042-0.343,4.483-1.067c4.935-2.48,6.923-8.49,4.444-13.425c-3.158-6.282-7.71-11.57-13.272-15.546
		c6.462-8.632,15.124-15.286,24.934-19.34c0.524-0.208,1.457-0.724,1.488-0.736c6.746-2.577,13.838-3.883,21.076-3.883
		c32.6,0,59.122,26.522,59.122,59.122c0,1.266-0.057,2.545-0.142,3.83c-20.901,6.546-37.872,22.973-44.938,44.11
		c-18.384,6.921-31.501,24.683-31.501,45.457c0,5.523,4.477,9.999,9.999,9.999s9.999-4.477,9.999-9.999
		c0-15.749,12.812-28.561,28.561-28.561s28.561,12.812,28.561,28.561c0,5.523,4.477,9.999,9.999,9.999
		c5.523,0,9.999-4.477,9.999-9.999c0-24.741-18.603-45.204-42.554-48.174c7.357-12.676,20.159-21.683,34.857-23.933
		c0.077-0.012,0.154-0.027,0.231-0.039c0.183-0.027,0.369-0.046,0.553-0.071c2.17-0.291,4.346-0.446,6.498-0.446
		c27.019,0,49,21.981,49,49c0,15.104-6.825,29.141-18.726,38.511c-2.682,2.112-4.102,5.446-3.765,8.841
		c0.336,3.397,2.382,6.387,5.426,7.931c21.499,10.909,34.855,32.637,34.855,56.703
		C-238.622,453.673-267.135,482.186-302.182,482.186z"/>
</g>
</svg>
