<?xml version="1.0" encoding="iso-8859-1"?>
<!-- Generator: Adobe Illustrator 21.1.0, SVG Export Plug-In . SVG Version: 6.00 Build 0)  -->
<svg version="1.1" id="svg4525" xmlns="http://www.w3.org/2000/svg" xmlns:xlink="http://www.w3.org/1999/xlink" x="0px" y="0px"
	 viewBox="0 0 972.522 522.504" style="enable-background:new 0 0 972.522 522.504;" xml:space="preserve">
<g>
	<path style="fill:#363636;" d="M927.862,123.408c24.626,0,44.66-20.035,44.66-44.66s-20.034-44.66-44.66-44.66
		c-24.631,0-44.67,20.034-44.67,44.66S903.231,123.408,927.862,123.408z M927.862,51.088c15.252,0,27.66,12.408,27.66,27.66
		c0,15.252-12.408,27.66-27.66,27.66c-15.257,0-27.67-12.408-27.67-27.66C900.192,63.496,912.605,51.088,927.862,51.088z"/>
	<path style="fill:#363636;" d="M822.081,34.088c-24.631,0-44.67,20.034-44.67,44.66s20.039,44.66,44.67,44.66
		s44.67-20.035,44.67-44.66S846.712,34.088,822.081,34.088z M822.081,106.408c-15.257,0-27.67-12.408-27.67-27.66
		c0-15.251,12.413-27.66,27.67-27.66s27.67,12.408,27.67,27.66C849.751,93.999,837.338,106.408,822.081,106.408z"/>
	<path style="fill:#363636;" d="M742.388,136.052c-0.136-0.004-0.274-0.005-0.412-0.001c-27.074,0.57-67.39,19.482-67.937,58.263
		c-0.001,0.04-0.001,0.08-0.001,0.12v155.034c-6.855,0.609-13.111,0.974-17.032,0.974c-10.398,0-21.151,0-21.151-34.618
		l-0.021-123.457c0-0.189-0.007-0.378-0.02-0.567c-2.566-38.275-40.317-55.491-66.303-55.491c-1.063,0-2.146,0.034-3.257,0.103
		c-9.899,0.661-17.654,8.95-17.654,18.869v160.544c0,34.799,9.855,63.495,28.5,82.987c18.745,19.597,46.376,29.956,79.906,29.956
		c4.951,0,11.436-0.581,17.083-1.222c-0.563,2.032-1.594,4.042-3.451,5.808c-0.212,0.202-0.413,0.413-0.603,0.635
		c-0.021,0.023-2.389,2.345-13.243,2.345c-9.674,0-21.055-1.797-32.06-3.536c-7.062-1.116-12.892-2.014-18.294-2.582
		c-0.047-0.005-0.094-0.009-0.142-0.014c-0.649-0.057-1.241-0.085-1.811-0.085c-30.551,0-56.459,23.469-63.004,57.068
		c-1.831,9.369,3.639,18.661,12.729,21.616c18.859,6.113,72.541,11.832,95.594,13.645c0.487,0.038,0.973,0.057,1.479,0.057
		c31.813,0,60.326-12.123,80.286-34.136c19.166-21.137,29.721-50.371,29.721-82.316V154.957c0-5.039-2.065-9.961-5.683-13.521
		C752.108,138.008,747.66,136.197,742.388,136.052z M744.293,406.052c0,58.556-38.246,99.452-93.007,99.452
		c-0.058,0-0.113-0.001-0.158-0.005c-28.769-2.262-76.632-7.993-91.666-12.866c-0.923-0.3-1.479-1.24-1.294-2.192
		c4.97-25.508,24.017-43.323,46.319-43.323c0.082,0,0.164,0.006,0.246,0.013c4.977,0.525,10.565,1.387,17.348,2.459
		c11.653,1.84,23.703,3.744,34.712,3.744c12.551,0,21.013-2.596,25.844-7.934c9.465-9.231,9.19-20.865,9.072-25.861
		c-0.014-0.564-0.031-1.056-0.019-1.456c0.082-2.512-0.951-4.931-2.823-6.608c-1.872-1.676-4.391-2.44-6.877-2.083
		c-10.386,1.487-19.725,2.375-24.983,2.375c-58.944,0-91.406-34.073-91.406-95.943V155.281c0-1.002,0.785-1.84,1.745-1.904
		c0.723-0.045,1.451-0.067,2.166-0.067c19.32,0,47.322,12.214,49.322,39.358l0.021,123.158c0,36.18,11.41,51.616,38.151,51.616
		c7.158,0,18.357-0.941,26.452-1.823c4.313-0.47,7.58-4.112,7.58-8.45V194.497c0.428-27.443,30.619-40.917,51.06-41.446
		c1.134,0.057,1.424,0.341,1.604,0.517c0.381,0.375,0.591,0.868,0.591,1.389V406.052z"/>
	<path style="fill:#363636;" d="M839.31,134.505h-34.449c-14.556,0-26.397,11.842-26.397,26.397v238.027
		c0,14.518,12.089,26.783,26.397,26.783h34.449c14.314,0,26.408-12.265,26.408-26.783V160.902
		C865.719,146.346,853.872,134.505,839.31,134.505z M848.719,398.929c0,5.211-4.396,9.783-9.408,9.783h-34.449
		c-5.006,0-9.397-4.572-9.397-9.783V160.902c0-5.182,4.216-9.397,9.397-9.397h34.449c5.188,0,9.408,4.216,9.408,9.397V398.929z"/>
	<path style="fill:#363636;" d="M944.852,134.505h-34.449c-14.556,0-26.397,11.842-26.397,26.397v238.027
		c0,14.518,12.089,26.783,26.397,26.783h34.449c14.309,0,26.397-12.265,26.397-26.783V160.902
		C971.25,146.346,959.408,134.505,944.852,134.505z M954.25,398.929c0,5.211-4.392,9.783-9.397,9.783h-34.449
		c-5.006,0-9.397-4.572-9.397-9.783V160.902c0-5.182,4.216-9.397,9.397-9.397h34.449c5.182,0,9.397,4.216,9.397,9.397V398.929z"/>
	<path style="fill:#363636;" d="M437.197,23.924C416.661,4.744,394.377,0.329,393.438,0.15c-0.556-0.105-1.124-0.157-1.685-0.149
		c-0.633,0.007-15.716,0.262-34.114,7.863c-16.993,7.021-40.292,21.902-54.792,52.925c-13.449,28.773-14.49,62.88-2.855,93.575
		c5.395,14.232,11.472,27.337,18.58,40.063c27.353,48.978,32.215,123.607,32.261,124.355c0.195,3.186,2.158,5.995,5.084,7.271
		c1.092,0.477,2.249,0.71,3.399,0.71c1.932,0,3.843-0.658,5.391-1.927c0.944-0.774,23.402-19.334,47.66-51.901
		c22.442-30.129,50.625-78.415,57.439-137.347C476.811,75.01,455.94,41.428,437.197,23.924z M452.92,133.636
		c-6.36,54.998-32.819,100.374-53.896,128.755c-12.357,16.641-24.371,29.563-32.889,37.996
		c-3.122-26.123-11.557-76.353-32.721-114.249c-6.696-11.99-12.429-24.354-17.525-37.799c-10.017-26.426-9.157-55.713,2.359-80.352
		c21.75-46.533,65.898-50.604,72.836-50.956C399.74,19.063,464.038,37.479,452.92,133.636z"/>
	<path style="fill:#363636;" d="M323.951,243.428c-13.812-47.137-41.387-111.587-94.324-150.948
		c-52.955-39.373-110.428-47.064-149.318-46.54C38.268,46.482,8.913,56.217,7.684,56.631c-2.965,0.999-5.142,3.546-5.666,6.631
		c-0.179,1.052-4.33,26.105-0.183,56.461c5.618,41.119,23.929,72.126,52.955,89.669c65.852,39.801,165.829,62.618,170.053,63.569
		c0.108,0.024,0.218,0.047,0.327,0.067c0.546,0.101,55.183,10.757,101.048,69.433c1.646,2.105,4.136,3.266,6.699,3.266
		c1.004,0,2.019-0.178,2.998-0.547c3.479-1.313,5.701-4.733,5.486-8.445C341.302,335.016,338.79,294.072,323.951,243.428z
		 M228.451,256.347C224.27,255.389,126,232.567,63.584,194.843c-24.724-14.943-39.812-40.845-44.845-76.986
		c-2.805-20.14-1.552-38.094-0.63-46.577c9.8-2.657,33.187-8.03,63.005-8.348c36.113-0.393,89.42,6.795,138.369,43.19
		c49.062,36.479,74.959,97.202,88.045,141.718c7.223,24.569,11.45,47.062,13.87,63.4
		C277.406,266.646,232.391,257.11,228.451,256.347z"/>
	<path style="fill:#363636;" d="M314.677,350.924c-39.397-48.318-83.333-60.387-85.184-60.877c-3.21-0.851-6.618,0.247-8.731,2.806
		c-125.06,151.513-79.827,220.709-77.84,223.581c1.601,2.313,4.224,3.664,6.989,3.664c0.39,0,0.784-0.027,1.177-0.082
		c37.75-5.271,69.965-17.088,95.75-35.122c20.828-14.567,37.478-33.154,49.488-55.246c20.413-37.549,20.28-71.997,20.265-73.444
		C316.568,354.278,315.894,352.416,314.677,350.924z M281.024,422.195c-23.928,43.479-66.382,70.399-126.232,80.072
		c-2.612-6.698-6.302-20.821-3.365-42.917c3.95-29.713,20.891-79.855,78.746-151.155c11.668,4.405,41.608,18.143,69.32,51.047
		C299.029,367.811,296.36,394.33,281.024,422.195z"/>
</g>
</svg>
